<svg width="552" height="106" viewBox="0 0 552 106" fill="none" xmlns="http://www.w3.org/2000/svg">
<path fill-rule="evenodd" clip-rule="evenodd" d="M237.499 30.0901C236.869 30.6339 233.195 30.9371 229.337 30.7647L222.322 30.4517L222.957 66.3204C223.306 86.0482 223.908 102.972 224.296 103.928C224.684 104.885 227.569 105.666 230.708 105.666H236.414V92.6005V79.5362L241.945 81.3815C242.33 79.1299 242.526 82.2856 243.272 81.3815C243.912 80.6054 244.891 79.9712 245.446 79.9712C247.296 79.9712 249.555 71.8597 250.006 65.1099C250.453 58.4102 250.159 45.5941 249.432 44.3381C249.195 43.9278 249 42.5314 249 41.2351C249 39.103 247.885 35.0556 245.072 30.0902C243.911 28.0415 239.278 28.5602 237.499 30.0901ZM234.511 48.6232C234.739 43.6565 235.556 42.0139 238.434 40.7524C246.466 37.2307 245.749 40.0654 245.789 46.8194C245.796 48.1226 246.124 50.7875 246.518 52.7416C247.037 55.3189 246.996 59.9902 246.518 62.2503C246.155 63.9639 245.706 66.4424 245.521 67.7567C245.336 69.0725 244.151 71.1253 242.887 72.3201C240.855 74.2409 240.6 71.7266 240.6 71.7266C236.822 70.1522 235.621 68.6501 235.282 65.0783C235.041 62.54 234.703 59.2117 234.532 57.6818C234.362 56.1519 234.353 52.0753 234.511 48.6232Z" fill="white"/>
<path fill-rule="evenodd" clip-rule="evenodd" d="M160.19 3.1617C160.049 5.27371 159.45 6.48359 158.381 6.80538C157.503 7.06956 137.114 7.13138 136.362 8.18107C135.612 9.23075 134.754 10.0879 134.458 10.0837C133.381 10.0725 129.584 22.2935 129.175 27.0894C128.296 37.3783 128.251 65.6537 129.11 67.8402C129.566 68.9995 130.039 71.4164 130.163 73.2094C130.294 75.1093 131.213 77.3997 132.363 78.6911C133.45 79.9122 134.783 81.4509 135.326 82.1128C135.87 82.7746 155.775 84.7377 156.27 85.2365C157.499 86.4759 164.218 79.2616 164.663 76.2236C164.86 74.876 165.415 72.1921 165.896 70.2599C166.929 66.1104 166.653 51.0452 165.404 43.4642C164.163 35.9323 160.399 29.5092 157.226 29.5092C155.807 29.5092 135.239 29.2436 134.811 30.157C133.565 32.8156 133.026 30.1851 134.233 27.3381C134.835 25.9203 136.691 16.7511 136.691 15.5033C136.691 12.5032 156.889 16.868 158.974 16.8413C160.969 16.8174 163.8 13.9073 163.739 11.9442C163.715 11.1713 164.145 9.47807 164.695 8.18107C166.339 4.30412 165.245 0 162.615 0C160.82 0 160.361 0.598615 160.19 3.1617ZM133.707 45.4498C133.508 44.7612 134.161 42.881 135.159 41.2721C136.372 39.3146 133.184 39.6294 139.316 40.1704C144.355 40.6159 148.481 41.0852 148.485 41.2159C148.489 41.3466 150.729 42.9738 153.462 44.8329C156.27 50.7382 163.052 70.6998 146.02 74.3673C137.633 76.173 137.962 75.0601 136.171 72.3382C134.576 69.9157 134.036 67.673 133.41 60.883C132.843 54.7297 132.827 51.6635 133.351 49.5726C133.747 47.9946 133.907 46.1397 133.707 45.4498Z" fill="white"/>
<path fill-rule="evenodd" clip-rule="evenodd" d="M109.046 25.7045C108.88 26.0537 108.426 26.404 102.742 26.4831L92.4092 26.6263L92.5005 33.6095C92.5524 37.4502 92.7476 43.4732 92.9357 46.9939C93.1237 50.5146 93.0664 56.5376 92.8085 60.3783L92.3393 67.3615H85.776C82.1657 67.3615 78.559 67.7852 77.7621 68.3019C76.9634 68.8199 76.222 72.8364 76.1145 77.2288C75.9372 84.4366 76.3187 85.3526 80.0382 86.6468C86.1395 88.7697 89.6531 86.3616 89.6531 80.057V74.9977L108.718 75.2537L115.922 75.5086L115.801 80.4329C115.718 83.8085 115.671 85.1563 116.123 85.9091C116.439 86.4349 116.998 86.6706 117.959 87.1042L119.755 87.9142L119.842 82.2928C119.889 79.2015 119.972 75.1012 120.025 73.1809C120.146 68.8024 119.353 66.5224 118.019 67.4139C117.454 67.791 116.966 67.6723 116.934 67.1486C116.822 65.3143 116.385 37.0592 116.405 33.0275C116.416 30.7871 116.242 28.3779 116.017 27.6738C115.586 26.3225 109.561 24.6198 109.046 25.7045ZM103.212 51.0465C101.984 42.0964 103.599 34.4672 106.809 34.0948C110.002 33.7212 108.123 33.4151 109.505 33.4151C110.408 33.4151 111.001 33.2852 111.394 33.6198C112.241 34.3399 112.165 37.2112 112.285 48.1578C112.345 53.5988 112.557 59.6218 112.757 61.5422C113.308 66.8436 112.581 68.2112 109.467 67.734H102.742L103.212 51.0465Z" fill="white"/>
<path d="M16.4111 30.8858C19.9416 30.7928 26.0524 29.6592 26.3434 29.0416C26.7814 28.1139 31.3201 29.5166 31.9794 30.7841C32.2505 31.305 32.1855 32.8677 31.8348 34.2555C31.4841 35.6433 31.3225 37.5174 31.4753 38.4202C31.6281 39.3219 31.8442 47.7282 31.9548 57.1007C32.0661 66.4719 32.3354 74.5186 32.5532 74.98C33.367 76.7051 32.9097 81.5656 31.8172 82.8046C28.6948 86.3442 27.8575 82.5355 27.7375 64.2445C27.6906 57.0821 27.5009 48.3682 27.3159 44.8794L26.9799 38.5381L23.9329 38.7638C22.2573 38.8878 19.6349 39.3579 18.3903 39.8068C16.5553 40.4691 13.4597 57.1007 15.2692 57.1007C15.539 57.1007 16.0848 61.5656 16.482 67.0226C16.8813 72.4796 17.786 78.1165 18.4954 79.5502C21.0504 84.7096 10.9971 87.4456 4.25173 83.5066C1.79442 82.0716 1.32505 79.0876 2.04079 69.4534C2.5399 62.7252 2.1215 55.9162 1.11054 54.3213C0.101704 52.7264 -0.0151138 49.152 0.853546 46.3788C1.76044 43.4816 1.5353 40.3538 0.322576 39.0317C-2.59136 35.8517 15.1622 30.9193 16.4111 30.8858Z" fill="white"/>
<path fill-rule="evenodd" clip-rule="evenodd" d="M399.725 31.4651C398.166 32.5944 397.563 34.0332 396.953 38.0788C396.524 40.9225 396.339 43.5292 396.542 43.8728C397.477 45.4522 400.099 44.2651 401.04 41.8364C401.607 40.3737 423.734 36.844 424.703 36.0979C426.239 34.9142 426.67 35.0684 428.078 37.3043C429.303 39.25 429.644 40.834 429.493 43.8727C429.306 47.6394 430.472 47.9137 423.691 48.5045C416.653 49.1168 406.244 53.3313 400.111 58.0526C395.945 61.2591 395.909 72.2903 400.053 75.4685C404.485 78.8666 421.708 80.7125 428.284 78.4936C430.983 77.582 430.334 76.1885 430.523 75.3959C430.792 74.2734 431.014 74.3108 431.532 75.5648C432.371 77.599 435.708 77.9176 436.142 76.0048C436.321 75.2134 435.984 71.8776 435.392 68.5917C434.623 64.3205 434.38 59.3837 434.542 51.2779C434.753 40.7229 434.649 39.6106 433.037 35.1818C432.085 32.566 430.551 29.9162 429.629 29.2949C427.362 27.7664 402.155 29.7031 399.725 31.4651ZM420.261 57.514C422.532 57.514 425.365 56.7487 426.555 55.8133C430.761 52.507 429.794 54.0218 429.497 60.9598C429.129 69.5781 426.593 72.6554 418.089 71.5465C411.447 70.6791 408.061 66.663 410.976 63.1096C411.964 61.9031 413.53 60.9156 414.451 60.9156C415.374 60.9156 416.128 60.1502 416.128 59.2148C416.128 58.1796 417.746 57.514 420.261 57.514Z" fill="white"/>
<path fill-rule="evenodd" clip-rule="evenodd" d="M450.884 29.3243C450.625 29.8676 449.115 30.1705 447.528 29.9982L444.643 29.6856L444.904 65.5165C445.048 85.2235 445.296 102.13 445.455 103.084C445.615 104.04 446.801 104.821 448.092 104.821H450.438V91.769V78.7184L453.123 79.9786L454.604 80.7397C454.604 80.7397 460.189 78.5698 463.454 78.5698C474.337 78.5698 487.732 70.4669 488.335 63.7242C488.932 57.0316 488.465 47.0613 487.494 45.8067C487.177 45.3968 486.917 44.0019 486.917 42.707C486.917 40.5771 477.476 36.5339 460.926 31.5738C454.096 29.5273 451.616 27.796 450.884 29.3243ZM449.655 47.8379C449.749 42.8764 450.085 41.2355 451.269 39.9754C454.571 36.4574 464.911 41.5385 465.142 48.2854C465.186 49.5872 467.117 52.2493 469.431 54.2014C472.483 56.7759 472.573 58.6099 469.76 60.8677C467.626 62.5794 464.987 65.0553 463.899 66.3682C462.81 67.6826 453.276 70.5205 453.276 70.5205L452.159 70.917C452.159 70.917 450.112 67.8437 449.972 64.2757C449.873 61.7401 449.734 58.4153 449.664 56.887C449.594 55.3587 449.59 51.2864 449.655 47.8379Z" fill="white"/>
<path d="M356.503 33.9162C360.006 33.8321 381.989 32.1069 382.278 31.5487C382.712 30.7102 387.216 31.978 387.871 33.1237C388.14 33.5945 388.075 35.0069 387.727 36.2612C387.379 37.5156 387.219 39.2094 387.37 40.0255C387.522 40.8404 387.736 48.4383 387.846 56.9095C387.957 65.3796 388.224 72.6524 388.44 73.0694C389.248 74.6287 388.794 79.0217 387.71 80.1416C384.611 83.3408 383.78 79.8984 383.661 63.3663C383.615 56.8927 383.427 49.0168 383.243 45.8635L382.909 40.132L379.886 40.336C378.223 40.4481 376.584 40.8729 376.244 41.2787C375.742 41.8773 375.573 56.08 376.068 56.08C376.142 56.08 376.291 60.1155 376.4 65.0478C376.509 69.98 376.757 75.0748 376.951 76.3707C377.65 81.0339 358.302 85.0369 356.457 81.4767C355.785 80.1797 355.656 77.4827 355.852 68.775C355.989 62.6937 355.874 56.5396 355.598 55.098C355.322 53.6564 355.29 50.4258 355.527 47.9193C355.775 45.3008 355.714 42.4737 355.382 41.2787C354.585 38.4045 355.263 33.9464 356.503 33.9162Z" fill="white"/>
<path d="M536.671 31.8324C553.145 37.3814 552.14 40.7488 551.901 46.9307C551.857 48.9716 551.812 51.0124 551.766 53.1152C551.65 55.271 551.532 57.4268 551.414 59.5826C551.344 61.7567 551.281 63.9307 551.224 66.1048C551.06 71.4283 550.832 76.7515 550.546 82.0748C515.857 83.2432 534.566 83.2432 532.461 80.9064C532.21 76.1548 532.21 76.1548 532.23 69.9843C532.232 68.9012 532.233 67.818 532.234 66.702C532.239 64.4105 532.249 62.119 532.263 59.8276C532.285 56.3067 532.292 52.7864 532.296 49.2653C532.351 30.3938 493.958 30.3938 536.671 31.8324Z" fill="white"/>
<path d="M497.734 32.1226C499.24 32.1226 500.747 32.1226 502.299 32.1226C501.868 38.2872 501.438 44.4519 500.995 50.8034C503.254 50.2595 513.662 50.6501 515.967 50.0952C520.209 52.569 521.458 56.0144 522.407 63.213C522.539 70.3973 520.553 75.9405 517.231 80.5202C513.784 83.1156 499.657 84.0981 496.43 80.473C496.197 77.2671 496.197 77.2671 496.216 73.2016C496.219 71.7411 496.222 70.2807 496.226 68.776C496.239 67.2419 496.253 65.7078 496.266 64.1273C496.27 62.6017 496.273 61.0761 496.277 59.5043C496.329 48.1864 496.329 48.1864 497.082 43.1113C496.866 41.2982 496.651 39.485 496.43 37.6169C496.86 35.8038 497.29 33.9906 497.734 32.1226ZM500.995 57.3967C500.906 63.6383 500.919 68.8478 501.647 74.9786C505.061 73.2298 515.469 73.6204 517.272 68.776C517.6 64.352 517.693 62.0734 516.13 58.4054C514.602 56.6165 502.565 54.7498 500.995 57.3967Z" fill="white"/>
<path d="M260.727 33.7607C260.348 29.6376 256.98 29.6376 256.98 27.0505V37.9647V50.1977V82.6724C256.98 83.1122 258.348 83.539 260.348 83.9659L261.695 77.4982C262.369 74.9112 277.189 51.7465 277.862 49.1594C277.64 50.44 278.715 60.3368 278.485 61.6562L278.452 66.7838C278.393 73.6232 279.883 85.3783 279.883 85.3783L300.092 83.8749C300.092 80.936 299.953 77.9928 299.377 75.0628C298.073 69.2077 296.861 63.3942 296.724 57.5142C296.816 53.7971 296.826 50.0798 296.826 46.3625L283.251 28.4629H278.536C277.621 32.3289 276.725 36.2118 275.842 40.1047C275.422 42.7101 274.982 45.3049 274.494 47.8659C272.473 50.4529 267.758 59.1831 267.758 59.1831C265.064 60.5955 260.908 69.0414 260.727 70.4821C260.719 69.4049 260.332 58.5597 260.325 57.5142L260.306 53.3254C260.291 50.6036 260.304 47.8806 260.348 45.16C261.022 38.6923 261.022 38.6923 260.727 33.7607Z" fill="white"/>
<path d="M207.15 35.6596C208.345 42.8895 208.754 48.7516 207.814 56.1551C205.937 59.778 204.498 59.2362 201.881 59.5176C201.053 59.6134 184.459 59.7091 183.606 59.8078C182.216 59.929 180.825 59.9979 179.433 59.9979C179.219 65.9166 178.763 74.8447 180.761 79.4718C182.803 81.2137 199.234 79.5842 201.176 80.4042C201.176 79.5588 201.176 74.9597 201.176 74.0886C201.833 73.2432 202.49 72.3977 203.167 71.5267C203.386 70.2585 203.605 68.9904 203.831 67.6838C205.365 68.1065 206.898 68.5292 208.478 68.9647C209.52 74.9936 207.839 77.1394 205.823 81.7744C201.49 87.1732 182.597 85.9469 178.106 81.7744C173.649 76.0417 173.705 68.4425 173.458 58.717C173.404 57.4224 173.349 56.1278 173.292 54.794C173.708 45.3678 174.924 37.8702 178.77 31.8167C178.989 31.394 179.208 30.9713 179.433 30.5357C184.17 29.0126 203.704 28.4713 207.15 35.6596ZM180.761 40.7835C179.471 45.9227 179.471 45.9227 178.77 51.0312C181.872 52.5279 192.384 51.8352 195.533 51.0312C195.313 47.2267 195.758 42.3644 195.533 38.4447C192.926 36.7684 183.187 38.3452 180.761 40.7835Z" fill="white"/>
<path d="M63.7249 28.4218C64.8133 29.2825 65.9017 30.1431 67.0232 31.0299C67.2408 32.3209 66.5746 33.6119 67.0232 34.942C68.3293 35.8027 68.9889 36.6633 69.6618 37.5501C71.3995 47.6839 71.2669 58.3851 70.3214 68.847C69.6684 70.138 69.6882 71.429 68.3425 72.7591C67.8255 73.8618 67.3085 74.9646 66.7758 76.1007C61.7114 82.8326 61.4369 81.9599 44.0177 81.9599C40.9667 80.0854 40.9667 80.0854 39.6474 73.5652C38.9944 71.8439 38.3413 70.1225 37.6685 68.349C37.3945 64.4503 37.1742 60.5353 37.0088 56.6127C36.7911 54.8914 36.5734 53.17 36.3492 51.3965C38.8756 30.3089 38.8756 30.3089 43.9764 25.8863C46.6782 25.2065 61.7502 24.5181 63.7249 28.4218ZM44.265 34.942C42.9822 45.0859 41.9772 61.4739 44.265 70.9571C46.5992 73.164 51.9019 72.3579 56.4687 72.7591C64.7291 64.5943 58.5479 46.7482 56.4687 36.087C49.4552 28.4012 47.2579 26.2646 44.265 34.942Z" fill="white"/>
</svg>
