<svg width="688" height="99" viewBox="0 0 688 99" fill="none" xmlns="http://www.w3.org/2000/svg">
<path fill-rule="evenodd" clip-rule="evenodd" d="M288.342 55.2853C288.242 28.4107 288.232 23.4874 288.278 22.2059C288.305 21.4731 294.36 21.0955 296.117 21.2538C300.674 21.6618 310.968 21.8153 312.359 25.1381C313.518 27.9075 314.511 27.5861 314.511 33.37C314.511 38.6826 313.492 40.5784 312.789 41.602C311.595 43.3419 319.825 44.3319 321.334 46.4565C322.088 47.5176 322.627 49.2119 322.627 50.5215C322.627 51.7562 322.82 53.0928 323.057 53.4914C324.185 55.3885 323.295 62.6369 321.19 68.7033C320.057 71.9687 319.797 72.1715 317.103 71.9089C315.521 71.7541 295.731 72.9196 294.865 72.5608L288.404 71.9089L288.342 55.2853ZM296.564 48.2659C296.512 48.6012 296.471 54.8574 296.564 58.8872L296.732 66.2153L298.74 66.179C300.383 66.1485 318.679 64.0181 319.329 61.5875C320.02 59.0068 320.053 58.1286 319.583 54.882C319.286 52.8278 310.6 48.8228 310.422 48.2659C310.071 47.1732 296.718 47.2599 296.564 48.2659ZM296.499 42.9718C296.367 42.3493 296.466 30.8225 296.621 28.8351C296.64 28.5901 297.351 28.6956 298.201 29.072C300.98 30.2996 311.247 24.418 310.422 38.074C309.586 40.8012 296.81 44.4433 296.499 42.9718Z" fill="black" stroke="#040404"/>
<path fill-rule="evenodd" clip-rule="evenodd" d="M47.8612 22.0792C47.7012 22.4949 46.8979 23.1901 46.0767 23.6254C44.945 24.225 44.2951 25.7455 43.3934 29.9046C42.0676 36.0206 40.8251 47.0131 41.2558 48.8192C41.4096 49.4629 41.5923 51.6798 41.6615 53.7434C41.9322 61.7857 42.2796 64.5568 43.2334 66.2869C43.7782 67.2765 44.1285 68.4879 44.0111 68.9796C43.604 70.6852 44.5497 73.0026 45.9139 73.6426C49.533 75.3396 66.7744 72.6643 66.7744 68.9797C66.7744 67.9252 67.1862 65.9229 67.6889 64.53C69.3323 59.9822 69.0772 35.6492 67.3486 32.0259C66.8478 30.9776 66.3077 29.1543 66.1477 27.9735C65.9882 26.7927 65.4576 25.8277 64.9691 25.8277C64.4806 25.8277 63.6954 24.7242 63.2244 23.3754C62.3648 20.9145 48.405 20.6704 47.8612 22.0792ZM54.4139 63.9328C52.7757 55.4258 52.4604 38.0194 54.4139 32.0259C55.3411 29.1812 61.3363 30.1511 63.2784 33.9878C64.2681 35.9435 64.8233 37.9372 64.6686 38.9807C64.527 39.9371 64.643 41.8425 64.9265 43.2146C65.5546 46.253 64.6406 60.9435 63.6376 63.9328C62.5944 67.0436 55.2583 68.3176 54.4139 63.9328Z" fill="black" stroke="#040404"/>
<path d="M2.16269 27.4871C2.24055 26.757 3.2469 24.9609 4.31446 23.4963C5.8684 21.3653 6.75295 20.9411 8.75111 21.3664C10.1237 21.6589 29.8774 22.6669 30.5385 23.6481C32.0192 25.845 33.4955 31.8038 33.4955 35.5836C33.4955 38.1589 33.3153 38.3744 31.4203 38.0573C29.8575 37.7972 11.2062 37.1956 11.0554 35.5133C10.7043 31.6018 9.22361 29.1727 7.66913 29.9586C5.68095 30.9633 4.86905 32.5942 4.86905 35.5836C4.86905 37.008 4.61837 38.4838 4.3128 38.8644C3.63399 39.7095 4.06934 55.3901 4.85351 58.3394C5.1541 59.4702 6.10742 60.8912 6.97146 61.4974C8.29801 62.4284 8.73114 62.2051 9.75601 60.0618C10.4232 58.6665 10.9694 56.7464 10.9694 55.7942C10.9694 54.8431 11.1935 53.7849 11.4669 53.4444C12.3021 52.4063 33.4955 54.084 33.4955 55.5844C33.4955 57.837 32.2017 62.2397 30.4281 66.0217C29.0267 69.0101 10.3012 69.5604 8.01462 69.5604C5.7536 69.5604 4.94835 68.9264 2.88253 65.5194C1.26593 62.8526 1.00041 60.5954 1.00041 58.8875C1.00041 57.462 0.854748 56.0275 0.677052 55.6982C0.340659 55.0742 0.521704 40.1191 0.901311 37.1877C1.02052 36.2668 1.0805 34.8357 1.0343 34.0085C0.988482 33.1813 1.19151 31.6743 1.48581 30.6596C1.78011 29.6449 2.08446 28.2183 2.16269 27.4871Z" fill="black" stroke="#040404"/>
<path d="M656.057 22.5277C681.257 22.5277 683.097 22.1249 684.925 21.6119C685.445 24.0915 685.964 26.0575 686.5 28.6122C683.463 31.8316 658.062 30.9669 654.482 30.7802C654.489 32.6482 654.489 32.6482 654.495 34.5539C654.511 40.1575 654.521 45.7611 654.532 51.3647C654.538 53.3252 654.545 55.2858 654.552 57.3057C654.555 60.0964 654.555 60.0964 654.559 62.9434C654.565 65.5306 654.565 65.5306 654.572 68.17C654.482 72.1057 654.482 72.1057 653.695 73.358C651.858 73.4092 650.02 73.4111 648.182 73.358C647.477 68.8698 647.294 65.5303 647.29 60.9574C647.289 59.5328 647.288 58.1082 647.287 56.6404C647.29 55.1577 647.293 53.675 647.297 52.1474C647.292 49.9306 647.292 49.9306 647.287 47.669C647.288 46.2428 647.289 44.8165 647.29 43.3471C647.291 42.0477 647.292 40.7483 647.293 39.4096C647.395 35.7894 647.395 35.7894 648.182 29.5279C645.584 29.9412 635.504 30.3544 632.827 30.7802C631.252 25.7711 631.252 26.2846 631.252 22.5277C637.127 20.9027 650.199 20.6645 656.057 22.5277Z" fill="black" stroke="#040404"/>
<path d="M541.089 21.4211C543.475 20.9572 560.106 20.9572 561.537 25.1324C561.95 28.546 562.316 32.0085 562.651 35.4932C562.831 37.3399 563.011 39.1866 563.197 41.0892C563.535 44.8115 564.665 57.5152 564.665 61.2909L572.669 41.3248L573.358 38.5858C573.498 36.5445 573.638 34.5033 573.782 32.4002C574.15 28.9767 574.504 25.713 575.054 22.5033C576.314 22.9116 573.68 23.3198 578.871 23.7404C579.115 25.7051 579.36 27.6698 579.613 29.694C580.197 35.7391 580.197 35.7391 582.263 39.8229C582.842 42.7081 583.405 45.5949 583.959 48.4827C585.263 53.5838 586.627 58.6754 587.994 63.7678C589.048 68.2765 589.048 68.2765 589.048 73.2249C585.13 74.0414 579.456 74.8579 578.447 75.6991C577 71.4796 577.014 70.7593 576.936 65.1064C576.796 58.1124 576.419 51.6089 575.902 44.7713C574.624 48.5006 574.45 52.8005 573.967 57.8383C569.481 64.5727 564.665 68.1562 564.665 69.5136C564.665 69.564 564.082 69.7211 563.234 69.6684C562.227 63.4155 561.464 57.9308 561.113 51.1118C560.834 50.7035 560.554 50.2953 560.265 49.8747C560.265 57.6314 560.265 65.388 560.265 73.3798C558.993 74.6169 542.362 74.6169 540.241 74.6169C540.123 35.5124 540.123 35.5124 541.089 21.4211Z" fill="black" stroke="#040404"/>
<path d="M463.787 23.3016C474 27.9519 469.176 37.1884 469 46.9519C468.896 54.4604 470.073 62.3117 471 69.4519C470.858 71.4469 465.223 72.1029 465.077 74.1584C464.225 73.7594 464.664 73.2848 463.787 72.8737C463.787 72.0757 463.787 71.2777 463.787 70.4556C463.503 70.4556 463.219 70.4556 462.927 70.4556C462.785 71.6525 462.643 72.8495 462.497 74.0828C460.585 76.7712 455.532 75.4901 449.38 74.6118C447.181 74.3265 447.181 74.3265 444.937 74.0356C441.069 72.9493 441.069 72.9493 437.196 68.113C435.558 60.232 435.971 55.0667 441.311 48.6922C448.461 43.533 459.038 42.2727 462.067 41.4377C462.067 37.8468 462.067 34.2558 462.067 30.556C459.93 28.7107 451.155 30.0709 449.422 33.1253C448.997 34.7212 448.571 36.3172 448.132 37.9616C447.423 37.9616 446.714 37.9616 445.983 37.9616C446.087 26.6692 446.087 26.6692 447.461 23.3015C450.183 21.4213 461.26 19.7492 463.787 23.3016ZM452.97 49.9768C452.26 50.3758 451.397 51.1859 451.397 51.1859C451.397 52.3829 449.812 52.7757 449.812 54.0089C448.534 54.4079 448.841 55.6111 447.524 56.0222C445.603 60.9896 445.603 60.9897 448.815 65.6948C453.226 67.0047 451.429 67.0047 452.97 66.9039C457.552 66.6042 463.787 69.4107 462.497 48.6922C461.536 48.4072 453.728 47.2737 452.97 49.9768Z" fill="black" stroke="#040404"/>
<path d="M383.262 5.55897C383.561 6.35971 383.861 7.16045 384.169 7.98545C383.271 8.18564 382.373 8.38582 381.448 8.59208C380.85 9.39282 380.251 10.1936 379.635 11.0186C374.235 12.8246 371.537 11.8851 366.032 10.4119C364.842 8.21294 364.842 8.21294 364.218 6.16559C368.951 5.37416 370.14 6.35869 374.194 7.98545C375.091 7.98545 375.989 7.98545 376.914 7.98545C377.213 7.18471 377.513 6.38397 377.821 5.55897C379.635 4.95235 379.635 4.95235 383.262 5.55897Z" fill="black" stroke="#040404"/>
<path fill-rule="evenodd" clip-rule="evenodd" d="M339.275 21.2181C341.547 21.9647 342.815 25.6097 345.156 26.3789L346.534 29.7722L350.665 32.0344C354.294 40.8244 354.017 50.1064 352.043 59.181L347.911 62.5743L346.275 65.4727C340.989 71.3119 334.902 70.555 332.435 69.8558C330.504 68.2298 330.796 68.2298 330.295 62.5743L329.543 58.0499C329.439 54.6681 329.355 51.2723 329.292 47.8699L329.042 43.3455C328.624 32.0344 329.18 25.0543 332.409 21.2182L339.275 21.2181ZM332.592 60.3121C332.592 60.3121 331.06 44.2265 331.548 35.4277C331.803 30.8227 333.703 28.7611 341.025 35.4277C343.195 44.6751 344.139 55.4922 335.516 62.5743L332.592 60.3121Z" fill="black"/>
<path d="M345.156 26.3789C342.815 25.6097 341.547 21.9647 339.275 21.2181L332.409 21.2182C329.18 25.0543 328.624 32.0344 329.042 43.3455M345.156 26.3789C345.611 27.4987 346.065 28.6185 346.534 29.7722M345.156 26.3789L346.534 29.7722M346.534 29.7722C347.897 30.5187 349.261 31.2653 350.665 32.0344M346.534 29.7722L350.665 32.0344M350.665 32.0344C354.294 40.8244 354.017 50.1064 352.043 59.181M352.043 59.181C350.679 60.3008 349.316 61.4206 347.911 62.5743M352.043 59.181L347.911 62.5743M347.911 62.5743C347.371 63.5308 346.831 64.4873 346.275 65.4727M347.911 62.5743L346.275 65.4727M346.275 65.4727C340.989 71.3119 334.902 70.5549 332.435 69.8558C330.504 68.2298 330.796 68.2298 330.295 62.5743M330.295 62.5743C330.047 61.0812 329.799 59.5882 329.543 58.0499M330.295 62.5743L329.543 58.0499M329.543 58.0499C329.439 54.6681 329.355 51.2723 329.292 47.8699M329.292 47.8699C329.21 46.3768 329.127 44.8838 329.042 43.3455M329.292 47.8699L329.042 43.3455M331.548 35.4277C331.06 44.2265 332.592 60.3121 332.592 60.3121L335.516 62.5743C344.139 55.4922 343.195 44.6751 341.025 35.4277C333.703 28.7611 331.803 30.8227 331.548 35.4277Z" stroke="#040404"/>
<path d="M279.061 23.0048C281.5 27.5711 282.296 31.535 282.079 39.1444C281.083 39.1444 280.087 39.1444 279.061 39.1444C278.776 36.6589 278.492 34.1734 278.199 31.6126C275.612 31.5505 263.364 30.8097 262.248 35.1084C261.74 43.0776 261.465 50.5226 262.248 58.2134C263.084 59.9473 263.566 61.4814 264.404 61.8994C273.026 69.2717 278.359 58.5355 279.061 53.1321C279.915 53.4872 280.768 53.8422 281.648 54.2081C282.195 59.6697 281.711 60.7118 280.354 64.9678C280.07 64.9678 280.647 66.8288 280.354 66.8288C280.07 68.249 278.923 67.8084 278.63 69.2717C274.658 70.1392 255.047 79.7519 255.047 61.8994C254.955 60.124 254.863 58.3487 254.768 56.5195C254.676 55.0992 254.584 53.679 254.489 52.2156C254.499 49.9268 254.53 47.6385 254.576 45.3563C254.598 44.1718 254.62 42.9873 254.642 41.7669C253.931 17.486 273.201 20.1921 279.061 23.0048Z" fill="black" stroke="#040404"/>
<path fill-rule="evenodd" clip-rule="evenodd" d="M100.51 3.05742C100.396 4.76578 99.9123 5.74442 99.0505 6.00471C98.3417 6.21839 81.8899 6.2684 81.2837 7.11747C80.678 7.96653 79.9862 8.65988 79.7471 8.65647C78.8784 8.64737 75.8148 18.5327 75.4843 22.412C74.775 30.7344 74.7388 53.6057 75.4322 55.3743C75.7999 56.312 76.1819 58.267 76.2818 59.7173C76.387 61.2541 77.1292 63.1068 78.0569 64.1513C78.9336 65.1391 80.0095 66.3837 80.4479 66.919C80.8862 67.4544 96.9475 69.0423 97.3465 69.4458C98.3385 70.4483 103.76 64.6128 104.119 62.1554C104.278 61.0654 104.726 58.8944 105.114 57.3316C105.948 53.9751 105.724 41.7893 104.717 35.6571C103.716 29.5648 100.678 24.3693 98.118 24.3693C96.973 24.3693 80.3772 24.1544 80.0319 24.8932C79.0266 27.0438 78.5914 24.916 79.5654 22.6132C80.051 21.4663 81.5492 14.0496 81.5492 13.0403C81.5492 10.6136 97.8465 14.1441 99.5287 14.1225C101.138 14.1032 103.423 11.7492 103.373 10.1614C103.354 9.53622 103.701 8.16658 104.145 7.11747C105.472 3.9815 104.588 0.5 102.466 0.5C101.018 0.5 100.648 0.984205 100.51 3.05742ZM79.1414 37.2632C78.9804 36.7063 79.5074 35.1854 80.3124 33.884C81.2916 32.3007 78.7196 32.5553 83.6673 32.9929C87.7332 33.3532 91.0622 33.7328 91.0652 33.8385C91.0681 33.9442 92.8762 35.2605 95.0808 36.7642C97.3465 41.5409 102.819 57.6873 89.0766 60.6539C82.309 62.1145 82.5748 61.2143 81.1296 59.0126C79.8427 57.0531 79.4065 55.239 78.9012 49.7468C78.4437 44.7695 78.431 42.2894 78.8539 40.5981C79.1732 39.3216 79.3024 37.8213 79.1414 37.2632Z" fill="black" stroke="#040404"/>
<path fill-rule="evenodd" clip-rule="evenodd" d="M161.538 23.1023C161.001 23.5525 157.869 23.8036 154.578 23.6608L148.596 23.4017L149.138 53.0987C149.435 69.4321 149.949 83.444 150.28 84.2351C150.611 85.0273 153.07 85.6745 155.748 85.6745H160.614V74.857V64.0406L165.33 65.5683C165.658 63.7041 165.825 66.3168 166.461 65.5683C167.007 64.9258 167.842 64.4007 168.315 64.4007C169.892 64.4007 171.818 57.6849 172.203 52.0965C172.584 46.5495 172.334 35.9386 171.714 34.8987C171.511 34.559 171.346 33.4029 171.346 32.3297C171.346 30.5644 170.395 27.2134 167.996 23.1024C167.006 21.4062 163.055 21.8356 161.538 23.1023ZM158.99 38.4465C159.185 34.3344 159.882 32.9744 162.336 31.93C169.185 29.0143 168.574 31.3612 168.607 36.9531C168.614 38.0321 168.893 40.2384 169.229 41.8563C169.671 43.9901 169.637 47.8577 169.229 49.7289C168.92 51.1476 168.537 53.1996 168.379 54.2879C168.222 55.3772 167.211 57.0769 166.133 58.066C164.4 59.6563 164.183 57.5747 164.183 57.5747C160.961 56.2712 159.937 55.0275 159.648 52.0703C159.442 49.9688 159.154 47.2132 159.008 45.9465C158.864 44.6798 158.855 41.3046 158.99 38.4465Z" fill="black" stroke="#040404"/>
<path fill-rule="evenodd" clip-rule="evenodd" d="M489.677 24.0714C489.087 24.6031 485.652 24.8995 482.043 24.7309L475.482 24.4249L476.076 59.4889C476.402 78.7741 476.966 95.3183 477.329 96.2524C477.692 97.1878 480.389 97.9519 483.326 97.9519H488.662V85.1794V72.4082L493.835 74.2121C494.195 72.011 494.378 75.0958 495.076 74.2121C495.675 73.4534 496.59 72.8334 497.109 72.8334C498.839 72.8334 500.952 64.9039 501.374 58.3056C501.792 51.7562 501.517 39.2276 500.837 37.9998C500.615 37.5987 500.433 36.2336 500.433 34.9664C500.433 32.8821 499.391 28.9255 496.759 24.0716C495.674 22.0688 491.341 22.5758 489.677 24.0714ZM486.882 42.1887C487.095 37.3334 487.86 35.7277 490.552 34.4945C498.063 31.0519 497.393 33.823 497.43 40.4254C497.437 41.6994 497.744 44.3045 498.111 46.2148C498.597 48.7342 498.559 53.3007 498.111 55.5101C497.772 57.1852 497.353 59.6081 497.18 60.893C497.007 62.1792 495.898 64.186 494.716 65.354C492.815 67.2316 492.577 64.7738 492.577 64.7738C489.043 63.2347 487.92 61.7663 487.603 58.2747C487.378 55.7933 487.062 52.5397 486.902 51.0441C486.743 49.5485 486.734 45.5634 486.882 42.1887Z" fill="black" stroke="#040404"/>
<path d="M184.315 26.6913C184.019 23.3283 178.522 23.3283 178.522 21.2181V30.1203V40.0981V66.586C178.522 66.9447 179.593 67.2929 181.16 67.6411L182.215 62.3657C182.743 60.2556 194.349 41.3613 194.876 39.2512C194.702 40.2957 195.544 48.368 195.364 49.4442L195.338 53.6265C195.292 59.2051 196.459 68.7931 196.459 68.7931L212.285 67.5669C212.285 65.1698 212.176 62.7692 211.726 60.3793C210.704 55.6036 209.755 50.8618 209.648 46.0658C209.72 43.034 209.727 40.0019 209.727 36.97L199.097 22.3701H195.404C194.687 25.5234 193.986 28.6905 193.294 31.8657C192.965 33.9908 192.621 36.1073 192.239 38.1961C190.656 40.3063 186.963 47.4271 186.963 47.4271C186.963 47.4271 184.457 55.468 184.315 56.643C184.309 55.7645 184.006 46.9185 184 46.0658L183.986 42.6492C183.973 40.4292 183.984 38.2081 184.019 35.9891C184.546 30.7137 184.546 30.7137 184.315 26.6913Z" fill="black"/>
<path d="M178.522 21.2181C178.522 23.3283 184.019 23.3283 184.315 26.6913C184.546 30.7137 184.546 30.7137 184.019 35.9891C183.984 38.2081 183.973 40.4292 183.986 42.6492M178.522 21.2181C178.522 24.3833 178.522 24.3833 178.522 30.1203M178.522 21.2181V30.1203M183.986 42.6492C183.993 44.3404 183.993 44.3404 184 46.0658M183.986 42.6492L184 46.0658M184 46.0658C184.006 46.9185 184.309 55.7645 184.315 56.643C184.457 55.468 186.963 47.4271 186.963 47.4271C186.963 47.4271 190.656 40.3063 192.239 38.1961C192.621 36.1073 192.965 33.9908 193.294 31.8657C193.986 28.6905 194.687 25.5234 195.404 22.3701M195.404 22.3701C196.622 22.3701 174.613 22.3701 199.097 22.3701M195.404 22.3701H199.097M199.097 22.3701L209.727 36.97C209.727 40.0019 209.72 43.034 209.648 46.0658C209.755 50.8618 210.704 55.6036 211.726 60.3793C212.176 62.7692 212.285 65.1698 212.285 67.5669L196.459 68.7931C196.459 68.7931 195.292 59.2051 195.338 53.6265M195.338 53.6265C195.347 52.1168 195.357 50.6072 195.367 49.0518M195.338 53.6265L195.364 49.4442C195.544 48.368 194.702 40.2957 194.876 39.2512C194.349 41.3613 182.743 60.2556 182.215 62.3657M182.215 62.3657C181.693 64.977 181.693 64.977 181.16 67.6411M182.215 62.3657L181.16 67.6411M181.16 67.6411C179.593 67.2929 178.522 66.9447 178.522 66.586M178.522 66.586C178.522 57.7001 178.522 48.9428 178.522 40.0981M178.522 66.586V40.0981M178.522 40.0981C178.522 36.7503 178.522 33.4747 178.522 30.1203M178.522 40.0981V30.1203" stroke="#040404"/>
<path d="M367.597 28.226C366.874 24.8629 360.446 24.8629 360.446 22.7528V31.6549V41.6327V68.1207C360.446 68.4794 363.056 68.8276 366.874 69.1758L369.446 63.9004C370.731 61.7903 381.579 42.896 382.107 40.7859C381.933 41.8304 382.774 49.9027 382.595 50.9789L382.568 55.1612C382.523 60.7398 383.689 70.3278 383.689 70.3278L399.516 69.1016C399.516 66.7045 399.407 64.3038 398.956 61.9139C397.935 57.1383 396.985 52.3965 396.878 47.6005C396.95 44.5686 396.958 41.5366 396.958 38.5046L386.327 23.9048H382.634C381.918 27.0581 381.216 30.2252 380.524 33.4004C380.196 35.5255 379.851 37.6419 379.469 39.7308C377.886 41.8409 374.194 48.9617 374.194 48.9617C372.083 50.1137 367.942 57.0026 367.597 58.1777C367.582 57.2991 366.844 48.4532 366.829 47.6005L366.794 44.1839C366.764 41.9638 366.789 39.7428 366.874 37.5237C368.16 32.2484 368.16 32.2484 367.597 28.226Z" fill="black"/>
<path d="M360.446 22.7528C360.446 24.8629 366.874 24.8629 367.597 28.226C368.16 32.2484 368.16 32.2484 366.874 37.5237C366.789 39.7428 366.764 41.9638 366.794 44.1839M360.446 22.7528C360.446 25.918 360.446 25.918 360.446 31.6549M360.446 22.7528V31.6549M366.794 44.1839C366.811 45.8751 366.811 45.8751 366.829 47.6005M366.794 44.1839L366.829 47.6005M366.829 47.6005C366.844 48.4532 367.582 57.2991 367.597 58.1777C367.942 57.0026 372.083 50.1137 374.194 48.9617C374.194 48.9617 377.886 41.8409 379.469 39.7308C379.851 37.6419 380.196 35.5255 380.524 33.4004C381.216 30.2252 381.918 27.0581 382.634 23.9048M382.634 23.9048C383.853 23.9048 361.844 23.9048 386.327 23.9048M382.634 23.9048H386.327M386.327 23.9048L396.958 38.5046C396.958 41.5366 396.95 44.5686 396.878 47.6005C396.985 52.3965 397.935 57.1383 398.956 61.9139C399.407 64.3038 399.516 66.7045 399.516 69.1016L383.689 70.3278C383.689 70.3278 382.523 60.7398 382.568 55.1612M382.568 55.1612C382.578 53.6515 382.587 52.1419 382.597 50.5865M382.568 55.1612L382.595 50.9789C382.774 49.9027 381.933 41.8304 382.107 40.7859C381.579 42.896 370.731 61.7903 369.446 63.9004M369.446 63.9004C368.173 66.5117 368.173 66.5117 366.874 69.1758M369.446 63.9004L366.874 69.1758M366.874 69.1758C363.056 68.8276 360.446 68.4794 360.446 68.1207M360.446 68.1207C360.446 59.2348 360.446 50.4774 360.446 41.6327M360.446 68.1207V41.6327M360.446 41.6327C360.446 38.285 360.446 35.0094 360.446 31.6549M360.446 41.6327V31.6549" stroke="#040404"/>
<path d="M138.036 27.0806C139.018 33.1463 139.353 38.0644 138.582 44.2757C137.04 47.3153 135.858 46.8607 133.709 47.0968C133.029 47.1771 119.4 47.2575 118.7 47.3402C117.558 47.4419 116.415 47.4998 115.273 47.4998C115.097 52.4653 115.359 57.5699 117 61.4519C118.677 62.9133 126.406 61.2639 128 61.9519C128 61.2426 133.129 60.0522 133.129 59.3214C133.669 58.6121 134.209 57.9028 134.765 57.172C134.945 56.1081 135.125 55.0441 135.31 53.9479C136.57 54.3026 137.829 54.6572 139.127 55.0226C139.982 60.0807 138.602 61.8809 136.946 65.7696C133.388 70.299 117.871 69.2702 114.182 65.7695C110.522 60.96 110.568 54.5845 110.366 46.4251C110.321 45.339 110.276 44.2528 110.229 43.1338C110.571 35.2255 111.569 28.9352 114.728 23.8565C114.907 23.5019 115.087 23.1472 115.273 22.7818C119.163 21.5039 135.206 21.0498 138.036 27.0806ZM116.363 31.3794C115.304 35.691 115.304 35.691 114.728 39.9769C117.276 41.2326 125.909 40.6514 128.495 39.9769C128.315 36.7851 128.68 32.7058 128.495 29.4172C126.354 28.0108 118.356 29.3337 116.363 31.3794Z" fill="black" stroke="#040404"/>
<path d="M528.406 23.9253C529.317 24.7611 530.228 25.5969 531.166 26.458C531.348 27.7117 530.791 28.9654 531.166 30.2571C532.259 31.0929 532.811 31.9286 533.374 32.7898C534.828 42.6307 534.717 53.0225 533.926 63.1821C533.379 64.4357 533.396 65.6894 532.27 66.9811C531.837 68.052 531.405 69.1228 530.959 70.2261C526.722 76.7634 526.492 75.916 511.917 75.916C509.364 74.0956 509.364 74.0956 508.26 67.7639C507.713 66.0923 507.167 64.4207 506.604 62.6985C506.375 58.9124 506.19 55.1106 506.052 51.3014C505.87 49.6298 505.688 47.9582 505.5 46.236C507.614 25.7579 507.614 25.7579 511.882 21.4631C514.143 20.803 526.754 20.1345 528.406 23.9253ZM512.123 30.2571C511.05 40.1078 510.209 56.0221 512.123 65.2312C514.077 67.3743 518.514 66.5915 522.335 66.9811C529.247 59.0523 524.074 41.722 522.335 31.369C516.466 23.9053 514.628 21.8305 512.123 30.2571Z" fill="black" stroke="#040404"/>
<path fill-rule="evenodd" clip-rule="evenodd" d="M601.357 25.349C600.243 26.4254 599.812 27.7968 599.376 31.6527C599.07 34.3631 598.937 36.8476 599.083 37.1751C599.751 38.6805 601.624 37.549 602.297 35.2341C602.702 33.84 618.514 30.4758 619.206 29.7647C620.304 28.6364 620.612 28.7834 621.619 30.9146C622.494 32.769 622.737 34.2788 622.629 37.175C622.496 40.7651 623.329 41.0266 618.483 41.5897C613.454 42.1733 606.015 46.1902 601.633 50.6902C598.656 53.7465 598.63 64.2606 601.592 67.2897C604.759 70.5286 617.067 72.288 621.766 70.1731C623.694 69.3042 623.23 67.976 623.366 67.2206C623.557 66.1507 623.717 66.1864 624.086 67.3816C624.686 69.3204 627.07 69.6241 627.38 67.8009C627.509 67.0466 627.268 63.8672 626.845 60.7353C626.295 56.6643 626.122 51.959 626.237 44.2331C626.388 34.1729 626.314 33.1127 625.162 28.8915C624.481 26.3983 623.385 23.8727 622.726 23.2805C621.107 21.8237 603.094 23.6696 601.357 25.349ZM616.032 50.1769C617.655 50.1769 619.679 49.4474 620.53 48.5559C623.535 45.4045 622.844 46.8484 622.633 53.4611C622.369 61.6755 620.557 64.6085 614.48 63.5516C609.733 62.7249 607.314 58.8971 609.397 55.5101C610.103 54.3603 611.222 53.419 611.881 53.419C612.54 53.419 613.079 52.6895 613.079 51.798C613.079 50.8113 614.235 50.1769 616.032 50.1769Z" fill="black" stroke="#040404"/>
</svg>
