<svg width="538" height="107" viewBox="0 0 538 107" fill="none" xmlns="http://www.w3.org/2000/svg">
<path d="M382.726 3.18348C382.353 2.13927 382.241 0.995406 382.476 0.641573C382.711 0.288758 384.073 0 385.502 0C387.715 0 388.1 0.326382 388.1 2.20434C388.1 5.66437 386.633 17.6825 386.073 18.8101C385.795 19.3693 385.174 23.0225 384.694 26.9289C384.213 30.8353 383.259 35.4107 382.574 37.0965C381.889 38.7823 381.327 41.3903 381.325 42.892C381.324 44.3938 380.983 46.9103 380.569 48.4842C380.154 50.0582 379.773 52.7129 379.721 54.3824C379.658 56.4475 379.232 57.5334 378.389 57.7774C376.314 58.3773 373.868 56.9986 373.868 55.2294C373.868 53.4704 375.625 39.1644 376.899 33.9932L368.246 33.5213C368.246 33.5213 365.635 28.7727 365.623 27.4875C365.611 26.2023 365.154 24.2624 364.606 23.1775C364.06 22.0916 363.612 20.4322 363.612 19.4887C363.612 18.5461 363.154 17.205 362.595 16.5085C362.036 15.8121 361.578 14.2107 361.578 12.9499C361.578 11.6891 361.121 10.0877 360.562 9.39122C358.694 7.06488 367.566 3.33397 370.24 2.58156C372.768 1.86983 374.073 3.09909 373.436 5.59117C373.267 6.25104 373.6 7.37863 374.176 8.09544C374.753 8.81328 375.224 10.432 375.224 11.6927C375.224 12.9535 375.644 14.5092 376.158 15.1497C376.672 15.7903 377.26 17.5615 377.465 19.0866C377.669 20.6128 378.195 23.233 378.634 24.9106L379.433 27.9609L380.412 22.8771C380.95 20.081 381.481 15.9469 381.594 13.6897C381.706 11.4335 382.158 8.57333 382.6 7.33491C383.155 5.78029 383.194 4.49612 382.726 3.18348Z" fill="black"/>
<path d="M320.56 5.93143C320.135 2.77134 320.274 2.16332 321.649 1.17096C325.332 -1.48787 325.932 -0.149809 325.951 10.7621C325.959 15.3415 326.153 19.37 326.383 19.7136C326.982 20.6124 333.344 20.708 334.288 19.8336C334.835 19.3252 334.99 16.282 334.786 10.0046L334.491 0.911686H337.08L352.451 1.63156L352.424 8.49469C352.355 25.5773 352.873 41.941 353.533 43.5261C354.469 45.7752 354.174 46.1118 350.917 46.5154L335.424 46.1321L335.337 42.0783C335.29 39.8475 335.213 35.4398 335.168 32.2828L335.085 26.5432L331.189 26.8065C329.045 26.9509 327.052 27.1319 326.758 27.2082C326.253 27.3403 326.471 40.4708 327.029 43.5261C327.206 44.4931 326.429 45.2455 324.648 45.8301C323.194 46.307 321.869 46.4941 321.703 46.245C321.537 45.9958 321.321 37.6391 321.224 27.6728C321.126 17.7076 320.827 7.92428 320.56 5.93143Z" fill="black"/>
<path d="M317.851 65.7596C317.426 62.5995 317.565 61.9914 318.94 60.9991C322.623 58.3403 323.223 59.6783 323.242 70.5902C323.25 75.1697 323.013 76.1411 323.242 76.4848C323.841 77.3836 330.838 78.379 331.782 77.5046C332.329 76.9962 332.281 76.1102 332.077 69.8327L331.782 60.7398H334.371H336.959L336.932 67.6029C336.863 84.6855 337.382 101.049 338.042 102.634C338.978 104.883 338.683 105.22 335.426 105.624L332.715 105.96L332.628 101.906C332.581 99.6756 332.504 95.268 332.459 92.1109L332.376 86.3713L328.479 86.6347C326.336 86.779 324.343 86.96 324.049 87.0363C323.544 87.1685 323.762 100.299 324.32 103.354C324.497 104.321 323.72 105.074 321.939 105.658C320.485 106.135 319.16 106.322 318.994 106.073C318.828 105.824 318.612 97.4672 318.515 87.5009C318.417 77.5357 318.118 67.7524 317.851 65.7596Z" fill="black"/>
<path d="M388.963 63.7198C388.539 60.5597 388.678 59.9516 390.053 58.9593C393.736 56.3005 394.336 57.6385 394.355 68.5504C394.363 73.1299 394.557 77.1583 394.787 77.5019C395.386 78.4008 422.347 78.7556 423.291 77.8812C423.839 77.3728 423.994 74.3297 423.79 68.0522L423.495 58.9593H426.084H428.672L428.645 65.8224C428.576 82.905 429.095 99.2687 429.755 100.854C430.691 103.103 430.396 103.439 427.139 103.843L424.428 104.18L424.341 100.126C424.294 97.8951 424.217 93.4874 424.172 90.3304L424.089 84.5908L399.592 84.5949C397.449 84.7393 395.456 84.9202 395.162 84.9965C394.657 85.1287 394.875 98.2591 395.433 101.314C395.61 102.281 394.833 103.034 393.052 103.618C391.598 104.095 390.273 104.282 390.107 104.033C389.941 103.784 389.725 95.4274 389.628 85.4612C389.53 75.4959 389.231 65.7126 388.963 63.7198Z" fill="black"/>
<path d="M294.285 11.2595C291.83 8.02721 291.608 4.27638 293.777 2.66482C294.616 2.04154 295.429 1.47521 295.516 1.40709C296.067 0.968864 297.604 3.68768 297.621 5.13046C297.632 6.08927 298.305 8.45832 299.116 10.3942C299.927 12.3301 300.59 14.504 300.59 15.2238C300.59 15.9447 300.815 16.5334 301.089 16.5334C301.363 16.5334 301.587 15.903 301.587 15.1323C301.587 14.3626 301.923 13.1629 302.334 12.4664C302.745 11.7699 303.089 10.4563 303.098 9.54626C303.106 8.63524 303.636 6.68103 304.274 5.20164C305.168 3.13152 305.823 2.57534 307.123 2.78378C308.052 2.93324 308.79 3.57076 308.762 4.20217C308.735 4.83256 308.679 6.23365 308.638 7.31447C308.596 8.39529 308.133 9.55744 307.608 9.89704C307.083 10.2377 306.422 11.8696 306.139 13.5248C305.856 15.1791 305.395 16.5334 305.114 16.5334C304.832 16.5334 304.259 17.8878 303.839 19.543C303.131 22.3381 303.153 22.8282 304.137 26.4062C304.72 28.5241 305.73 31.2663 306.382 32.4976C307.033 33.7299 307.566 35.3903 307.566 36.1874C307.566 36.9845 307.903 38.2057 308.314 38.9022C308.725 39.5986 309.061 41.0272 309.061 42.0765C309.061 43.5121 308.697 43.986 307.596 43.986C306.79 43.986 305.992 44.4435 305.822 45.0027C305.224 46.9762 304.577 45.9839 304.577 43.0932C304.577 41.4847 304.24 39.5986 303.829 38.9022C303.418 38.2057 303.082 36.9917 303.082 36.2037C303.082 35.4157 302.745 34.5077 302.334 34.1864C301.923 33.8641 301.587 32.9907 301.587 32.2444C301.587 29.7259 300.568 29.5815 299.596 31.9617C299.065 33.2622 298.623 34.7944 298.614 35.3659C298.605 35.9373 297.908 38.1111 297.066 40.1955C295.837 43.2386 295.08 43.986 293.198 43.986C289.487 43.986 289.637 41.7328 293.872 33.8682C295.963 29.9862 297.102 26.3838 297.102 25.8632C297.102 25.3426 297.442 24.3411 297.857 23.6375C298.522 22.513 298.462 21.9548 297.359 19.0052C296.67 17.1618 296.106 15.2665 296.106 14.7938C296.106 14.322 295.403 12.7318 294.285 11.2595Z" fill="black"/>
<path fill-rule="evenodd" clip-rule="evenodd" d="M59.5606 4.04128C57.6251 4.34122 56.326 5.40882 54.6473 8.07985C53.3915 10.0778 52.3621 12.4478 52.3601 13.3487C52.3574 14.2485 51.9196 16.2404 51.3863 17.7736C50.1068 21.4543 50.5649 36.4586 52.0321 38.8907C52.5871 39.8109 53.0419 41.0483 53.0419 41.639C53.0419 43.1398 56.1098 45.9969 57.722 45.9969C58.4587 45.9969 59.2495 46.4544 59.4799 47.0136C60.7201 50.0243 71.6597 45.9237 81.6871 40.4311C89.2062 36.3132 87.8616 35.1938 74.2014 34.1964C74.2014 34.1964 65.5381 32.9559 65.5381 34.1964C65.5381 36.5766 61.6696 40.9171 59.9042 40.2247C57.1351 39.1378 54.5477 27.8192 57.0172 27.5945C57.6265 27.5396 73.4326 27.2221 76.0159 27.0157C81.3968 26.5856 82.7441 25.2282 82.7163 20.2624C82.679 13.386 81.6537 8.8218 79.521 6.02775C78.3641 4.51176 76.96 3.3313 76.4009 3.40247C75.8418 3.47364 61.0068 3.81759 59.5606 4.04128ZM57.108 16.0665C57.108 13.2857 58.1618 11.7758 60.4965 11.2135C62.6156 10.7031 76.817 11.9494 77.3903 16.0652C77.7732 18.8135 77.6146 19.388 76.3053 20.0123C72.6986 21.7296 54.3125 21.0161 56.4195 19.0629C56.7983 18.7121 57.108 17.3639 57.108 16.0665Z" fill="black"/>
<path d="M495.42 62.2854C495.6 64.6738 495.733 67.0691 495.844 69.4655C495.908 70.779 495.973 72.0925 496.039 73.4458C496.091 76.784 495.833 79.568 495.42 82.8331C495.475 84.6463 495.575 86.4578 495.717 88.2619C496.651 101.684 496.651 101.684 495.42 103.381C493.84 103.419 482.439 103.42 480.859 103.381C480.097 95.442 480.097 95.442 480.859 91.239C480.885 89.06 480.89 86.88 480.859 84.7011C479.965 84.7011 479.071 84.7011 478.15 84.7011C477.968 85.6835 477.787 86.666 477.6 87.6782C476.867 90.9217 476.068 93.0734 474.764 95.909C474.373 97.2189 473.981 98.5288 473.579 99.8784C472.055 103.381 472.055 103.381 469.6 104.373C467.314 104.315 467.314 104.315 465.959 103.381C467.507 94.8415 467.507 94.8415 470.023 93.107C470.47 91.5659 470.917 90.0248 471.377 88.4371C471.824 87.8206 472.271 87.2042 472.732 86.5691C473.006 83.4765 473.006 83.4765 470.742 81.7824C467.537 77.6324 467.723 73.4424 468.287 67.6559C471.169 60.6621 490.566 55.5909 495.42 62.2854ZM474.086 67.8894C472.505 71.1601 472.276 72.4475 472.732 76.2952C475.59 79.8701 476.281 80.173 480.182 79.0972C481.412 77.4003 480.919 74.777 480.901 72.5009C480.895 71.4691 480.889 70.4373 480.883 69.3742C480.875 68.576 480.867 67.7778 480.859 66.9554C477.789 65.993 477.036 65.8554 474.086 67.8894Z" fill="black"/>
<path d="M437.539 59.1479C440.926 61.0159 440.926 61.0159 441.307 63.993C441.603 67.5538 441.603 67.5538 440.926 72.2238C440.881 74.1882 440.868 76.1543 440.883 78.1196L440.902 81.1441L440.926 83.4316L441.476 80.2794C442.28 76.8937 442.28 76.8937 444.312 75.0257C444.802 73.1766 445.245 71.303 445.666 69.4218C446.555 66.611 447.455 63.8073 448.375 61.0159H463.275C458.873 65.6859 458.873 65.6859 463.275 70.3558L458.873 74.0917C458.873 76.7758 458.887 79.4598 459.011 82.1437C458.826 86.3894 457.192 90.587 455.434 94.8146C454.658 96.9302 454.471 99.0553 454.471 101.177L449.73 102.111C448.393 97.5075 448.232 93.6237 448.291 88.6853L448.328 84.6356L447.698 75.9597L447.021 78.7617L444.312 89.9695L442.28 95.5734L440.926 100.243L434.83 99.3094C434.765 91.4432 434.79 83.6909 435.365 75.8612C435.521 72.8976 435.48 69.998 435.423 67.0285C435.507 61.9499 435.507 61.9499 437.539 59.1479Z" fill="black"/>
<path d="M302.028 60.7642C303.593 61.0724 305.157 61.3806 306.769 61.6981C308.061 74.4225 308.783 87.1851 309.478 99.9916C306.769 101.86 306.769 101.86 304.06 101.86C303.97 100.7 303.88 99.5407 303.787 98.3462C303.668 96.828 303.548 95.3098 303.425 93.7456C303.307 92.2394 303.189 90.7333 303.068 89.1814C302.735 84.9403 302.735 84.9403 302.028 80.3779C301.721 81.5337 301.413 82.6895 301.097 83.8803C299.996 87.8498 299.996 87.8498 298.642 91.5857C298.292 92.8764 297.943 94.167 297.583 95.4968C296.61 99.0576 296.61 99.0576 295.933 99.9916C294.127 100.03 288.359 100.615 281.745 100.575C280.491 97.5795 279.253 94.583 278.024 91.5857C277.333 89.917 276.642 88.2483 275.93 86.5291C274.693 83.0081 274.181 79.8186 274.302 76.2917C273.484 75.9835 272.665 75.6753 271.822 75.3577C271.173 73.5151 270.681 71.6645 270.271 69.8122C270.034 68.802 269.798 67.7919 269.554 66.7512C269.341 64.1499 287.128 63.5661 287.805 61.6981C291.192 61.6981 291.192 61.6981 292.546 63.5661C292.793 66.6763 293.016 69.7903 293.224 72.906C293.785 76.7281 294.362 80.4158 295.255 84.1138C297.082 81.5942 297.37 78.8171 298.06 75.4635C298.924 71.6674 300.158 68.118 301.351 64.5001C301.574 63.2672 301.798 62.0344 302.028 60.7642Z" fill="black"/>
<path d="M175.073 61.5326C175.751 63.4006 175.751 63.4006 175.073 68.0705C175.055 70.1866 175.079 72.3037 175.132 74.4187C175.161 75.6215 175.191 76.8242 175.222 78.0634C175.274 79.9362 175.274 79.9362 175.327 81.8468C175.357 83.1098 175.387 84.3727 175.417 85.674C175.17 91.2484 175.17 91.2484 176.428 96.0901C176.428 100.76 176.428 100.76 174.396 102.628C173.502 102.628 159.294 102.628 158.373 102.628C156.93 98.6462 156.891 97.044 156.976 92.7044C157.064 84.4633 156.724 76.2923 156.341 68.0705C153.605 68.5884 150.925 69.1909 148.214 69.9385C148.15 75.9747 148.237 81.706 148.892 87.6842C148.892 90.4862 148.892 93.2882 148.892 96.0901C149.115 97.6312 149.339 99.1723 149.569 100.76C147.537 103.562 147.537 103.562 144.151 102.628C142.169 99.8952 142.653 97.8462 142.688 94.0324C142.695 92.6732 142.703 91.3139 142.71 89.9134C142.725 88.4843 142.739 87.0552 142.754 85.5828C142.777 82.776 142.798 79.9692 142.815 77.1623C142.827 75.9123 142.839 74.6623 142.852 73.3744C142.856 69.9734 142.856 69.9734 142.414 66.8018C142.119 64.3346 142.119 64.3346 142.796 62.4666C144.62 62.1872 146.445 61.9197 148.275 61.7406C149.87 61.5723 151.458 61.2793 153.04 60.9489C156.07 60.5445 172.076 60.833 175.073 61.5326Z" fill="black"/>
<path d="M130.374 61.3946C134.206 65.3583 135.457 68.7991 135.115 75.4044C133.55 75.4044 124.874 75.4044 123.262 75.4044C122.816 73.2468 122.707 68.0861 122.247 65.8632C118.182 65.8094 100.235 65.135 97.5264 68.8665C96.2916 75.784 95.6246 86.3544 97.5264 93.0303C99.5543 94.5353 117.84 94.5353 119.876 94.8982C122.16 92.1167 122.16 92.1167 123.262 87.4263C124.603 87.7345 133.056 88.1626 134.437 88.4802C135.297 93.2211 134.537 94.1257 132.406 97.82C131.959 97.82 131.512 97.82 131.051 97.82C130.604 99.0529 130.157 100.286 129.697 101.556C95.4946 104.276 95.6278 101.436 91.431 94.8982C91.2075 93.3571 90.984 91.8161 90.7537 90.2283C90.5302 88.9954 90.3067 87.7626 90.0764 86.4923C90.1006 84.5055 90.1759 82.5192 90.2881 80.5382C90.3413 79.51 90.3946 78.4818 90.4495 77.4224C91.6501 65.2995 93.8014 56.0052 130.374 61.3946Z" fill="black"/>
<path d="M72.218 63.386C73.1663 64.0026 74.1145 64.6193 75.0915 65.2546C75.2812 66.1795 75.4708 67.1045 75.6662 68.0574C76.2352 68.6741 76.8042 69.2907 77.3904 69.926C78.9043 77.1864 78.7888 84.8533 77.9651 92.3488C77.3961 93.2738 76.8272 94.1987 76.241 95.1517C76.0157 95.9417 75.7905 96.7318 75.5585 97.5458C73.3524 102.369 70.3031 101.744 60.2789 101.166C52.4297 99.8231 53.4788 99.8231 49.0354 95.1516C46.8359 93.9184 44.6365 92.6851 42.3703 91.4145C41.4478 88.6212 40.7055 85.8163 40.1486 83.0059C39.4155 81.7727 38.6823 80.5394 37.9269 79.2688C46.436 64.1605 47.0497 64.1605 60.1728 60.9919C67.1238 60.5048 70.4976 60.5892 72.218 63.386ZM61.8732 69.926C58.5728 77.1937 57.7112 86.9537 63.5973 93.748C69.6026 95.3292 69.0792 94.8643 71.0686 95.1517C74.6669 89.302 74.2732 80.3671 73.3674 72.7288C70.3122 67.2223 69.573 63.7091 61.8732 69.926Z" fill="black"/>
<path d="M195.73 64.0649C196.847 64.6813 202.367 64.8949 203.519 65.5301C203.742 66.4547 203.966 67.3793 204.196 68.332C204.866 68.9484 205.537 69.5649 206.228 70.2C208.012 77.4581 207.876 85.1226 206.905 92.6157C206.234 93.5403 205.564 94.465 204.873 95.4176C204.608 96.2074 204.342 96.9972 204.069 97.811C201.469 102.633 193.381 102.41 189.381 101.833C186.248 100.49 186.248 100.49 184.894 95.8204C184.223 94.5876 183.553 93.3547 182.862 92.0845C182.581 89.2921 182.354 86.4881 182.185 83.6786C181.961 82.4457 181.738 81.2129 181.507 79.9427C184.101 64.8391 184.101 64.8391 189.338 61.6715C192.112 61.1847 193.703 61.269 195.73 64.0649ZM188.28 73.4047C186.963 80.6701 187.286 87.1603 189.635 93.9525C192.031 95.5331 192.031 95.5331 194.375 95.8204C198.616 89.9726 198.152 81.0406 197.085 73.4047C193.484 67.9 191.353 67.1898 188.28 73.4047Z" fill="black"/>
<path d="M0.753853 60.8917C13.3278 60.6354 27.9652 60.2779 31.6456 65.2041C32.9434 68.7836 32.4949 72.5209 32.3228 76.4119C30.9683 78.8637 30.9683 78.8637 29.6138 80.1479C30.2563 80.6487 30.8989 81.1496 31.5609 81.6656C34.9873 85.2567 35.0319 88.3898 35.0319 94.1577C33.6561 98.374 31.6794 100.892 28.9365 103.498C26.2645 103.782 26.2645 103.782 23.4337 103.381C22.4961 103.263 6.9211 103.502 5.95505 103.381C3.46292 102.921 3.46292 102.921 0.753853 101.987C0.7574 101.219 0.760947 100.452 0.764601 99.6606C0.778698 96.1748 0.787496 92.689 0.796182 89.2032C0.804694 87.3909 0.804694 87.3909 0.813378 85.542C0.815561 84.3772 0.817744 83.2123 0.819992 82.0122C0.823539 80.941 0.827086 79.8699 0.83074 78.7663C0.802554 75.5216 0.802554 75.5216 0.0765867 71.1655C-0.0739169 64.3163 -0.0739169 64.3163 0.753853 60.8917ZM6.17198 67.4296C5.25989 71.2031 5.45318 74.6845 5.49472 78.6374C7.6019 80.0904 23.4566 78.5833 25.5502 77.3459C27.828 73.1577 27.7634 72.7428 26.9047 68.0061C24.8932 67.6978 8.24442 67.7471 6.17198 67.4296ZM6.17198 84.2414C5.42448 87.3339 5.54434 89.1424 5.79102 92.3554C5.91674 93.9928 6.04246 95.6302 6.17198 97.3172C11.3923 98.1615 26.0296 97.804 29.6138 93.2237C29.0949 88.5811 29.0949 88.5811 27.582 84.8178C24.2178 83.7312 9.58045 84.0887 6.17198 84.2414Z" fill="black"/>
<path d="M411.778 3.6962C413.364 3.44522 414.947 3.14479 416.519 2.76221C416.966 4.6115 417.442 15.8335 417.903 17.7388C415.291 20.14 413.532 19.746 410.453 19.6068C410.458 21 410.434 13.0486 410.434 13.0486C410.448 17.2279 410.457 21.4072 410.466 25.5865C410.471 27.0487 410.477 28.511 410.483 30.0175C410.486 32.0988 410.486 32.0988 410.49 34.2222C410.495 36.1518 410.495 36.1518 410.5 38.1203C410.423 41.0557 410.423 41.0557 409.746 41.9897C408.166 42.0279 406.585 42.0293 405.005 41.9897C404.398 38.6423 404.241 36.1516 404.238 32.741C404.237 31.6785 404.236 30.616 404.235 29.5213C404.238 28.4155 404.241 27.3096 404.243 26.1703C404.239 24.5169 404.239 24.5169 404.235 22.8302C404.236 21.7665 404.237 20.7028 404.238 19.6068L404.235 18.783L405.035 18.6728C402.8 18.981 400.565 19.2893 398.262 19.6068C396.907 15.8709 396.878 6.49816 396.878 3.6962C401.931 2.48425 406.74 2.3066 411.778 3.6962Z" fill="black"/>
<path d="M269.045 4.75945C278.882 10.9322 279.384 15.5468 278.627 23.0889C278.181 28.8891 277.995 33.8013 281.975 39.317C281.365 40.8581 280.756 42.3991 280.128 43.9869C276.471 43.6787 272.813 43.3705 269.045 43.0529C269.045 42.4365 269.045 41.8201 269.045 41.1849V37.7323C268.436 38.657 264.132 43.0342 263.504 43.9869C255.29 46.0637 253.435 47 250.208 46.3215C249.054 46.1012 249.054 46.1012 247.877 45.8764C245.848 45.0373 245.848 45.0373 243.816 41.3013C242.957 35.2134 243.173 31.2233 245.975 26.2991C249.726 22.3137 256.034 20.361 269.045 19.7159C269.045 16.942 269.891 13.5972 267.52 10.5378C258.339 9.11229 253.317 9.98826 250.589 12.3477C249.918 13.5806 249.248 14.8135 248.557 16.0837C247.439 16.0837 246.322 16.0837 245.17 16.0837C245.335 7.36052 245.335 7.36052 247.499 4.75908C251.787 3.30666 258.191 2.01527 269.045 4.75945ZM253.636 26.2991C252.519 26.6074 252.417 27.9079 251.266 28.2255C251.266 29.1501 250.589 29.3011 250.589 30.2538C249.918 30.562 249.925 31.6439 249.234 31.9614C248.226 35.7987 248.226 35.7987 249.911 39.4333C252.225 40.4452 252.225 40.4452 254.652 40.3673C265.291 34.6773 263.667 30.7312 263.504 24.3732C259.375 24.153 254.831 24.211 253.636 26.2991Z" fill="black"/>
<path d="M371.08 60.0778C380.917 66.2506 381.42 70.8652 380.662 78.4073C380.216 84.2075 380.03 89.1197 384.01 94.6353C383.401 96.1764 382.791 97.7175 382.163 99.3053C378.506 98.9971 374.849 98.6888 371.08 98.3713C371.08 97.7548 371.08 97.1384 371.08 96.5033V93.0507C370.471 93.9753 366.167 98.3526 365.539 99.3053C357.325 101.382 355.47 102.318 352.243 101.64C351.089 101.42 351.089 101.42 349.912 101.195C347.883 100.356 347.883 100.356 345.851 96.6197C344.992 90.5318 345.208 86.5417 348.01 81.6175C351.761 77.6321 358.069 75.6793 371.08 75.0343C371.08 72.2603 371.926 68.9155 369.555 65.8561C360.374 64.4306 355.353 65.3066 352.624 67.6661C351.953 68.899 351.283 70.1318 350.592 71.402C349.474 71.402 348.357 71.402 347.206 71.402C347.37 62.6789 347.37 62.6789 349.534 60.0774C353.822 58.625 360.226 57.3336 371.08 60.0778ZM355.671 81.6175C354.554 81.9257 354.452 83.2263 353.301 83.5439C353.301 84.4685 352.624 84.6195 352.624 85.5722C351.953 85.8804 351.96 86.9622 351.269 87.2798C350.261 91.1171 350.261 91.1171 351.946 94.7517C354.26 95.7635 354.26 95.7635 356.687 95.6857C367.326 89.9956 365.702 86.0496 365.539 79.6915C361.41 79.4714 356.866 79.5294 355.671 81.6175Z" fill="black"/>
<path d="M100.079 8.3098C100.756 10.4891 101.433 12.6684 102.111 14.8477C102.46 15.965 102.809 17.0823 103.169 18.2334C103.97 20.8265 104.738 23.4387 105.497 26.0556C105.944 26.672 106.391 27.2884 106.851 27.9235C107.111 26.5203 107.111 26.5203 107.375 25.0887C108.229 21.2816 109.341 17.9795 110.661 14.4391C111.089 13.2845 111.517 12.1299 111.957 10.9403C112.447 9.63819 112.447 9.63819 112.947 8.3098C117.603 9.12704 129.455 8.19305 130.217 9.24379C130.443 11.7344 130.669 14.225 130.894 16.7157C131.23 17.178 131.23 17.178 131.572 17.6497C131.797 20.4516 132.023 23.2536 132.249 26.0556C132.472 26.3638 132.696 26.672 132.926 26.9895C133.152 29.1688 133.378 31.3481 133.603 33.5274C133.827 33.8357 134.05 34.1439 134.281 34.4614C134.512 37.5739 134.738 40.6873 134.958 43.8013C135.181 44.726 135.405 45.6506 135.635 46.6033C132.926 47.5373 121.074 48.4712 117.688 47.5373C116.329 42.4168 115.839 37.4566 115.36 32.0681C114.991 28.9653 114.406 26.201 113.624 23.2536C112.083 26.4406 111.751 28.8515 111.211 32.5935C110.289 38.9181 110.289 38.9181 109.56 41.9333C107.996 41.9333 106.432 41.9333 104.82 41.9333C104.282 40.3189 103.747 38.7038 103.211 37.0883C102.913 36.1889 102.614 35.2895 102.306 34.3629C101.521 31.9307 100.796 29.4617 100.079 26.9895C97.6809 30.2963 98.6725 42.2559 98.7242 46.6033C96.7127 46.6033 94.7012 46.6033 92.6288 46.6033C92.725 43.9373 92.8244 41.2716 92.9251 38.606C92.9801 37.1215 93.0351 35.637 93.0918 34.1075C93.3061 29.7915 93.3061 29.7915 93.6712 26.3985C94.1166 21.9115 93.9619 17.5084 93.8749 12.9907C94.0957 7.26423 96.6049 8.13237 100.079 8.3098ZM98.7242 23.2536C99.4015 25.1216 99.4015 25.1216 99.4015 25.1216L98.7242 23.2536Z" fill="black"/>
<path d="M244.503 61.5954C245.181 63.7747 245.858 65.954 246.535 68.1334C246.884 69.2506 247.234 70.3679 247.593 71.5191C248.394 74.1121 249.162 76.7243 249.922 79.3412C250.369 79.9576 250.816 80.5741 251.276 81.2092C251.535 79.8059 251.535 79.8059 251.8 78.3744C252.654 74.5673 253.765 71.2652 255.086 67.7247C255.513 66.5701 255.941 65.4155 256.382 64.2259C256.872 62.9238 256.872 62.9238 257.371 61.5954C262.028 62.4127 262.028 62.4127 262.79 63.4634C263.015 65.9541 263.241 68.4447 263.467 70.9353C263.802 71.3976 263.802 71.3976 264.144 71.8693C264.37 74.6713 264.596 77.4732 264.821 80.2752C265.045 80.5834 265.268 80.8916 265.499 81.2092C265.724 83.3885 265.95 85.5678 266.176 87.7471C266.399 88.0553 266.623 88.3635 266.853 88.6811C267.085 91.7936 267.31 94.9069 267.53 98.0209C267.754 98.9456 267.977 99.8702 268.208 100.823C265.499 101.757 265.499 101.757 262.112 100.823C260.754 95.7025 260.264 90.7423 259.784 85.3537C259.416 82.251 258.831 79.4867 258.049 76.5392C256.508 79.7262 256.176 82.1371 255.636 85.8791C254.714 92.2037 254.714 92.2037 253.985 95.219C252.421 95.219 250.856 95.219 249.244 95.219C248.707 93.6046 248.171 91.9894 247.636 90.3739C247.337 89.4746 247.039 88.5752 246.731 87.6486C245.945 85.2163 245.22 82.7473 244.503 80.2752C242.106 83.5819 243.097 95.5415 243.149 99.8889C241.137 99.8889 228.323 99.8889 212.662 99.8889C213.388 97.223 214.139 94.5573 214.901 91.8917C215.316 90.4072 215.732 88.9227 216.16 87.3932C217.78 83.0771 217.78 83.0771 220.539 79.6841C223.905 75.1971 222.736 70.7941 222.078 66.2763C223.747 60.5499 241.03 61.418 244.503 61.5954ZM243.149 76.5392C243.826 78.4072 243.826 78.4072 243.826 78.4072L243.149 76.5392Z" fill="black"/>
<path d="M12.3224 5.37329C13.3209 12.0866 14.1342 21.9048 14.0658 28.7887C14.2893 30.0215 33.4039 27.5185 33.6342 28.7887C37.7082 29.5146 37.7082 29.5146 40.4069 25.9867C40.3952 22.6245 40.3132 19.3532 40.1529 16.0047C40.1145 15.0819 40.0761 14.159 40.0365 13.2082C39.9407 10.9293 39.836 8.65105 39.7296 6.37299C42.4387 5.439 42.4387 5.439 45.1477 6.37299C45.7487 10.5883 45.8759 14.5155 45.825 18.8067C45.7881 25.6997 46.0177 32.5185 46.3541 39.3945C46.4711 42.0819 46.5023 44.7763 46.5023 47.4684C44.4705 48.4024 44.4705 48.4024 41.0841 48.4024C39.8116 46.6476 40.3481 43.6754 40.3645 41.3391C40.3707 40.2206 40.3768 39.1022 40.3831 37.9498C40.3909 37.0841 40.3988 36.2185 40.4069 35.3266C39.6971 35.3483 38.9873 35.3699 38.256 35.3923C36.8692 35.4175 36.8692 35.4175 35.4544 35.4433C34.0754 35.4758 14.7954 35.4101 13.3885 35.4433C10.9678 35.2609 3.31427 35.2152 1.28247 33.3472C0.763939 30.8444 0.763939 30.8444 0.435888 27.8601C0.320647 26.88 0.205406 25.9 0.086673 24.8903C-0.0720613 22.1394 -0.0720613 22.1394 0.605205 18.4034C0.499205 16.6669 0.355615 14.9343 0.181914 13.2081C-0.116474 7.2415 7.79489 5.37329 12.3224 5.37329Z" fill="black"/>
<path d="M199.258 6.69391C202.839 6.63227 225.303 5.36738 225.598 4.95808C226.042 4.3433 230.645 5.27286 231.313 6.11283C231.588 6.45803 231.522 7.49361 231.167 8.41331C230.811 9.333 230.647 10.5749 230.802 11.1732C230.957 11.7707 231.176 17.3415 231.288 23.5525C231.401 29.7628 231.674 35.0952 231.895 35.4009C232.72 36.5442 232.257 39.7652 231.149 40.5862C227.982 42.9319 227.133 40.4079 227.012 28.2866C226.964 23.5402 226.772 17.7656 226.584 15.4536L226.243 11.2513L223.154 11.4009C221.454 11.4831 219.78 11.7946 219.432 12.0921C218.919 12.531 218.746 22.9443 219.252 22.9443C219.328 22.9443 219.48 25.9032 219.591 29.5195C219.703 33.1358 219.956 36.8713 220.154 37.8214C220.868 41.2405 201.097 44.1754 199.211 41.5651C198.524 40.6142 198.393 38.6367 198.593 32.2523C198.733 27.7935 198.616 23.2813 198.333 22.2244C198.051 21.1674 198.019 18.7987 198.261 16.961C198.515 15.041 198.452 12.9682 198.113 12.0921C197.298 9.98476 197.992 6.7161 199.258 6.69391Z" fill="black"/>
<path d="M520.479 94.841H523.866L526.913 97.2205V100.62L522.172 104.699L517.093 102.32L514.384 98.9202L520.479 94.841Z" fill="black"/>
<path d="M510.32 65.2669L506.595 59.4881L514.384 51.6697H526.913C529.397 52.3495 534.499 54.865 535.04 59.4881C535.718 65.2669 545.626 75.125 524.926 83.9632L522.128 89.4021H517.093V83.9632L528.268 72.7454C529.946 68.7796 532.399 64.1792 529.961 61.1878C526.913 57.4485 522.172 57.1086 518.447 59.1482C515.467 60.7798 511.675 62.7741 510.32 65.2669Z" fill="black"/>
</svg>
