<svg width="378" height="93" viewBox="0 0 378 93" fill="none" xmlns="http://www.w3.org/2000/svg">
<path d="M191.369 23.353C192.392 27.9887 192.082 30.7259 191.651 35.7621C191.511 37.4249 191.371 39.0878 191.227 40.801C191.074 42.557 190.92 44.313 190.767 46.069C190.664 47.2748 190.726 45.7031 190.624 46.9089C190.576 47.4744 190.364 50.8173 190.316 51.3828C190.276 51.8567 190.236 52.3307 190.195 52.8046C189.866 56.6676 189.533 60.5301 189.196 64.3924C186.187 65.1051 183.507 64.8861 181.904 62.838C182.012 58.9488 182.012 58.9488 182.439 53.9217C182.513 53.0391 182.586 52.1565 182.661 51.2471C182.818 49.3801 182.979 47.5133 183.143 45.647C183.396 42.7792 183.636 39.9109 183.874 37.0418C185.177 21.6667 187.856 21.8857 191.369 23.353Z" fill="white"/>
<path d="M222.633 28.4329C225.771 29.3219 228.909 30.211 232.142 31.127C232.702 32.1218 233.263 33.1165 233.841 34.1415C235.703 34.9263 237.566 35.7111 239.484 36.5197C243.971 44.3353 242.944 52.1172 239.55 59.5299C237.559 60.3161 235.568 61.1024 233.517 61.9125C232.694 62.6558 231.871 63.3991 231.023 64.1649C223.201 68.474 207.39 66.4722 203.976 65.6007C201.377 64.0104 201.377 64.0104 200.593 59.1537C200.116 57.8494 199.638 56.5451 199.146 55.2013C199.144 54.6465 199.144 54.0914 199.145 53.536C199.148 52.4909 199.161 48.6543 199.176 47.6078C199.196 46.3369 199.222 47.8559 199.26 46.5838C199.169 45.3112 199.079 44.0385 198.985 42.7272C202.488 27.513 202.488 27.513 207.285 24.6542C209.726 24.354 217.079 25.1097 222.633 28.4329ZM205.392 36.541C203.646 43.8547 203.385 50.4941 204.852 57.5847C206.795 59.3656 209.455 59.6512 216.121 60.4909C228.711 55.5182 228.131 46.304 225.72 38.2705C215.904 31.8188 208.569 30.4224 205.392 36.541Z" fill="white"/>
<path d="M190.624 46.9089L190.316 51.3828C190.276 51.8567 190.236 52.3307 190.195 52.8046L199.145 53.536C199.148 52.4909 199.161 48.6543 199.176 47.6078L190.624 46.9089Z" fill="white"/>
<path d="M156.455 14.3798C156.271 16.9206 156.065 19.4605 155.832 21.9973C156.5 22.0123 171.85 23.3469 172.538 23.3625C176.308 25.2417 177.898 29.0618 179.623 34.6051C180.216 41.3482 179.15 46.433 176.972 52.6006C174.15 56.0863 156.657 57.1746 153.384 59.18C153.153 62.008 152.922 64.8359 152.683 67.7496C149.675 68.4623 149.675 68.4623 147.408 67.3185C147.672 63.5405 147.981 60.5335 148.85 56.8924C147.361 57.2452 132.922 57.0238 131.402 57.3837C130.899 56.3936 130.396 55.4035 129.877 54.3835C128.961 53.676 128.045 52.9685 127.102 52.2396C125.417 48.9253 125.442 44.8565 125.105 40.574C125.349 39.9613 125.594 39.3487 125.846 38.7175C126.004 37.3861 126.161 36.0546 126.324 34.6828C127.605 27.5768 130.002 24.4884 134.281 22.1532C135.081 21.9022 150.319 21.8726 151.143 21.614C151.18 18.7703 151.218 15.9265 151.257 12.9966C155.133 11.7796 155.133 11.7796 156.455 14.3798ZM131.745 31.5312C129.65 36.7726 128.836 42.1263 130.202 47.7003C131.583 50.2242 146.022 50.4456 149.239 52.1316C149.907 43.9619 150.574 35.7922 151.262 27.375C149.676 27.2454 133.03 30.165 131.745 31.5312ZM155.288 28.6625C154.49 32.6411 153.983 36.4233 153.655 40.5108C153.57 41.5417 153.484 42.5726 153.396 43.6347C153.227 46.6429 153.239 49.4898 153.342 52.4669C157.887 50.1071 174.17 47.1288 175.639 40.0307C174.635 33.6065 174.635 33.6065 171.549 30.0513C171.028 30.0284 155.825 28.686 155.288 28.6625Z" fill="white"/>
<path d="M64.8272 12.1155C72.8262 19.1042 72.877 23.8442 71.5932 31.4797C70.7238 37.3612 70.1537 42.3559 73.1388 48.2605C72.4829 49.7885 71.827 51.3165 71.1511 52.8907C68.0115 52.3179 64.8718 51.745 61.637 51.1547C61.6883 50.5263 61.7397 49.8978 61.7926 49.2504L62.0802 45.7305C61.4756 46.63 57.3861 50.7882 56.7632 51.715C49.4807 53.2512 47.7975 54.0746 45.0605 53.1546C44.0803 52.8484 44.0803 52.8484 43.0804 52.536C41.394 51.537 41.394 51.537 39.9467 47.5846C39.7102 41.3173 40.23 37.2648 43.065 32.4429C46.6434 28.6452 52.2658 27.1006 63.5812 27.3633C63.8123 24.5353 64.8226 21.1851 63.0258 17.8985C55.198 15.7959 50.7791 16.3337 48.2206 18.5461C47.5376 19.7556 46.8546 20.965 46.1509 22.2111C45.1837 22.1321 44.2165 22.0531 43.22 21.9716C44.0889 13.0902 44.0889 13.0902 46.1784 10.5912C50.0107 9.41373 55.6617 8.55019 64.8272 12.1155ZM49.6962 32.9848C48.7033 33.22 48.507 34.5387 47.484 34.781C47.407 35.7237 46.8082 35.8297 46.7289 36.8009C46.1229 37.0677 46.0386 38.1711 45.4143 38.446C44.2223 42.2867 44.2223 42.2867 45.3779 46.1113C47.2964 47.3065 47.2964 47.3065 49.4034 47.3988C59.0857 42.3505 58.0089 38.2127 58.3972 31.7193C54.8414 31.2028 50.9043 30.9405 49.6962 32.9848Z" fill="white"/>
<path d="M5.31928 13.168C8.42309 13.3584 27.9715 13.6577 28.261 13.2613C28.6966 12.666 32.6027 13.9392 33.1114 14.8428C33.3205 15.2142 33.1772 16.2653 32.7928 17.1777C32.4084 18.0902 32.1631 19.3446 32.2474 19.9656C32.3317 20.5857 32.0572 26.2805 31.6369 32.6204C31.2171 38.9595 31.0093 44.4151 31.175 44.7424C31.794 45.9663 31.1243 49.2172 30.097 49.9759C27.1611 52.1433 26.6366 49.5101 27.541 37.1442C27.8954 32.302 28.21 26.4013 28.2402 24.031L28.2953 19.7228L25.6087 19.6567C24.1311 19.6203 22.6555 19.8194 22.3296 20.0981C21.849 20.5093 20.8325 31.1133 21.2703 31.149C21.3355 31.1544 21.2211 34.1816 21.0159 37.8762C20.8113 41.5708 20.719 45.397 20.8114 46.3796C21.1448 49.9158 3.78814 51.5095 2.37354 48.715C1.85821 47.697 1.90939 45.6717 2.61446 39.1771C3.10668 34.6413 3.38136 30.033 3.22481 28.9355C3.06878 27.838 3.23785 25.4209 3.60113 23.5645C3.98051 21.6251 4.09872 19.5075 3.87829 18.5903C3.34882 16.3843 4.22134 13.1011 5.31928 13.168Z" fill="white"/>
<path fill-rule="evenodd" clip-rule="evenodd" d="M89.8319 12.9449C89.57 13.3315 88.2183 13.4485 86.8281 13.2055L84.301 12.7642L82.347 39.5149C81.2722 54.2279 80.4603 66.8586 80.5429 67.5823C80.6254 68.3069 81.6247 68.975 82.7644 69.0681L84.8355 69.2374L85.6312 59.4999L86.4269 49.7635L88.7197 50.8973L89.981 51.572C89.981 51.572 95.0427 50.356 97.9248 50.5915C107.532 51.3766 119.85 46.2976 120.793 41.3107C121.728 36.3606 121.923 28.8885 121.143 27.8825C120.888 27.5538 120.743 26.4944 120.822 25.5283C120.952 23.9393 112.865 20.2419 98.559 15.3475C92.6546 13.328 90.5708 11.8575 89.8319 12.9449ZM87.6186 26.6685C88.0038 22.9737 88.4006 21.7737 89.5221 20.9189C92.6517 18.5326 101.469 23.0692 101.262 28.1194C101.221 29.0938 102.763 31.2191 104.686 32.8424C107.223 34.9833 107.191 36.3581 104.57 37.8396C102.583 38.9627 100.102 40.6195 99.0613 41.5205C98.0205 42.4226 89.4317 43.8521 89.4317 43.8521L88.4217 44.0674C88.4217 44.0674 86.8019 41.6268 86.8962 38.9549C86.9634 37.056 87.0435 34.5655 87.0746 33.4202C87.1061 32.2749 87.3509 29.2365 87.6186 26.6685Z" fill="white"/>
<path fill-rule="evenodd" clip-rule="evenodd" d="M343.702 32.9932C343.441 33.3799 342.089 33.4969 340.699 33.2539L338.172 32.8126L336.218 59.5633C335.143 74.2762 334.331 86.907 334.413 87.6306C334.496 88.3552 335.495 89.0234 336.635 89.1165L338.706 89.2857L339.502 79.5483L340.297 69.8119L342.59 70.9457L343.852 71.6204C343.852 71.6204 348.913 70.4044 351.795 70.6399C361.403 71.425 373.72 66.346 374.663 61.359C375.599 56.409 375.794 48.9369 375.014 47.9309C374.758 47.6022 374.614 46.5427 374.693 45.5767C374.823 43.9876 366.736 40.2902 352.43 35.3959C346.525 33.3763 344.441 31.9058 343.702 32.9932ZM341.489 46.7168C341.874 43.022 342.271 41.8221 343.393 40.9673C346.522 38.5809 355.339 43.1175 355.132 48.1678C355.091 49.1422 356.633 51.2675 358.557 52.8908L358.441 57.8879C356.454 59.0111 353.973 60.6678 352.932 61.5689C351.891 62.4709 343.302 63.9004 343.302 63.9004L342.292 64.1157C342.292 64.1157 340.672 61.6752 340.767 59.0032C340.834 57.1043 340.914 54.6138 340.945 53.4685C340.977 52.3233 341.222 49.2848 341.489 46.7168Z" fill="white"/>
<path d="M274.154 27.0461C274.508 29.579 274.862 32.1119 275.216 34.6448C275.399 35.9435 275.583 37.2422 275.771 38.5803C276.189 41.5937 276.577 44.6268 276.958 47.6647C277.269 48.3983 277.579 49.1319 277.899 49.8878C278.243 48.3037 278.243 48.3037 278.594 46.6875C279.653 42.3998 280.875 38.7057 282.292 34.7536C282.752 33.4645 283.212 32.1755 283.686 30.8474C284.21 29.3942 284.21 29.3942 284.746 27.9117C288.502 29.1576 288.502 29.1576 289.031 30.4081C288.985 33.266 288.938 36.1239 288.892 38.9817C289.125 39.532 289.125 39.532 289.362 40.0933C289.287 43.3065 289.211 46.5197 289.136 49.7329C289.291 50.0997 289.446 50.4666 289.606 50.8445C289.589 53.347 289.571 55.8496 289.554 58.3521C289.709 58.7189 289.864 59.0857 290.024 59.4637C289.924 63.0317 289.819 66.6003 289.71 70.1693C289.808 71.2397 289.906 72.31 290.007 73.4129C287.689 74.2966 287.689 74.2966 284.989 73.0029C284.349 67.0673 284.408 61.373 284.516 55.1905C284.502 51.6244 284.278 48.43 283.909 45.0133C282.344 48.5472 281.846 51.2765 281.052 55.5111C279.703 62.6677 279.703 62.6677 278.822 66.0601C277.534 65.9549 276.247 65.8497 274.92 65.7412C274.628 63.8625 274.338 61.983 274.048 60.1031C273.886 59.0565 273.724 58.01 273.557 56.9317C273.137 54.1028 272.771 51.236 272.411 48.3662C270.129 51.9791 269.83 65.6959 269.467 70.6613C267.811 70.526 257.263 69.664 244.372 68.6105C245.219 65.6166 246.086 62.6246 246.961 59.6334C247.442 57.9671 247.922 56.3007 248.417 54.5838C250.153 49.7667 250.153 49.7667 252.74 46.0796C255.929 41.1848 255.378 36.0807 255.258 30.8802C257.166 24.4565 271.311 26.6099 274.154 27.0461ZM271.645 44.0111C272.028 46.1887 272.028 46.1887 272.028 46.1887L271.645 44.0111Z" fill="white"/>
<path fill-rule="evenodd" clip-rule="evenodd" d="M308.885 30.3721C307.33 30.5545 306.213 31.5648 304.663 34.1939C303.503 36.1605 302.491 38.5232 302.414 39.4463C302.336 40.3684 301.823 42.3816 301.273 43.9186C299.954 47.6083 299.059 63.0161 300.015 65.6035C300.377 66.5825 300.633 67.8801 300.583 68.4855C300.458 70.0237 302.643 73.1501 303.917 73.2542C304.5 73.3018 305.086 73.8218 305.222 74.4099C305.95 77.5756 314.94 74.0795 323.326 69.0978C329.614 65.363 328.645 64.1288 317.931 62.2241C317.931 62.2241 311.188 60.3932 311.084 61.6646C310.884 64.1041 307.463 68.3029 306.126 67.4792C304.028 66.1864 302.931 54.4187 304.902 54.3479C305.388 54.331 317.908 55.0265 319.967 54.9818C324.256 54.8886 325.435 53.5844 325.829 48.493C326.375 41.4429 325.947 36.6988 324.495 33.6973C323.708 32.0689 322.697 30.7683 322.249 30.8051C321.801 30.842 310.047 30.2363 308.885 30.3721ZM305.939 42.5385C306.172 39.6884 307.131 38.209 309.024 37.7835C310.741 37.3972 321.862 39.5918 321.97 43.8472C322.043 46.6888 321.869 47.2673 320.782 47.8226C317.788 49.3497 303.315 47.4308 305.144 45.5651C305.473 45.23 305.83 43.8682 305.939 42.5385Z" fill="white"/>
</svg>
