<svg width="377" height="73" viewBox="0 0 377 73" fill="none" xmlns="http://www.w3.org/2000/svg">
<path d="M316.59 32.6599C318.013 32.5567 319.436 32.4097 320.857 32.1894C321.115 33.8539 321.374 35.5184 321.64 37.2334C319.149 39.1567 317.621 38.6781 314.905 38.3258C314.806 39.555 314.806 39.555 314.705 40.8091C314.408 44.4966 314.105 48.1836 313.802 51.8707C313.699 53.1609 313.595 54.4511 313.489 55.7804C313.337 57.6165 313.337 57.6165 313.182 59.4897C313.044 61.1921 313.044 61.1921 312.902 62.9289C312.616 65.5123 312.616 65.5123 311.947 66.2857C310.545 66.2016 300.75 65.3783 299.354 65.2256C299.065 62.2277 299.111 60.0191 299.361 57.0105C299.44 56.0733 299.518 55.136 299.598 54.1703C299.683 53.1951 299.767 52.2199 299.854 51.2151C299.973 49.7565 299.973 49.7565 300.095 48.2683C300.175 47.3301 300.254 46.392 300.337 45.4253C300.409 44.5706 300.482 43.7158 300.557 42.8351C300.835 40.4601 300.835 40.4601 301.781 36.3914C299.779 36.4967 297.778 36.6019 295.715 36.7104C294.793 33.3141 294.793 33.3141 295.001 30.8426C299.566 30.1502 312.232 31.0586 316.59 32.6599Z" fill="white"/>
<path d="M57.6333 5.66732C60.923 9.86485 61.8191 13.3435 60.95 19.8037C59.4733 19.6794 57.9965 19.5551 56.4751 19.427C56.2315 17.2725 55.9879 15.118 55.737 12.8982C51.9052 12.5224 51.9052 12.5224 49.0401 15.972C47.3027 22.6679 46.7326 29.5562 47.9758 36.264C49.7656 37.9034 49.7656 37.9034 51.6571 38.4215C54.0427 35.8711 54.0427 35.8711 55.4712 31.3521C56.7115 31.7613 57.9518 32.1706 59.2297 32.5923C59.649 37.3169 58.8565 38.1449 56.5397 41.604C56.1177 41.5684 55.6958 41.5329 55.2611 41.4963C54.7373 42.6717 54.2134 43.847 53.6737 45.058C47.721 45.3017 45.4887 44.3689 42.0678 37.6143C41.9843 36.083 41.9007 34.5517 41.8146 32.9739C41.7056 31.7453 41.5965 30.5167 41.4842 29.2509C41.6713 27.3014 41.9066 25.3566 42.1762 23.4198C42.3115 22.4142 42.4468 21.4086 42.5862 20.3725C44.7217 8.56137 49.1451 2.53784 57.6333 5.66732Z" fill="white"/>
<path d="M175.72 16.2115C179.01 20.409 179.906 23.8877 179.037 30.3479C177.56 30.2236 176.083 30.0993 174.562 29.9712C174.318 27.8167 174.075 25.6622 173.824 23.4424C169.992 23.0666 169.992 23.0666 167.127 26.5162C165.389 33.2121 164.819 40.1004 166.062 46.8082C167.852 48.4476 167.852 48.4476 169.744 48.9657C172.129 46.4153 172.129 46.4153 173.558 41.8963C174.798 42.3055 176.038 42.7148 177.316 43.1365C177.736 47.861 176.943 48.6891 174.626 52.1482C174.204 52.1126 173.782 52.0771 173.348 52.0405C172.824 53.2159 172.3 54.3912 171.76 55.6021C165.808 55.8459 163.575 54.9131 160.154 48.1585C160.071 46.6272 159.987 45.0959 159.901 43.5181C159.792 42.2895 159.683 41.0609 159.571 39.7951C159.758 37.8456 159.993 35.9008 160.263 33.964C160.398 32.9584 160.533 31.9528 160.673 30.9167C162.808 19.1056 167.232 13.082 175.72 16.2115Z" fill="white"/>
<path d="M252.698 26.2476C252.557 23.4285 252.726 22.9026 254.017 22.1298C257.475 20.059 257.907 21.284 257.114 30.9104C256.78 34.9504 256.654 38.5182 256.831 38.8384C257.295 39.6759 271.369 41.6183 272.269 40.9174C272.792 40.5098 273.155 37.8371 273.44 32.2847L273.854 24.2423L276.147 24.4352L288.212 25.0083L287.678 31.06C286.349 46.1227 285.593 60.5952 286.06 62.0426C286.721 64.0962 286.435 64.3711 283.521 64.4843L271.323 64.199L271.547 60.6169C271.671 58.6456 271.93 54.7521 272.125 51.964L272.477 46.8951L260.56 45.453C258.651 45.4206 256.873 45.4317 256.607 45.4771C256.15 45.556 255.368 57.1541 255.636 59.8907C255.721 60.7568 254.976 61.3625 253.356 61.7455C252.034 62.0578 250.846 62.124 250.717 61.8919C250.589 61.6598 251.019 54.2725 251.672 45.4744C252.326 36.6771 252.787 28.0254 252.698 26.2476Z" fill="white"/>
<path d="M200.555 19.2685C201.977 19.1653 203.401 19.0183 204.822 18.798C205.08 20.4625 204.669 30.3965 204.935 32.1115C202.444 34.0348 200.916 33.5561 198.2 33.2038C198.101 34.4331 198.67 27.4177 198.67 27.4177C198.372 31.1052 198.07 34.7922 197.767 38.4793C197.664 39.7695 197.56 41.0597 197.454 42.389C197.302 44.2251 197.302 44.2251 197.147 46.0983C197.009 47.8007 197.009 47.8007 196.867 49.5375C196.581 52.1209 196.581 52.1209 195.912 52.8943C194.51 52.8102 193.11 52.6936 191.714 52.5409C191.426 49.5431 191.471 47.3344 191.722 44.3258C191.8 43.3886 191.878 42.4513 191.959 41.4856C192.043 40.5104 192.127 39.5352 192.214 38.5304C192.334 37.0718 192.334 37.0718 192.455 35.5836C192.535 34.6455 192.615 33.7073 192.697 32.7406L192.756 32.0138L193.472 31.9762C191.47 32.0815 189.468 32.1867 187.405 32.2952C186.483 28.8989 187.153 20.6294 187.362 18.1579C191.926 17.4655 196.197 17.6672 200.555 19.2685Z" fill="white"/>
<path d="M25.8446 6.33179C34.0956 12.5097 34.1983 16.6175 32.9677 23.2137C32.1419 28.2966 31.6127 32.6156 34.7271 37.7774C34.073 39.0913 33.4189 40.4052 32.7449 41.7589C29.5295 41.2144 26.3141 40.67 23.0013 40.109C23.047 39.5653 23.0928 39.0216 23.14 38.4613L23.3963 35.4159C22.788 36.1861 18.6522 39.7263 18.0254 40.5198C10.598 41.7394 8.88624 42.4271 6.07878 41.588C5.07359 41.3077 5.07359 41.3077 4.04808 41.0217C2.31368 40.1303 2.31368 40.1303 0.792034 36.6835C0.483246 31.2496 0.97114 27.7462 3.81744 23.6116C7.43448 20.3758 13.165 19.1235 24.734 19.5243C24.94 17.0775 25.9369 14.1902 24.0651 11.315C16.0413 9.37325 11.5301 9.77164 8.93867 11.6494C8.25344 12.6869 7.56822 13.7244 6.86223 14.7933C5.87275 14.7101 4.88328 14.6268 3.86382 14.5409C4.65699 6.85882 4.65699 6.85882 6.76608 4.72547C10.6707 3.76395 16.4377 3.10224 25.8446 6.33179ZM10.6014 24.1826C9.589 24.3712 9.40246 25.5108 8.35942 25.7051C8.29076 26.5207 7.67987 26.6034 7.60913 27.4437C6.99256 27.6656 6.91823 28.6204 6.28298 28.849C5.10568 32.1586 5.10568 32.1586 6.32787 35.4902C8.30165 36.5551 8.30165 36.5551 10.4563 36.6674C20.2992 32.4414 19.1543 28.8396 19.4818 23.2193C15.8416 22.7173 11.8144 22.4298 10.6014 24.1826Z" fill="white"/>
<path d="M70.7222 11.9402C70.8558 11.3607 72.0662 10.0094 73.3203 8.92995C75.1458 7.3594 76.1316 7.09917 78.2649 7.62287C79.7302 7.98286 101.036 10.5919 101.685 11.4404C103.138 13.3403 104.333 18.2621 104.077 21.2988C103.903 23.3679 103.693 23.5245 101.664 23.0972C99.9909 22.7459 79.8508 20.5637 79.8014 19.1985C79.6861 16.0239 78.2482 13.9375 76.5131 14.4273C74.2939 15.0534 73.3051 16.2898 73.103 18.6915C73.0066 19.8359 72.6356 20.9987 72.2792 21.2767C71.4876 21.8938 70.8982 34.5314 71.5472 36.9723C71.7959 37.9082 72.7313 39.1367 73.6252 39.7024C74.9976 40.5712 75.4814 40.4313 76.7352 38.8027C77.5515 37.7424 78.2724 36.2495 78.3368 35.4845C78.4011 34.7204 78.7151 33.8906 79.034 33.642C80.0079 32.884 102.826 36.1623 102.724 37.3676C102.572 39.1775 100.874 42.5968 98.6996 45.4738C96.9811 47.747 76.6827 46.4836 74.2087 46.2753C71.7622 46.0694 70.9338 45.4866 68.929 42.5613C67.3602 40.2715 67.2255 38.4339 67.341 37.0617C67.4374 35.9164 67.3768 34.7507 67.2068 34.47C66.8851 33.938 68.0924 21.9394 68.7013 19.6189C68.8926 18.8898 69.0543 17.7456 69.0602 17.0768C69.0666 16.408 69.3882 15.2158 69.7753 14.4274C70.1623 13.6389 70.5881 12.5205 70.7222 11.9402Z" fill="white"/>
<path d="M119.168 14.4205C119.051 11.7661 112.385 12.0345 112.524 10.3868L111.939 17.3379L111.283 25.129L109.542 45.8117C109.519 46.0918 114.38 45.9454 116.139 46.3672L117.685 42.3489C118.423 40.7517 132.858 27.109 133.596 25.5118C133.33 26.3107 133.756 32.6944 133.481 33.5175L133.176 36.7807C132.758 41.1323 133.454 48.7306 133.454 48.7306L151.525 49.2876C151.682 47.4158 151.716 45.5309 151.361 43.6216C150.514 39.7949 149.747 36.0015 149.94 32.2463C150.221 29.8859 150.429 27.5191 150.628 25.1516L139.503 12.7343L135.306 12.3809C134.284 14.7745 133.278 17.1804 132.283 19.5935C131.77 21.2214 131.239 22.841 130.667 24.4355C128.73 25.9318 124.064 31.1386 124.064 31.1386C121.589 31.8362 117.437 36.9039 117.199 37.8079C117.249 37.1212 117.487 30.185 117.536 29.5186L117.744 26.8494C117.876 25.1148 118.034 23.3815 118.219 21.6521C119.166 17.5834 119.166 17.5834 119.168 14.4205Z" fill="white"/>
<path d="M243.324 27.7464C244.012 32.487 244.064 36.2883 242.814 40.9782C240.922 43.1655 239.652 42.7077 237.272 42.6896C236.52 42.6883 221.524 41.4881 220.749 41.4867C219.487 41.4589 218.226 41.3975 216.969 41.2917C216.456 45.0819 215.56 50.7892 217.115 53.917C218.865 55.1925 233.795 55.3939 235.504 56.0689C235.55 55.5252 235.799 52.5673 235.846 52.0071C236.486 51.5134 237.125 51.0196 237.784 50.5109C238.051 49.712 238.317 48.913 238.592 48.0899C239.954 48.4784 241.316 48.8668 242.72 49.2671C243.335 53.2236 241.7 54.4758 239.628 57.3035C235.422 60.4462 218.422 58.221 214.591 55.1959C210.876 51.1702 211.338 46.2871 211.642 40.0136C211.662 39.1768 211.683 38.34 211.704 37.4779C212.59 31.4472 214.094 26.7177 217.895 23.1169C218.116 22.8617 218.337 22.6065 218.564 22.3435C222.925 21.7241 240.6 22.8613 243.324 27.7464ZM219.209 29.0351C217.766 32.2423 217.766 32.2423 216.855 35.4744C219.577 36.6729 229.11 37.0267 231.997 36.749C232.005 34.2856 232.67 31.1923 232.679 28.6542C230.415 27.3779 221.533 27.6515 219.209 29.0351Z" fill="white"/>
<path d="M362.489 33.2567C377.008 38.1183 375.919 40.2352 375.365 44.2431C375.213 45.5689 375.061 46.8946 374.904 48.2606C374.682 49.6558 374.458 51.0509 374.233 52.4458C374.051 53.8564 373.875 55.2675 373.705 56.6791C373.265 60.1337 372.768 63.5831 372.219 67.0284C340.944 65.162 357.777 66.579 356.011 64.8976C356.046 61.7842 356.046 61.7842 356.402 57.7671C356.463 57.0618 356.524 56.3565 356.586 55.6298C356.716 54.1378 356.85 52.6462 356.989 51.155C357.202 48.8636 357.401 46.5715 357.597 44.2787C358.681 31.9926 362.489 33.2567 362.489 33.2567Z" fill="white"/>
<path d="M331.447 30.6271C332.82 30.7427 334.192 30.8582 335.606 30.9772C334.876 34.9661 334.145 38.955 333.392 43.0648C335.481 42.8833 344.941 43.9363 347.072 43.751C350.8 45.6903 351.749 48.0339 352.219 52.8031C351.944 57.5004 349.83 60.9645 346.552 63.6976C343.269 65.1265 330.344 64.6841 327.604 62.0716C327.568 59.9621 327.568 59.9621 327.808 57.3112C327.891 56.3586 327.974 55.4061 328.06 54.4247C328.157 53.4248 328.253 52.425 328.353 51.3949C328.44 50.3998 328.526 49.4048 328.616 48.3796C329.285 40.9996 329.285 40.9996 330.25 37.7463C330.153 36.5469 330.057 35.3475 329.957 34.1117C330.449 32.9618 330.941 31.8119 331.447 30.6271ZM333.03 47.3663C332.607 51.4317 332.332 54.8314 332.658 58.8871C335.865 58.0079 345.325 59.061 347.234 56.0387C347.776 53.1776 347.986 51.6981 346.764 49.1852C345.469 47.9009 334.606 45.76 333.03 47.3663Z" fill="white"/>
</svg>
