<svg width="231" height="63" viewBox="0 0 231 63" fill="none" xmlns="http://www.w3.org/2000/svg">
<rect x="1.5" y="1.5" width="228" height="60" rx="30" fill="#B5CAD6" stroke="black" stroke-width="3"/>
<path d="M42.44 29H53.384V41H50.264V31.832H45.56V41H42.44V29ZM62.0761 41.336C61.1481 41.336 60.2921 41.176 59.5081 40.856C58.7241 40.536 58.0441 40.096 57.4681 39.536C56.9081 38.976 56.4681 38.312 56.1481 37.544C55.8441 36.76 55.6921 35.912 55.6921 35C55.6921 34.088 55.8441 33.248 56.1481 32.48C56.4681 31.696 56.9081 31.024 57.4681 30.464C58.0441 29.904 58.7241 29.464 59.5081 29.144C60.2921 28.824 61.1481 28.664 62.0761 28.664C63.0201 28.664 63.8761 28.824 64.6441 29.144C65.4281 29.464 66.1001 29.904 66.6601 30.464C67.2361 31.024 67.6761 31.696 67.9801 32.48C68.3001 33.248 68.4601 34.088 68.4601 35C68.4601 35.912 68.3001 36.76 67.9801 37.544C67.6761 38.312 67.2361 38.976 66.6601 39.536C66.1001 40.096 65.4281 40.536 64.6441 40.856C63.8761 41.176 63.0201 41.336 62.0761 41.336ZM62.0761 38.456C62.5401 38.456 62.9641 38.376 63.3481 38.216C63.7481 38.04 64.0921 37.8 64.3801 37.496C64.6681 37.176 64.8921 36.808 65.0521 36.392C65.2121 35.96 65.2921 35.496 65.2921 35C65.2921 34.488 65.2121 34.024 65.0521 33.608C64.8921 33.192 64.6681 32.832 64.3801 32.528C64.0921 32.208 63.7481 31.968 63.3481 31.808C62.9641 31.632 62.5401 31.544 62.0761 31.544C61.6121 31.544 61.1801 31.632 60.7801 31.808C60.3961 31.968 60.0601 32.208 59.7721 32.528C59.4841 32.832 59.2601 33.192 59.1001 33.608C58.9401 34.024 58.8601 34.488 58.8601 35C58.8601 35.496 58.9401 35.96 59.1001 36.392C59.2601 36.808 59.4841 37.176 59.7721 37.496C60.0601 37.8 60.3961 38.04 60.7801 38.216C61.1801 38.376 61.6121 38.456 62.0761 38.456ZM69.6084 38.168H70.7604C70.9044 37.928 71.0404 37.656 71.1684 37.352C71.2964 37.048 71.4004 36.656 71.4804 36.176C71.5604 35.696 71.6244 35.096 71.6724 34.376C71.7204 33.656 71.7444 32.76 71.7444 31.688V29H81.5364V38.168H83.4084V43.976H80.3364V41H72.6804V43.976H69.6084V38.168ZM78.4164 38.168V31.832H74.7684V32.72C74.7684 33.472 74.7524 34.12 74.7204 34.664C74.6884 35.208 74.6404 35.688 74.5764 36.104C74.5284 36.52 74.4564 36.888 74.3604 37.208C74.2644 37.528 74.1524 37.848 74.0244 38.168H78.4164ZM94.8313 29V31.832H91.2073V41H88.0873V31.832H84.4633V29H94.8313ZM96.6978 29H102.554C103.754 29 104.69 29.272 105.362 29.816C106.034 30.36 106.37 31.088 106.37 32C106.37 32.608 106.21 33.144 105.89 33.608C105.586 34.056 105.154 34.392 104.594 34.616C105.314 34.856 105.866 35.232 106.25 35.744C106.65 36.256 106.85 36.888 106.85 37.64C106.85 38.664 106.49 39.48 105.77 40.088C105.05 40.696 104.066 41 102.818 41H96.6978V29ZM102.074 33.656C102.538 33.656 102.882 33.544 103.106 33.32C103.33 33.08 103.442 32.808 103.442 32.504C103.442 32.2 103.33 31.944 103.106 31.736C102.882 31.512 102.538 31.4 102.074 31.4H99.5778V33.656H102.074ZM102.434 38.6C102.93 38.6 103.298 38.48 103.538 38.24C103.794 37.984 103.922 37.672 103.922 37.304C103.922 36.936 103.794 36.632 103.538 36.392C103.298 36.136 102.93 36.008 102.434 36.008H99.5778V38.6H102.434ZM114.904 41.336C113.96 41.336 113.096 41.184 112.312 40.88C111.528 40.56 110.856 40.128 110.296 39.584C109.736 39.024 109.296 38.352 108.976 37.568C108.672 36.784 108.52 35.928 108.52 35C108.52 34.072 108.672 33.224 108.976 32.456C109.296 31.672 109.736 31 110.296 30.44C110.856 29.88 111.52 29.448 112.288 29.144C113.056 28.824 113.904 28.664 114.832 28.664C115.712 28.664 116.512 28.808 117.232 29.096C117.968 29.384 118.592 29.792 119.104 30.32C119.632 30.832 120.04 31.456 120.328 32.192C120.616 32.912 120.76 33.72 120.76 34.616C120.76 34.792 120.752 34.984 120.736 35.192C120.72 35.4 120.696 35.624 120.664 35.864H111.592C111.752 36.728 112.128 37.408 112.72 37.904C113.312 38.4 114.064 38.648 114.976 38.648C115.648 38.648 116.24 38.512 116.752 38.24C117.28 37.952 117.704 37.528 118.024 36.968L120.208 38.696C119.616 39.544 118.872 40.2 117.976 40.664C117.08 41.112 116.056 41.336 114.904 41.336ZM114.784 31.256C114 31.256 113.336 31.472 112.792 31.904C112.248 32.32 111.872 32.904 111.664 33.656H117.664C117.568 32.92 117.264 32.336 116.752 31.904C116.24 31.472 115.584 31.256 114.784 31.256ZM122.971 29H126.091V30.608C126.555 29.984 127.115 29.504 127.771 29.168C128.427 28.832 129.171 28.664 130.003 28.664C130.803 28.664 131.539 28.824 132.211 29.144C132.899 29.448 133.491 29.88 133.987 30.44C134.499 30.984 134.891 31.648 135.163 32.432C135.451 33.2 135.595 34.056 135.595 35C135.595 35.928 135.451 36.784 135.163 37.568C134.891 38.352 134.507 39.024 134.011 39.584C133.515 40.128 132.923 40.56 132.235 40.88C131.563 41.184 130.827 41.336 130.027 41.336C129.195 41.336 128.443 41.168 127.771 40.832C127.115 40.496 126.555 40.016 126.091 39.392V45.8H122.971V29ZM129.283 38.456C129.731 38.456 130.147 38.376 130.531 38.216C130.915 38.04 131.243 37.8 131.515 37.496C131.803 37.176 132.027 36.808 132.187 36.392C132.347 35.96 132.427 35.496 132.427 35C132.427 34.488 132.347 34.024 132.187 33.608C132.027 33.192 131.803 32.832 131.515 32.528C131.243 32.208 130.915 31.968 130.531 31.808C130.147 31.632 129.731 31.544 129.283 31.544C128.819 31.544 128.387 31.632 127.987 31.808C127.603 31.968 127.267 32.208 126.979 32.528C126.707 32.832 126.491 33.192 126.331 33.608C126.171 34.024 126.091 34.488 126.091 35C126.091 35.496 126.171 35.96 126.331 36.392C126.491 36.808 126.707 37.176 126.979 37.496C127.267 37.8 127.603 38.04 127.987 38.216C128.387 38.376 128.819 38.456 129.283 38.456ZM136.757 38.168H137.909C138.053 37.928 138.189 37.656 138.317 37.352C138.445 37.048 138.549 36.656 138.629 36.176C138.709 35.696 138.773 35.096 138.821 34.376C138.869 33.656 138.893 32.76 138.893 31.688V29H148.685V38.168H150.557V43.976H147.485V41H139.829V43.976H136.757V38.168ZM145.565 38.168V31.832H141.917V32.72C141.917 33.472 141.901 34.12 141.869 34.664C141.837 35.208 141.789 35.688 141.725 36.104C141.677 36.52 141.605 36.888 141.509 37.208C141.413 37.528 141.301 37.848 141.173 38.168H145.565ZM155.74 29V36.44L160.564 29H163.66V41H160.54V33.56L155.716 41H152.62V29H155.74ZM175.902 29V31.832H172.278V41H169.158V31.832H165.534V29H175.902ZM180.696 38.384H182.904C183.544 38.384 184.024 38.232 184.344 37.928C184.68 37.608 184.848 37.192 184.848 36.68C184.848 36.168 184.68 35.76 184.344 35.456C184.024 35.136 183.544 34.976 182.904 34.976H180.696V38.384ZM177.768 41V29H180.696V32.36H183.336C184.024 32.36 184.64 32.472 185.184 32.696C185.744 32.904 186.216 33.2 186.6 33.584C187 33.968 187.304 34.424 187.512 34.952C187.72 35.48 187.824 36.056 187.824 36.68C187.824 37.304 187.72 37.88 187.512 38.408C187.304 38.936 187 39.392 186.6 39.776C186.216 40.16 185.744 40.464 185.184 40.688C184.64 40.896 184.024 41 183.336 41H177.768Z" fill="#0E0E0E"/>
</svg>
