<svg width="231" height="63" viewBox="0 0 231 63" fill="none" xmlns="http://www.w3.org/2000/svg">
<rect width="231" height="63" rx="31.5" fill="#D1D1D1"/>
<path d="M43.44 29H54.384V41H51.264V31.832H46.56V41H43.44V29ZM63.0761 41.336C62.1481 41.336 61.2921 41.176 60.5081 40.856C59.7241 40.536 59.0441 40.096 58.4681 39.536C57.9081 38.976 57.4681 38.312 57.1481 37.544C56.8441 36.76 56.6921 35.912 56.6921 35C56.6921 34.088 56.8441 33.248 57.1481 32.48C57.4681 31.696 57.9081 31.024 58.4681 30.464C59.0441 29.904 59.7241 29.464 60.5081 29.144C61.2921 28.824 62.1481 28.664 63.0761 28.664C64.0201 28.664 64.8761 28.824 65.6441 29.144C66.4281 29.464 67.1001 29.904 67.6601 30.464C68.2361 31.024 68.6761 31.696 68.9801 32.48C69.3001 33.248 69.4601 34.088 69.4601 35C69.4601 35.912 69.3001 36.76 68.9801 37.544C68.6761 38.312 68.2361 38.976 67.6601 39.536C67.1001 40.096 66.4281 40.536 65.6441 40.856C64.8761 41.176 64.0201 41.336 63.0761 41.336ZM63.0761 38.456C63.5401 38.456 63.9641 38.376 64.3481 38.216C64.7481 38.04 65.0921 37.8 65.3801 37.496C65.6681 37.176 65.8921 36.808 66.0521 36.392C66.2121 35.96 66.2921 35.496 66.2921 35C66.2921 34.488 66.2121 34.024 66.0521 33.608C65.8921 33.192 65.6681 32.832 65.3801 32.528C65.0921 32.208 64.7481 31.968 64.3481 31.808C63.9641 31.632 63.5401 31.544 63.0761 31.544C62.6121 31.544 62.1801 31.632 61.7801 31.808C61.3961 31.968 61.0601 32.208 60.7721 32.528C60.4841 32.832 60.2601 33.192 60.1001 33.608C59.9401 34.024 59.8601 34.488 59.8601 35C59.8601 35.496 59.9401 35.96 60.1001 36.392C60.2601 36.808 60.4841 37.176 60.7721 37.496C61.0601 37.8 61.3961 38.04 61.7801 38.216C62.1801 38.376 62.6121 38.456 63.0761 38.456ZM70.6084 38.168H71.7604C71.9044 37.928 72.0404 37.656 72.1684 37.352C72.2964 37.048 72.4004 36.656 72.4804 36.176C72.5604 35.696 72.6244 35.096 72.6724 34.376C72.7204 33.656 72.7444 32.76 72.7444 31.688V29H82.5364V38.168H84.4084V43.976H81.3364V41H73.6804V43.976H70.6084V38.168ZM79.4164 38.168V31.832H75.7684V32.72C75.7684 33.472 75.7524 34.12 75.7204 34.664C75.6884 35.208 75.6404 35.688 75.5764 36.104C75.5284 36.52 75.4564 36.888 75.3604 37.208C75.2644 37.528 75.1524 37.848 75.0244 38.168H79.4164ZM95.8313 29V31.832H92.2073V41H89.0873V31.832H85.4633V29H95.8313ZM97.6978 29H103.554C104.754 29 105.69 29.272 106.362 29.816C107.034 30.36 107.37 31.088 107.37 32C107.37 32.608 107.21 33.144 106.89 33.608C106.586 34.056 106.154 34.392 105.594 34.616C106.314 34.856 106.866 35.232 107.25 35.744C107.65 36.256 107.85 36.888 107.85 37.64C107.85 38.664 107.49 39.48 106.77 40.088C106.05 40.696 105.066 41 103.818 41H97.6978V29ZM103.074 33.656C103.538 33.656 103.882 33.544 104.106 33.32C104.33 33.08 104.442 32.808 104.442 32.504C104.442 32.2 104.33 31.944 104.106 31.736C103.882 31.512 103.538 31.4 103.074 31.4H100.578V33.656H103.074ZM103.434 38.6C103.93 38.6 104.298 38.48 104.538 38.24C104.794 37.984 104.922 37.672 104.922 37.304C104.922 36.936 104.794 36.632 104.538 36.392C104.298 36.136 103.93 36.008 103.434 36.008H100.578V38.6H103.434ZM115.904 41.336C114.96 41.336 114.096 41.184 113.312 40.88C112.528 40.56 111.856 40.128 111.296 39.584C110.736 39.024 110.296 38.352 109.976 37.568C109.672 36.784 109.52 35.928 109.52 35C109.52 34.072 109.672 33.224 109.976 32.456C110.296 31.672 110.736 31 111.296 30.44C111.856 29.88 112.52 29.448 113.288 29.144C114.056 28.824 114.904 28.664 115.832 28.664C116.712 28.664 117.512 28.808 118.232 29.096C118.968 29.384 119.592 29.792 120.104 30.32C120.632 30.832 121.04 31.456 121.328 32.192C121.616 32.912 121.76 33.72 121.76 34.616C121.76 34.792 121.752 34.984 121.736 35.192C121.72 35.4 121.696 35.624 121.664 35.864H112.592C112.752 36.728 113.128 37.408 113.72 37.904C114.312 38.4 115.064 38.648 115.976 38.648C116.648 38.648 117.24 38.512 117.752 38.24C118.28 37.952 118.704 37.528 119.024 36.968L121.208 38.696C120.616 39.544 119.872 40.2 118.976 40.664C118.08 41.112 117.056 41.336 115.904 41.336ZM115.784 31.256C115 31.256 114.336 31.472 113.792 31.904C113.248 32.32 112.872 32.904 112.664 33.656H118.664C118.568 32.92 118.264 32.336 117.752 31.904C117.24 31.472 116.584 31.256 115.784 31.256ZM123.971 29H127.091V30.608C127.555 29.984 128.115 29.504 128.771 29.168C129.427 28.832 130.171 28.664 131.003 28.664C131.803 28.664 132.539 28.824 133.211 29.144C133.899 29.448 134.491 29.88 134.987 30.44C135.499 30.984 135.891 31.648 136.163 32.432C136.451 33.2 136.595 34.056 136.595 35C136.595 35.928 136.451 36.784 136.163 37.568C135.891 38.352 135.507 39.024 135.011 39.584C134.515 40.128 133.923 40.56 133.235 40.88C132.563 41.184 131.827 41.336 131.027 41.336C130.195 41.336 129.443 41.168 128.771 40.832C128.115 40.496 127.555 40.016 127.091 39.392V45.8H123.971V29ZM130.283 38.456C130.731 38.456 131.147 38.376 131.531 38.216C131.915 38.04 132.243 37.8 132.515 37.496C132.803 37.176 133.027 36.808 133.187 36.392C133.347 35.96 133.427 35.496 133.427 35C133.427 34.488 133.347 34.024 133.187 33.608C133.027 33.192 132.803 32.832 132.515 32.528C132.243 32.208 131.915 31.968 131.531 31.808C131.147 31.632 130.731 31.544 130.283 31.544C129.819 31.544 129.387 31.632 128.987 31.808C128.603 31.968 128.267 32.208 127.979 32.528C127.707 32.832 127.491 33.192 127.331 33.608C127.171 34.024 127.091 34.488 127.091 35C127.091 35.496 127.171 35.96 127.331 36.392C127.491 36.808 127.707 37.176 127.979 37.496C128.267 37.8 128.603 38.04 128.987 38.216C129.387 38.376 129.819 38.456 130.283 38.456ZM137.757 38.168H138.909C139.053 37.928 139.189 37.656 139.317 37.352C139.445 37.048 139.549 36.656 139.629 36.176C139.709 35.696 139.773 35.096 139.821 34.376C139.869 33.656 139.893 32.76 139.893 31.688V29H149.685V38.168H151.557V43.976H148.485V41H140.829V43.976H137.757V38.168ZM146.565 38.168V31.832H142.917V32.72C142.917 33.472 142.901 34.12 142.869 34.664C142.837 35.208 142.789 35.688 142.725 36.104C142.677 36.52 142.605 36.888 142.509 37.208C142.413 37.528 142.301 37.848 142.173 38.168H146.565ZM156.74 29V36.44L161.564 29H164.66V41H161.54V33.56L156.716 41H153.62V29H156.74ZM176.902 29V31.832H173.278V41H170.158V31.832H166.534V29H176.902ZM181.696 38.384H183.904C184.544 38.384 185.024 38.232 185.344 37.928C185.68 37.608 185.848 37.192 185.848 36.68C185.848 36.168 185.68 35.76 185.344 35.456C185.024 35.136 184.544 34.976 183.904 34.976H181.696V38.384ZM178.768 41V29H181.696V32.36H184.336C185.024 32.36 185.64 32.472 186.184 32.696C186.744 32.904 187.216 33.2 187.6 33.584C188 33.968 188.304 34.424 188.512 34.952C188.72 35.48 188.824 36.056 188.824 36.68C188.824 37.304 188.72 37.88 188.512 38.408C188.304 38.936 188 39.392 187.6 39.776C187.216 40.16 186.744 40.464 186.184 40.688C185.64 40.896 185.024 41 184.336 41H178.768Z" fill="black"/>
</svg>
