<svg width="180" height="210" viewBox="0 0 180 210" fill="none" xmlns="http://www.w3.org/2000/svg">
<rect x="162.468" y="30" width="163.411" height="163.411" transform="rotate(83.841 162.468 30)" fill="#84A7BB"/>
<rect width="28" height="68.7273" transform="matrix(-1 0 0 1 96.0005 0)" fill="#FFEAD7"/>
<path d="M34.1701 189.053L29.708 178.894L31.6947 176.566L43.1032 186.305L41.5839 188.085L32.7766 180.567L36.9905 190.278L35.7829 191.692L25.5308 189.054L34.3382 196.573L32.8189 198.353L21.4104 188.614L23.4361 186.241L34.1701 189.053ZM36.227 171.257L44.8974 178.659L41.3496 165.256L42.9468 163.385L54.3553 173.124L52.7776 174.972L44.1071 167.571L47.6549 180.973L46.0577 182.844L34.6493 173.105L36.227 171.257ZM54.0905 150.331L65.499 160.07L63.9213 161.918L58.7191 157.477L53.6938 163.364L58.8961 167.805L57.3184 169.653L45.9099 159.914L47.4876 158.066L51.9825 161.903L57.0078 156.016L52.5128 152.179L54.0905 150.331ZM73.2447 151.643C72.4915 152.526 71.6588 153.208 70.7465 153.692C69.832 154.147 68.8878 154.406 67.9139 154.469C66.94 154.531 65.9646 154.396 64.9877 154.061C64.0109 153.727 63.0889 153.19 62.2219 152.45C61.3396 151.697 60.6568 150.864 60.1734 149.952C59.6747 149.026 59.38 148.078 59.2891 147.106C59.1959 146.106 59.3024 145.119 59.6085 144.144C59.9146 143.17 60.4247 142.264 61.1389 141.428C61.8271 140.621 62.5873 140.008 63.4195 139.588C64.2494 139.139 65.109 138.887 65.9983 138.831C66.8876 138.775 67.7849 138.91 68.6902 139.235C69.5932 139.533 70.4554 140.032 71.2768 140.734C71.5963 141.006 71.9114 141.315 72.2223 141.659L64.2949 150.946C65.5136 151.828 66.7845 152.203 68.1075 152.07C69.4153 151.924 70.5562 151.281 71.5301 150.14C72.7637 148.695 73.1009 147.037 72.5418 145.166L74.8836 144.641C75.57 147.225 75.0237 149.559 73.2447 151.643ZM62.8112 142.934C61.9542 143.938 61.5366 145.028 61.5585 146.204C61.5782 147.351 61.9763 148.44 62.7528 149.471L69.0441 142.101C68.5748 141.727 68.058 141.47 67.4937 141.33C66.9424 141.175 66.3935 141.14 65.847 141.226C65.2982 141.284 64.766 141.46 64.2503 141.756C63.7194 142.04 63.2397 142.432 62.8112 142.934ZM68.355 133.621L69.9327 131.773L71.8721 133.429C71.5468 132.362 71.4915 131.302 71.7063 130.25C71.9341 129.182 72.4375 128.192 73.2166 127.279C73.8919 126.488 74.6738 125.88 75.5623 125.456C76.4509 125.031 77.3756 124.795 78.3365 124.747C79.2974 124.7 80.2674 124.857 81.2465 125.22C82.2234 125.554 83.1453 126.091 84.0124 126.831C84.8794 127.571 85.5623 128.404 86.0609 129.329C86.5573 130.226 86.8575 131.153 86.9614 132.11C87.0652 133.066 86.9771 134.016 86.697 134.961C86.4169 135.905 85.9392 136.773 85.264 137.564C84.4849 138.476 83.586 139.129 82.5672 139.521C81.5614 139.899 80.5062 140.01 79.4017 139.856L85.9046 145.408L84.3269 147.256L68.355 133.621ZM83.3157 136.334C83.8221 135.741 84.1766 135.11 84.3792 134.441C84.5817 133.773 84.6422 133.101 84.5606 132.427C84.4637 131.739 84.2346 131.084 83.8733 130.46C83.5097 129.807 83.0237 129.222 82.4152 128.702C81.7915 128.17 81.1367 127.782 80.4507 127.538C79.7777 127.279 79.1017 127.162 78.4228 127.187C77.7286 127.2 77.0673 127.358 76.4388 127.663C75.8104 127.968 75.2429 128.417 74.7365 129.011C74.2301 129.604 73.8756 130.235 73.673 130.903C73.4704 131.572 73.4176 132.25 73.5144 132.937C73.596 133.612 73.811 134.269 74.1594 134.908C74.5208 135.532 75.0133 136.11 75.6369 136.643C76.2454 137.162 76.8937 137.558 77.5819 137.83C78.2679 138.073 78.958 138.189 79.6522 138.177C80.3311 138.152 80.9848 137.986 81.6133 137.681C82.2418 137.377 82.8092 136.927 83.3157 136.334ZM88.3011 127.029C87.2059 126.094 86.6894 124.943 86.7518 123.576C86.8141 122.209 87.4565 120.733 88.679 119.147L91.2461 115.816L91.0864 115.68C90.1585 114.888 89.2087 114.537 88.2371 114.628C87.2784 114.704 86.4095 115.198 85.6304 116.11C85.0071 116.841 84.642 117.607 84.5352 118.41C84.4131 119.2 84.5417 120.02 84.9208 120.869L82.7783 121.762C82.2422 120.542 82.0824 119.327 82.2991 118.118C82.5006 116.897 83.0623 115.746 83.9842 114.666C84.5945 113.951 85.2529 113.395 85.9593 112.999C86.6786 112.588 87.4038 112.339 88.1347 112.253C88.8655 112.167 89.6022 112.243 90.3446 112.482C91.0717 112.709 91.77 113.108 92.4393 113.679L99.7635 119.931L98.2053 121.757L96.38 120.198C96.7291 121.207 96.794 122.209 96.5747 123.205C96.3685 124.186 95.8823 125.125 95.1161 126.022C94.0903 127.224 92.9604 127.916 91.7264 128.099C90.4925 128.281 89.3507 127.925 88.3011 127.029ZM93.6842 124.327C94.1387 123.794 94.4695 123.222 94.6765 122.61C94.8835 121.998 94.9636 121.396 94.9169 120.803C94.8831 120.196 94.7312 119.619 94.4611 119.073C94.204 118.512 93.8321 118.023 93.3453 117.608L92.8205 117.16L90.3474 120.334C89.549 121.362 89.104 122.284 89.0123 123.1C88.9185 123.887 89.1834 124.547 89.807 125.08C90.385 125.573 91.0167 125.757 91.7019 125.632C92.4002 125.492 93.0609 125.057 93.6842 124.327ZM99.8611 116.305L100.095 116.032C100.432 115.636 100.628 115.238 100.681 114.836C100.735 114.435 100.615 113.99 100.321 113.503C100.025 112.987 99.5528 112.4 98.905 111.742C98.242 111.071 97.3781 110.281 96.3133 109.372L92.115 105.788L99.1855 97.5053L110.594 107.244L109.016 109.092L99.319 100.814L95.3845 105.423L98.3279 107.936C99.5752 109.001 100.574 109.972 101.324 110.849C102.087 111.711 102.619 112.52 102.92 113.276C103.219 114.005 103.289 114.708 103.13 115.388C102.968 116.039 102.602 116.699 102.03 117.368L101.641 117.825L99.8611 116.305ZM113.457 100.517L115.756 97.8245C116.379 97.0943 116.668 96.3551 116.623 95.6068C116.578 94.8584 116.237 94.2116 115.598 93.6662C114.959 93.1208 114.274 92.8912 113.543 92.9772C112.812 93.0633 112.135 93.4714 111.512 94.2016L109.213 96.894L113.457 100.517ZM113.545 103.787L102.137 94.048L103.715 92.1998L107.548 95.4721L110.041 92.5515C110.547 91.9583 111.1 91.4962 111.698 91.1653C112.296 90.8343 112.911 90.6368 113.545 90.5726C114.178 90.5084 114.808 90.5863 115.436 90.8063C116.061 90.9981 116.655 91.3342 117.218 91.8147C117.765 92.2822 118.19 92.816 118.493 93.4163C118.794 93.9884 118.962 94.5922 118.998 95.2278C119.047 95.8481 118.963 96.486 118.745 97.1416C118.512 97.7842 118.142 98.4021 117.636 98.9953L113.545 103.787ZM120.113 72.9895L131.522 82.7284L129.944 84.5766L124.742 80.1357L119.717 86.0225L124.919 90.4634L123.341 92.3116L111.933 82.5727L113.51 80.7245L118.005 84.5616L123.031 78.6748L118.536 74.8377L120.113 72.9895ZM132.136 58.9054L133.714 57.0572L145.123 66.7961L143.545 68.6443L132.136 58.9054ZM134.4 75.9841L136.62 73.383C137.244 72.6528 137.54 71.9201 137.511 71.1848C137.466 70.4365 137.116 69.7831 136.462 69.2247C135.823 68.6794 135.138 68.4497 134.408 68.5358C133.677 68.6219 133 69.03 132.376 69.7601L130.156 72.3613L134.4 75.9841ZM134.488 79.2542L123.079 69.5153L124.657 67.6671L128.49 70.9394L130.905 68.1101C131.412 67.5168 131.964 67.0547 132.562 66.7238C133.16 66.3929 133.776 66.1953 134.409 66.1311C135.043 66.0669 135.673 66.1448 136.3 66.3648C136.925 66.5566 137.519 66.8928 138.082 67.3732C138.63 67.8407 139.055 68.3746 139.358 68.9749C139.658 69.547 139.827 70.1508 139.862 70.7863C139.911 71.4066 139.827 72.0446 139.609 72.7001C139.389 73.3275 139.026 73.9378 138.52 74.5311L134.488 79.2542ZM152.868 58.37C152.115 59.2523 151.282 59.9351 150.37 60.4185C149.455 60.8737 148.511 61.1327 147.537 61.1954C146.563 61.2581 145.588 61.1223 144.611 60.7881C143.634 60.4538 142.712 59.9166 141.845 59.1764C140.963 58.4233 140.28 57.5905 139.796 56.6782C139.298 55.753 139.003 54.8045 138.912 53.8328C138.819 52.8329 138.926 51.8457 139.232 50.8711C139.538 49.8964 140.048 48.9908 140.762 48.1542C141.45 47.348 142.21 46.7347 143.043 46.3143C143.873 45.8658 144.732 45.6135 145.621 45.5575C146.511 45.5014 147.408 45.6363 148.313 45.962C149.216 46.2596 150.079 46.759 150.9 47.4602C151.219 47.7329 151.535 48.0413 151.845 48.3856L143.918 57.6722C145.137 58.5548 146.408 58.9297 147.731 58.7969C149.038 58.651 150.179 58.0077 151.153 56.8669C152.387 55.4218 152.724 53.7638 152.165 51.8928L154.507 51.3674C155.193 53.9519 154.647 56.286 152.868 58.37ZM142.434 49.6606C141.577 50.6646 141.16 51.7544 141.182 52.9301C141.201 54.0777 141.599 55.1669 142.376 56.198L148.667 48.8281C148.198 48.4537 147.681 48.1966 147.117 48.0568C146.565 47.9017 146.017 47.867 145.47 47.9527C144.921 48.0102 144.389 48.187 143.873 48.4831C143.343 48.7661 142.863 49.1587 142.434 49.6606Z" fill="white"/>
</svg>
