<svg width="180" height="210" viewBox="0 0 180 210" fill="none" xmlns="http://www.w3.org/2000/svg">
<rect x="162.468" y="30" width="163.411" height="163.411" transform="rotate(83.841 162.468 30)" fill="#84A7BB"/>
<rect width="28" height="68.7273" transform="matrix(-1 0 0 1 96.0004 0)" fill="#FFEAD7"/>
<path d="M44.8321 98.954L45.0897 101.074L41.1586 101.552L42.3481 111.344L40.037 111.625L38.8476 101.833L34.9165 102.31L34.6589 100.19L44.8321 98.954ZM51.8215 109.951L45.7338 98.8445L48.1877 98.5464L52.6417 106.951L54.7872 97.7448L57.2412 97.4467L52.8343 114.905L50.4756 115.192L51.8215 109.951ZM68.3313 96.0996L68.5889 98.22L64.6577 98.6975L65.8472 108.49L63.5362 108.77L62.3467 98.9782L58.4156 99.4557L58.1581 97.3353L68.3313 96.0996ZM38.7919 123.864L49.0842 122.614L50.5312 134.526L48.1964 134.81L47.0069 125.018L41.3604 125.704L42.5499 135.496L40.2389 135.777L38.7919 123.864ZM59.4642 133.78C58.5588 133.89 57.7057 133.832 56.9047 133.607C56.1037 133.382 55.3915 133.025 54.7681 132.537C54.1586 132.031 53.6487 131.416 53.2384 130.692C52.844 129.966 52.5918 129.151 52.4819 128.245C52.3719 127.34 52.4215 126.488 52.6307 125.689C52.8557 124.888 53.2045 124.177 53.677 123.555C54.1635 122.916 54.7686 122.391 55.4924 121.981C56.2162 121.57 57.0308 121.31 57.9361 121.2C58.8415 121.09 59.6946 121.148 60.4956 121.373C61.2966 121.598 62.0018 121.964 62.6113 122.47C63.2348 122.958 63.7437 123.565 64.1381 124.291C64.5484 125.015 64.8085 125.829 64.9185 126.735C65.0284 127.64 64.9709 128.493 64.7458 129.294C64.5367 130.093 64.1888 130.812 63.7024 131.452C63.2299 132.073 62.6317 132.589 61.9079 132.999C61.1841 133.41 60.3695 133.67 59.4642 133.78ZM59.2008 131.612C59.7726 131.542 60.2763 131.376 60.7118 131.114C61.1632 130.849 61.5335 130.514 61.8227 130.109C62.1278 129.701 62.3447 129.231 62.4736 128.7C62.6024 128.168 62.6312 127.609 62.5598 127.021C62.4865 126.418 62.3246 125.881 62.0742 125.412C61.8219 124.927 61.4988 124.523 61.105 124.2C60.7271 123.875 60.2873 123.638 59.7857 123.49C59.3 123.339 58.7713 123.299 58.1995 123.368C57.6277 123.438 57.1161 123.605 56.6647 123.869C56.2291 124.131 55.8588 124.467 55.5538 124.874C55.2646 125.28 55.0556 125.749 54.9267 126.28C54.796 126.796 54.7672 127.355 54.8405 127.959C54.9119 128.546 55.0738 129.083 55.3261 129.568C55.5785 130.053 55.8936 130.458 56.2715 130.783C56.6653 131.106 57.1051 131.342 57.5908 131.493C58.0923 131.642 58.629 131.681 59.2008 131.612ZM75.6908 119.382L77.1378 131.294L74.8983 131.566L74.415 127.588L71.7704 127.909L69.7521 132.192L67.1314 132.51L69.3951 127.859C68.6119 127.648 67.9683 127.259 67.4642 126.691C66.974 126.106 66.6769 125.385 66.5727 124.527C66.5013 123.939 66.532 123.396 66.6647 122.896C66.8114 122.379 67.0461 121.923 67.369 121.529C67.6919 121.135 68.0959 120.812 68.581 120.56C69.08 120.29 69.6472 120.116 70.2826 120.039L75.6908 119.382ZM73.6973 121.679L70.7906 122.032C70.0918 122.117 69.566 122.366 69.2133 122.78C68.8765 123.192 68.7428 123.683 68.8122 124.255C68.8817 124.827 69.1292 125.272 69.5548 125.591C69.9943 125.892 70.5635 126.001 71.2624 125.916L74.169 125.563L73.6973 121.679ZM79.0661 118.972L84.522 118.309C85.618 118.176 86.5183 118.357 87.2231 118.852C87.9419 119.328 88.3572 120.027 88.4691 120.949C88.5424 121.552 88.4552 122.095 88.2074 122.576C87.9736 123.04 87.6072 123.406 87.1081 123.677C87.8022 123.818 88.3707 124.12 88.8137 124.582C89.2566 125.043 89.5244 125.656 89.617 126.418C89.7385 127.419 89.4945 128.262 88.8848 128.949C88.2752 129.635 87.3747 130.051 86.1835 130.196L80.5131 130.884L79.0661 118.972ZM85.7852 128.31C86.3252 128.244 86.7446 128.048 87.0434 127.722C87.3403 127.38 87.4569 126.946 87.3933 126.422C87.3315 125.914 87.1156 125.529 86.7454 125.268C86.3752 125.007 85.92 124.909 85.38 124.974L82.0207 125.382L82.4259 128.718L85.7852 128.31ZM84.916 123.145C85.4243 123.083 85.797 122.901 86.0342 122.598C86.2695 122.28 86.3621 121.914 86.3119 121.501C86.2618 121.088 86.0853 120.763 85.7825 120.525C85.4777 120.272 85.0712 120.177 84.5629 120.238L81.4419 120.618L81.795 123.524L84.916 123.145ZM100.004 116.429L101.451 128.341L99.2118 128.613L98.7285 124.634L96.0839 124.956L94.0656 129.238L91.4449 129.557L93.7085 124.906C92.9254 124.695 92.2817 124.305 91.7776 123.738C91.2875 123.153 90.9903 122.431 90.8862 121.574C90.8148 120.986 90.8454 120.442 90.9782 119.943C91.1248 119.425 91.3596 118.97 91.6825 118.576C92.0053 118.182 92.4093 117.859 92.8944 117.607C93.3935 117.336 93.9607 117.163 94.596 117.086L100.004 116.429ZM98.0107 118.726L95.1041 119.079C94.4052 119.164 93.8795 119.413 93.5267 119.826C93.1899 120.238 93.0562 120.73 93.1257 121.302C93.1952 121.873 93.4427 122.319 93.8682 122.638C94.3078 122.939 94.877 123.047 95.5758 122.962L98.4825 122.609L98.0107 118.726ZM112.314 114.933L112.571 117.054L108.64 117.531L109.83 127.323L107.519 127.604L106.329 117.812L102.398 118.29L102.141 116.169L112.314 114.933ZM114.161 120.753C114.051 119.848 114.101 118.995 114.31 118.196C114.517 117.382 114.857 116.663 115.33 116.042C115.816 115.402 116.422 114.886 117.148 114.491C117.872 114.081 118.694 113.82 119.616 113.708C120.839 113.559 121.937 113.708 122.909 114.154C123.88 114.584 124.683 115.284 125.316 116.255L123.445 117.57C123.043 116.91 122.542 116.439 121.944 116.157C121.346 115.875 120.673 115.78 119.927 115.87C119.339 115.942 118.819 116.109 118.368 116.374C117.917 116.638 117.538 116.974 117.233 117.382C116.944 117.788 116.735 118.256 116.606 118.788C116.475 119.303 116.447 119.863 116.52 120.467C116.591 121.054 116.753 121.591 117.006 122.076C117.258 122.561 117.573 122.966 117.951 123.291C118.345 123.613 118.792 123.849 119.294 123.998C119.796 124.146 120.332 124.186 120.904 124.117C121.666 124.024 122.303 123.761 122.815 123.328C123.342 122.894 123.721 122.292 123.949 121.522L126.075 122.304C125.714 123.444 125.108 124.355 124.256 125.039C123.42 125.721 122.383 126.137 121.144 126.287C120.222 126.399 119.362 126.351 118.563 126.142C117.762 125.916 117.05 125.56 116.427 125.071C115.817 124.565 115.315 123.949 114.921 123.223C114.524 122.482 114.271 121.658 114.161 120.753ZM136.23 112.028L137.677 123.941L135.438 124.213L134.954 120.234L132.31 120.555L130.291 124.838L127.671 125.156L129.934 120.505C129.151 120.294 128.508 119.905 128.004 119.338C127.513 118.752 127.216 118.031 127.112 117.173C127.041 116.586 127.071 116.042 127.204 115.542C127.351 115.025 127.586 114.569 127.908 114.175C128.231 113.782 128.635 113.458 129.12 113.206C129.619 112.936 130.187 112.762 130.822 112.685L136.23 112.028ZM134.237 114.325L131.33 114.678C130.631 114.763 130.105 115.013 129.753 115.426C129.416 115.838 129.282 116.329 129.352 116.901C129.421 117.473 129.669 117.918 130.094 118.237C130.534 118.539 131.103 118.647 131.802 118.562L134.708 118.209L134.237 114.325Z" fill="white"/>
</svg>
