<svg width="263" height="79" viewBox="0 0 263 79" fill="none" xmlns="http://www.w3.org/2000/svg">
<path d="M136.918 1.50098C114.541 1.50887 92.1521 1.58757 74.9521 1.73633C66.3517 1.81071 59.0526 1.90295 53.7021 2.01172C51.0262 2.06612 48.8438 2.12403 47.2324 2.18652C45.5673 2.2511 44.629 2.31726 44.3438 2.36719C28.2571 5.18706 15.0263 17.681 12.0547 32.6729V32.6738C11.4368 35.7906 10.8948 44.2319 10.8818 51.4199C10.8688 58.6105 10.5512 63.4847 9.45215 67.2529C8.32271 71.125 6.39334 73.7513 3.39844 76.5195C3.06869 76.8243 2.77209 77.1237 2.51367 77.4043C2.52715 77.4026 2.54107 77.4021 2.55469 77.4004C3.85321 77.2357 5.57972 76.8789 7.49023 76.3838C11.3207 75.3911 15.6941 73.8938 18.5742 72.4453L24.624 69.4033L25.2666 69.0801L25.9209 69.3789L34.4482 73.2744L42.6787 77.0342H230.788C231.92 76.5189 234.01 75.5672 237.688 73.8936C249.237 68.6392 255.657 61.981 259.487 51.4707C262.637 42.8257 262.06 32.2635 257.969 23.876C255.519 18.8537 251.203 13.9834 246.01 10.0908C240.819 6.19951 234.847 3.3581 229.167 2.2998V2.29883C228.919 2.2525 228.016 2.18777 226.366 2.12402C224.778 2.06266 222.617 2.00566 219.96 1.95312C214.648 1.84809 207.381 1.7617 198.807 1.69336C181.658 1.55668 159.295 1.49309 136.918 1.50098Z" fill="white" stroke="black" stroke-width="3"/>
</svg>
