<svg width="263" height="79" viewBox="0 0 263 79" fill="none" xmlns="http://www.w3.org/2000/svg">
<rect width="263" height="79" fill="white"/>
<path d="M126.082 1.50098C148.459 1.50887 170.848 1.58757 188.048 1.73633C196.648 1.81071 203.947 1.90295 209.298 2.01172C211.974 2.06612 214.156 2.12403 215.768 2.18652C217.433 2.2511 218.371 2.31726 218.656 2.36719C234.743 5.18706 247.974 17.681 250.945 32.6729V32.6738C251.563 35.7906 252.105 44.2319 252.118 51.4199C252.131 58.6105 252.449 63.4847 253.548 67.2529C254.677 71.125 256.607 73.7513 259.602 76.5195C259.931 76.8243 260.228 77.1237 260.486 77.4043C260.473 77.4026 260.459 77.4021 260.445 77.4004C259.147 77.2357 257.42 76.8789 255.51 76.3838C251.679 75.3911 247.306 73.8938 244.426 72.4453L238.376 69.4033L237.733 69.0801L237.079 69.3789L228.552 73.2744L220.321 77.0342H32.2119C31.0796 76.5189 28.9901 75.5672 25.3115 73.8936C13.7629 68.6392 7.34333 61.981 3.5127 51.4707C0.363299 42.8257 0.939874 32.2635 5.03125 23.876C7.48122 18.8537 11.7974 13.9834 16.9902 10.0908C22.1814 6.19951 28.1527 3.3581 33.833 2.2998V2.29883C34.0815 2.2525 34.9836 2.18777 36.6338 2.12402C38.2223 2.06266 40.3835 2.00566 43.04 1.95312C48.3518 1.84809 55.6186 1.7617 64.1934 1.69336C81.3419 1.55668 103.705 1.49309 126.082 1.50098Z" fill="white" stroke="black" stroke-width="3"/>
</svg>
