<svg width="406" height="245" viewBox="0 0 406 245" fill="none" xmlns="http://www.w3.org/2000/svg">
<path d="M191.997 0.662109L191.979 2.16211H192.004C238.327 1.93563 281.004 1.79165 312.445 1.74121C328.166 1.71599 341.077 1.71397 350.229 1.7373C354.806 1.74897 358.44 1.76668 361.015 1.79102C362.303 1.80319 363.323 1.81676 364.061 1.83203C364.43 1.83967 364.724 1.84833 364.944 1.85645C365.054 1.8605 365.142 1.86441 365.209 1.86816C365.242 1.87002 365.268 1.87161 365.287 1.87305C365.305 1.87438 365.314 1.87485 365.315 1.875C377.397 3.1849 387.126 12.9059 393.264 31.0576L396.16 39.6211L396.662 132.445C396.931 182.334 397.015 206.432 397.722 219.248C398.075 225.654 398.588 229.365 399.402 232.113C400.019 234.196 400.807 235.703 401.728 237.318L402.69 238.995C403.36 240.17 403.889 241.333 404.203 242.239C404.255 242.39 404.297 242.529 404.335 242.655C404.275 242.644 404.211 242.632 404.143 242.617C403.235 242.414 401.97 241.931 400.495 241.202C397.56 239.752 394.088 237.473 391.472 235.069C390.438 234.12 389.618 233.283 388.943 232.576C388.293 231.895 387.709 231.259 387.231 230.812C386.803 230.41 386.16 229.852 385.343 229.722C384.301 229.555 383.542 230.117 383.065 230.638C382.236 231.544 381.212 233.029 380.182 234.445C379.104 235.927 377.94 237.451 376.71 238.67C375.474 239.895 374.244 240.806 373.326 241.408C372.868 241.709 372.491 241.931 372.233 242.075C372.202 242.093 372.172 242.108 372.145 242.123H26.043L19.7295 237.032C12.7218 231.382 7.74657 223.256 4.11816 211.195C3.04686 207.635 2.48841 205.69 2.16797 194.807C1.84601 183.872 1.76833 164.065 1.62598 124.828C1.34189 46.575 1.38141 45.5552 3.50488 36.2607C4.79875 30.5957 7.25706 24.4461 10.2256 19.0371C13.1134 13.7753 16.4168 9.33822 19.4922 6.72754L19.7891 6.48047L24.3008 2.80371C24.3711 2.78616 24.5022 2.75512 24.7158 2.71875C25.1173 2.65041 25.6748 2.58189 26.3926 2.51465C27.8248 2.38049 29.8059 2.26067 32.2695 2.15527C37.1916 1.94471 43.9668 1.79379 51.9746 1.69043C67.9868 1.48376 88.8793 1.46724 109.624 1.53711C130.367 1.60697 150.956 1.76354 166.359 1.90234C174.061 1.97174 180.466 2.0363 184.945 2.08398C187.185 2.10782 188.944 2.12708 190.143 2.14062C190.741 2.14739 191.2 2.15266 191.51 2.15625C191.664 2.15804 191.782 2.16021 191.86 2.16113C191.9 2.16159 191.929 2.16188 191.949 2.16211H191.977C191.978 2.16212 191.979 2.162 191.997 0.662109Z" fill="white" stroke="black" stroke-width="3"/>
</svg>
