<svg width="326" height="53" viewBox="0 0 326 53" fill="none" xmlns="http://www.w3.org/2000/svg">
<g clip-path="url(#clip0_2438_3626)">
<rect x="-0.000244141" width="431.748" height="71.1308" fill="url(#paint0_linear_2438_3626)"/>
<path fill-rule="evenodd" clip-rule="evenodd" d="M313.762 29.3424C313.684 29.21 313.546 29.1248 313.457 29.1526C313.239 29.2209 313.286 29.7375 313.521 29.8591C313.775 29.9907 313.939 29.6398 313.762 29.3424ZM285.417 64.6148C285.254 64.0918 285.014 64.0338 284.788 64.4618C284.678 64.6685 284.744 64.9734 284.934 65.145C285.318 65.4915 285.596 65.1866 285.417 64.6148ZM312.537 7.4851C312.391 7.01816 312.421 6.50717 312.615 6.14003C312.797 5.79667 312.828 5.43521 312.69 5.27957C312.559 5.13175 312.512 4.89728 312.585 4.75831C312.787 4.3767 311.967 2.7942 311.421 2.51165C311.156 2.37506 310.798 1.90584 310.624 1.46865C310.263 0.561582 309.838 0.263523 309.254 0.507323C308.773 0.708049 308.154 0.421775 307.444 -0.329582C306.982 -0.818593 306.847 -0.851066 306.163 -0.636982C305.743 -0.505474 305.011 -0.411547 304.538 -0.428656C304.064 -0.445465 303.639 -0.386889 303.592 -0.298275C303.545 -0.209661 303.021 0.030673 302.427 0.235555C301.44 0.576259 301.297 0.70736 300.753 1.77072C300.426 2.41032 299.962 3.0665 299.722 3.22927C299.073 3.66784 298.866 4.19058 298.774 5.62217C298.651 7.52786 299.212 9.44123 300.328 10.9208C301.242 12.1325 301.312 12.184 301.959 12.119C302.584 12.0564 302.675 12.1025 303.144 12.7217C303.797 13.5833 303.962 13.6584 304.698 13.428C305.032 13.3233 305.509 13.339 305.757 13.4634C306.072 13.6207 306.672 13.468 307.736 12.9599C308.577 12.5589 309.529 12.1325 309.854 12.0124C310.314 11.8418 310.599 11.4947 311.15 10.4284C311.539 9.67726 311.969 9.05434 312.106 9.04427C312.564 9.01048 312.775 8.24666 312.537 7.4851ZM283.604 47.7635C283.455 47.3838 283.279 47.0453 283.214 47.0114C283.054 46.929 282.121 44.8602 282.138 44.6259C282.145 44.5245 281.976 44.3512 281.763 44.2408C281.549 44.1304 281.394 43.8796 281.417 43.6835C281.441 43.4873 281.391 43.2909 281.306 43.247C281.221 43.203 280.965 42.6447 280.737 42.0061C280.085 40.175 279.455 38.7544 279.248 38.6474C279.143 38.5933 278.52 37.5324 277.863 36.2898C277.206 35.0472 276.573 33.9813 276.456 33.921C276.34 33.8607 276.127 33.4071 275.984 32.9127C275.727 32.0231 275.731 32.0091 276.4 31.5494C277.252 30.9636 278.782 28.6996 278.569 28.3416C278.486 28.2022 278.549 27.8498 278.708 27.5586L278.998 27.0291L278.96 27.7667C278.884 29.2178 279.423 30.5714 280.452 31.5127C281.289 32.2776 281.514 32.3983 282.105 32.3987C282.482 32.3989 283.047 32.5321 283.361 32.6945C283.836 32.9399 284.221 32.8502 285.633 32.1651C287.718 31.1543 288.209 30.3905 288.405 27.8541C288.536 26.1746 288.352 25.8551 286.245 24.0844C284.858 22.9185 281.887 23.0208 280.829 24.2711C279.809 25.4753 279.157 24.9961 278.826 22.7992C278.659 21.6898 278.494 21.3512 277.901 20.9054C277.504 20.6069 277.224 20.2791 277.278 20.1768C277.332 20.0747 277.197 19.7905 276.978 19.5452C276.759 19.2999 276.628 19.0078 276.687 18.8962C276.747 18.7844 276.66 18.6234 276.496 18.5385C276.332 18.4535 276.245 18.2947 276.302 18.1857C276.36 18.0767 276.585 18.0797 276.803 18.1924C277.32 18.4597 280.248 17.9532 281.475 17.3843C283.802 16.3056 284.312 15.9047 285.221 14.4397C285.703 13.6616 286.328 12.7342 286.61 12.3789C286.991 11.8983 287.126 11.4675 287.136 10.6963C287.146 9.94063 287.322 9.36415 287.787 8.56947C288.371 7.56919 288.395 7.41448 288.085 6.69507C287.899 6.26399 287.678 5.75103 287.595 5.55507C287.409 5.1195 288.107 4.04172 289.428 2.72017C290.309 1.84018 290.382 1.70351 290.635 0.476565C290.913 -0.869323 290.581 -2.45127 289.574 -4.58308C288.96 -5.88267 287.687 -7.00309 286.838 -6.99033C286.455 -6.98456 285.923 -7.17814 285.51 -7.47392C284.903 -7.90972 284.704 -7.92678 283.812 -7.61988C283.256 -7.42881 282.532 -7.30418 282.203 -7.34274C281.818 -7.38787 280.908 -6.99071 279.647 -6.22704C278.569 -5.57485 277.648 -4.96521 277.599 -4.87244C277.363 -4.42718 276.919 -4.7903 276.037 -6.14971C275.193 -7.45086 274.949 -7.68428 274.052 -8.0472C273.379 -8.31931 272.887 -8.66518 272.615 -9.05642C272.145 -9.73132 271.709 -9.84939 271.13 -9.458C270.886 -9.2925 270.517 -9.30009 270.172 -9.4783C269.382 -9.88714 268.364 -9.8398 266.699 -9.31652C265.583 -8.9661 265.109 -8.67624 264.599 -8.03396C264.237 -7.57776 263.605 -7.03392 263.193 -6.82573C262.581 -6.51571 262.431 -6.33185 262.367 -5.8104C262.314 -5.37932 262.096 -4.96627 261.692 -4.53221C260.483 -3.23209 259.898 -0.334023 260.445 1.64957C260.684 2.51696 260.663 2.63446 260.242 2.78934C259.983 2.88459 259.572 2.87692 259.326 2.7726C258.444 2.39731 256.826 3.21633 255.586 4.66667C254.722 5.67761 254.401 7.87575 254.908 9.3183C255.44 10.8348 257.213 12.2248 258.615 12.2253C258.985 12.2254 259.601 12.2377 259.984 12.2528C260.366 12.2676 261.123 12.0243 261.665 11.7119C262.827 11.0427 263.131 11.1166 263.045 12.047C262.988 12.6575 262.856 12.8053 261.829 13.4078C260.702 14.0693 260.65 14.0736 259.426 13.606C258.248 13.1563 256.869 13.2005 256.607 13.6963C256.559 13.7869 256.146 13.9868 255.689 14.1407C254.99 14.3758 254.844 14.5189 254.768 15.041C254.652 15.8431 254.963 16.3537 255.666 16.52C256.404 16.6943 259.217 15.9537 259.444 15.5257C259.638 15.1585 260.567 14.8454 260.92 15.0279C261.043 15.0915 261.279 15.0596 261.445 14.957C261.611 14.8544 262.167 14.7878 262.681 14.8085C263.533 14.8431 263.703 14.9236 264.607 15.7229C265.282 16.3191 265.842 16.6541 266.36 16.7714C267.266 16.9766 267.394 17.2135 266.79 17.5667C266.545 17.7095 266.261 17.9836 266.159 18.1757C266.056 18.3678 265.542 18.83 265.016 19.2029C264.45 19.6043 263.708 20.4112 263.198 21.1818C262.46 22.2967 262.354 22.5804 262.458 23.1619C262.525 23.5353 262.468 24.1973 262.331 24.6335C262.194 25.0693 262.156 25.6033 262.247 25.8201C262.338 26.0371 262.369 26.2963 262.316 26.3964C262.219 26.5798 262.362 27.9843 262.548 28.6784C262.604 28.8843 262.888 29.1767 263.181 29.3281C263.522 29.5043 263.83 29.9759 264.038 30.6404C264.357 31.6602 264.392 31.6936 266.176 32.6641C267.665 33.4741 268.17 33.6519 268.999 33.657C269.555 33.6605 270.059 33.7463 270.119 33.8475C270.179 33.9487 270.544 34.0588 270.93 34.092C271.538 34.1443 271.682 34.2494 272 34.873C272.392 35.6429 273.032 36.0997 273.408 35.8778C273.715 35.6966 273.492 34.1555 273.131 33.9691C272.724 33.7586 272.898 33.5813 273.903 33.1799L274.786 32.8272L275.645 34.3014C276.118 35.1124 276.515 35.8652 276.527 35.9746C276.539 36.0838 276.71 36.3336 276.908 36.5294C277.106 36.7253 277.294 37.1605 277.326 37.4967C277.359 37.8329 277.752 38.6186 278.201 39.243C278.649 39.8671 278.977 40.4524 278.928 40.5438C278.88 40.635 278.973 40.778 279.135 40.8617C279.297 40.9453 279.458 41.3127 279.493 41.6781C279.528 42.0435 279.644 42.3877 279.751 42.4429C279.858 42.4981 280.251 43.5108 280.624 44.6931C281.517 47.523 283.181 49.7644 283.683 48.8148C283.788 48.6166 283.753 48.1436 283.604 47.7635ZM290.455 19.6976C290.339 19.6377 290.252 19.7064 290.262 19.8504C290.272 19.9945 290.32 20.1327 290.368 20.1577C290.417 20.1828 290.504 20.114 290.561 20.0049C290.619 19.8959 290.571 19.7576 290.455 19.6976ZM295.367 0.869553C295.419 0.355317 294.723 -0.45719 294.259 -0.422885C293.763 -0.386273 293.456 0.64796 293.695 1.47379C293.827 1.93192 294.044 2.36257 294.176 2.43087C294.63 2.66583 295.269 1.82878 295.367 0.869553ZM289.832 9.40092C289.758 9.27687 289.647 9.26996 289.586 9.38534C289.525 9.50071 289.565 9.64163 289.674 9.69829C289.784 9.75494 289.894 9.76204 289.92 9.71387C289.945 9.6657 289.906 9.52498 289.832 9.40092ZM259.192 33.903C259.208 33.7429 259.016 33.268 258.766 32.8476C258.387 32.2102 258.215 32.0831 257.731 32.0816C256.506 32.0783 255.839 32.4014 255.413 33.2052C254.895 34.1841 255.193 35.0246 256.258 35.5871C257.508 36.2476 259.045 35.3655 259.192 33.903ZM243.075 44.0542C242.859 43.4697 243.488 41.8694 243.859 42.061C244.135 42.2038 244.723 41.5481 244.875 40.9269C244.948 40.6277 244.882 40.3173 244.727 40.2373C244.332 40.0332 244.18 38.6114 244.49 38.026C244.675 37.6753 244.6 37.2716 244.225 36.5931C243.931 36.062 243.733 35.2817 243.773 34.8107C243.812 34.3501 243.876 33.6059 243.915 33.1573C243.976 32.4488 243.875 32.262 243.15 31.7371C242.691 31.4048 242.308 31.0348 242.3 30.9151C242.292 30.7954 242.073 30.5106 241.815 30.2824C241.557 30.0542 241.167 29.3855 240.95 28.7966C240.54 27.6905 240.167 27.3195 239.726 27.58C239.416 27.7629 237.793 26.6754 237.765 26.2657C237.752 26.08 236.984 25.6546 235.425 24.9694L233.105 23.9493L232.378 24.3986C231.244 25.0992 230.648 25.0655 229.28 24.2241L228.083 23.4885L227.541 24.5136C227.028 25.4822 226.954 25.5354 226.207 25.4763C225.211 25.3977 223.355 26.0006 222.299 26.746C221.797 27.1002 221.283 27.7087 220.943 28.3506C220.484 29.2175 220.282 29.406 219.692 29.5168C218.806 29.6833 218.227 30.682 218.209 32.078C218.194 33.2348 217.891 33.8737 217.207 34.196C216.934 34.3246 216.554 34.7261 216.362 35.0885C216.086 35.6101 216.099 35.8891 216.425 36.4281C216.652 36.8023 216.904 37.5275 216.985 38.0393C217.114 38.8595 217.048 39.0952 216.427 40.0235C215.599 41.2609 215.642 41.5085 216.857 42.4563C217.975 43.3276 218.371 44.1108 218.254 45.217C218.148 46.2289 218.559 46.7938 219.396 46.7837C219.849 46.7781 219.958 46.951 220.235 48.1164C220.544 49.4158 220.974 49.9512 221.471 49.6577C222.012 49.3384 222.864 49.6414 223.611 50.4193C224.337 51.1753 225.165 51.5274 225.359 51.162C225.533 50.8327 226.191 51.3429 226.513 52.0562C226.809 52.7149 226.855 52.7435 227.383 52.6063C227.69 52.5268 228.093 52.2396 228.279 51.9686C228.64 51.4436 228.992 51.5465 230.065 52.4911C230.772 53.1135 231.679 53.0197 232.964 52.1915C233.573 51.7989 235.388 51.0317 236.997 50.4864C238.607 49.9411 240.003 49.3524 240.1 49.1783C240.197 49.0042 240.218 48.5495 240.148 48.1682C239.952 47.1128 240.654 46.1334 241.829 45.8224C242.926 45.5323 243.381 44.8856 243.075 44.0542ZM236.947 54.0284C236.423 52.9105 235.277 52.327 235.38 53.2307C235.454 53.8798 236.342 55.3877 236.673 55.4248C237.263 55.4913 237.372 54.9356 236.947 54.0284ZM257.813 -9.87563C257.981 -11.0419 257.9 -11.3415 257.128 -12.4312C256.592 -13.1883 256.28 -13.4245 255.361 -13.77C254.748 -14.0004 254.167 -14.1141 254.071 -14.0222C253.975 -13.9305 253.811 -13.8998 253.706 -13.9541C252.989 -14.3248 250.442 -12.1923 250.51 -11.2785C250.529 -11.0142 250.481 -10.6777 250.403 -10.5306C250.326 -10.3833 250.449 -9.76126 250.678 -9.14814C251.023 -8.22604 251.291 -7.90081 252.231 -7.26751C253.261 -6.57347 253.466 -6.51204 254.423 -6.61257C255.554 -6.7311 256.991 -7.62488 257.425 -8.47988C257.568 -8.76167 257.743 -9.38984 257.813 -9.87563ZM243.057 -2.76096C242.909 -3.94353 241.562 -5.81037 241.264 -5.24618C241.208 -5.14071 241.324 -5.03609 241.521 -5.01376C241.739 -4.98941 241.82 -4.86004 241.728 -4.68598C241.645 -4.52798 241.797 -4.07464 242.066 -3.67855C242.336 -3.28235 242.513 -2.77496 242.46 -2.55093C242.408 -2.32709 242.508 -2.06992 242.682 -1.97969C243.076 -1.77583 243.158 -1.94654 243.057 -2.76096ZM241.429 -6.03689C241.355 -6.16094 241.244 -6.16785 241.183 -6.05247C241.122 -5.9371 241.162 -5.79618 241.271 -5.73952C241.381 -5.68287 241.491 -5.67577 241.517 -5.72394C241.542 -5.77211 241.503 -5.91283 241.429 -6.03689Z" fill="#E09E9B"/>
<path d="M31.7263 20.215V22.435H26.5663V35.215H24.1663V22.435H19.0063V20.215H31.7263ZM33.5823 31.105C33.5823 29.665 34.1223 28.525 35.2023 27.685C36.2823 26.845 37.8223 26.375 39.8223 26.275L44.0223 26.065V25.855C44.0223 24.635 43.6723 23.685 42.9723 23.005C42.2923 22.325 41.3523 21.985 40.1523 21.985C39.1923 21.985 38.3723 22.205 37.6923 22.645C37.0123 23.065 36.4723 23.695 36.0723 24.535L34.0023 23.485C34.5823 22.285 35.4023 21.375 36.4623 20.755C37.5223 20.115 38.7623 19.795 40.1823 19.795C41.1223 19.795 41.9723 19.935 42.7323 20.215C43.5123 20.495 44.1723 20.885 44.7123 21.385C45.2523 21.885 45.6723 22.495 45.9723 23.215C46.2723 23.915 46.4223 24.705 46.4223 25.585V35.215H44.0223V32.815C43.4823 33.735 42.7623 34.435 41.8623 34.915C40.9823 35.395 39.9523 35.635 38.7723 35.635C37.1923 35.635 35.9323 35.225 34.9923 34.405C34.0523 33.585 33.5823 32.485 33.5823 31.105ZM39.1323 33.445C39.8323 33.445 40.4823 33.325 41.0823 33.085C41.6823 32.845 42.1923 32.515 42.6123 32.095C43.0523 31.675 43.3923 31.185 43.6323 30.625C43.8923 30.065 44.0223 29.465 44.0223 28.825V28.135L40.0023 28.315C38.7023 28.375 37.7123 28.635 37.0323 29.095C36.3723 29.535 36.0423 30.165 36.0423 30.985C36.0423 31.745 36.3123 32.345 36.8523 32.785C37.4123 33.225 38.1723 33.445 39.1323 33.445ZM57.9434 35.635C56.7434 35.635 55.6634 35.425 54.7034 35.005C53.7434 34.565 52.9334 33.945 52.2734 33.145C51.6134 32.325 51.1034 31.335 50.7434 30.175C50.3834 29.015 50.2034 27.705 50.2034 26.245V25.645C50.2034 23.745 50.3734 22.105 50.7134 20.725C51.0534 19.325 51.5834 18.155 52.3034 17.215C53.0434 16.275 53.9734 15.555 55.0934 15.055C56.2334 14.535 57.5834 14.215 59.1434 14.095L64.2434 13.675L64.3634 16.015L59.3534 16.405C58.1934 16.485 57.1934 16.685 56.3534 17.005C55.5134 17.325 54.8134 17.775 54.2534 18.355C53.7134 18.935 53.3034 19.665 53.0234 20.545C52.7434 21.405 52.5834 22.445 52.5434 23.665C53.1234 22.585 53.9034 21.765 54.8834 21.205C55.8634 20.645 57.0134 20.365 58.3334 20.365C59.3934 20.365 60.3534 20.555 61.2134 20.935C62.0934 21.295 62.8434 21.815 63.4634 22.495C64.1034 23.155 64.5934 23.955 64.9334 24.895C65.2934 25.815 65.4734 26.835 65.4734 27.955C65.4734 29.095 65.2934 30.135 64.9334 31.075C64.5734 32.015 64.0634 32.825 63.4034 33.505C62.7434 34.185 61.9434 34.715 61.0034 35.095C60.0834 35.455 59.0634 35.635 57.9434 35.635ZM57.9734 33.385C58.7134 33.385 59.3934 33.255 60.0134 32.995C60.6334 32.735 61.1634 32.365 61.6034 31.885C62.0634 31.405 62.4134 30.835 62.6534 30.175C62.9134 29.515 63.0434 28.785 63.0434 27.985C63.0434 27.185 62.9134 26.455 62.6534 25.795C62.4134 25.135 62.0634 24.565 61.6034 24.085C61.1634 23.605 60.6334 23.235 60.0134 22.975C59.3934 22.715 58.7134 22.585 57.9734 22.585C57.2334 22.585 56.5434 22.715 55.9034 22.975C55.2834 23.235 54.7434 23.605 54.2834 24.085C53.8434 24.565 53.4934 25.135 53.2334 25.795C52.9934 26.455 52.8734 27.185 52.8734 27.985C52.8734 28.785 52.9934 29.515 53.2334 30.175C53.4934 30.835 53.8434 31.405 54.2834 31.885C54.7434 32.365 55.2834 32.735 55.9034 32.995C56.5434 33.255 57.2334 33.385 57.9734 33.385ZM68.1233 31.105C68.1233 29.665 68.6633 28.525 69.7433 27.685C70.8233 26.845 72.3633 26.375 74.3633 26.275L78.5633 26.065V25.855C78.5633 24.635 78.2133 23.685 77.5133 23.005C76.8333 22.325 75.8933 21.985 74.6933 21.985C73.7333 21.985 72.9133 22.205 72.2333 22.645C71.5533 23.065 71.0133 23.695 70.6133 24.535L68.5433 23.485C69.1233 22.285 69.9433 21.375 71.0033 20.755C72.0633 20.115 73.3033 19.795 74.7233 19.795C75.6633 19.795 76.5133 19.935 77.2733 20.215C78.0533 20.495 78.7133 20.885 79.2533 21.385C79.7933 21.885 80.2133 22.495 80.5133 23.215C80.8133 23.915 80.9633 24.705 80.9633 25.585V35.215H78.5633V32.815C78.0233 33.735 77.3033 34.435 76.4033 34.915C75.5233 35.395 74.4933 35.635 73.3133 35.635C71.7333 35.635 70.4733 35.225 69.5333 34.405C68.5933 33.585 68.1233 32.485 68.1233 31.105ZM73.6733 33.445C74.3733 33.445 75.0233 33.325 75.6233 33.085C76.2233 32.845 76.7333 32.515 77.1533 32.095C77.5933 31.675 77.9333 31.185 78.1733 30.625C78.4333 30.065 78.5633 29.465 78.5633 28.825V28.135L74.5433 28.315C73.2433 28.375 72.2533 28.635 71.5733 29.095C70.9133 29.535 70.5833 30.165 70.5833 30.985C70.5833 31.745 70.8533 32.345 71.3933 32.785C71.9533 33.225 72.7133 33.445 73.6733 33.445ZM87.7745 26.365H90.1445L95.1545 20.215H98.0045L92.1545 27.325L98.1245 35.215H95.1545L90.1745 28.585H87.7745V35.215H85.3445V20.215H87.7745V26.365Z" fill="black"/>
</g>
<defs>
<linearGradient id="paint0_linear_2438_3626" x1="-0.000244141" y1="35.5654" x2="431.747" y2="35.5654" gradientUnits="userSpaceOnUse">
<stop offset="0.105769" stop-color="white"/>
<stop offset="1" stop-color="#FFF3E1"/>
</linearGradient>
<clipPath id="clip0_2438_3626">
<rect width="325.051" height="52.9346" fill="white"/>
</clipPath>
</defs>
</svg>
