<svg width="326" height="54" viewBox="0 0 326 54" fill="none" xmlns="http://www.w3.org/2000/svg">
<g clip-path="url(#clip0_2438_3606)">
<rect x="-0.000244141" width="431.748" height="71.1308" fill="url(#paint0_linear_2438_3606)"/>
<path fill-rule="evenodd" clip-rule="evenodd" d="M277.763 81.2132C278.329 80.3869 278.327 79.1298 277.759 78.5486C276.685 77.4499 274.242 78.6016 274.242 80.2069C274.242 81.7855 276.859 82.5337 277.763 81.2132ZM281.514 76.3689C282.012 76.0583 282.617 75.414 282.857 74.9373C283.749 73.1734 283.171 70.2637 281.843 69.8324C281.507 69.7236 280.71 69.1508 280.072 68.56C278.313 66.9325 277.601 66.5163 276.575 66.5163C273.203 66.5163 271.799 69.5994 274.003 72.1673C274.479 72.7213 275.141 73.7268 275.474 74.4018C276.647 76.7738 279.418 77.6763 281.514 76.3689ZM330.928 73.2623C331.175 73.0093 330.554 72.3051 330.084 72.3051C329.87 72.3051 329.694 72.4307 329.694 72.5844C329.694 72.9462 330.698 73.4976 330.928 73.2623ZM306.919 73.0956C308.867 72.8649 310.226 72.8252 311.55 72.9604C311.971 73.0032 312.34 72.8157 312.541 72.4565C312.717 72.1419 312.999 71.7511 313.168 71.5882C314.16 70.6304 315.649 68.3884 316.45 66.6445C317.697 63.9284 317.729 61.8736 316.561 59.4406C315.671 57.5861 313.933 55.6289 312.574 54.9511C311.071 54.2014 309.667 52.3406 309.05 50.2815C308.347 47.937 307.879 47.456 304.823 45.9387C303.757 45.409 303.244 45.3416 301.287 45.473C300.028 45.5578 298.691 45.7237 298.317 45.842C297.885 45.9784 297.7 45.9509 297.811 45.7674C298.089 45.3069 297.473 43.4223 296.534 41.8611C295.893 40.7945 295.753 40.3415 295.991 40.0987C296.865 39.2043 295.9 37.9947 294.688 38.4662C294.186 38.6613 293.771 38.5649 292.975 38.0691C292.397 37.709 291.565 37.2274 291.126 36.9987L290.327 36.5831L291.077 36.0239C292.151 35.2233 292.431 34.2812 291.947 33.0953C291.23 31.3404 289.347 30.9494 287.844 32.2432C286.851 33.0985 286.74 33.9538 287.442 35.3434C287.857 36.1654 287.859 36.2265 287.46 35.8879C287.132 35.6094 286.861 35.5871 286.462 35.8054C286.162 35.9704 285.421 36.2309 284.818 36.3848C283.072 36.8294 281.665 37.4207 281.093 37.9501C280.397 38.5944 280.184 38.5687 280.184 37.8404C280.184 37.4245 280.031 37.2702 279.689 37.3377C279.103 37.4532 278.937 39.1067 279.015 44.0547L279.064 47.2088L277.927 48.9955C277.301 49.9782 276.789 50.9446 276.789 51.1435C276.789 51.4187 277.319 51.4578 279.01 51.3067C281.126 51.118 281.24 51.1382 281.391 51.7319C281.518 52.2271 281.744 52.3449 282.494 52.3056C283.013 52.2781 284.015 52.5174 284.722 52.8373C285.428 53.1571 286.415 53.5105 286.914 53.6228C287.915 53.8477 287.959 53.9554 287.524 55.1256C287.086 56.3039 287.408 57.3138 288.186 57.2006C288.751 57.1184 288.813 56.9415 288.819 55.4035C288.826 53.8599 288.892 53.6723 289.52 53.4347C290.04 53.2379 290.294 53.2847 290.534 53.6214C290.711 53.8683 290.937 54.0703 291.036 54.0703C291.357 54.0703 291.229 53.2541 290.89 53.1386C290.451 52.9889 293.154 51.1759 293.816 51.1759C294.31 51.1759 294.314 51.2317 293.883 52.2613C293.634 52.8581 293.363 53.512 293.281 53.7137C293.014 54.3777 293.775 55.6483 294.936 56.4732C295.645 56.9777 296.018 57.4391 295.923 57.6935C295.838 57.9187 295.615 59.4623 295.426 61.124C295.144 63.608 295.007 64.1154 294.657 63.9779C294.343 63.8546 294.281 63.9434 294.422 64.3188C294.527 64.5984 294.612 64.8815 294.612 64.9481C294.612 65.0146 294.784 65.0691 294.994 65.0691C295.204 65.0691 295.573 65.6957 295.815 66.4616C296.057 67.2274 296.591 68.3615 297.002 68.9814C297.744 70.0993 299.803 71.7225 300.483 71.7251C300.677 71.7256 300.837 71.8304 300.837 71.9578C300.837 72.0851 301.632 72.3572 302.605 72.5624C303.577 72.7673 304.5 73.0241 304.656 73.1326C304.812 73.2411 305.83 73.2244 306.919 73.0956ZM320.712 70.8405C321.312 70.4755 321.356 69.6084 320.798 69.1346C319.828 68.3111 318.189 69.4466 318.832 70.4961C319.204 71.103 320.031 71.2544 320.712 70.8405ZM320.358 65.8129C320.358 65.5174 320.102 65.3585 319.627 65.3585C318.741 65.3585 318.838 66.0381 319.743 66.1747C320.152 66.2361 320.358 66.1145 320.358 65.8129ZM341.125 64.0233C341.384 63.335 340.948 62.9799 339.984 63.0928C339.391 63.1619 339.172 63.344 339.172 63.7666C339.172 64.5504 340.845 64.7704 341.125 64.0233ZM287.975 64.1813C288.078 64.0117 288.094 63.8033 288.011 63.7182C287.808 63.511 287.257 63.8763 287.257 64.2178C287.257 64.5877 287.745 64.5631 287.975 64.1813ZM328.501 62.9984C328.431 62.7839 328.147 62.5639 327.87 62.5087C327.547 62.445 327.411 62.5492 327.493 62.7981C327.562 63.0126 327.846 63.2326 328.123 63.2878C328.446 63.3515 328.582 63.2473 328.501 62.9984ZM319.455 61.2846C319.399 61.1136 319.232 60.9735 319.085 60.9735C318.937 60.9735 318.77 61.1136 318.715 61.2846C318.659 61.4557 318.825 61.5958 319.085 61.5958C319.344 61.5958 319.511 61.4557 319.455 61.2846ZM321.49 59.8591C321.49 59.6999 321.235 59.5697 320.924 59.5697C320.613 59.5697 320.358 59.6999 320.358 59.8591C320.358 60.0183 320.613 60.1486 320.924 60.1486C321.235 60.1486 321.49 60.0183 321.49 59.8591ZM261.322 58.2189C261.759 57.7728 261.488 57.2174 260.877 57.3062C260.076 57.4232 259.824 58.4119 260.594 58.4119C260.891 58.4119 261.219 58.3251 261.322 58.2189ZM271.696 56.776C273.756 55.5433 275.374 53.7357 275.374 52.6685C275.374 52.151 274.536 52.0691 273.551 52.4902C273.008 52.7224 272.295 52.9125 271.968 52.9125C271.186 52.9125 268.615 55.1438 268.404 56.0069C268.009 57.6154 269.653 57.9992 271.696 56.776ZM314.982 55.5004C314.982 55.332 314.855 55.2744 314.7 55.3728C314.544 55.4712 314.417 55.609 314.417 55.6793C314.417 55.7496 314.544 55.8069 314.7 55.8069C314.855 55.8069 314.982 55.6689 314.982 55.5004ZM332.978 53.323C332.883 53.0711 332.804 52.7782 332.802 52.6717C332.796 52.4129 332.25 53.2868 332.245 53.5638C332.242 53.683 332.445 53.7808 332.695 53.7808C332.994 53.7808 333.091 53.6234 332.978 53.323ZM281.598 53.4914C281.598 53.3322 281.471 53.202 281.315 53.202C281.16 53.202 281.032 53.3322 281.032 53.4914C281.032 53.6506 281.16 53.7808 281.315 53.7808C281.471 53.7808 281.598 53.6506 281.598 53.4914ZM330.672 52.3536C330.865 52.0338 330.419 51.6882 330.158 51.9556C329.889 52.2309 329.939 52.6231 330.243 52.6231C330.39 52.6231 330.583 52.5018 330.672 52.3536ZM236.756 51.1759C236.993 50.784 236.673 50.3076 236.173 50.3076C235.949 50.3076 235.766 50.568 235.766 50.8864C235.766 51.4856 236.448 51.6853 236.756 51.1759ZM258.508 49.9941C260.174 49.5808 261.755 48.5596 262.412 47.4722C262.905 46.6557 262.973 46.2154 262.826 44.7801C262.641 42.9708 261.93 41.2324 261.036 40.4052C260.741 40.1328 259.879 39.6286 259.119 39.2847C257.887 38.7273 257.582 38.6954 256.3 38.9915C254.053 39.5105 252.703 40.4353 251.814 42.066C250.856 43.8229 250.946 45.0707 252.192 47.2982C253.427 49.5075 256.017 50.6126 258.508 49.9941ZM275.6 48.8025C275.787 48.6114 275.94 48.1165 275.94 47.7026C275.94 46.7072 275.454 46.2554 274.384 46.2554C273.357 46.2554 272.828 46.7028 272.828 47.5709C272.828 48.8224 274.747 49.6751 275.6 48.8025ZM336.099 45.2423C336.347 44.5821 336 43.9398 335.396 43.9398C334.71 43.9398 334.108 44.6678 334.322 45.2386C334.534 45.805 335.887 45.8079 336.099 45.2423ZM301.559 41.5991C301.806 41.1904 301.261 40.6324 300.861 40.8851C300.692 40.9922 300.554 41.2671 300.554 41.4967C300.554 41.9841 301.282 42.0582 301.559 41.5991ZM320.57 39.859C320.92 39.7259 321.207 39.4723 321.207 39.2957C321.207 38.7284 319.519 37.217 319.079 37.3898C318.603 37.5765 318.519 38.3169 318.943 38.5852C319.099 38.6836 319.226 39.0028 319.226 39.2949C319.226 39.958 319.741 40.1742 320.57 39.859ZM298.856 39.76C298.856 39.5305 298.741 39.27 298.6 39.1808C298.459 39.0917 298.406 38.773 298.483 38.4729C298.56 38.1724 298.472 37.8318 298.288 37.7154C297.814 37.4161 297.031 38.2859 297.333 38.7745C297.57 39.1571 297.618 39.3079 297.689 39.8877C297.745 40.3456 298.856 40.224 298.856 39.76ZM280.129 36.6248C280.287 36.4294 280.349 35.9078 280.265 35.4653C280.155 34.8742 279.988 34.7023 279.637 34.8161C279.326 34.9171 278.853 34.6166 278.281 33.9558C277.706 33.2919 277.247 33.0013 276.954 33.1165C276.002 33.4901 276.715 34.7787 278.611 36.1133C279.554 36.7767 279.91 36.8966 280.129 36.6248ZM303.949 36.1249C303.949 35.9657 303.821 35.8355 303.666 35.8355C303.51 35.8355 303.383 35.9657 303.383 36.1249C303.383 36.2841 303.51 36.4144 303.666 36.4144C303.821 36.4144 303.949 36.2841 303.949 36.1249ZM247.874 36.067C248.776 35.1446 247.659 33.7628 246.516 34.3883C245.796 34.7825 245.786 35.7252 246.498 36.1148C247.204 36.5012 247.459 36.4922 247.874 36.067ZM317.116 35.2372C317.219 35.0676 317.234 34.8592 317.152 34.7741C316.949 34.5669 316.397 34.9321 316.397 35.2737C316.397 35.6436 316.885 35.619 317.116 35.2372ZM344.689 34.0988C344.689 33.9396 344.561 33.8094 344.406 33.8094C344.25 33.8094 344.123 33.9396 344.123 34.0988C344.123 34.258 344.25 34.3883 344.406 34.3883C344.561 34.3883 344.689 34.258 344.689 34.0988ZM316.268 33.3883C316.65 32.9975 316.963 32.4273 316.963 32.1211C316.963 31.7792 317.28 31.4296 317.784 31.2163C319.193 30.6189 319.927 29.5824 319.893 28.2356C319.852 26.6573 318.84 25.705 317.203 25.705C315.062 25.705 313.366 27.4964 313.733 29.3711C313.854 29.9902 313.744 30.3448 313.308 30.7494C312.599 31.4053 312.521 32.9859 313.164 33.6441C313.855 34.3515 315.456 34.2198 316.268 33.3883ZM303.666 33.4988C303.666 32.757 302.729 32.8412 302.587 33.5955C302.522 33.9428 302.674 34.0988 303.079 34.0988C303.484 34.0988 303.666 33.913 303.666 33.4988ZM285.738 33.6693C285.992 32.9932 285.342 32.3665 284.986 32.9434C284.839 33.181 284.757 33.4974 284.803 33.6464C284.956 34.1405 285.556 34.155 285.738 33.6693ZM217.376 31.7833C217.376 31.6241 217.241 31.4939 217.076 31.4939C216.912 31.4939 216.855 31.6241 216.952 31.7833C217.048 31.9425 217.183 32.0727 217.251 32.0727C217.32 32.0727 217.376 31.9425 217.376 31.7833ZM326.541 30.5317C326.797 30.2163 326.783 30.0478 326.48 29.7905C325.967 29.3552 325.115 29.6996 325.227 30.2967C325.343 30.9095 326.121 31.0487 326.541 30.5317ZM236.049 27.7311C236.049 27.5719 235.921 27.4417 235.766 27.4417C235.61 27.4417 235.483 27.5719 235.483 27.7311C235.483 27.8903 235.61 28.0206 235.766 28.0206C235.921 28.0206 236.049 27.8903 236.049 27.7311ZM325.875 24.6879C326.497 24.2598 327.325 23.6208 327.714 23.2679C328.103 22.9151 328.759 22.4129 329.171 22.1518C329.598 21.8812 330.134 21.107 330.416 20.353C330.838 19.2204 330.867 18.7188 330.616 16.884C330.437 15.578 330.091 14.4081 329.733 13.8935C328.516 12.1447 323.994 11.0382 321.207 11.8069C319.512 12.2744 317.784 14.1225 316.967 16.3433C316.413 17.8461 316.377 18.2392 316.637 19.867C316.973 21.9669 317.816 23.2908 319.577 24.483C320.499 25.1068 321.136 25.2848 322.737 25.3652C324.534 25.4558 324.861 25.3855 325.875 24.6879ZM288.244 24.4978C289.281 23.663 289.114 22.6957 287.912 22.5767C286.902 22.4766 286.245 23.2769 286.544 24.2419C286.8 25.0648 287.423 25.1586 288.244 24.4978ZM230.524 22.4488C232.843 20.1223 233.082 19.1625 231.944 16.7283C231.133 14.9919 230.814 14.7196 228.728 13.9847C226.824 13.3137 225.447 13.433 223.624 14.4272C221.894 15.3705 221.222 16.2446 220.907 17.9604C220.617 19.5428 220.896 20.28 222.398 21.8983C223.959 23.5808 225.373 24.2578 227.327 24.2578C228.656 24.2578 228.805 24.1736 230.524 22.4488ZM252.798 17.8814C253.33 17.4241 253.376 17.2745 253.049 17.0542C252.54 16.7112 251.494 17.0976 251.383 17.6693C251.248 18.3657 252.087 18.4916 252.798 17.8814ZM288.271 17.458C288.871 16.5216 288.61 15.4814 287.665 15.0408C286.07 14.2976 284.284 16.3187 285.41 17.592C286.171 18.4522 287.68 18.3816 288.271 17.458ZM347.362 16.2718C348.002 15.6165 347.515 15.1115 346.683 15.5673C346.067 15.9043 346.016 16.4614 346.583 16.6548C346.75 16.7118 347.1 16.5393 347.362 16.2718ZM294.058 13.2365C294.465 12.4593 294.214 11.8118 293.506 11.8118C292.785 11.8118 292.536 12.2477 292.752 13.1308C292.964 13.996 293.633 14.0498 294.058 13.2365ZM309.989 12.2553C310.076 12.0217 310.021 11.7499 309.865 11.6515C309.509 11.4263 308.711 12.0778 308.92 12.4234C309.163 12.8263 309.813 12.7239 309.989 12.2553ZM245.385 11.2159C245.385 11.0474 245.258 10.9898 245.102 11.0882C244.946 11.1866 244.819 11.3244 244.819 11.3947C244.819 11.4651 244.946 11.5224 245.102 11.5224C245.258 11.5224 245.385 11.3843 245.385 11.2159ZM236.19 8.60685C237.563 8.16024 239.263 6.80769 239.813 5.72604C240.923 3.53931 239.87 -0.355118 237.677 -2.17107C236.872 -2.83737 236.253 -3.07732 235.086 -3.17659C233.864 -3.28021 233.522 -3.42175 233.407 -3.87067C233.29 -4.32771 233.058 -4.41714 232.18 -4.34333C231.148 -4.2565 231.09 -4.19746 230.945 -3.08253C230.861 -2.4391 230.526 -1.46223 230.201 -0.91172C229.067 1.00988 228.885 2.0814 229.39 3.86118C230.347 7.22941 233.552 9.46562 236.19 8.60685ZM251.609 8.19382C251.609 7.95503 251.418 7.75966 251.185 7.75966C250.951 7.75966 250.76 7.95503 250.76 8.19382C250.76 8.43261 250.951 8.62798 251.185 8.62798C251.418 8.62798 251.609 8.43261 251.609 8.19382ZM278.769 7.21494C278.769 7.05574 278.642 6.84502 278.486 6.74661C278.331 6.64821 278.203 6.69798 278.203 6.85718C278.203 7.01637 278.331 7.22709 278.486 7.3255C278.642 7.42391 278.769 7.37413 278.769 7.21494ZM225.673 7.27977C225.927 7.01898 225.319 6.31245 224.839 6.31245C224.624 6.31245 224.449 6.57295 224.449 6.89133C224.449 7.45459 225.252 7.70959 225.673 7.27977ZM358.976 5.38769C360.209 4.67219 360.235 4.15379 359.067 3.53613C358.222 3.08894 358.146 3.09155 357.794 3.58418C357.329 4.23513 357.315 4.93182 357.76 5.38624C358.17 5.80621 358.255 5.80622 358.976 5.38769ZM327.546 3.52976C327.812 2.81976 327.263 2.33379 326.645 2.73235C325.972 3.1671 326.034 3.83426 326.758 3.9399C327.122 3.99287 327.432 3.83165 327.546 3.52976ZM209.171 0.234184C209.171 0.0749893 209.044 -0.0552597 208.888 -0.0552597C208.733 -0.0552597 208.606 0.0749893 208.606 0.234184C208.606 0.393379 208.733 0.523628 208.888 0.523628C209.044 0.523628 209.171 0.393379 209.171 0.234184ZM283.399 -1.23415C284.223 -1.89726 284.375 -3.04837 283.751 -3.89036C283.175 -4.66548 281.189 -4.57865 280.624 -3.75346C280.101 -2.98962 280.046 -1.47005 280.523 -0.981476C281.053 -0.439064 282.578 -0.573067 283.399 -1.23415ZM333.685 -2.56211C333.935 -2.63071 334.311 -3.01479 334.52 -3.41596C335.042 -4.41338 334.58 -5.09618 333.308 -5.20818C332.086 -5.31557 331.284 -4.63103 331.558 -3.71524C331.932 -2.46456 332.4 -2.21073 333.685 -2.56211ZM308.888 -4.95579C309.081 -5.27563 308.635 -5.62122 308.373 -5.35378C308.104 -5.07851 308.155 -4.68632 308.459 -4.68632C308.605 -4.68632 308.798 -4.80759 308.888 -4.95579ZM240.239 -13.8761C240.186 -14.1545 239.956 -14.3826 239.726 -14.3826C239.497 -14.3826 239.267 -14.1545 239.214 -13.8761C239.148 -13.5207 239.3 -13.3696 239.726 -13.3696C240.153 -13.3696 240.305 -13.5207 240.239 -13.8761ZM213.981 -16.8429C213.981 -17.216 213.838 -17.4212 213.627 -17.3494C213.433 -17.2831 213.274 -17.055 213.274 -16.8429C213.274 -16.6307 213.433 -16.4026 213.627 -16.3363C213.838 -16.2646 213.981 -16.4698 213.981 -16.8429ZM258.237 -18.7448C258.482 -18.9952 258.682 -19.3766 258.682 -19.5926C258.682 -20.267 257.796 -20.9306 257.02 -20.8383C255.997 -20.717 255.827 -19.4122 256.748 -18.7523C257.549 -18.1786 257.683 -18.1781 258.237 -18.7448ZM265.755 -27.6969C265.755 -27.9357 265.628 -28.1311 265.472 -28.1311C265.316 -28.1311 265.189 -27.9357 265.189 -27.6969C265.189 -27.4581 265.316 -27.2628 265.472 -27.2628C265.628 -27.2628 265.755 -27.4581 265.755 -27.6969Z" fill="#E09E9B"/>
<path d="M28.0245 28.5C28.0245 27.36 28.2045 26.31 28.5645 25.35C28.9445 24.37 29.4745 23.53 30.1545 22.83C30.8345 22.13 31.6445 21.58 32.5845 21.18C33.5445 20.78 34.6045 20.58 35.7645 20.58C37.2445 20.58 38.5345 20.91 39.6345 21.57C40.7545 22.21 41.6345 23.16 42.2745 24.42L40.2045 25.59C39.3045 23.77 37.8445 22.86 35.8245 22.86C35.0245 22.86 34.2945 23 33.6345 23.28C32.9745 23.56 32.4145 23.96 31.9545 24.48C31.4945 24.98 31.1345 25.57 30.8745 26.25C30.6145 26.93 30.4845 27.68 30.4845 28.5C30.4845 29.3 30.6145 30.05 30.8745 30.75C31.1345 31.43 31.4945 32.03 31.9545 32.55C32.4145 33.05 32.9645 33.44 33.6045 33.72C34.2645 34 34.9945 34.14 35.7945 34.14C36.8145 34.14 37.6945 33.9 38.4345 33.42C39.1945 32.94 39.7945 32.22 40.2345 31.26L42.3345 32.4C41.6945 33.72 40.8145 34.72 39.6945 35.4C38.5745 36.08 37.2645 36.42 35.7645 36.42C34.6045 36.42 33.5445 36.22 32.5845 35.82C31.6445 35.42 30.8345 34.87 30.1545 34.17C29.4745 33.47 28.9445 32.64 28.5645 31.68C28.2045 30.7 28.0245 29.64 28.0245 28.5ZM44.7209 31.89C44.7209 30.45 45.2609 29.31 46.3409 28.47C47.4209 27.63 48.9609 27.16 50.9609 27.06L55.1609 26.85V26.64C55.1609 25.42 54.8109 24.47 54.1109 23.79C53.4309 23.11 52.4909 22.77 51.2909 22.77C50.3309 22.77 49.5109 22.99 48.8309 23.43C48.1509 23.85 47.6109 24.48 47.2109 25.32L45.1409 24.27C45.7209 23.07 46.5409 22.16 47.6009 21.54C48.6609 20.9 49.9009 20.58 51.3209 20.58C52.2609 20.58 53.1109 20.72 53.8709 21C54.6509 21.28 55.3109 21.67 55.8509 22.17C56.3909 22.67 56.8109 23.28 57.1109 24C57.4109 24.7 57.5609 25.49 57.5609 26.37V36H55.1609V33.6C54.6209 34.52 53.9009 35.22 53.0009 35.7C52.1209 36.18 51.0909 36.42 49.9109 36.42C48.3309 36.42 47.0709 36.01 46.1309 35.19C45.1909 34.37 44.7209 33.27 44.7209 31.89ZM50.2709 34.23C50.9709 34.23 51.6209 34.11 52.2209 33.87C52.8209 33.63 53.3309 33.3 53.7509 32.88C54.1909 32.46 54.5309 31.97 54.7709 31.41C55.0309 30.85 55.1609 30.25 55.1609 29.61V28.92L51.1409 29.1C49.8409 29.16 48.8509 29.42 48.1709 29.88C47.5109 30.32 47.1809 30.95 47.1809 31.77C47.1809 32.53 47.4509 33.13 47.9909 33.57C48.5509 34.01 49.3109 34.23 50.2709 34.23ZM74.5421 21V36H72.1121V29.16H64.3721V36H61.9421V21H64.3721V26.91H72.1121V21H74.5421ZM77.6701 33.75H79.2301C79.4701 33.39 79.6801 32.96 79.8601 32.46C80.0401 31.94 80.1901 31.29 80.3101 30.51C80.4301 29.73 80.5101 28.79 80.5501 27.69C80.6101 26.57 80.6401 25.23 80.6401 23.67V21H91.5301V33.75H93.9901V39.9H91.5901V36H80.0701V39.9H77.6701V33.75ZM89.1001 33.75V23.25H83.0401V24.96C83.0401 26.08 83.0101 27.08 82.9501 27.96C82.9101 28.84 82.8401 29.64 82.7401 30.36C82.6401 31.06 82.5101 31.69 82.3501 32.25C82.2101 32.79 82.0301 33.29 81.8101 33.75H89.1001ZM96.0784 31.89C96.0784 30.45 96.6184 29.31 97.6984 28.47C98.7784 27.63 100.318 27.16 102.318 27.06L106.518 26.85V26.64C106.518 25.42 106.168 24.47 105.468 23.79C104.788 23.11 103.848 22.77 102.648 22.77C101.688 22.77 100.868 22.99 100.188 23.43C99.5084 23.85 98.9684 24.48 98.5684 25.32L96.4984 24.27C97.0784 23.07 97.8984 22.16 98.9584 21.54C100.018 20.9 101.258 20.58 102.678 20.58C103.618 20.58 104.468 20.72 105.228 21C106.008 21.28 106.668 21.67 107.208 22.17C107.748 22.67 108.168 23.28 108.468 24C108.768 24.7 108.918 25.49 108.918 26.37V36H106.518V33.6C105.978 34.52 105.258 35.22 104.358 35.7C103.478 36.18 102.448 36.42 101.268 36.42C99.6884 36.42 98.4284 36.01 97.4884 35.19C96.5484 34.37 96.0784 33.27 96.0784 31.89ZM101.628 34.23C102.328 34.23 102.978 34.11 103.578 33.87C104.178 33.63 104.688 33.3 105.108 32.88C105.548 32.46 105.888 31.97 106.128 31.41C106.388 30.85 106.518 30.25 106.518 29.61V28.92L102.498 29.1C101.198 29.16 100.208 29.42 99.5284 29.88C98.8684 30.32 98.5384 30.95 98.5384 31.77C98.5384 32.53 98.8084 33.13 99.3484 33.57C99.9084 34.01 100.668 34.23 101.628 34.23ZM111.74 33.72H112.1C112.62 33.72 113.05 33.61 113.39 33.39C113.73 33.17 113.99 32.79 114.17 32.25C114.37 31.69 114.51 30.95 114.59 30.03C114.67 29.09 114.71 27.92 114.71 26.52V21H125.6V36H123.17V23.25H117.11V27.12C117.11 28.76 117.02 30.15 116.84 31.29C116.68 32.43 116.41 33.36 116.03 34.08C115.67 34.78 115.18 35.29 114.56 35.61C113.96 35.91 113.22 36.06 112.34 36.06H111.74V33.72Z" fill="black"/>
</g>
<defs>
<linearGradient id="paint0_linear_2438_3606" x1="-0.000244141" y1="35.5654" x2="431.747" y2="35.5654" gradientUnits="userSpaceOnUse">
<stop offset="0.706731" stop-color="white"/>
<stop offset="1" stop-color="#FFF3E1"/>
</linearGradient>
<clipPath id="clip0_2438_3606">
<rect width="325.051" height="53.7617" fill="white"/>
</clipPath>
</defs>
</svg>
