<svg width="326" height="54" viewBox="0 0 326 54" fill="none" xmlns="http://www.w3.org/2000/svg">
<g clip-path="url(#clip0_2438_3618)">
<rect x="0.000244141" width="431.748" height="71.1308" fill="url(#paint0_linear_2438_3618)"/>
<path fill-rule="evenodd" clip-rule="evenodd" d="M228.693 20.8188C228.771 20.9532 228.909 21.0398 228.998 21.0116C229.216 20.9421 229.169 20.4175 228.934 20.2941C228.68 20.1604 228.516 20.5168 228.693 20.8188ZM257.038 -15.0047C257.201 -14.4736 257.441 -14.4146 257.667 -14.8493C257.777 -15.0593 257.711 -15.369 257.521 -15.5432C257.137 -15.8951 256.859 -15.5854 257.038 -15.0047ZM229.918 43.0176C230.064 43.4919 230.035 44.0108 229.84 44.3837C229.658 44.7324 229.627 45.0995 229.765 45.2576C229.896 45.4077 229.943 45.6459 229.87 45.787C229.668 46.1746 230.488 47.7818 231.035 48.0688C231.299 48.2075 231.657 48.6841 231.831 49.1281C232.192 50.0493 232.617 50.352 233.201 50.1044C233.682 49.9006 234.301 50.1913 235.011 50.9544C235.473 51.4511 235.608 51.484 236.292 51.2666C236.713 51.133 237.444 51.0377 237.917 51.055C238.391 51.0721 238.817 51.0126 238.863 50.9226C238.91 50.8326 239.434 50.5885 240.028 50.3804C241.015 50.0344 241.158 49.9013 241.702 48.8213C242.029 48.1717 242.493 47.5053 242.733 47.3399C243.382 46.8945 243.589 46.3636 243.681 44.9097C243.804 42.9742 243.243 41.0309 242.127 39.5283C241.213 38.2976 241.143 38.2453 240.496 38.3113C239.871 38.3749 239.781 38.328 239.311 37.6992C238.658 36.8242 238.493 36.7479 237.757 36.9818C237.423 37.0882 236.946 37.0722 236.698 36.9459C236.383 36.7861 235.783 36.9412 234.719 37.4573C233.878 37.8646 232.926 38.2976 232.601 38.4196C232.141 38.5928 231.856 38.9454 231.305 40.0283C230.916 40.7912 230.486 41.4239 230.349 41.4341C229.891 41.4684 229.68 42.2442 229.918 43.0176ZM258.851 2.10985C259 2.49553 259.176 2.8393 259.241 2.87372C259.401 2.95741 260.334 5.05855 260.317 5.29649C260.31 5.3995 260.479 5.5755 260.693 5.68765C260.906 5.79969 261.061 6.05444 261.038 6.25361C261.014 6.45287 261.064 6.65239 261.149 6.69695C261.234 6.74163 261.49 7.30862 261.718 7.95718C262.37 9.81692 263 11.2597 263.207 11.3684C263.312 11.4233 263.935 12.5008 264.592 13.7628C265.25 15.0248 265.882 16.1075 265.999 16.1687C266.116 16.2299 266.328 16.6906 266.471 17.1927C266.728 18.0962 266.724 18.1104 266.055 18.5774C265.204 19.1722 263.673 21.4716 263.886 21.8352C263.969 21.9768 263.906 22.3347 263.747 22.6305L263.457 23.1682L263.495 22.4191C263.571 20.9454 263.032 19.5706 262.003 18.6145C261.166 17.8377 260.941 17.7151 260.35 17.7148C259.973 17.7145 259.408 17.5793 259.094 17.4143C258.619 17.1651 258.234 17.2562 256.822 17.952C254.737 18.9786 254.246 19.7543 254.05 22.3303C253.92 24.0361 254.103 24.3606 256.21 26.159C257.597 27.343 260.568 27.2391 261.627 25.9693C262.646 24.7463 263.298 25.233 263.629 27.4643C263.796 28.5909 263.962 28.9348 264.554 29.3877C264.951 29.6908 265.231 30.0237 265.177 30.1276C265.123 30.2313 265.258 30.5199 265.477 30.7691C265.696 31.0182 265.827 31.3149 265.768 31.4282C265.709 31.5418 265.795 31.7052 265.959 31.7915C266.123 31.8779 266.211 32.0391 266.153 32.1498C266.095 32.2605 265.87 32.2575 265.652 32.1431C265.135 31.8716 262.207 32.386 260.98 32.9637C258.653 34.0593 258.143 34.4664 257.235 35.9544C256.752 36.7446 256.127 37.6865 255.845 38.0474C255.464 38.5355 255.329 38.973 255.319 39.7563C255.309 40.5237 255.133 41.1092 254.668 41.9163C254.084 42.9322 254.06 43.0893 254.37 43.82C254.556 44.2578 254.777 44.7788 254.86 44.9778C255.046 45.4202 254.349 46.5148 253.027 47.857C252.146 48.7507 252.073 48.8895 251.82 50.1357C251.542 51.5026 251.874 53.1092 252.881 55.2744C253.495 56.5943 254.768 57.7322 255.617 57.7192C256 57.7134 256.532 57.91 256.945 58.2104C257.552 58.653 257.751 58.6703 258.643 58.3586C259.199 58.1646 259.923 58.038 260.252 58.0771C260.637 58.123 261.547 57.7196 262.809 56.944C263.886 56.2816 264.807 55.6625 264.857 55.5682C265.092 55.116 265.536 55.4848 266.418 56.8655C267.262 58.187 267.506 58.424 268.403 58.7926C269.076 59.069 269.568 59.4203 269.84 59.8176C270.31 60.503 270.746 60.623 271.325 60.2255C271.57 60.0574 271.938 60.0651 272.283 60.2461C273.073 60.6613 274.091 60.6132 275.756 60.0818C276.872 59.7259 277.346 59.4315 277.856 58.7792C278.218 58.3158 278.851 57.7635 279.262 57.5521C279.874 57.2372 280.024 57.0505 280.088 56.5209C280.141 56.083 280.359 55.6635 280.763 55.2227C281.972 53.9023 282.557 50.9589 282.01 48.9443C281.771 48.0634 281.792 47.944 282.214 47.7867C282.472 47.69 282.883 47.6978 283.129 47.8037C284.011 48.1849 285.629 47.3531 286.869 45.8801C287.734 44.8533 288.054 42.6209 287.547 41.1558C287.015 39.6156 285.242 38.2038 283.84 38.2033C283.47 38.2032 282.854 38.1908 282.471 38.1755C282.089 38.1604 281.332 38.4075 280.79 38.7247C279.628 39.4045 279.324 39.3294 279.41 38.3844C279.467 37.7644 279.599 37.6143 280.626 37.0024C281.754 36.3305 281.805 36.3262 283.029 36.8011C284.207 37.2578 285.586 37.213 285.848 36.7094C285.896 36.6174 286.309 36.4143 286.766 36.2581C287.465 36.0193 287.611 35.8739 287.687 35.3436C287.803 34.5291 287.493 34.0104 286.789 33.8416C286.051 33.6646 283.238 34.4167 283.011 34.8514C282.817 35.2243 281.888 35.5423 281.535 35.3569C281.412 35.2924 281.176 35.3248 281.01 35.429C280.844 35.5331 280.288 35.6008 279.774 35.5798C278.922 35.5447 278.752 35.4629 277.848 34.6511C277.173 34.0456 276.613 33.7053 276.095 33.5863C275.189 33.3778 275.061 33.1372 275.666 32.7785C275.91 32.6335 276.194 32.3551 276.296 32.16C276.399 31.9649 276.913 31.4955 277.439 31.1167C278.006 30.7091 278.747 29.8896 279.257 29.1069C279.995 27.9746 280.101 27.6864 279.997 27.0958C279.93 26.7166 279.987 26.0443 280.124 25.6013C280.261 25.1586 280.299 24.6163 280.208 24.3961C280.118 24.1757 280.087 23.9125 280.139 23.8108C280.237 23.6246 280.093 22.1981 279.907 21.4932C279.851 21.2841 279.567 20.9871 279.274 20.8333C278.933 20.6543 278.625 20.1754 278.417 19.5005C278.098 18.4648 278.063 18.4309 276.279 17.4452C274.79 16.6226 274.285 16.442 273.456 16.4368C272.9 16.4333 272.396 16.3461 272.336 16.2433C272.276 16.1405 271.911 16.0287 271.525 15.9949C270.917 15.9419 270.773 15.8352 270.456 15.2017C270.063 14.4199 269.423 13.956 269.047 14.1813C268.74 14.3653 268.963 15.9305 269.324 16.1199C269.731 16.3336 269.557 16.5137 268.552 16.9213L267.67 17.2795L266.81 15.7823C266.337 14.9587 265.94 14.1941 265.928 14.083C265.916 13.9721 265.745 13.7184 265.547 13.5195C265.349 13.3205 265.161 12.8785 265.129 12.5371C265.096 12.1957 264.703 11.3976 264.254 10.7635C263.806 10.1296 263.478 9.53521 263.527 9.4424C263.575 9.34978 263.482 9.2045 263.32 9.11955C263.159 9.0346 262.997 8.66142 262.962 8.29032C262.927 7.91922 262.811 7.56968 262.704 7.51361C262.597 7.45753 262.205 6.42903 261.831 5.2282C260.938 2.35411 259.274 0.0776998 258.772 1.04211C258.667 1.24345 258.703 1.72387 258.851 2.10985ZM252 30.6143C252.116 30.6752 252.203 30.6054 252.193 30.4591C252.183 30.3128 252.135 30.1724 252.087 30.147C252.038 30.1215 251.952 30.1914 251.894 30.3022C251.836 30.4129 251.884 30.5534 252 30.6143ZM247.089 49.7365C247.036 50.2588 247.732 51.084 248.196 51.0492C248.692 51.012 248.999 49.9616 248.76 49.1229C248.628 48.6576 248.411 48.2202 248.279 48.1508C247.825 47.9122 247.186 48.7623 247.089 49.7365ZM252.623 41.0719C252.697 41.1979 252.808 41.2049 252.869 41.0877C252.93 40.9705 252.89 40.8274 252.781 40.7699C252.671 40.7123 252.561 40.7051 252.535 40.754C252.51 40.8029 252.549 40.9459 252.623 41.0719ZM283.263 16.187C283.247 16.3495 283.439 16.8319 283.689 17.2588C284.069 17.9062 284.241 18.0353 284.724 18.0368C285.949 18.0402 286.616 17.712 287.042 16.8956C287.56 15.9014 287.262 15.0478 286.197 14.4766C284.947 13.8057 283.41 14.7016 283.263 16.187ZM299.381 5.87712C299.596 6.47079 298.967 8.09606 298.596 7.90146C298.32 7.75646 297.733 8.42237 297.58 9.0533C297.507 9.35714 297.573 9.6724 297.728 9.75369C298.123 9.96094 298.275 11.4049 297.966 11.9995C297.78 12.3557 297.855 12.7658 298.23 13.4548C298.524 13.9942 298.722 14.7867 298.682 15.265C298.643 15.7329 298.579 16.4887 298.54 16.9443C298.479 17.6639 298.58 17.8536 299.305 18.3867C299.764 18.7241 300.147 19.1 300.155 19.2215C300.163 19.3431 300.382 19.6323 300.64 19.8641C300.898 20.0959 301.288 20.775 301.505 21.3731C301.915 22.4965 302.288 22.8733 302.729 22.6087C303.039 22.423 304.662 23.5275 304.69 23.9436C304.703 24.1321 305.471 24.5643 307.03 25.2601L309.35 26.2961L310.077 25.8398C311.211 25.1283 311.807 25.1625 313.176 26.0171L314.372 26.7641L314.914 25.723C315.427 24.7393 315.501 24.6853 316.249 24.7453C317.244 24.8251 319.1 24.2128 320.156 23.4557C320.658 23.0961 321.172 22.478 321.512 21.8261C321.971 20.9457 322.173 20.7542 322.764 20.6416C323.65 20.4725 324.228 19.4583 324.246 18.0405C324.261 16.8656 324.564 16.2167 325.249 15.8894C325.521 15.7587 325.902 15.3509 326.093 14.9829C326.369 14.4532 326.356 14.1698 326.03 13.6224C325.803 13.2423 325.551 12.5058 325.47 11.986C325.341 11.153 325.407 10.9136 326.028 9.97085C326.857 8.71407 326.813 8.4626 325.598 7.49996C324.48 6.61506 324.084 5.81963 324.201 4.6962C324.307 3.66844 323.896 3.09473 323.059 3.10495C322.606 3.11063 322.498 2.93507 322.22 1.75147C321.911 0.431774 321.481 -0.112066 320.984 0.186033C320.443 0.510335 319.591 0.202643 318.844 -0.587424C318.118 -1.35524 317.29 -1.71282 317.096 -1.34175C316.922 -1.00733 316.264 -1.52543 315.942 -2.24995C315.646 -2.91887 315.6 -2.9479 315.072 -2.80862C314.765 -2.72788 314.362 -2.43622 314.176 -2.16095C313.815 -1.62769 313.463 -1.73227 312.39 -2.69157C311.684 -3.3237 310.776 -3.22842 309.491 -2.38731C308.883 -1.98856 307.067 -1.20938 305.458 -0.655613C303.848 -0.101753 302.452 0.496154 302.355 0.672956C302.258 0.849757 302.237 1.31162 302.307 1.69882C302.503 2.7707 301.801 3.76547 300.626 4.08125C299.529 4.37593 299.074 5.03275 299.381 5.87712ZM305.509 -4.25294C306.033 -3.11754 307.178 -2.52491 307.075 -3.4428C307.001 -4.10205 306.113 -5.6335 305.782 -5.67116C305.192 -5.73868 305.083 -5.17426 305.509 -4.25294ZM284.642 60.6496C284.474 61.8341 284.555 62.1384 285.327 63.2451C285.863 64.0141 286.175 64.2539 287.094 64.6048C287.707 64.8388 288.288 64.9543 288.384 64.861C288.48 64.7678 288.644 64.7367 288.749 64.7918C289.466 65.1683 292.013 63.0025 291.945 62.0744C291.926 61.8059 291.974 61.4642 292.052 61.3149C292.13 61.1653 292.006 60.5335 291.777 59.9108C291.432 58.9742 291.164 58.6439 290.224 58.0007C289.194 57.2959 288.989 57.2335 288.032 57.3356C286.901 57.4559 285.464 58.3637 285.03 59.232C284.887 59.5182 284.712 60.1562 284.642 60.6496ZM299.398 53.4238C299.546 54.6248 300.893 56.5208 301.191 55.9478C301.247 55.8407 301.131 55.7345 300.934 55.7118C300.716 55.687 300.635 55.5556 300.727 55.3789C300.81 55.2184 300.658 54.758 300.389 54.3557C300.12 53.9533 299.942 53.438 299.995 53.2105C300.047 52.9831 299.947 52.7219 299.773 52.6303C299.379 52.4233 299.297 52.5966 299.398 53.4238ZM301.026 56.7509C301.1 56.8769 301.211 56.8839 301.272 56.7667C301.333 56.6495 301.293 56.5064 301.184 56.4489C301.074 56.3913 300.964 56.3841 300.938 56.4331C300.913 56.482 300.953 56.6249 301.026 56.7509Z" fill="#84A7BB"/>
<path d="M32.1718 35.6771C31.0318 35.6771 29.9918 35.4771 29.0518 35.0771C28.1118 34.6771 27.2918 34.1271 26.5918 33.4271C25.9118 32.7071 25.3818 31.8671 25.0018 30.9071C24.6218 29.9271 24.4318 28.8771 24.4318 27.7571C24.4318 26.6371 24.6218 25.5971 25.0018 24.6371C25.3818 23.6571 25.9118 22.8171 26.5918 22.1171C27.2918 21.3971 28.1118 20.8371 29.0518 20.4371C29.9918 20.0371 31.0318 19.8371 32.1718 19.8371C33.3118 19.8371 34.3518 20.0371 35.2918 20.4371C36.2318 20.8371 37.0418 21.3971 37.7218 22.1171C38.4218 22.8171 38.9618 23.6571 39.3418 24.6371C39.7218 25.5971 39.9118 26.6371 39.9118 27.7571C39.9118 28.8771 39.7218 29.9271 39.3418 30.9071C38.9618 31.8671 38.4218 32.7071 37.7218 33.4271C37.0418 34.1271 36.2318 34.6771 35.2918 35.0771C34.3518 35.4771 33.3118 35.6771 32.1718 35.6771ZM32.1718 33.3971C32.9518 33.3971 33.6618 33.2571 34.3018 32.9771C34.9618 32.6971 35.5218 32.3071 35.9818 31.8071C36.4418 31.2871 36.8018 30.6871 37.0618 30.0071C37.3218 29.3071 37.4518 28.5571 37.4518 27.7571C37.4518 26.9371 37.3218 26.1871 37.0618 25.5071C36.8018 24.8271 36.4418 24.2371 35.9818 23.7371C35.5218 23.2171 34.9618 22.8171 34.3018 22.5371C33.6618 22.2571 32.9518 22.1171 32.1718 22.1171C31.3918 22.1171 30.6718 22.2571 30.0118 22.5371C29.3718 22.8171 28.8218 23.2171 28.3618 23.7371C27.9018 24.2371 27.5418 24.8271 27.2818 25.5071C27.0218 26.1871 26.8918 26.9371 26.8918 27.7571C26.8918 28.5571 27.0218 29.3071 27.2818 30.0071C27.5418 30.6871 27.9018 31.2871 28.3618 31.8071C28.8218 32.3071 29.3718 32.6971 30.0118 32.9771C30.6718 33.2571 31.3918 33.3971 32.1718 33.3971ZM48 35.6771C44.9 35.6771 42.76 34.3071 41.58 31.5671L43.68 30.6671C44.48 32.6071 45.92 33.5771 48 33.5771C49.12 33.5771 50.01 33.3371 50.67 32.8571C51.35 32.3771 51.69 31.7171 51.69 30.8771C51.69 30.1171 51.41 29.5171 50.85 29.0771C50.29 28.6371 49.56 28.4171 48.66 28.4171H45.48V26.2871H48.66C49.48 26.2871 50.13 26.1171 50.61 25.7771C51.11 25.4171 51.36 24.9171 51.36 24.2771C51.36 23.5771 51.06 23.0171 50.46 22.5971C49.88 22.1571 49.09 21.9371 48.09 21.9371C46.17 21.9371 44.83 22.8071 44.07 24.5471L42 23.6171C42.58 22.3571 43.39 21.4171 44.43 20.7971C45.47 20.1571 46.71 19.8371 48.15 19.8371C49.83 19.8371 51.16 20.2271 52.14 21.0071C53.12 21.7871 53.61 22.8171 53.61 24.0971C53.61 25.6571 52.85 26.7371 51.33 27.3371C52.17 27.6171 52.82 28.0771 53.28 28.7171C53.74 29.3571 53.97 30.1271 53.97 31.0271C53.97 31.7471 53.82 32.3971 53.52 32.9771C53.24 33.5371 52.84 34.0171 52.32 34.4171C51.8 34.8171 51.17 35.1271 50.43 35.3471C49.69 35.5671 48.88 35.6771 48 35.6771ZM64.2225 35.6771C63.0825 35.6771 62.0425 35.4771 61.1025 35.0771C60.1625 34.6771 59.3425 34.1271 58.6425 33.4271C57.9625 32.7071 57.4325 31.8671 57.0525 30.9071C56.6725 29.9271 56.4825 28.8771 56.4825 27.7571C56.4825 26.6371 56.6725 25.5971 57.0525 24.6371C57.4325 23.6571 57.9625 22.8171 58.6425 22.1171C59.3425 21.3971 60.1625 20.8371 61.1025 20.4371C62.0425 20.0371 63.0825 19.8371 64.2225 19.8371C65.3625 19.8371 66.4025 20.0371 67.3425 20.4371C68.2825 20.8371 69.0925 21.3971 69.7725 22.1171C70.4725 22.8171 71.0125 23.6571 71.3925 24.6371C71.7725 25.5971 71.9625 26.6371 71.9625 27.7571C71.9625 28.8771 71.7725 29.9271 71.3925 30.9071C71.0125 31.8671 70.4725 32.7071 69.7725 33.4271C69.0925 34.1271 68.2825 34.6771 67.3425 35.0771C66.4025 35.4771 65.3625 35.6771 64.2225 35.6771ZM64.2225 33.3971C65.0025 33.3971 65.7125 33.2571 66.3525 32.9771C67.0125 32.6971 67.5725 32.3071 68.0325 31.8071C68.4925 31.2871 68.8525 30.6871 69.1125 30.0071C69.3725 29.3071 69.5025 28.5571 69.5025 27.7571C69.5025 26.9371 69.3725 26.1871 69.1125 25.5071C68.8525 24.8271 68.4925 24.2371 68.0325 23.7371C67.5725 23.2171 67.0125 22.8171 66.3525 22.5371C65.7125 22.2571 65.0025 22.1171 64.2225 22.1171C63.4425 22.1171 62.7225 22.2571 62.0625 22.5371C61.4225 22.8171 60.8725 23.2171 60.4125 23.7371C59.9525 24.2371 59.5925 24.8271 59.3325 25.5071C59.0725 26.1871 58.9425 26.9371 58.9425 27.7571C58.9425 28.5571 59.0725 29.3071 59.3325 30.0071C59.5925 30.6871 59.9525 31.2871 60.4125 31.8071C60.8725 32.3071 61.4225 32.6971 62.0625 32.9771C62.7225 33.2571 63.4425 33.3971 64.2225 33.3971ZM88.2345 20.2571V35.2571H85.8045V28.4171H78.0645V35.2571H75.6345V20.2571H78.0645V26.1671H85.8045V20.2571H88.2345Z" fill="black"/>
</g>
<defs>
<linearGradient id="paint0_linear_2438_3618" x1="0.000244141" y1="35.5654" x2="431.748" y2="35.5654" gradientUnits="userSpaceOnUse">
<stop offset="0.173077" stop-color="white"/>
<stop offset="0.576923" stop-color="#FFF3E1"/>
</linearGradient>
<clipPath id="clip0_2438_3618">
<rect width="325.051" height="53.7617" fill="white"/>
</clipPath>
</defs>
</svg>
