<svg width="326" height="53" viewBox="0 0 326 53" fill="none" xmlns="http://www.w3.org/2000/svg">
<g clip-path="url(#clip0_2438_3610)">
<rect width="431.748" height="71.1308" fill="url(#paint0_linear_2438_3610)"/>
<path fill-rule="evenodd" clip-rule="evenodd" d="M228.693 20.4986C228.771 20.6309 228.909 20.7162 228.998 20.6884C229.216 20.62 229.169 20.1034 228.934 19.9819C228.68 19.8502 228.515 20.2012 228.693 20.4986ZM257.038 -14.7739C257.201 -14.2509 257.44 -14.1928 257.667 -14.6208C257.776 -14.8276 257.711 -15.1325 257.521 -15.304C257.137 -15.6505 256.859 -15.3456 257.038 -14.7739ZM229.918 42.3558C230.064 42.8228 230.034 43.3338 229.84 43.7009C229.658 44.0443 229.627 44.4057 229.765 44.5614C229.896 44.7092 229.943 44.9437 229.87 45.0826C229.668 45.4642 230.488 47.0467 231.034 47.3293C231.298 47.4659 231.657 47.9351 231.831 48.3723C232.192 49.2794 232.617 49.5774 233.201 49.3336C233.682 49.1329 234.301 49.4192 235.01 50.1705C235.473 50.6595 235.608 50.692 236.292 50.4779C236.712 50.3464 237.444 50.2525 237.917 50.2696C238.391 50.2864 238.816 50.2278 238.863 50.1392C238.91 50.0506 239.434 49.8103 240.028 49.6054C241.015 49.2647 241.158 49.1336 241.702 48.0702C242.029 47.4306 242.493 46.7744 242.733 46.6117C243.382 46.1731 243.589 45.6504 243.681 44.2188C243.804 42.3131 243.243 40.3997 242.127 38.9202C241.213 37.7085 241.143 37.6569 240.496 37.722C239.871 37.7846 239.78 37.7384 239.311 37.1193C238.658 36.2577 238.493 36.1826 237.757 36.4129C237.422 36.5177 236.946 36.5019 236.697 36.3776C236.383 36.2202 235.783 36.3729 234.718 36.881C233.878 37.2821 232.925 37.7084 232.601 37.8285C232.14 37.9991 231.856 38.3463 231.305 39.4125C230.916 40.1637 230.486 40.7866 230.349 40.7967C229.89 40.8305 229.679 41.5943 229.918 42.3558ZM258.851 2.07743C259 2.45717 259.176 2.79565 259.241 2.82954C259.4 2.91195 260.334 4.98076 260.317 5.21504C260.31 5.31647 260.479 5.48975 260.692 5.60018C260.906 5.7105 261.061 5.96133 261.037 6.15743C261.014 6.35363 261.064 6.55008 261.149 6.59396C261.234 6.63794 261.49 7.19621 261.717 7.83479C262.37 9.66593 263 11.0865 263.207 11.1935C263.312 11.2476 263.935 12.3085 264.592 13.5511C265.249 14.7937 265.882 15.8597 265.999 15.9199C266.115 15.9802 266.327 16.4339 266.47 16.9283C266.728 17.8178 266.724 17.8318 266.055 18.2916C265.203 18.8773 263.673 21.1413 263.886 21.4994C263.969 21.6387 263.906 21.9911 263.747 22.2824L263.457 22.8118L263.495 22.0742C263.571 20.6232 263.032 19.2696 262.003 18.3282C261.166 17.5633 260.941 17.4426 260.35 17.4423C259.973 17.442 259.408 17.3089 259.094 17.1464C258.619 16.9011 258.234 16.9908 256.822 17.6758C254.737 18.6866 254.246 19.4504 254.049 21.9868C253.919 23.6664 254.103 23.9859 256.209 25.7565C257.597 26.9224 260.568 26.8201 261.626 25.5698C262.646 24.3656 263.298 24.8449 263.629 27.0418C263.796 28.1511 263.961 28.4897 264.554 28.9356C264.951 29.234 265.231 29.5618 265.177 29.6641C265.123 29.7662 265.258 30.0504 265.477 30.2957C265.696 30.541 265.827 30.8332 265.768 30.9448C265.708 31.0566 265.794 31.2175 265.959 31.3025C266.123 31.3875 266.21 31.5462 266.153 31.6552C266.095 31.7643 265.869 31.7613 265.651 31.6486C265.135 31.3813 262.206 31.8878 260.979 32.4566C258.652 33.5354 258.142 33.9362 257.234 35.4013C256.752 36.1794 256.127 37.1068 255.845 37.4621C255.464 37.9427 255.329 38.3735 255.319 39.1447C255.309 39.9003 255.132 40.4768 254.668 41.2715C254.084 42.2717 254.059 42.4265 254.37 43.1459C254.556 43.577 254.776 44.0899 254.86 44.2859C255.045 44.7214 254.348 45.7992 253.026 47.1208C252.146 48.0008 252.072 48.1374 251.82 49.3644C251.542 50.7103 251.874 52.2922 252.881 54.424C253.495 55.7236 254.768 56.844 255.617 56.8313C256 56.8255 256.532 57.0191 256.944 57.3149C257.552 57.7507 257.751 57.7677 258.643 57.4608C259.199 57.2698 259.923 57.1451 260.252 57.1837C260.637 57.2288 261.547 56.8317 262.808 56.068C263.885 55.4158 264.807 54.8062 264.856 54.7134C265.092 54.2681 265.536 54.6312 266.418 55.9906C267.262 57.2918 267.506 57.5252 268.403 57.8881C269.075 58.1603 269.568 58.5061 269.84 58.8974C270.31 59.5723 270.746 59.6903 271.324 59.2989C271.569 59.1334 271.938 59.141 272.283 59.3192C273.073 59.7281 274.09 59.6807 275.756 59.1575C276.871 58.807 277.346 58.5172 277.855 57.8749C278.217 57.4187 278.85 56.8749 279.262 56.6667C279.874 56.3567 280.024 56.1728 280.088 55.6513C280.141 55.2203 280.359 54.8072 280.763 54.3732C281.972 53.073 282.557 50.175 282.01 48.1914C281.771 47.324 281.792 47.2065 282.213 47.0516C282.471 46.9564 282.883 46.964 283.128 47.0683C284.011 47.4436 285.629 46.6246 286.869 45.1743C287.733 44.1633 288.054 41.9652 287.547 40.5226C287.014 39.0062 285.242 37.6161 283.84 37.6156C283.47 37.6155 282.854 37.6033 282.471 37.5882C282.088 37.5734 281.332 37.8166 280.789 38.129C279.628 38.7983 279.323 38.7243 279.41 37.7939C279.467 37.1834 279.599 37.0356 280.626 36.4331C281.753 35.7716 281.805 35.7673 283.029 36.2349C284.207 36.6846 285.585 36.6405 285.848 36.1447C285.896 36.0541 286.309 35.8541 286.766 35.7003C287.465 35.4651 287.611 35.322 287.686 34.7999C287.802 33.9979 287.492 33.4872 286.789 33.321C286.051 33.1467 283.237 33.8873 283.011 34.3153C282.816 34.6824 281.888 34.9955 281.535 34.813C281.412 34.7495 281.176 34.7814 281.01 34.8839C280.844 34.9865 280.288 35.0532 279.774 35.0324C278.922 34.9979 278.752 34.9173 277.848 34.1181C277.173 33.5218 276.613 33.1868 276.095 33.0696C275.189 32.8643 275.061 32.6274 275.665 32.2743C275.91 32.1315 276.194 31.8574 276.296 31.6653C276.398 31.4732 276.913 31.0109 277.439 30.638C278.005 30.2367 278.747 29.4298 279.257 28.6591C279.995 27.5443 280.101 27.2605 279.997 26.679C279.93 26.3056 279.987 25.6437 280.124 25.2075C280.261 24.7716 280.299 24.2376 280.208 24.0208C280.117 23.8038 280.086 23.5446 280.139 23.4445C280.236 23.2611 280.093 21.8566 279.906 21.1626C279.851 20.9567 279.566 20.6643 279.274 20.5129C278.933 20.3366 278.625 19.8651 278.417 19.2005C278.098 18.1808 278.063 18.1474 276.279 17.1768C274.79 16.3669 274.285 16.1891 273.456 16.184C272.9 16.1805 272.396 16.0946 272.336 15.9935C272.276 15.8922 271.911 15.7821 271.525 15.7489C270.917 15.6967 270.773 15.5916 270.455 14.9679C270.063 14.1981 269.423 13.7413 269.047 13.9631C268.74 14.1443 268.963 15.6854 269.324 15.8719C269.73 16.0823 269.557 16.2596 268.552 16.661L267.669 17.0137L266.809 15.5395C266.337 14.7286 265.94 13.9758 265.928 13.8664C265.916 13.7572 265.745 13.5074 265.547 13.3115C265.349 13.1156 265.161 12.6804 265.128 12.3442C265.096 12.0081 264.703 11.2223 264.254 10.5979C263.806 9.97382 263.478 9.38855 263.526 9.29716C263.575 9.20597 263.482 9.06293 263.32 8.97929C263.158 8.89564 262.997 8.52821 262.962 8.16281C262.927 7.79742 262.811 7.45326 262.704 7.39805C262.597 7.34283 262.204 6.33016 261.831 5.1478C260.938 2.31793 259.274 0.0765394 258.771 1.02612C258.666 1.22436 258.702 1.69739 258.851 2.07743ZM252 30.1433C252.115 30.2033 252.202 30.1346 252.192 29.9905C252.182 29.8465 252.135 29.7082 252.086 29.6832C252.038 29.6582 251.951 29.727 251.894 29.836C251.836 29.945 251.884 30.0834 252 30.1433ZM247.088 48.9714C247.036 49.4856 247.732 50.2981 248.196 50.2638C248.691 50.2272 248.999 49.193 248.76 48.3672C248.628 47.909 248.411 47.4784 248.279 47.4101C247.825 47.1751 247.186 48.0122 247.088 48.9714ZM252.623 40.44C252.697 40.5641 252.807 40.571 252.869 40.4556C252.93 40.3402 252.89 40.1993 252.78 40.1427C252.671 40.086 252.561 40.0789 252.535 40.1271C252.51 40.1752 252.549 40.316 252.623 40.44ZM283.263 15.938C283.247 16.098 283.438 16.5729 283.689 16.9933C284.068 17.6308 284.24 17.7578 284.724 17.7593C285.949 17.7627 286.616 17.4396 287.041 16.6357C287.56 15.6568 287.262 14.8164 286.197 14.2539C284.947 13.5933 283.41 14.4754 283.263 15.938ZM299.38 5.78674C299.596 6.37127 298.966 7.97153 298.596 7.77994C298.32 7.63717 297.732 8.29283 297.58 8.91405C297.507 9.21322 297.573 9.52363 297.728 9.60367C298.123 9.80773 298.275 11.2295 297.965 11.8149C297.78 12.1656 297.854 12.5694 298.23 13.2478C298.524 13.7789 298.722 14.5592 298.682 15.0302C298.643 15.4909 298.579 16.2351 298.54 16.6837C298.479 17.3921 298.579 17.579 299.305 18.1038C299.764 18.4361 300.147 18.8062 300.155 18.9258C300.163 19.0455 300.381 19.3303 300.64 19.5586C300.898 19.7868 301.287 20.4555 301.505 21.0443C301.914 22.1504 302.288 22.5214 302.729 22.2609C303.039 22.078 304.662 23.1656 304.69 23.5752C304.703 23.7609 305.47 24.1864 307.029 24.8715L309.35 25.8916L310.077 25.4423C311.21 24.7417 311.807 24.7755 313.175 25.6168L314.372 26.3524L314.914 25.3273C315.427 24.3587 315.5 24.3056 316.248 24.3646C317.244 24.4432 319.1 23.8404 320.156 23.0949C320.658 22.7408 321.172 22.1323 321.512 21.4904C321.971 20.6234 322.173 20.4349 322.763 20.3241C323.649 20.1576 324.227 19.1589 324.246 17.763C324.261 16.6061 324.563 15.9672 325.248 15.6449C325.521 15.5163 325.901 15.1148 326.093 14.7524C326.369 14.2308 326.356 13.9518 326.03 13.4128C325.803 13.0386 325.551 12.3134 325.47 11.8016C325.34 10.9815 325.407 10.7457 326.028 9.81749C326.856 8.58004 326.813 8.33244 325.598 7.38461C324.48 6.51333 324.084 5.73013 324.2 4.62399C324.307 3.61203 323.895 3.04715 323.059 3.05722C322.606 3.06281 322.497 2.88995 322.22 1.72456C321.91 0.425167 321.481 -0.110306 320.984 0.183205C320.442 0.502517 319.591 0.199556 318.844 -0.578357C318.118 -1.33436 317.289 -1.68644 317.096 -1.32108C316.922 -0.991801 316.264 -1.50192 315.942 -2.2153C315.646 -2.87394 315.6 -2.90252 315.072 -2.76538C314.765 -2.68588 314.362 -2.39871 314.176 -2.12768C313.815 -1.60261 313.463 -1.70559 312.39 -2.65013C311.683 -3.27253 310.776 -3.17872 309.491 -2.35055C308.882 -1.95794 307.067 -1.19073 305.457 -0.645495C303.848 -0.100156 302.452 0.488559 302.355 0.662641C302.258 0.836723 302.236 1.29148 302.307 1.67271C302.503 2.72811 301.801 3.70758 300.626 4.0185C299.529 4.30865 299.073 4.95536 299.38 5.78674ZM305.508 -4.18747C306.032 -3.06954 307.178 -2.48603 307.075 -3.38981C307.001 -4.0389 306.113 -5.5468 305.782 -5.58388C305.192 -5.65036 305.083 -5.09463 305.508 -4.18747ZM284.642 59.7166C284.474 60.8829 284.554 61.1824 285.326 62.2721C285.863 63.0293 286.174 63.2654 287.093 63.6109C287.707 63.8413 288.288 63.955 288.383 63.8632C288.479 63.7714 288.644 63.7408 288.749 63.7951C289.465 64.1657 292.013 62.0332 291.945 61.1194C291.926 60.8551 291.973 60.5187 292.051 60.3716C292.129 60.2243 292.006 59.6022 291.776 58.9891C291.432 58.067 291.163 57.7418 290.224 57.1085C289.194 56.4144 288.988 56.353 288.031 56.4535C286.9 56.572 285.464 57.4658 285.03 58.3208C284.887 58.6026 284.712 59.2308 284.642 59.7166ZM299.398 52.6019C299.546 53.7845 300.892 55.6513 301.191 55.0871C301.247 54.9817 301.131 54.877 300.934 54.8547C300.716 54.8304 300.634 54.701 300.726 54.5269C300.81 54.3689 300.658 53.9156 300.389 53.5195C300.119 53.1233 299.942 52.6159 299.994 52.3919C300.047 52.168 299.947 51.9109 299.773 51.8206C299.379 51.6168 299.297 51.7875 299.398 52.6019ZM301.026 55.8778C301.1 56.0019 301.211 56.0088 301.272 55.8934C301.333 55.778 301.293 55.6371 301.184 55.5805C301.074 55.5238 300.964 55.5167 300.938 55.5649C300.913 55.6131 300.952 55.7538 301.026 55.8778Z" fill="#84A7BB"/>
<path d="M35.23 30.205L40.06 20.215H43.12V35.215H40.78V23.635L36.13 33.145H34.27L29.62 23.635V35.215H27.28V20.215H30.4L35.23 30.205ZM54.5406 35.635C53.3806 35.635 52.3206 35.445 51.3606 35.065C50.4206 34.665 49.6106 34.115 48.9306 33.415C48.2506 32.715 47.7206 31.885 47.3406 30.925C46.9606 29.965 46.7706 28.915 46.7706 27.775C46.7706 26.615 46.9606 25.555 47.3406 24.595C47.7206 23.615 48.2506 22.775 48.9306 22.075C49.6306 21.355 50.4506 20.795 51.3906 20.395C52.3306 19.995 53.3506 19.795 54.4506 19.795C55.5106 19.795 56.4706 19.975 57.3306 20.335C58.2106 20.675 58.9606 21.165 59.5806 21.805C60.2006 22.445 60.6806 23.215 61.0206 24.115C61.3806 24.995 61.5606 25.975 61.5606 27.055C61.5606 27.475 61.5306 27.915 61.4706 28.375H49.2606C49.3806 29.875 49.9206 31.085 50.8806 32.005C51.8406 32.905 53.0706 33.355 54.5706 33.355C56.4706 33.355 57.9506 32.535 59.0106 30.895L60.9306 32.335C59.4106 34.535 57.2806 35.635 54.5406 35.635ZM54.3906 22.045C53.0706 22.045 51.9706 22.435 51.0906 23.215C50.2306 23.975 49.6606 24.985 49.3806 26.245H59.0706C59.0506 25.645 58.9106 25.085 58.6506 24.565C58.4106 24.045 58.0806 23.605 57.6606 23.245C57.2606 22.865 56.7806 22.575 56.2206 22.375C55.6606 22.155 55.0506 22.045 54.3906 22.045ZM75.7028 20.215V22.435H70.5428V35.215H68.1428V22.435H62.9828V20.215H75.7028ZM77.5588 31.105C77.5588 29.665 78.0988 28.525 79.1788 27.685C80.2588 26.845 81.7988 26.375 83.7988 26.275L87.9988 26.065V25.855C87.9988 24.635 87.6488 23.685 86.9488 23.005C86.2688 22.325 85.3288 21.985 84.1288 21.985C83.1688 21.985 82.3488 22.205 81.6688 22.645C80.9888 23.065 80.4488 23.695 80.0488 24.535L77.9788 23.485C78.5588 22.285 79.3788 21.375 80.4388 20.755C81.4988 20.115 82.7388 19.795 84.1588 19.795C85.0988 19.795 85.9488 19.935 86.7088 20.215C87.4888 20.495 88.1488 20.885 88.6888 21.385C89.2288 21.885 89.6488 22.495 89.9488 23.215C90.2488 23.915 90.3988 24.705 90.3988 25.585V35.215H87.9988V32.815C87.4588 33.735 86.7388 34.435 85.8388 34.915C84.9588 35.395 83.9288 35.635 82.7488 35.635C81.1688 35.635 79.9088 35.225 78.9688 34.405C78.0288 33.585 77.5588 32.485 77.5588 31.105ZM83.1088 33.445C83.8088 33.445 84.4588 33.325 85.0588 33.085C85.6588 32.845 86.1688 32.515 86.5888 32.095C87.0288 31.675 87.3688 31.185 87.6088 30.625C87.8688 30.065 87.9988 29.465 87.9988 28.825V28.135L83.9788 28.315C82.6788 28.375 81.6888 28.635 81.0088 29.095C80.3488 29.535 80.0188 30.165 80.0188 30.985C80.0188 31.745 80.2888 32.345 80.8288 32.785C81.3888 33.225 82.1488 33.445 83.1088 33.445ZM93.22 32.935H93.58C94.1 32.935 94.53 32.825 94.87 32.605C95.21 32.385 95.47 32.005 95.65 31.465C95.85 30.905 95.99 30.165 96.07 29.245C96.15 28.305 96.19 27.135 96.19 25.735V20.215H107.08V35.215H104.65V22.465H98.59V26.335C98.59 27.975 98.5 29.365 98.32 30.505C98.16 31.645 97.89 32.575 97.51 33.295C97.15 33.995 96.66 34.505 96.04 34.825C95.44 35.125 94.7 35.275 93.82 35.275H93.22V32.935ZM110.066 32.935H110.426C110.946 32.935 111.376 32.825 111.716 32.605C112.056 32.385 112.316 32.005 112.496 31.465C112.696 30.905 112.836 30.165 112.916 29.245C112.996 28.305 113.036 27.135 113.036 25.735V20.215H123.926V35.215H121.496V22.465H115.436V26.335C115.436 27.975 115.346 29.365 115.166 30.505C115.006 31.645 114.736 32.575 114.356 33.295C113.996 33.995 113.506 34.505 112.886 34.825C112.286 35.125 111.546 35.275 110.666 35.275H110.066V32.935Z" fill="black"/>
</g>
<defs>
<linearGradient id="paint0_linear_2438_3610" x1="0" y1="35.5654" x2="431.748" y2="35.5654" gradientUnits="userSpaceOnUse">
<stop offset="0.456731" stop-color="white"/>
<stop offset="1" stop-color="#FFF3E1"/>
</linearGradient>
<clipPath id="clip0_2438_3610">
<rect width="325.051" height="52.9346" fill="white"/>
</clipPath>
</defs>
</svg>
