<svg width="326" height="54" viewBox="0 0 326 54" fill="none" xmlns="http://www.w3.org/2000/svg">
<g clip-path="url(#clip0_2438_3622)">
<rect x="0.000244141" width="431.748" height="71.1308" fill="url(#paint0_linear_2438_3622)"/>
<path fill-rule="evenodd" clip-rule="evenodd" d="M255.895 -23.0753C255.329 -22.2489 255.331 -20.9919 255.899 -20.4107C256.973 -19.312 259.415 -20.4637 259.415 -22.0689C259.415 -23.6475 256.799 -24.3957 255.895 -23.0753ZM252.144 -18.2309C251.646 -17.9203 251.041 -17.276 250.8 -16.7993C249.908 -15.0355 250.487 -12.1257 251.815 -11.6945C252.15 -11.5856 252.947 -11.0128 253.586 -10.4221C255.345 -8.79455 256.057 -8.37833 257.082 -8.37833C260.455 -8.37833 261.858 -11.4615 259.654 -14.0294C259.179 -14.5834 258.517 -15.5889 258.183 -16.2639C257.01 -18.6358 254.239 -19.5383 252.144 -18.2309ZM202.73 -15.1243C202.483 -14.8714 203.104 -14.1672 203.573 -14.1672C203.788 -14.1672 203.963 -14.2928 203.963 -14.4465C203.963 -14.8083 202.96 -15.3597 202.73 -15.1243ZM226.738 -14.9576C224.791 -14.7269 223.432 -14.6873 222.107 -14.8225C221.686 -14.8653 221.318 -14.6777 221.117 -14.3185C220.941 -14.0039 220.659 -13.6132 220.49 -13.4502C219.497 -12.4924 218.008 -10.2504 217.208 -8.50655C215.96 -5.79043 215.928 -3.73569 217.096 -1.30264C217.986 0.551805 219.724 2.50901 221.083 3.18688C222.586 3.93653 223.991 5.79735 224.608 7.85644C225.31 10.2009 225.778 10.682 228.834 12.1992C229.901 12.7289 230.414 12.7963 232.371 12.6649C233.63 12.5801 234.966 12.4143 235.341 12.2959C235.772 12.1596 235.957 12.1871 235.846 12.3706C235.568 12.8311 236.184 14.7156 237.123 16.2769C237.765 17.3435 237.904 17.7964 237.667 18.0393C236.793 18.9337 237.758 20.1432 238.97 19.6717C239.471 19.4767 239.887 19.573 240.682 20.0688C241.26 20.4289 242.092 20.9105 242.532 21.1392L243.331 21.5548L242.58 22.114C241.506 22.9146 241.226 23.8568 241.711 25.0426C242.427 26.7975 244.31 27.1885 245.813 25.8947C246.807 25.0394 246.918 24.1841 246.216 22.7945C245.8 21.9725 245.798 21.9114 246.198 22.2501C246.525 22.5285 246.796 22.5508 247.195 22.3326C247.496 22.1676 248.236 21.9071 248.84 21.7531C250.586 21.3085 251.992 20.7172 252.565 20.1878C253.26 19.5435 253.474 19.5693 253.474 20.2975C253.474 20.7134 253.626 20.8677 253.969 20.8003C254.555 20.6848 254.72 19.0312 254.643 14.0832L254.593 10.9291L255.731 9.14243C256.357 8.15977 256.869 7.19333 256.869 6.99448C256.869 6.71922 256.338 6.68015 254.647 6.83124C252.531 7.01995 252.418 6.99969 252.266 6.40605C252.14 5.91081 251.913 5.79301 251.164 5.83237C250.645 5.85987 249.642 5.6205 248.936 5.30067C248.229 4.98084 247.243 4.62743 246.743 4.51513C245.743 4.29023 245.699 4.18256 246.134 3.01235C246.571 1.83403 246.249 0.824169 245.472 0.937342C244.907 1.01954 244.844 1.19639 244.838 2.73448C244.832 4.27807 244.765 4.46563 244.138 4.70326C243.618 4.90008 243.363 4.85319 243.123 4.51657C242.946 4.26968 242.721 4.06765 242.621 4.06765C242.301 4.06765 242.429 4.88387 242.767 4.99936C243.206 5.149 240.503 6.96206 239.841 6.96206C239.347 6.96206 239.344 6.9062 239.774 5.87666C240.024 5.27983 240.295 4.62598 240.376 4.42424C240.644 3.76026 239.882 2.48962 238.722 1.66471C238.013 1.16021 237.639 0.698841 237.735 0.444422C237.819 0.219236 238.043 -1.32435 238.231 -2.98604C238.514 -5.47002 238.65 -5.97741 239 -5.83993C239.315 -5.71663 239.376 -5.80549 239.236 -6.18089C239.131 -6.46049 239.045 -6.74357 239.045 -6.81014C239.045 -6.87671 238.873 -6.93112 238.664 -6.93112C238.454 -6.93112 238.085 -7.55777 237.843 -8.32363C237.601 -9.08949 237.067 -10.2235 236.655 -10.8435C235.914 -11.9613 233.854 -13.5845 233.175 -13.5871C232.98 -13.5877 232.821 -13.6925 232.821 -13.8198C232.821 -13.9472 232.025 -14.2193 231.053 -14.4245C230.08 -14.6294 229.157 -14.8861 229.001 -14.9947C228.846 -15.1032 227.827 -15.0864 226.738 -14.9576ZM212.946 -12.7026C212.345 -12.3376 212.301 -11.4704 212.86 -10.9966C213.829 -10.1732 215.468 -11.3086 214.825 -12.3582C214.454 -12.9651 213.627 -13.1165 212.946 -12.7026ZM213.3 -7.67499C213.3 -7.37947 213.555 -7.22057 214.03 -7.22057C214.917 -7.22057 214.82 -7.90018 213.914 -8.03679C213.506 -8.09815 213.3 -7.97659 213.3 -7.67499ZM192.532 -5.88537C192.274 -5.19708 192.709 -4.84193 193.673 -4.95482C194.266 -5.02399 194.486 -5.20605 194.486 -5.62864C194.486 -6.41245 192.812 -6.63242 192.532 -5.88537ZM245.682 -6.04341C245.579 -5.87379 245.563 -5.66539 245.646 -5.5803C245.849 -5.37306 246.401 -5.73834 246.401 -6.07988C246.401 -6.44978 245.913 -6.42518 245.682 -6.04341ZM205.157 -4.86046C205.226 -4.64598 205.51 -4.42601 205.788 -4.37073C206.11 -4.30705 206.246 -4.41125 206.165 -4.66017C206.095 -4.87464 205.811 -5.09462 205.534 -5.1499C205.212 -5.21358 205.075 -5.10938 205.157 -4.86046ZM214.203 -3.14668C214.258 -2.97562 214.425 -2.83553 214.573 -2.83553C214.72 -2.83553 214.887 -2.97562 214.943 -3.14668C214.998 -3.31774 214.832 -3.45783 214.573 -3.45783C214.313 -3.45783 214.147 -3.31774 214.203 -3.14668ZM212.168 -1.72118C212.168 -1.56199 212.423 -1.43174 212.734 -1.43174C213.045 -1.43174 213.3 -1.56199 213.3 -1.72118C213.3 -1.88037 213.045 -2.01062 212.734 -2.01062C212.423 -2.01062 212.168 -1.88037 212.168 -1.72118ZM272.335 -0.0809116C271.899 0.365118 272.17 0.920557 272.78 0.831697C273.581 0.714764 273.834 -0.27397 273.063 -0.27397C272.766 -0.27397 272.439 -0.187136 272.335 -0.0809116ZM261.961 1.36195C259.902 2.59468 258.283 4.40225 258.283 5.46942C258.283 5.98694 259.121 6.06885 260.106 5.64771C260.65 5.41558 261.362 5.22542 261.689 5.22542C262.472 5.22542 265.042 2.99411 265.254 2.131C265.648 0.522573 264.005 0.138771 261.961 1.36195ZM218.675 2.63752C218.675 2.80598 218.802 2.86357 218.958 2.76517C219.114 2.66675 219.241 2.52898 219.241 2.45864C219.241 2.38831 219.114 2.331 218.958 2.331C218.802 2.331 218.675 2.46907 218.675 2.63752ZM200.679 4.81499C200.774 5.0668 200.853 5.35972 200.855 5.46623C200.861 5.72499 201.407 4.85117 201.413 4.57417C201.415 4.45492 201.212 4.35709 200.962 4.35709C200.664 4.35709 200.567 4.51455 200.679 4.81499ZM252.059 4.64653C252.059 4.80573 252.187 4.93598 252.342 4.93598C252.498 4.93598 252.625 4.80573 252.625 4.64653C252.625 4.48734 252.498 4.35709 252.342 4.35709C252.187 4.35709 252.059 4.48734 252.059 4.64653ZM202.985 5.78433C202.792 6.10416 203.238 6.44975 203.5 6.18231C203.768 5.90705 203.718 5.51486 203.414 5.51486C203.268 5.51486 203.075 5.63613 202.985 5.78433ZM296.902 6.96206C296.665 7.35397 296.984 7.83039 297.484 7.83039C297.709 7.83039 297.892 7.56989 297.892 7.25151C297.892 6.65236 297.209 6.45265 296.902 6.96206ZM275.149 8.14385C273.483 8.55717 271.903 9.57833 271.246 10.6658C270.752 11.4823 270.685 11.9225 270.831 13.3579C271.016 15.1672 271.728 16.9055 272.622 17.7328C272.916 18.0051 273.779 18.5093 274.538 18.8532C275.77 19.4107 276.075 19.4425 277.357 19.1464C279.605 18.6274 280.954 17.7027 281.843 16.0719C282.802 14.315 282.712 13.0673 281.466 10.8397C280.23 8.63041 277.641 7.52532 275.149 8.14385ZM258.057 9.33548C257.87 9.52652 257.718 10.0215 257.718 10.4354C257.718 11.4308 258.203 11.8826 259.274 11.8826C260.3 11.8826 260.83 11.4351 260.83 10.5671C260.83 9.31551 258.91 8.46282 258.057 9.33548ZM197.559 12.8956C197.311 13.5558 197.657 14.1981 198.261 14.1981C198.948 14.1981 199.55 13.4702 199.336 12.8994C199.123 12.3329 197.771 12.33 197.559 12.8956ZM232.098 16.5388C231.851 16.9475 232.397 17.5055 232.796 17.2529C232.965 17.1458 233.104 16.8708 233.104 16.6413C233.104 16.1539 232.376 16.0798 232.098 16.5388ZM213.087 18.2789C212.737 18.4121 212.451 18.6656 212.451 18.8422C212.451 19.4095 214.138 20.921 214.579 20.7482C215.055 20.5615 215.139 19.8211 214.714 19.5528C214.559 19.4544 214.431 19.1351 214.431 18.8431C214.431 18.18 213.916 17.9637 213.087 18.2789ZM234.801 18.3779C234.801 18.6075 234.917 18.8679 235.058 18.9571C235.199 19.0462 235.251 19.3649 235.174 19.6651C235.098 19.9655 235.185 20.3062 235.37 20.4225C235.843 20.7218 236.627 19.8521 236.325 19.3635C236.087 18.9808 236.039 18.83 235.968 18.2503C235.912 17.7924 234.801 17.914 234.801 18.3779ZM253.528 21.5132C253.37 21.7085 253.309 22.2301 253.392 22.6727C253.503 23.2637 253.669 23.4356 254.02 23.3219C254.331 23.2209 254.805 23.5213 255.376 24.1821C255.951 24.8461 256.41 25.1367 256.704 25.0215C257.655 24.6478 256.942 23.3592 255.047 22.0246C254.104 21.3612 253.748 21.2414 253.528 21.5132ZM229.709 22.013C229.709 22.1722 229.836 22.3025 229.992 22.3025C230.147 22.3025 230.275 22.1722 230.275 22.013C230.275 21.8538 230.147 21.7236 229.992 21.7236C229.836 21.7236 229.709 21.8538 229.709 22.013ZM285.783 22.0709C284.881 22.9934 285.999 24.3752 287.141 23.7497C287.861 23.3555 287.871 22.4127 287.16 22.0232C286.454 21.6367 286.199 21.6457 285.783 22.0709ZM216.542 22.9007C216.439 23.0703 216.423 23.2787 216.506 23.3638C216.709 23.5711 217.26 23.2058 217.26 22.8643C217.26 22.4944 216.772 22.519 216.542 22.9007ZM188.969 24.0391C188.969 24.1983 189.096 24.3286 189.252 24.3286C189.407 24.3286 189.535 24.1983 189.535 24.0391C189.535 23.8799 189.407 23.7497 189.252 23.7497C189.096 23.7497 188.969 23.8799 188.969 24.0391ZM217.389 24.7497C217.007 25.1404 216.695 25.7106 216.695 26.0169C216.695 26.3587 216.377 26.7083 215.874 26.9217C214.464 27.5191 213.73 28.5556 213.765 29.9023C213.805 31.4806 214.818 32.4329 216.454 32.4329C218.595 32.4329 220.291 30.6416 219.925 28.7669C219.804 28.1477 219.913 27.7932 220.35 27.3885C221.058 26.7327 221.137 25.152 220.494 24.4938C219.802 23.7864 218.202 23.9181 217.389 24.7497ZM229.992 24.6391C229.992 25.381 230.928 25.2967 231.07 24.5425C231.136 24.1951 230.983 24.0391 230.578 24.0391C230.173 24.0391 229.992 24.2249 229.992 24.6391ZM247.92 24.4686C247.666 25.1448 248.315 25.7714 248.671 25.1946C248.818 24.9569 248.9 24.6406 248.854 24.4915C248.702 23.9974 248.102 23.983 247.92 24.4686ZM316.281 26.3546C316.281 26.5138 316.416 26.6441 316.581 26.6441C316.746 26.6441 316.802 26.5138 316.706 26.3546C316.61 26.1954 316.475 26.0652 316.406 26.0652C316.337 26.0652 316.281 26.1954 316.281 26.3546ZM207.117 27.6062C206.861 27.9217 206.875 28.0901 207.178 28.3475C207.69 28.7828 208.542 28.4383 208.43 27.8412C208.315 27.2285 207.536 27.0892 207.117 27.6062ZM297.609 30.4068C297.609 30.566 297.736 30.6963 297.892 30.6963C298.047 30.6963 298.175 30.566 298.175 30.4068C298.175 30.2476 298.047 30.1174 297.892 30.1174C297.736 30.1174 297.609 30.2476 297.609 30.4068ZM207.783 33.45C207.16 33.8781 206.333 34.5172 205.944 34.87C205.555 35.2228 204.899 35.725 204.486 35.9861C204.059 36.2567 203.523 37.031 203.242 37.785C202.819 38.9176 202.79 39.4192 203.042 41.2539C203.221 42.5599 203.566 43.7298 203.925 44.2444C205.142 45.9932 209.664 47.0998 212.451 46.331C214.146 45.8636 215.873 44.0155 216.691 41.7946C217.244 40.2918 217.281 39.8988 217.02 38.271C216.684 36.1711 215.841 34.8471 214.08 33.6549C213.159 33.0312 212.522 32.8532 210.92 32.7727C209.123 32.6821 208.796 32.7525 207.783 33.45ZM245.413 33.6402C244.376 34.4749 244.543 35.4422 245.746 35.5612C246.755 35.6613 247.413 34.861 247.113 33.896C246.858 33.0732 246.235 32.9794 245.413 33.6402ZM303.133 35.6891C300.814 38.0157 300.576 38.9754 301.713 41.4097C302.524 43.146 302.844 43.4184 304.93 44.1533C306.834 44.8242 308.21 44.7049 310.033 43.7107C311.764 42.7674 312.436 41.8933 312.75 40.1775C313.04 38.5951 312.761 37.8579 311.26 36.2397C309.699 34.5571 308.285 33.8801 306.331 33.8801C305.001 33.8801 304.852 33.9643 303.133 35.6891ZM280.86 40.2565C280.327 40.7138 280.282 40.8635 280.609 41.0837C281.118 41.4267 282.164 41.0403 282.275 40.4687C282.409 39.7723 281.57 39.6464 280.86 40.2565ZM245.386 40.68C244.786 41.6163 245.047 42.6566 245.993 43.0971C247.587 43.8404 249.374 41.8192 248.247 40.546C247.487 39.6857 245.978 39.7564 245.386 40.68ZM186.296 41.8661C185.655 42.5214 186.142 43.0265 186.975 42.5706C187.59 42.2337 187.641 41.6765 187.074 41.4832C186.907 41.4261 186.557 41.5987 186.296 41.8661ZM239.599 44.9015C239.192 45.6786 239.443 46.3261 240.151 46.3261C240.873 46.3261 241.122 45.8902 240.905 45.0071C240.693 44.142 240.025 44.0881 239.599 44.9015ZM223.669 45.8827C223.581 46.1163 223.637 46.388 223.792 46.4865C224.149 46.7116 224.947 46.0601 224.738 45.7145C224.495 45.3116 223.844 45.4141 223.669 45.8827ZM288.273 46.9221C288.273 47.0905 288.4 47.1481 288.556 47.0497C288.711 46.9513 288.838 46.8135 288.838 46.7432C288.838 46.6729 288.711 46.6155 288.556 46.6155C288.4 46.6155 288.273 46.7536 288.273 46.9221ZM297.467 49.5311C296.095 49.9777 294.394 51.3303 293.845 52.4119C292.734 54.5986 293.787 58.4931 295.981 60.309C296.785 60.9753 297.404 61.2153 298.572 61.3145C299.794 61.4182 300.136 61.5597 300.251 62.0086C300.367 62.4656 300.6 62.5551 301.477 62.4813C302.509 62.3944 302.567 62.3354 302.713 61.2205C302.796 60.577 303.131 59.6002 303.456 59.0497C304.591 57.1281 304.773 56.0565 304.267 54.2768C303.31 50.9085 300.106 48.6723 297.467 49.5311ZM282.048 49.9441C282.048 50.1829 282.239 50.3783 282.473 50.3783C282.706 50.3783 282.897 50.1829 282.897 49.9441C282.897 49.7053 282.706 49.51 282.473 49.51C282.239 49.51 282.048 49.7053 282.048 49.9441ZM254.888 50.923C254.888 51.0822 255.016 51.2929 255.171 51.3913C255.327 51.4897 255.454 51.44 255.454 51.2808C255.454 51.1216 255.327 50.9109 255.171 50.8124C255.016 50.714 254.888 50.7638 254.888 50.923ZM307.985 50.8582C307.73 51.119 308.339 51.8255 308.819 51.8255C309.033 51.8255 309.209 51.565 309.209 51.2466C309.209 50.6833 308.405 50.4284 307.985 50.8582ZM174.681 52.7503C173.448 53.4658 173.422 53.9841 174.59 54.6018C175.436 55.049 175.511 55.0464 175.863 54.5538C176.329 53.9028 176.342 53.2061 175.898 52.7517C175.487 52.3317 175.403 52.3317 174.681 52.7503ZM206.112 54.6082C205.846 55.3182 206.395 55.8041 207.013 55.4056C207.686 54.9708 207.623 54.3037 206.899 54.198C206.535 54.1451 206.225 54.3063 206.112 54.6082ZM324.486 57.9038C324.486 58.063 324.613 58.1932 324.769 58.1932C324.925 58.1932 325.052 58.063 325.052 57.9038C325.052 57.7446 324.925 57.6143 324.769 57.6143C324.613 57.6143 324.486 57.7446 324.486 57.9038ZM250.258 59.3721C249.434 60.0352 249.282 61.1863 249.907 62.0283C250.482 62.8034 252.469 62.7166 253.033 61.8914C253.556 61.1276 253.612 59.608 253.134 59.1194C252.604 58.577 251.08 58.711 250.258 59.3721ZM199.973 60.7001C199.723 60.7687 199.347 61.1527 199.137 61.5539C198.615 62.5513 199.077 63.2341 200.35 63.3461C201.571 63.4535 202.373 62.769 202.099 61.8532C201.725 60.6025 201.257 60.3487 199.973 60.7001ZM224.77 63.0937C224.577 63.4136 225.023 63.7592 225.284 63.4917C225.553 63.2165 225.503 62.8243 225.199 62.8243C225.052 62.8243 224.859 62.9455 224.77 63.0937ZM293.419 72.014C293.472 72.2925 293.702 72.5205 293.931 72.5205C294.16 72.5205 294.39 72.2925 294.443 72.014C294.51 71.6586 294.357 71.5075 293.931 71.5075C293.505 71.5075 293.352 71.6586 293.419 72.014ZM319.676 74.9808C319.676 75.3539 319.82 75.5591 320.03 75.4873C320.225 75.421 320.384 75.193 320.384 74.9808C320.384 74.7686 320.225 74.5406 320.03 74.4743C319.82 74.4025 319.676 74.6077 319.676 74.9808ZM275.42 76.8827C275.176 77.1331 274.976 77.5146 274.976 77.7305C274.976 78.4049 275.861 79.0686 276.638 78.9762C277.661 78.855 277.83 77.5502 276.909 76.8902C276.109 76.3166 275.974 76.316 275.42 76.8827ZM267.903 85.8349C267.903 86.0736 268.03 86.269 268.186 86.269C268.341 86.269 268.468 86.0736 268.468 85.8349C268.468 85.5961 268.341 85.4007 268.186 85.4007C268.03 85.4007 267.903 85.5961 267.903 85.8349Z" fill="#BE5245"/>
<path d="M21.3318 21H27.9918C29.3118 21 30.3718 21.36 31.1718 22.08C31.9718 22.8 32.3718 23.75 32.3718 24.93C32.3718 25.69 32.1818 26.34 31.8018 26.88C31.4418 27.4 30.9418 27.8 30.3018 28.08C31.1418 28.32 31.7918 28.77 32.2518 29.43C32.7318 30.07 32.9718 30.87 32.9718 31.83C32.9718 33.09 32.5418 34.1 31.6818 34.86C30.8218 35.62 29.6718 36 28.2318 36H21.3318V21ZM28.1718 33.9C28.8718 33.9 29.4518 33.7 29.9118 33.3C30.3918 32.9 30.6318 32.32 30.6318 31.56C30.6318 30.82 30.3918 30.25 29.9118 29.85C29.4518 29.43 28.8718 29.22 28.1718 29.22H23.6118V33.9H28.1718ZM27.9318 27.18C28.5918 27.18 29.1118 26.99 29.4918 26.61C29.8718 26.23 30.0618 25.74 30.0618 25.14C30.0618 24.56 29.8718 24.08 29.4918 23.7C29.1118 23.3 28.5918 23.1 27.9318 23.1H23.6118V27.18H27.9318ZM35.3704 31.89C35.3704 30.45 35.9104 29.31 36.9904 28.47C38.0704 27.63 39.6104 27.16 41.6104 27.06L45.8104 26.85V26.64C45.8104 25.42 45.4604 24.47 44.7604 23.79C44.0804 23.11 43.1404 22.77 41.9404 22.77C40.9804 22.77 40.1604 22.99 39.4804 23.43C38.8004 23.85 38.2604 24.48 37.8604 25.32L35.7904 24.27C36.3704 23.07 37.1904 22.16 38.2504 21.54C39.3104 20.9 40.5504 20.58 41.9704 20.58C42.9104 20.58 43.7604 20.72 44.5204 21C45.3004 21.28 45.9604 21.67 46.5004 22.17C47.0404 22.67 47.4604 23.28 47.7604 24C48.0604 24.7 48.2104 25.49 48.2104 26.37V36H45.8104V33.6C45.2704 34.52 44.5504 35.22 43.6504 35.7C42.7704 36.18 41.7404 36.42 40.5604 36.42C38.9804 36.42 37.7204 36.01 36.7804 35.19C35.8404 34.37 35.3704 33.27 35.3704 31.89ZM40.9204 34.23C41.6204 34.23 42.2704 34.11 42.8704 33.87C43.4704 33.63 43.9804 33.3 44.4004 32.88C44.8404 32.46 45.1804 31.97 45.4204 31.41C45.6804 30.85 45.8104 30.25 45.8104 29.61V28.92L41.7904 29.1C40.4904 29.16 39.5004 29.42 38.8204 29.88C38.1604 30.32 37.8304 30.95 37.8304 31.77C37.8304 32.53 38.1004 33.13 38.6404 33.57C39.2004 34.01 39.9604 34.23 40.9204 34.23ZM65.1915 21V36H62.7615V29.16H55.0215V36H52.5915V21H55.0215V26.91H62.7615V21H65.1915ZM72.1895 21V32.4L80.0795 21H82.5395V36H80.1095V24.6L72.2195 36H69.7595V21H72.1895ZM85.5432 33.72H85.9032C86.4232 33.72 86.8532 33.61 87.1932 33.39C87.5332 33.17 87.7932 32.79 87.9732 32.25C88.1732 31.69 88.3132 30.95 88.3932 30.03C88.4732 29.09 88.5132 27.92 88.5132 26.52V21H99.4032V36H96.9732V23.25H90.9132V27.12C90.9132 28.76 90.8232 30.15 90.6432 31.29C90.4832 32.43 90.2132 33.36 89.8332 34.08C89.4732 34.78 88.9832 35.29 88.3632 35.61C87.7632 35.91 87.0232 36.06 86.1432 36.06H85.5432V33.72ZM106.379 33.81H109.919C110.879 33.81 111.629 33.55 112.169 33.03C112.709 32.51 112.979 31.83 112.979 30.99C112.979 30.15 112.709 29.48 112.169 28.98C111.629 28.48 110.879 28.23 109.919 28.23H106.379V33.81ZM103.949 36V21H106.379V26.04H110.219C110.999 26.04 111.709 26.16 112.349 26.4C112.989 26.64 113.539 26.98 113.999 27.42C114.459 27.86 114.809 28.39 115.049 29.01C115.309 29.61 115.439 30.28 115.439 31.02C115.439 31.74 115.309 32.41 115.049 33.03C114.809 33.63 114.459 34.15 113.999 34.59C113.559 35.03 113.019 35.38 112.379 35.64C111.739 35.88 111.029 36 110.249 36H103.949Z" fill="black"/>
</g>
<defs>
<linearGradient id="paint0_linear_2438_3622" x1="0.000244141" y1="35.5654" x2="431.748" y2="35.5654" gradientUnits="userSpaceOnUse">
<stop offset="0.211538" stop-color="white"/>
<stop offset="0.639423" stop-color="#FFF3E1"/>
</linearGradient>
<clipPath id="clip0_2438_3622">
<rect width="325.051" height="53.7617" fill="white"/>
</clipPath>
</defs>
</svg>
