<svg width="326" height="54" viewBox="0 0 326 54" fill="none" xmlns="http://www.w3.org/2000/svg">
<g clip-path="url(#clip0_2438_3614)">
<rect x="-0.000244141" width="431.748" height="71.1308" fill="url(#paint0_linear_2438_3614)"/>
<path fill-rule="evenodd" clip-rule="evenodd" d="M255.894 -23.0755C255.328 -22.2492 255.33 -20.9921 255.898 -20.4109C256.972 -19.3122 259.414 -20.4639 259.414 -22.0692C259.414 -23.6478 256.798 -24.396 255.894 -23.0755ZM252.143 -18.2312C251.645 -17.9206 251.04 -17.2763 250.799 -16.7996C249.907 -15.0357 250.486 -12.126 251.814 -11.6947C252.149 -11.5859 252.946 -11.0131 253.585 -10.4223C255.344 -8.79479 256.056 -8.37858 257.082 -8.37858C260.454 -8.37858 261.857 -11.4617 259.653 -14.0296C259.178 -14.5836 258.516 -15.5891 258.182 -16.2641C257.009 -18.6361 254.239 -19.5386 252.143 -18.2312ZM202.729 -15.1246C202.482 -14.8716 203.103 -14.1674 203.573 -14.1674C203.787 -14.1674 203.963 -14.293 203.963 -14.4467C203.963 -14.8085 202.959 -15.3599 202.729 -15.1246ZM226.737 -14.9579C224.79 -14.7272 223.431 -14.6875 222.106 -14.8227C221.686 -14.8655 221.317 -14.678 221.116 -14.3188C220.94 -14.0042 220.658 -13.6134 220.489 -13.4505C219.496 -12.4927 218.008 -10.2507 217.207 -8.5068C215.96 -5.79068 215.928 -3.73594 217.095 -1.30289C217.985 0.551561 219.724 2.50876 221.082 3.18664C222.586 3.93629 223.99 5.79711 224.607 7.85619C225.309 10.2007 225.777 10.6817 228.834 12.199C229.9 12.7286 230.413 12.7961 232.37 12.6647C233.629 12.5799 234.965 12.414 235.34 12.2956C235.772 12.1593 235.957 12.1868 235.846 12.3703C235.568 12.8308 236.183 14.7154 237.122 16.2766C237.764 17.3432 237.904 17.7962 237.666 18.039C236.792 18.9334 237.757 20.143 238.969 19.6715C239.47 19.4764 239.886 19.5728 240.682 20.0686C241.259 20.4287 242.092 20.9103 242.531 21.139L243.33 21.5546L242.58 22.1138C241.505 22.9144 241.226 23.8565 241.71 25.0424C242.427 26.7972 244.31 27.1883 245.813 25.8945C246.806 25.0392 246.917 24.1839 246.215 22.7943C245.8 21.9723 245.798 21.9112 246.197 22.2498C246.525 22.5283 246.795 22.5506 247.194 22.3323C247.495 22.1673 248.235 21.9068 248.839 21.7529C250.585 21.3083 251.992 20.7169 252.564 20.1876C253.259 19.5433 253.473 19.569 253.473 20.2973C253.473 20.7132 253.625 20.8675 253.968 20.8C254.554 20.6845 254.72 19.031 254.642 14.083L254.592 10.9289L255.73 9.14219C256.356 8.15953 256.868 7.19308 256.868 6.99424C256.868 6.71898 256.338 6.67991 254.646 6.831C252.53 7.01971 252.417 6.99945 252.265 6.4058C252.139 5.91057 251.912 5.79277 251.163 5.83213C250.644 5.85963 249.642 5.62026 248.935 5.30043C248.229 4.98059 247.242 4.62719 246.742 4.51488C245.742 4.28999 245.698 4.18232 246.133 3.0121C246.571 1.83379 246.249 0.823925 245.471 0.937098C244.906 1.0193 244.844 1.19615 244.837 2.73424C244.831 4.27783 244.764 4.46539 244.137 4.70302C243.617 4.89984 243.363 4.85295 243.122 4.51633C242.946 4.26944 242.72 4.06741 242.62 4.06741C242.3 4.06741 242.428 4.88363 242.766 4.99912C243.205 5.14876 240.503 6.96182 239.841 6.96182C239.346 6.96182 239.343 6.90596 239.773 5.87642C240.023 5.27959 240.294 4.62574 240.375 4.424C240.643 3.76002 239.881 2.48937 238.721 1.66446C238.012 1.15997 237.638 0.698597 237.734 0.444178C237.818 0.218992 238.042 -1.3246 238.231 -2.98628C238.513 -5.47027 238.65 -5.97766 239 -5.84017C239.314 -5.71687 239.376 -5.80573 239.235 -6.18114C239.13 -6.46074 239.044 -6.74381 239.044 -6.81038C239.044 -6.87695 238.873 -6.93137 238.663 -6.93137C238.453 -6.93137 238.084 -7.55801 237.842 -8.32387C237.6 -9.08973 237.066 -10.2238 236.655 -10.8437C235.913 -11.9616 233.854 -13.5848 233.174 -13.5874C232.979 -13.5879 232.82 -13.6927 232.82 -13.8201C232.82 -13.9474 232.025 -14.2195 231.052 -14.4247C230.08 -14.6296 229.156 -14.8864 229.001 -14.9949C228.845 -15.1035 227.827 -15.0867 226.737 -14.9579ZM212.945 -12.7028C212.345 -12.3378 212.301 -11.4707 212.859 -10.9969C213.828 -10.1734 215.468 -11.3089 214.825 -12.3584C214.453 -12.9654 213.626 -13.1167 212.945 -12.7028ZM213.299 -7.67523C213.299 -7.37971 213.554 -7.22081 214.03 -7.22081C214.916 -7.22081 214.819 -7.90042 213.913 -8.03704C213.505 -8.0984 213.299 -7.97683 213.299 -7.67523ZM192.531 -5.88561C192.273 -5.19732 192.708 -4.84218 193.672 -4.95506C194.265 -5.02424 194.485 -5.2063 194.485 -5.62888C194.485 -6.41269 192.811 -6.63266 192.531 -5.88561ZM245.681 -6.04365C245.579 -5.87404 245.563 -5.66564 245.646 -5.58054C245.848 -5.3733 246.4 -5.73858 246.4 -6.08012C246.4 -6.45003 245.912 -6.42542 245.681 -6.04365ZM205.156 -4.8607C205.226 -4.64622 205.51 -4.42625 205.787 -4.37097C206.109 -4.30729 206.245 -4.41149 206.164 -4.66041C206.095 -4.87489 205.811 -5.09486 205.533 -5.15014C205.211 -5.21382 205.075 -5.10962 205.156 -4.8607ZM214.202 -3.14692C214.258 -2.97586 214.424 -2.83577 214.572 -2.83577C214.72 -2.83577 214.886 -2.97586 214.942 -3.14692C214.998 -3.31798 214.831 -3.45807 214.572 -3.45807C214.313 -3.45807 214.146 -3.31798 214.202 -3.14692ZM212.167 -1.72142C212.167 -1.56223 212.422 -1.43198 212.733 -1.43198C213.044 -1.43198 213.299 -1.56223 213.299 -1.72142C213.299 -1.88062 213.044 -2.01086 212.733 -2.01086C212.422 -2.01086 212.167 -1.88062 212.167 -1.72142ZM272.334 -0.0811558C271.898 0.364874 272.169 0.920313 272.779 0.831453C273.58 0.71452 273.833 -0.274214 273.062 -0.274214C272.766 -0.274214 272.438 -0.18738 272.334 -0.0811558ZM261.961 1.36171C259.901 2.59444 258.283 4.402 258.283 5.46917C258.283 5.98669 259.12 6.06861 260.106 5.64747C260.649 5.41533 261.361 5.22517 261.688 5.22517C262.471 5.22517 265.041 2.99387 265.253 2.13076C265.648 0.522329 264.004 0.138527 261.961 1.36171ZM218.674 2.63728C218.674 2.80573 218.802 2.86333 218.957 2.76492C219.113 2.66651 219.24 2.52873 219.24 2.4584C219.24 2.38807 219.113 2.33076 218.957 2.33076C218.802 2.33076 218.674 2.46882 218.674 2.63728ZM200.679 4.81474C200.773 5.06656 200.852 5.35947 200.855 5.46599C200.861 5.72475 201.406 4.85093 201.412 4.57393C201.414 4.45468 201.212 4.35685 200.962 4.35685C200.663 4.35685 200.566 4.51431 200.679 4.81474ZM252.059 4.64629C252.059 4.80548 252.186 4.93573 252.341 4.93573C252.497 4.93573 252.624 4.80548 252.624 4.64629C252.624 4.4871 252.497 4.35685 252.341 4.35685C252.186 4.35685 252.059 4.4871 252.059 4.64629ZM202.985 5.78408C202.791 6.10392 203.237 6.44951 203.499 6.18207C203.768 5.90681 203.718 5.51461 203.413 5.51461C203.267 5.51461 203.074 5.63589 202.985 5.78408ZM296.901 6.96182C296.664 7.35373 296.984 7.83014 297.483 7.83014C297.708 7.83014 297.891 7.56965 297.891 7.25126C297.891 6.65212 297.208 6.4524 296.901 6.96182ZM275.148 8.14361C273.482 8.55693 271.902 9.57808 271.245 10.6655C270.752 11.482 270.684 11.9223 270.831 13.3576C271.016 15.1669 271.727 16.9053 272.621 17.7325C272.915 18.0049 273.778 18.5091 274.538 18.8529C275.77 19.4104 276.075 19.4422 277.357 19.1462C279.604 18.6272 280.953 17.7024 281.843 16.0717C282.801 14.3148 282.711 13.067 281.465 10.8395C280.23 8.63016 277.64 7.52507 275.148 8.14361ZM258.056 9.33524C257.87 9.52627 257.717 10.0212 257.717 10.4351C257.717 11.4305 258.203 11.8823 259.273 11.8823C260.3 11.8823 260.829 11.4348 260.829 10.5668C260.829 9.31527 258.909 8.46257 258.056 9.33524ZM197.558 12.8954C197.31 13.5556 197.657 14.1979 198.261 14.1979C198.947 14.1979 199.549 13.4699 199.335 12.8991C199.122 12.3327 197.77 12.3298 197.558 12.8954ZM232.098 16.5386C231.851 16.9473 232.396 17.5053 232.796 17.2526C232.965 17.1455 233.103 16.8706 233.103 16.641C233.103 16.1536 232.375 16.0795 232.098 16.5386ZM213.087 18.2787C212.736 18.4118 212.45 18.6654 212.45 18.8419C212.45 19.4093 214.138 20.9207 214.578 20.7479C215.054 20.5612 215.138 19.8208 214.713 19.5525C214.558 19.4541 214.431 19.1349 214.431 18.8428C214.431 18.1797 213.915 17.9635 213.087 18.2787ZM234.801 18.3777C234.801 18.6072 234.916 18.8677 235.057 18.9569C235.198 19.046 235.25 19.3647 235.174 19.6648C235.097 19.9653 235.185 20.3059 235.369 20.4223C235.842 20.7216 236.626 19.8518 236.324 19.3632C236.087 18.9806 236.038 18.8298 235.968 18.25C235.912 17.7921 234.801 17.9137 234.801 18.3777ZM253.527 21.5129C253.37 21.7083 253.308 22.2299 253.391 22.6724C253.502 23.2635 253.669 23.4354 254.02 23.3216C254.33 23.2206 254.804 23.5211 255.376 24.1819C255.95 24.8458 256.41 25.1364 256.703 25.0212C257.654 24.6476 256.942 23.359 255.046 22.0244C254.103 21.361 253.747 21.2411 253.527 21.5129ZM229.708 22.0128C229.708 22.172 229.835 22.3022 229.991 22.3022C230.147 22.3022 230.274 22.172 230.274 22.0128C230.274 21.8536 230.147 21.7233 229.991 21.7233C229.835 21.7233 229.708 21.8536 229.708 22.0128ZM285.782 22.0707C284.881 22.9931 285.998 24.3749 287.14 23.7494C287.86 23.3552 287.87 22.4125 287.159 22.0229C286.453 21.6365 286.198 21.6455 285.782 22.0707ZM216.541 22.9005C216.438 23.0701 216.422 23.2785 216.505 23.3636C216.708 23.5708 217.26 23.2056 217.26 22.864C217.26 22.4941 216.771 22.5187 216.541 22.9005ZM188.968 24.0389C188.968 24.1981 189.095 24.3283 189.251 24.3283C189.406 24.3283 189.534 24.1981 189.534 24.0389C189.534 23.8797 189.406 23.7494 189.251 23.7494C189.095 23.7494 188.968 23.8797 188.968 24.0389ZM217.388 24.7494C217.006 25.1402 216.694 25.7104 216.694 26.0166C216.694 26.3585 216.377 26.7081 215.873 26.9214C214.463 27.5188 213.73 28.5553 213.764 29.9021C213.805 31.4804 214.817 32.4327 216.454 32.4327C218.595 32.4327 220.29 30.6413 219.924 28.7666C219.803 28.1475 219.912 27.7929 220.349 27.3883C221.058 26.7324 221.136 25.1518 220.493 24.4936C219.801 23.7862 218.201 23.9179 217.388 24.7494ZM229.991 24.6389C229.991 25.3807 230.927 25.2965 231.069 24.5422C231.135 24.1949 230.982 24.0389 230.577 24.0389C230.173 24.0389 229.991 24.2247 229.991 24.6389ZM247.919 24.4684C247.665 25.1445 248.314 25.7712 248.671 25.1943C248.817 24.9567 248.899 24.6403 248.853 24.4913C248.701 23.9972 248.101 23.9827 247.919 24.4684ZM316.281 26.3544C316.281 26.5136 316.416 26.6438 316.58 26.6438C316.745 26.6438 316.801 26.5136 316.705 26.3544C316.609 26.1952 316.474 26.065 316.405 26.065C316.337 26.065 316.281 26.1952 316.281 26.3544ZM207.116 27.6059C206.86 27.9214 206.874 28.0899 207.177 28.3472C207.69 28.7825 208.542 28.4381 208.429 27.841C208.314 27.2282 207.535 27.089 207.116 27.6059ZM297.608 30.4066C297.608 30.5658 297.735 30.696 297.891 30.696C298.047 30.696 298.174 30.5658 298.174 30.4066C298.174 30.2474 298.047 30.1171 297.891 30.1171C297.735 30.1171 297.608 30.2474 297.608 30.4066ZM207.782 33.4498C207.16 33.8779 206.332 34.5169 205.943 34.8698C205.554 35.2226 204.898 35.7248 204.486 35.9859C204.058 36.2565 203.523 37.0307 203.241 37.7847C202.818 38.9173 202.79 39.4189 203.041 41.2537C203.22 42.5597 203.566 43.7296 203.924 44.2442C205.141 45.993 209.663 47.0995 212.45 46.3308C214.145 45.8633 215.873 44.0152 216.69 41.7944C217.243 40.2916 217.28 39.8985 217.019 38.2707C216.684 36.1708 215.84 34.8469 214.079 33.6547C213.158 33.0309 212.521 32.8529 210.92 32.7725C209.122 32.6819 208.796 32.7522 207.782 33.4498ZM245.412 33.6399C244.375 34.4747 244.543 35.442 245.745 35.561C246.755 35.6611 247.412 34.8608 247.112 33.8958C246.857 33.0729 246.234 32.9791 245.412 33.6399ZM303.132 35.6889C300.813 38.0154 300.575 38.9752 301.712 41.4094C302.524 43.1458 302.843 43.4181 304.929 44.153C306.833 44.824 308.21 44.7047 310.032 43.7105C311.763 42.7672 312.435 41.8931 312.749 40.1772C313.039 38.5949 312.76 37.8577 311.259 36.2394C309.698 34.5569 308.284 33.8799 306.33 33.8799C305.001 33.8799 304.852 33.9641 303.132 35.6889ZM280.859 40.2563C280.326 40.7136 280.281 40.8632 280.608 41.0835C281.117 41.4265 282.163 41.0401 282.274 40.4684C282.408 39.772 281.57 39.6461 280.859 40.2563ZM245.385 40.6797C244.786 41.6161 245.047 42.6563 245.992 43.0968C247.586 43.8401 249.373 41.819 248.247 40.5457C247.486 39.6855 245.977 39.7561 245.385 40.6797ZM186.295 41.8659C185.654 42.5211 186.142 43.0262 186.974 42.5704C187.59 42.2334 187.641 41.6763 187.074 41.4829C186.907 41.4259 186.556 41.5984 186.295 41.8659ZM239.598 44.9012C239.192 45.6784 239.443 46.3259 240.151 46.3259C240.872 46.3259 241.121 45.89 240.904 45.0069C240.692 44.1417 240.024 44.0879 239.598 44.9012ZM223.668 45.8824C223.58 46.116 223.636 46.3878 223.791 46.4862C224.148 46.7114 224.946 46.0599 224.737 45.7143C224.494 45.3114 223.844 45.4138 223.668 45.8824ZM288.272 46.9218C288.272 47.0903 288.399 47.1479 288.555 47.0495C288.71 46.951 288.838 46.8133 288.838 46.743C288.838 46.6726 288.71 46.6153 288.555 46.6153C288.399 46.6153 288.272 46.7534 288.272 46.9218ZM297.467 49.5308C296.094 49.9775 294.393 51.33 293.844 52.4117C292.734 54.5984 293.787 58.4928 295.98 60.3088C296.784 60.9751 297.403 61.215 298.571 61.3143C299.793 61.4179 300.135 61.5594 300.25 62.0084C300.367 62.4654 300.599 62.5548 301.477 62.481C302.509 62.3942 302.566 62.3352 302.712 61.2202C302.796 60.5768 303.13 59.5999 303.456 59.0494C304.59 57.1278 304.772 56.0563 304.266 54.2765C303.309 50.9083 300.105 48.6721 297.467 49.5308ZM282.048 49.9439C282.048 50.1827 282.239 50.378 282.472 50.378C282.706 50.378 282.896 50.1827 282.896 49.9439C282.896 49.7051 282.706 49.5097 282.472 49.5097C282.239 49.5097 282.048 49.7051 282.048 49.9439ZM254.888 50.9228C254.888 51.082 255.015 51.2927 255.171 51.3911C255.326 51.4895 255.454 51.4397 255.454 51.2805C255.454 51.1213 255.326 50.9106 255.171 50.8122C255.015 50.7138 254.888 50.7636 254.888 50.9228ZM307.984 50.8579C307.729 51.1187 308.338 51.8252 308.818 51.8252C309.032 51.8252 309.208 51.5647 309.208 51.2464C309.208 50.6831 308.404 50.4281 307.984 50.8579ZM174.681 52.75C173.447 53.4655 173.422 53.9839 174.59 54.6016C175.435 55.0488 175.511 55.0461 175.863 54.5535C176.328 53.9026 176.341 53.2059 175.897 52.7515C175.487 52.3315 175.402 52.3315 174.681 52.75ZM206.111 54.6079C205.845 55.3179 206.394 55.8039 207.012 55.4053C207.685 54.9706 207.622 54.3034 206.898 54.1978C206.534 54.1448 206.224 54.306 206.111 54.6079ZM324.485 57.9035C324.485 58.0627 324.613 58.193 324.768 58.193C324.924 58.193 325.051 58.0627 325.051 57.9035C325.051 57.7443 324.924 57.6141 324.768 57.6141C324.613 57.6141 324.485 57.7443 324.485 57.9035ZM250.258 59.3718C249.434 60.035 249.281 61.1861 249.906 62.0281C250.481 62.8032 252.468 62.7163 253.033 61.8912C253.556 61.1273 253.611 59.6077 253.134 59.1192C252.603 58.5768 251.079 58.7108 250.258 59.3718ZM199.972 60.6998C199.722 60.7684 199.346 61.1525 199.136 61.5537C198.614 62.5511 199.076 63.2339 200.349 63.3459C201.571 63.4533 202.373 62.7687 202.099 61.8529C201.724 60.6023 201.256 60.3484 199.972 60.6998ZM224.769 63.0935C224.576 63.4133 225.022 63.7589 225.283 63.4915C225.552 63.2162 225.502 62.824 225.198 62.824C225.052 62.824 224.859 62.9453 224.769 63.0935ZM293.418 72.0138C293.471 72.2922 293.701 72.5203 293.93 72.5203C294.159 72.5203 294.39 72.2922 294.442 72.0138C294.509 71.6583 294.356 71.5073 293.93 71.5073C293.504 71.5073 293.351 71.6583 293.418 72.0138ZM319.676 74.9806C319.676 75.3536 319.819 75.5589 320.029 75.4871C320.224 75.4208 320.383 75.1927 320.383 74.9806C320.383 74.7684 320.224 74.5403 320.029 74.474C319.819 74.4023 319.676 74.6075 319.676 74.9806ZM275.419 76.8825C275.175 77.1329 274.975 77.5143 274.975 77.7302C274.975 78.4046 275.86 79.0683 276.637 78.976C277.66 78.8547 277.829 77.5499 276.909 76.89C276.108 76.3163 275.974 76.3158 275.419 76.8825ZM267.902 85.8346C267.902 86.0734 268.029 86.2688 268.185 86.2688C268.34 86.2688 268.468 86.0734 268.468 85.8346C268.468 85.5958 268.34 85.4005 268.185 85.4005C268.029 85.4005 267.902 85.5958 267.902 85.8346Z" fill="#BE5245"/>
<path d="M34.8745 30.2471L39.7045 20.2571H42.7645V35.2571H40.4245V23.6771L35.7745 33.1871H33.9145L29.2645 23.6771V35.2571H26.9245V20.2571H30.0445L34.8745 30.2471ZM54.1552 35.6771C53.0152 35.6771 51.9752 35.4771 51.0352 35.0771C50.0952 34.6771 49.2752 34.1271 48.5752 33.4271C47.8952 32.7071 47.3652 31.8671 46.9852 30.9071C46.6052 29.9271 46.4152 28.8771 46.4152 27.7571C46.4152 26.6371 46.6052 25.5971 46.9852 24.6371C47.3652 23.6571 47.8952 22.8171 48.5752 22.1171C49.2752 21.3971 50.0952 20.8371 51.0352 20.4371C51.9752 20.0371 53.0152 19.8371 54.1552 19.8371C55.2952 19.8371 56.3352 20.0371 57.2752 20.4371C58.2152 20.8371 59.0252 21.3971 59.7052 22.1171C60.4052 22.8171 60.9452 23.6571 61.3252 24.6371C61.7052 25.5971 61.8952 26.6371 61.8952 27.7571C61.8952 28.8771 61.7052 29.9271 61.3252 30.9071C60.9452 31.8671 60.4052 32.7071 59.7052 33.4271C59.0252 34.1271 58.2152 34.6771 57.2752 35.0771C56.3352 35.4771 55.2952 35.6771 54.1552 35.6771ZM54.1552 33.3971C54.9352 33.3971 55.6452 33.2571 56.2852 32.9771C56.9452 32.6971 57.5052 32.3071 57.9652 31.8071C58.4252 31.2871 58.7852 30.6871 59.0452 30.0071C59.3052 29.3071 59.4352 28.5571 59.4352 27.7571C59.4352 26.9371 59.3052 26.1871 59.0452 25.5071C58.7852 24.8271 58.4252 24.2371 57.9652 23.7371C57.5052 23.2171 56.9452 22.8171 56.2852 22.5371C55.6452 22.2571 54.9352 22.1171 54.1552 22.1171C53.3752 22.1171 52.6552 22.2571 51.9952 22.5371C51.3552 22.8171 50.8052 23.2171 50.3452 23.7371C49.8852 24.2371 49.5252 24.8271 49.2652 25.5071C49.0052 26.1871 48.8752 26.9371 48.8752 27.7571C48.8752 28.5571 49.0052 29.3071 49.2652 30.0071C49.5252 30.6871 49.8852 31.2871 50.3452 31.8071C50.8052 32.3071 51.3552 32.6971 51.9952 32.9771C52.6552 33.2571 53.3752 33.3971 54.1552 33.3971ZM63.6555 32.9771H64.0155C64.5355 32.9771 64.9655 32.8671 65.3055 32.6471C65.6455 32.4271 65.9055 32.0471 66.0855 31.5071C66.2855 30.9471 66.4255 30.2071 66.5055 29.2871C66.5855 28.3471 66.6255 27.1771 66.6255 25.7771V20.2571H77.5155V35.2571H75.0855V22.5071H69.0255V26.3771C69.0255 28.0171 68.9355 29.4071 68.7555 30.5471C68.5955 31.6871 68.3255 32.6171 67.9455 33.3371C67.5855 34.0371 67.0955 34.5471 66.4755 34.8671C65.8755 35.1671 65.1355 35.3171 64.2555 35.3171H63.6555V32.9771ZM88.9013 35.6771C87.7613 35.6771 86.7213 35.4771 85.7813 35.0771C84.8413 34.6771 84.0213 34.1271 83.3213 33.4271C82.6413 32.7071 82.1113 31.8671 81.7313 30.9071C81.3513 29.9271 81.1613 28.8771 81.1613 27.7571C81.1613 26.6371 81.3513 25.5971 81.7313 24.6371C82.1113 23.6571 82.6413 22.8171 83.3213 22.1171C84.0213 21.3971 84.8413 20.8371 85.7813 20.4371C86.7213 20.0371 87.7613 19.8371 88.9013 19.8371C90.0413 19.8371 91.0813 20.0371 92.0213 20.4371C92.9613 20.8371 93.7713 21.3971 94.4513 22.1171C95.1513 22.8171 95.6913 23.6571 96.0713 24.6371C96.4513 25.5971 96.6413 26.6371 96.6413 27.7571C96.6413 28.8771 96.4513 29.9271 96.0713 30.9071C95.6913 31.8671 95.1513 32.7071 94.4513 33.4271C93.7713 34.1271 92.9613 34.6771 92.0213 35.0771C91.0813 35.4771 90.0413 35.6771 88.9013 35.6771ZM88.9013 33.3971C89.6813 33.3971 90.3913 33.2571 91.0313 32.9771C91.6913 32.6971 92.2513 32.3071 92.7113 31.8071C93.1713 31.2871 93.5313 30.6871 93.7913 30.0071C94.0513 29.3071 94.1813 28.5571 94.1813 27.7571C94.1813 26.9371 94.0513 26.1871 93.7913 25.5071C93.5313 24.8271 93.1713 24.2371 92.7113 23.7371C92.2513 23.2171 91.6913 22.8171 91.0313 22.5371C90.3913 22.2571 89.6813 22.1171 88.9013 22.1171C88.1213 22.1171 87.4013 22.2571 86.7413 22.5371C86.1013 22.8171 85.5513 23.2171 85.0913 23.7371C84.6313 24.2371 84.2713 24.8271 84.0113 25.5071C83.7513 26.1871 83.6213 26.9371 83.6213 27.7571C83.6213 28.5571 83.7513 29.3071 84.0113 30.0071C84.2713 30.6871 84.6313 31.2871 85.0913 31.8071C85.5513 32.3071 86.1013 32.6971 86.7413 32.9771C87.4013 33.2571 88.1213 33.3971 88.9013 33.3971ZM102.743 26.4071H105.113L110.123 20.2571H112.973L107.123 27.3671L113.093 35.2571H110.123L105.143 28.6271H102.743V35.2571H100.313V20.2571H102.743V26.4071ZM122.036 35.6771C120.896 35.6771 119.856 35.4771 118.916 35.0771C117.976 34.6771 117.156 34.1271 116.456 33.4271C115.776 32.7071 115.246 31.8671 114.866 30.9071C114.486 29.9271 114.296 28.8771 114.296 27.7571C114.296 26.6371 114.486 25.5971 114.866 24.6371C115.246 23.6571 115.776 22.8171 116.456 22.1171C117.156 21.3971 117.976 20.8371 118.916 20.4371C119.856 20.0371 120.896 19.8371 122.036 19.8371C123.176 19.8371 124.216 20.0371 125.156 20.4371C126.096 20.8371 126.906 21.3971 127.586 22.1171C128.286 22.8171 128.826 23.6571 129.206 24.6371C129.586 25.5971 129.776 26.6371 129.776 27.7571C129.776 28.8771 129.586 29.9271 129.206 30.9071C128.826 31.8671 128.286 32.7071 127.586 33.4271C126.906 34.1271 126.096 34.6771 125.156 35.0771C124.216 35.4771 123.176 35.6771 122.036 35.6771ZM122.036 33.3971C122.816 33.3971 123.526 33.2571 124.166 32.9771C124.826 32.6971 125.386 32.3071 125.846 31.8071C126.306 31.2871 126.666 30.6871 126.926 30.0071C127.186 29.3071 127.316 28.5571 127.316 27.7571C127.316 26.9371 127.186 26.1871 126.926 25.5071C126.666 24.8271 126.306 24.2371 125.846 23.7371C125.386 23.2171 124.826 22.8171 124.166 22.5371C123.526 22.2571 122.816 22.1171 122.036 22.1171C121.256 22.1171 120.536 22.2571 119.876 22.5371C119.236 22.8171 118.686 23.2171 118.226 23.7371C117.766 24.2371 117.406 24.8271 117.146 25.5071C116.886 26.1871 116.756 26.9371 116.756 27.7571C116.756 28.5571 116.886 29.3071 117.146 30.0071C117.406 30.6871 117.766 31.2871 118.226 31.8071C118.686 32.3071 119.236 32.6971 119.876 32.9771C120.536 33.2571 121.256 33.3971 122.036 33.3971Z" fill="black"/>
</g>
<defs>
<linearGradient id="paint0_linear_2438_3614" x1="-0.000244141" y1="35.5654" x2="431.747" y2="35.5654" gradientUnits="userSpaceOnUse">
<stop offset="0.543269" stop-color="white"/>
<stop offset="1" stop-color="#FFF3E1"/>
</linearGradient>
<clipPath id="clip0_2438_3614">
<rect width="325.051" height="53.7617" fill="white"/>
</clipPath>
</defs>
</svg>
