<svg width="174" height="331" viewBox="0 0 174 331" fill="none" xmlns="http://www.w3.org/2000/svg">
<path d="M55.7558 74.1526L44.5328 120.901C51.7464 123.461 66.0636 128.329 78.6936 132.078C83.4014 133.475 87.8748 134.716 91.6586 135.625C96.3653 136.755 102.588 137.989 109.223 139.195C122.232 141.559 136.826 143.811 144.687 144.945L155.91 98.1969C152.435 96.4771 144.592 93.1674 138.177 90.5301C128.126 86.3979 115.519 81.9071 104.107 79.5826C94.3019 77.5852 83.8907 76.2375 75.0365 75.3717C67.0099 74.5869 59.7358 74.2974 55.7558 74.1526Z" fill="url(#paint0_linear_2844_2)"/>
<path d="M75.0365 75.3717C83.8907 76.2375 94.3019 77.5852 104.107 79.5826C115.519 81.9071 128.126 86.3979 138.177 90.5301C135.893 76.6592 138.638 61.6623 142.634 39.8368L142.687 39.5456C146.711 17.5621 129.988 13.5474 120.507 11.2713C111.026 8.99517 95.5953 12.9405 92.1224 27.4064C89.3441 38.9792 79.5742 64.2053 75.0365 75.3717Z" fill="url(#paint1_linear_2844_2)"/>
<path d="M91.6586 135.625C87.8748 134.716 83.4014 133.475 78.6936 132.078L46.2803 267.092C46.1272 269.328 46.3048 275.623 48.2404 282.907C43.4832 293.131 37.6849 314.912 46.2803 317.5C54.8757 320.088 65.1268 298.895 66.7472 287.35C69.763 284.38 75.988 277.634 76.762 274.41L109.223 139.195C102.588 137.989 96.3653 136.755 91.6586 135.625Z" fill="url(#paint2_linear_2844_2)"/>
<path d="M55.7566 74.1526L44.5335 120.901C51.7472 123.461 66.0644 128.329 78.6944 132.078C83.4022 133.475 87.8756 134.717 91.6593 135.625C96.366 136.755 102.589 137.989 109.224 139.195C122.233 141.559 136.827 143.811 144.688 144.945L155.911 98.197C152.436 96.4772 144.593 93.1675 138.178 90.5302C128.127 86.398 115.52 81.9072 104.108 79.5826C94.3026 77.5853 83.8915 76.2375 75.0373 75.3718C67.0107 74.587 59.7366 74.2975 55.7566 74.1526Z" fill="url(#paint3_linear_2844_2)"/>
<defs>
<linearGradient id="paint0_linear_2844_2" x1="123.635" y1="12.0222" x2="50.0771" y2="318.42" gradientUnits="userSpaceOnUse">
<stop/>
<stop offset="0.355769" stop-color="#666666"/>
</linearGradient>
<linearGradient id="paint1_linear_2844_2" x1="123.635" y1="12.0222" x2="50.0771" y2="318.42" gradientUnits="userSpaceOnUse">
<stop/>
<stop offset="0.355769" stop-color="#666666"/>
</linearGradient>
<linearGradient id="paint2_linear_2844_2" x1="123.635" y1="12.0222" x2="50.0771" y2="318.42" gradientUnits="userSpaceOnUse">
<stop offset="0.134615" stop-color="#5899BE"/>
<stop offset="1" stop-color="#DBEAF3"/>
</linearGradient>
<linearGradient id="paint3_linear_2844_2" x1="110.523" y1="64.5" x2="92.5227" y2="141.5" gradientUnits="userSpaceOnUse">
<stop offset="0.40473" stop-color="#666666"/>
<stop offset="1"/>
</linearGradient>
</defs>
</svg>
