<svg width="188" height="144" viewBox="0 0 188 144" fill="none" xmlns="http://www.w3.org/2000/svg">
<path fill-rule="evenodd" clip-rule="evenodd" d="M82.2588 5.49511C82.2588 5.76742 81.7844 5.99022 81.2046 5.99022C79.8413 5.99022 77.3372 6.82993 77.3372 7.28708C77.3372 7.48149 76.6727 7.64059 75.8607 7.64059C74.6302 7.64059 74.3841 8.30337 74.3841 11.6249C74.3841 14.7266 74.0573 15.7191 72.9076 16.1047C71.879 16.4496 71.4311 17.2939 71.4311 18.8865C71.4311 20.1444 71.0472 21.1736 70.5787 21.1736C70.1092 21.1736 69.5107 22.6738 69.2469 24.5073C68.9841 26.3409 68.3255 27.9375 67.7842 28.0556C67.2251 28.1778 66.5085 31.0464 66.1236 34.7066C65.7515 38.2466 65.0319 41.7372 64.525 42.4633C64.0181 43.1895 63.5929 44.8481 63.5801 46.1493C63.5643 47.7128 63.1489 48.5601 62.3536 48.6492C61.5937 48.7341 61.0109 49.7147 60.7698 51.3172C60.5601 52.7108 59.9941 53.8509 59.5118 53.8509C59.0295 53.8509 58.6347 54.512 58.6347 55.32C58.6347 56.128 57.9703 57.6447 57.1582 58.6901C56.3462 59.7357 55.6817 61.4386 55.6817 62.4747C55.6817 63.5781 55.222 64.4096 54.5724 64.4822C53.9621 64.5505 53.2416 65.3797 52.9709 66.325C52.7002 67.2707 52.147 68.044 51.7414 68.044C51.3359 68.044 50.7945 68.8906 50.5386 69.9254C50.2826 70.9599 49.5631 71.8636 48.94 71.9333C47.5531 72.0884 47.4172 73.6553 48.7914 73.6553C49.3967 73.6553 49.7757 75.3056 49.7757 77.9462C49.7757 80.5868 49.3967 82.2372 48.7914 82.2372C48.25 82.2372 47.807 83.0541 47.807 84.0526C47.807 85.051 47.4044 85.868 46.9123 85.868C46.4201 85.868 45.8669 87.4022 45.6819 89.2773C45.3501 92.6441 45.3048 92.7008 42.0467 93.7924C38.8978 94.8476 38.4322 94.8962 31.8657 94.8552C24.9202 94.8123 21.2299 95.2226 21.2299 96.0382C21.2299 96.2798 20.5655 96.7003 19.7534 96.9726C18.9413 97.2449 18.2769 98.0388 18.2769 98.7369C18.2769 99.435 17.7562 100.064 17.1193 100.135C15.4302 100.324 15.3603 108.042 17.0465 108.23C18.5013 108.393 18.833 114.584 17.3871 114.584C16.8978 114.584 16.1803 116.144 15.7934 118.05C15.4056 119.956 14.6988 121.516 14.2224 121.516C13.745 121.516 13.3552 124.693 13.3552 128.577V135.637L15.8161 135.845C17.1695 135.959 18.2769 136.198 18.2769 136.375C18.2769 136.569 23.048 136.699 30.1588 136.699C39.4087 136.699 42.3686 136.809 43.5183 137.194C45.5883 137.889 55.6817 137.889 55.6817 137.194C55.6817 136.922 56.3462 136.699 57.1582 136.699C57.9703 136.699 58.6347 136.476 58.6347 136.204C58.6347 135.932 59.0777 135.709 59.6191 135.709C60.1605 135.709 60.6034 135.115 60.6034 134.389C60.6034 133.663 60.1605 133.068 59.6191 133.068C59.0777 133.068 58.6347 132.356 58.6347 131.484C58.6347 130.613 58.0816 129.714 57.4043 129.487C56.5086 129.187 56.1011 127.034 55.9081 121.582C55.6404 114.048 56.1719 112.604 59.2116 112.604C59.8868 112.604 60.5867 112.466 60.7678 112.297C60.9479 112.129 71.1732 111.884 83.4893 111.754C95.8053 111.623 105.883 111.39 105.883 111.235C105.883 111.08 112.527 110.954 120.648 110.954C129.835 110.954 135.413 111.078 135.413 111.284C135.413 111.485 138.302 111.614 140.415 111.614C142.529 111.614 143.875 111.485 143.875 111.284C143.875 110.803 145.534 110.879 145.676 111.366C145.764 111.671 147.165 111.806 151.033 111.882C154.032 111.941 156.27 112.117 156.27 112.295C156.27 112.465 157.178 112.604 158.288 112.604H160.305V116.565C160.305 118.743 160.416 120.526 160.552 120.526C160.688 120.526 160.874 121.662 160.966 123.051C161.057 124.44 161.27 125.674 161.439 125.793C161.607 125.912 161.793 127.331 161.853 128.947C161.918 130.736 162.087 131.933 162.286 132.009C162.697 132.166 162.733 136.699 162.323 136.699C162.165 136.699 162.035 137.071 162.035 137.524C162.035 137.978 162.165 138.35 162.323 138.35C162.482 138.35 162.612 138.572 162.612 138.845C162.612 139.153 162.884 139.34 163.332 139.34C163.729 139.34 164.053 139.488 164.053 139.67C164.053 139.88 166.311 140 170.25 140C174.19 140 176.448 139.88 176.448 139.67C176.448 139.488 176.837 139.34 177.313 139.34C177.889 139.34 178.178 139.175 178.178 138.845C178.178 138.572 178.307 138.35 178.466 138.35C178.624 138.35 178.754 137.83 178.754 137.194C178.754 136.559 178.641 136.039 178.504 136.039C178.134 136.039 177.744 133.202 177.427 128.2C177.32 126.521 177.134 125.147 177.013 125.147C176.892 125.147 176.7 124.218 176.586 123.084C176.472 121.949 176.234 120.916 176.058 120.789C175.671 120.509 175.771 103.967 176.162 103.69C176.3 103.593 176.501 102.394 176.609 101.026C176.772 98.9653 176.726 98.4454 176.339 98.0025C176.082 97.7084 175.872 97.3087 175.872 97.1139C175.872 96.9195 175.677 96.7604 175.439 96.7604C175.201 96.7604 175.007 96.5376 175.007 96.2653C175.007 95.8487 174.366 95.7702 170.971 95.7702C168.448 95.7702 167.175 95.8268 166.518 95.2366C165.792 94.5853 165.816 93.1463 165.735 89.9744C165.654 86.7935 165.513 85.3801 165.268 85.2867C165.05 85.2035 164.918 84.4754 164.918 83.365C164.918 82.3817 164.788 81.577 164.629 81.577C164.453 81.577 164.341 80.0366 164.341 77.6161C164.341 75.1957 164.453 73.6553 164.629 73.6553C164.794 73.6553 164.918 72.665 164.918 71.3447C164.918 70.074 164.801 69.0342 164.659 69.0342C164.517 69.0342 164.306 67.029 164.192 64.5782C164.077 62.1274 163.869 60.1223 163.73 60.1223C163.59 60.1223 163.476 58.934 163.476 57.4817C163.476 55.3547 163.392 54.8411 163.044 54.8411C162.686 54.8411 162.612 54.2176 162.612 51.2103C162.612 49.0097 162.498 47.5795 162.323 47.5795C162.165 47.5795 162.035 47.3567 162.035 47.0844C162.035 46.812 162.165 46.5892 162.323 46.5892C162.742 46.5892 162.678 45.3492 162.251 45.1864C161.975 45.0811 161.88 42.7782 161.845 35.3496C161.814 28.6739 161.702 25.6124 161.485 25.5296C161.069 25.3711 161.043 13.912 161.458 13.912C161.621 13.912 161.747 12.9769 161.747 11.7665C161.747 10.5561 161.621 9.62103 161.458 9.62103C161.3 9.62103 161.17 9.39988 161.17 9.12988C161.17 8.81202 160.763 8.56413 160.017 8.42748C159.383 8.3113 158.864 8.08685 158.864 7.92841C158.864 7.76998 158.54 7.64059 158.143 7.64059C157.747 7.64059 157.423 7.78912 157.423 7.97066C157.423 8.1522 156.839 8.30073 156.126 8.30073C155.412 8.30073 154.828 8.1522 154.828 7.97066C154.828 7.78252 153.972 7.64059 152.835 7.64059C151.522 7.64059 150.784 7.49965 150.673 7.228C150.538 6.89792 150.471 6.89792 150.336 7.228C150.083 7.84853 148.011 7.75611 147.795 7.11445C147.647 6.67017 147.164 6.60614 144.69 6.70186C142.676 6.78009 141.723 6.94446 141.64 7.228C141.494 7.73235 135.75 7.81289 135.249 7.31381C135.069 7.13392 132.153 6.89 128.769 6.7715C125.386 6.65334 122.617 6.42889 122.617 6.27342C122.617 6.11763 121.952 5.99022 121.14 5.99022C120.328 5.99022 119.664 6.13875 119.664 6.32029C119.664 6.50646 116.875 6.65037 113.265 6.65037C109.746 6.65037 106.867 6.51108 106.867 6.34043C106.867 6.17011 104.874 5.93048 102.438 5.80802C100.002 5.68556 98.0082 5.45352 98.0082 5.29245C98.0082 5.1317 94.4646 5 90.1335 5C83.7905 5 82.2588 5.09638 82.2588 5.49511ZM117.676 21.8337C118.207 21.8337 118.92 21.4624 119.259 21.0086C119.86 20.2065 120.12 20.1834 128.547 20.1834C134.209 20.1834 137.348 20.3151 137.595 20.5633C137.84 20.8102 138.65 20.9544 140.406 20.9759C142.289 20.9987 143.142 21.1333 143.226 21.4211C143.292 21.6482 143.757 21.8331 144.259 21.8321C144.761 21.8311 145.788 22.0833 146.541 22.3926L147.91 22.9543V27.8167C147.91 31.6986 147.823 32.779 147.478 33.1741C146.967 33.7593 146.897 35.9153 147.383 36.1008C147.575 36.1741 147.778 37.1478 147.853 38.3562C147.925 39.526 148.13 40.5888 148.308 40.7186C148.54 40.8886 148.631 46.4539 148.631 60.6174C148.631 75.0336 148.719 80.3432 148.961 80.5162C149.143 80.6459 149.361 81.5688 149.446 82.5672C149.531 83.5657 149.757 85.356 149.948 86.5456C150.167 87.9118 150.218 89.6453 150.087 91.2502C149.897 93.5706 149.818 93.8086 149.183 93.9914C148.8 94.1013 148.487 94.3238 148.487 94.4855C148.487 94.9717 141.062 94.8556 140.92 94.3674C140.909 94.3286 140.936 94.2931 140.961 94.2606C141.138 94.0308 141.197 93.9548 126.554 93.9548C109.842 93.9548 104.471 94.0538 104.16 94.3674C103.674 94.8565 100.961 94.9265 100.961 94.4499C100.961 94.2683 99.6639 94.1198 98.0781 94.1198C96.4933 94.1198 94.5316 93.897 93.7195 93.6247C92.9074 93.3524 91.7685 93.1296 91.1878 93.1296C90.5017 93.1296 90.1335 91.8608 90.1335 89.4988C90.1335 86.4915 90.3875 85.868 91.6101 85.868C92.7991 85.868 93.0866 85.3544 93.0866 83.2274C93.0866 81.7751 93.4911 80.5868 93.9862 80.5868C94.4814 80.5868 95.0346 78.8731 95.2167 76.7784C95.4165 74.4771 95.9785 72.8769 96.6361 72.735C97.2346 72.6056 98.0388 71.1632 98.4236 69.5293C98.8075 67.8955 99.5359 66.5092 100.042 66.4488C100.548 66.388 100.961 64.94 100.961 63.2306C100.961 61.4033 101.362 60.1223 101.934 60.1223C102.469 60.1223 103.19 59.5281 103.536 58.802C103.883 58.0758 104.487 57.4817 104.879 57.4817C105.272 57.4817 105.89 56.1822 106.252 54.5935C106.615 53.0052 107.345 51.6559 107.874 51.5955C108.403 51.5347 108.836 50.2989 108.836 48.8486C108.836 46.9451 109.246 46.0743 110.312 45.7169C111.443 45.3376 111.789 44.384 111.789 41.6421C111.789 39.5907 112.202 38.0153 112.757 37.9522C113.314 37.8892 113.88 35.6757 114.089 32.7423C114.335 29.3 114.821 27.6011 115.583 27.516C116.311 27.4348 116.711 26.4069 116.711 24.612C116.711 23.0157 117.121 21.8337 117.676 21.8337Z" fill="black" stroke="black" stroke-width="6"/>
</svg>
