<svg width="125" height="144" viewBox="0 0 125 144" fill="none" xmlns="http://www.w3.org/2000/svg">
<path d="M12.9861 6.08396C15.2241 6.14795 15.9839 6.03958 16.326 5.60795C16.8637 4.92888 23.43 4.75504 23.6269 5.41488C23.6915 5.63125 24.3754 5.90273 25.1465 6.01813C26.2985 6.19048 26.5481 6.12058 26.5481 5.62459C26.5481 4.83087 28.7129 4.79425 29.4134 5.57577C29.8108 6.01924 30.9025 6.13057 34.8594 6.13057C37.9378 6.13057 39.8085 6.27039 39.8085 6.50044C39.8085 6.73493 47.9723 6.87215 67.8916 6.87548C85.1677 6.87807 100.718 6.97313 102.447 7.08667C104.177 7.20022 106.731 7.76426 108.124 8.34088C110.881 9.4808 111.588 12.0484 109.144 12.0484C108.312 12.0484 107.626 12.7556 107.62 13.6203C107.597 16.9565 105.695 20.1854 103.753 20.1854C102.693 20.1854 101.561 20.3807 101.234 20.6196C100.812 20.9292 94.5264 21.0339 79.3606 20.9843C61.9573 20.9277 57.7321 21.0172 56.1758 21.4747C53.4933 22.2644 36.9529 22.2592 36.0157 21.4681C35.6405 21.1515 34.6499 20.9251 33.6398 20.9251C32.5488 20.9251 31.8563 20.7539 31.7691 20.4628C31.6663 20.1196 30.5451 20.0208 27.4187 20.0792C23.2751 20.1569 23.191 20.1754 22.2654 21.2081C21.3385 22.2422 21.3225 22.3332 21.1903 27.39C21.0961 30.9773 20.9343 32.5677 20.6525 32.6724C20.372 32.7767 20.2494 33.9391 20.2494 36.4901C20.2494 38.6889 20.1165 40.158 19.9179 40.158C19.7203 40.158 19.5864 41.5757 19.5864 43.6717C19.5864 45.7678 19.7203 47.1855 19.9179 47.1855C20.1178 47.1855 20.2494 48.7267 20.2494 51.069C20.2494 53.205 20.3824 54.9526 20.5451 54.9526C20.7076 54.9526 20.9294 55.3472 21.0378 55.8292C21.1909 56.5101 21.5317 56.7586 22.5654 56.9432C23.2974 57.0738 23.8961 57.3449 23.8961 57.5461C23.8961 57.7491 24.8524 57.9115 26.0509 57.9115C27.2665 57.9115 28.2057 58.0728 28.2057 58.2814C28.2057 58.4848 28.877 58.6512 29.6975 58.6512C30.5179 58.6512 31.1893 58.4848 31.1893 58.2814C31.1893 58.045 34.0625 57.9115 39.1455 57.9115C44.1258 57.9115 69.7839 58.0472 69.7839 58.2743C69.7839 58.4737 71.4279 58.7378 73.4368 58.8613C75.6137 58.9945 77.4621 59.4461 78.0071 59.9779C78.5127 60.4687 79.5937 60.8704 80.4097 60.8704C82.523 60.8704 82.258 63.738 80.128 63.9114C77.8285 64.0989 77.8285 66.5186 80.128 66.7061C82.7909 66.9229 82.361 69.6244 79.6239 69.8811C78.375 69.9979 77.3531 70.4288 77.3531 70.8383C77.3531 71.3235 76.0376 71.663 73.5685 71.8143C71.487 71.9419 69.7839 72.1949 69.7839 72.3761C69.7839 72.8525 41.3945 72.7948 40.7421 72.3173C40.2834 71.9808 31.352 71.7903 22.1556 71.936L20.2494 71.9663V73.2302C20.2494 73.9251 20.0631 74.5628 19.835 74.6475C19.548 74.754 19.3859 76.013 19.3076 78.7467C19.2453 80.917 19.059 82.6924 18.8933 82.6924C18.7275 82.6924 18.5919 84.761 18.5919 87.2894C18.5919 90.8823 18.4831 92.0074 18.0946 92.4409C17.4435 93.1673 17.3716 99.5608 18.0118 99.7982C18.3161 99.911 18.454 101.636 18.5309 106.302C18.5902 109.906 18.7696 112.651 18.9453 112.651C19.1157 112.651 19.2549 112.889 19.2549 113.18C19.2549 114.142 20.2657 114.871 21.5991 114.871C22.3155 114.871 22.9015 115.037 22.9015 115.24C22.9015 115.764 29.1094 115.729 29.2662 115.205C29.4512 114.585 56.4287 114.53 57.2855 115.148C57.7609 115.492 64.1039 115.61 82.0688 115.61C102.132 115.61 106.359 115.704 107.082 116.165C107.562 116.47 109.212 116.72 110.752 116.72C114.503 116.72 115.386 118.114 114.862 123.219C114.53 126.464 113.914 127.444 111.901 127.935C110.504 128.276 108.631 128.556 107.738 128.556C106.846 128.556 106.116 128.805 106.116 129.11C106.116 129.564 103.509 129.665 91.7347 129.665C79.96 129.665 77.3531 129.564 77.3531 129.11C77.3531 128.648 74.3255 128.556 59.1869 128.556C44.3875 128.556 41.0206 128.654 41.0206 129.088C41.0206 129.509 39.9895 129.664 36.9078 129.83C29.4326 130.232 20.575 129.883 20.1808 129.171C20.017 128.875 17.9222 128.701 13.4658 128.614C9.88976 128.544 6.98904 128.337 6.98904 128.152C6.98904 127.967 6.76526 127.816 6.49177 127.816C6.21827 127.816 5.99452 127.566 5.99452 127.261C5.99452 126.956 5.77074 126.706 5.49724 126.706C5.11534 126.706 5 126.233 5 124.672C5 123.11 5.11534 122.638 5.49724 122.638C5.90732 122.638 5.99452 121.964 5.99452 118.794C5.99452 115.718 5.89506 114.907 5.49724 114.737C5.11302 114.572 5 113.856 5 111.58C5 109.456 5.13855 108.481 5.49724 108.081C5.77637 107.77 5.99452 106.866 5.99452 106.02C5.99452 105.192 6.14369 104.514 6.32602 104.514C6.50835 104.514 6.65755 104.098 6.65755 103.59C6.65755 103.081 6.50835 102.665 6.32602 102.665C6.12148 102.665 5.99452 100.754 5.99452 97.6719C5.99452 94.5898 6.12148 92.6787 6.32602 92.6787C6.52592 92.6787 6.65755 91.1338 6.65755 88.7837C6.65755 85.6624 6.75632 84.8461 7.15479 84.6756C7.75615 84.4178 7.81749 82.84 7.23768 82.5382C6.90617 82.3658 6.90617 82.2792 7.23768 82.1069C7.76876 81.8302 7.85096 49.0348 7.32054 49.0348C7.13821 49.0348 6.98904 48.369 6.98904 47.5553C6.98904 46.7416 7.11269 46.0759 7.26353 46.0759C8.12446 46.0759 9.15612 13.9484 8.32502 13.0211C7.88743 12.5329 7.88012 10.3141 8.31506 10.0141C8.49739 9.88839 8.64659 9.29624 8.64659 8.6978C8.64659 8.07384 8.95425 7.2668 9.36764 6.80558C10.0118 6.08693 10.3976 6.00999 12.9861 6.08396Z" fill="black"/>
</svg>
