<svg width="78" height="144" viewBox="0 0 78 144" fill="none" xmlns="http://www.w3.org/2000/svg">
<path d="M50.6984 7.60139C50.6984 7.41116 50.9633 7.17496 51.2866 7.07704C51.61 6.97912 52.2281 6.97389 52.66 7.06508C53.3974 7.22056 53.7382 7.45601 54.8874 8.60187C55.1452 8.85899 55.7449 9.06903 56.2205 9.06903C56.7646 9.06903 57.0846 9.27683 57.0846 9.62963C57.0846 10.0004 57.418 10.1902 58.0691 10.1902C58.6102 10.1902 59.2801 9.93796 59.5574 9.62963C60.1442 8.97709 64.143 8.82424 64.143 9.45435C64.143 9.66663 64.4079 9.95141 64.7312 10.0875C65.469 10.398 66.1597 11.1429 66.1597 11.6272C66.1597 11.8305 66.3116 12.0529 66.4975 12.1217C67.0175 12.3145 67.0944 17.7512 66.5799 17.9437C66.3489 18.03 66.1597 18.5775 66.1597 19.1598C66.1597 19.7421 66.3489 20.2888 66.5799 20.3741C66.8938 20.4903 67 22.1198 67 26.8206C67 31.5206 66.8938 33.1508 66.5799 33.2674C66.2531 33.3893 66.1597 36.7775 66.1597 48.5287C66.1597 58.3497 66.0421 63.6339 65.8236 63.6339C65.3399 63.6339 65.4085 64.6635 65.9046 64.8474C66.1991 64.9565 66.1362 65.2084 65.6918 65.7025C65.1288 66.3281 65.0858 66.7818 65.2865 69.9563C65.4206 72.0776 65.6757 73.6286 65.9194 73.8042C66.2283 74.0266 66.2048 74.1866 65.8236 74.4601C65.3951 74.7681 65.3221 76.3478 65.3369 84.9934C65.35 92.5484 65.4579 95.2034 65.757 95.314C66.3506 95.5341 66.3348 116.95 65.7413 117.17C65.4253 117.288 65.2922 119.746 65.1994 127.174C65.1057 134.674 64.9709 137.139 64.6338 137.514C64.1229 138.082 61.4541 138.188 61.4541 137.64C61.4541 137.438 61.076 137.168 60.6138 137.039C60.1517 136.91 59.7735 136.654 59.7735 136.471C59.7735 136.288 58.4075 136.138 56.7381 136.138C54.3496 136.138 53.6609 136.018 53.509 135.577C53.4025 135.269 53.1739 135.017 53.0011 135.017C52.8284 135.017 52.3531 134.671 51.9447 134.249C51.2957 133.577 51.1891 133.026 51.0947 129.857C50.9707 125.686 51.4748 119.341 51.9578 118.995C52.141 118.863 52.3931 115.293 52.5279 110.911C52.661 106.594 52.9087 103.007 53.0784 102.938C53.5702 102.74 53.4656 96.9876 52.9672 96.8018C52.3558 96.5746 52.3558 72.923 52.9672 72.6968C53.2925 72.5761 53.3873 69.599 53.3873 59.4918V46.4422H52.5951C51.8379 46.4422 51.7932 46.5921 51.571 49.8637C51.4433 51.7455 51.1945 53.5842 51.0184 53.9501C50.8426 54.316 50.6984 55.0466 50.6984 55.574C50.6984 56.1013 50.5636 56.533 50.3986 56.533C50.2339 56.533 50.004 56.9534 49.8881 57.4673C49.7721 57.9812 49.5287 58.4016 49.3476 58.4016C49.1661 58.4016 49.0179 59.3146 49.0179 60.4306C49.0179 61.7357 48.838 62.6592 48.5137 63.0198C48.2364 63.3282 48.0095 64.0128 48.0095 64.5417C48.0095 65.1467 47.8226 65.5025 47.5053 65.5025C47.1917 65.5025 47.0011 65.8553 47.0011 66.4368C47.0011 66.9507 46.862 67.3712 46.6916 67.3712C46.5215 67.3712 46.2825 67.8757 46.1609 68.4924C46.0392 69.109 45.8002 69.6136 45.6302 69.6136C45.4597 69.6136 45.3206 70.7067 45.3206 72.0428C45.3206 73.953 45.2127 74.4721 44.8164 74.4721C44.4803 74.4721 44.3122 74.8458 44.3122 75.5933C44.3122 76.2099 44.164 76.7145 43.9825 76.7145C43.8013 76.7145 43.558 77.1349 43.442 77.6488C43.3261 78.1627 43.0962 78.5831 42.9315 78.5831C42.7665 78.5831 42.6316 79.0155 42.6316 79.544C42.6316 80.0728 42.4048 80.7575 42.1275 81.0658C41.8502 81.3742 41.6233 82.119 41.6233 82.7207C41.6233 83.3228 41.4828 83.8154 41.3114 83.8154C41.14 83.8154 40.8956 84.7404 40.7686 85.8709C40.6415 87.0014 40.4035 87.9264 40.2402 87.9264C40.0765 87.9264 39.9427 88.5872 39.9427 89.3948C39.9427 90.2021 39.7158 91.1151 39.4386 91.4234C39.1613 91.7318 38.9344 92.5708 38.9344 93.2876C38.9344 94.0048 38.7569 94.657 38.5405 94.7373C38.3193 94.8192 38.0803 95.8985 37.996 97.1976C37.9129 98.4705 37.7123 99.5121 37.5496 99.5121C37.3869 99.5121 37.2538 100.19 37.2538 101.019C37.2538 102.013 37.0824 102.598 36.7497 102.74C36.4724 102.859 36.2455 103.358 36.2455 103.85C36.2455 104.396 36.0488 104.744 35.7413 104.744C35.3773 104.744 35.2371 105.16 35.2371 106.239C35.2371 107.061 35.0859 107.734 34.901 107.734C34.7161 107.734 34.5649 108.412 34.5649 109.241C34.5649 110.235 34.3935 110.82 34.0607 110.963C33.7834 111.081 33.5565 111.58 33.5565 112.072C33.5565 112.618 33.3599 112.966 33.0524 112.966C32.7388 112.966 32.5482 113.319 32.5482 113.901C32.5482 114.415 32.4144 114.835 32.2507 114.835C32.0874 114.835 31.8494 115.76 31.7224 116.891C31.5953 118.021 31.3694 118.946 31.2198 118.946C31.0706 118.946 30.8807 119.988 30.7977 121.261C30.7133 122.56 30.4744 123.639 30.2532 123.721C30.0367 123.801 29.8593 124.255 29.8593 124.73C29.8593 125.205 29.6324 125.69 29.3551 125.809C29.0778 125.927 28.8509 126.449 28.8509 126.97C28.8509 127.49 28.6997 127.916 28.5148 127.916C28.3299 127.916 28.1787 128.42 28.1787 129.037C28.1787 129.784 28.0106 130.158 27.6745 130.158C27.3609 130.158 27.1703 130.511 27.1703 131.092C27.1703 131.674 26.9798 132.027 26.6662 132.027C26.3889 132.027 26.162 132.193 26.162 132.396C26.162 132.599 25.557 132.873 24.8176 133.004C24.0781 133.136 23.4731 133.376 23.4731 133.537C23.4731 133.699 21.7081 133.888 19.5513 133.957C16.7962 134.045 15.5878 134.221 15.49 134.549C15.2799 135.252 12.7174 135.165 12.7174 134.456C12.7174 134.148 12.5544 133.895 12.3554 133.895C11.7601 133.895 10.0285 131.763 10.0264 131.028C10.0251 130.652 9.79822 129.863 9.52226 129.275C8.85877 127.86 8.8672 123.5 9.53507 122.519C9.88698 122.001 10.0285 120.795 10.0285 118.314C10.0285 116.244 10.1646 114.835 10.3646 114.835C10.5673 114.835 10.7007 113.278 10.7007 110.911C10.7007 108.544 10.5673 106.987 10.3646 106.987C10.1612 106.987 10.0285 105.391 10.0285 102.947C10.0285 99.9737 9.89807 98.7161 9.53507 98.182C8.9035 97.254 8.79459 83.7324 9.40498 82.0645C9.62076 81.4751 9.86075 78.0128 9.9505 74.1918C10.0386 70.4406 10.2433 67.3712 10.4056 67.3712C10.5679 67.3712 10.7007 63.5031 10.7007 58.7753C10.7007 53.5745 10.574 50.1795 10.3804 50.1795C10.1962 50.1795 9.99856 47.5959 9.91587 44.1064C9.83688 40.7663 9.59051 35.6795 9.36867 32.8025C9.07625 29.0117 9.06382 27.0055 9.32296 25.5147C9.51993 24.3834 9.7811 20.929 9.90311 17.8387C10.0981 12.911 10.0574 12.1445 9.57269 11.6056C9.23489 11.2296 9.02013 10.379 9.02013 9.41548V7.83983L11.6183 8.05846C13.0475 8.17843 14.2699 8.45499 14.3351 8.67288C14.4101 8.92253 15.9444 9.06903 18.4835 9.06903C21.2329 9.06903 22.6617 9.2174 22.9813 9.5362C23.2388 9.79333 23.6818 10.2201 23.9655 10.4851C24.2492 10.7505 24.4815 11.4512 24.4815 12.0424C24.4815 12.6341 24.6707 13.1879 24.9016 13.2735C25.4313 13.4697 25.4699 16.8393 24.9466 17.2112C24.7184 17.3737 24.5097 19.3078 24.4132 22.1541C24.3231 24.8069 24.0748 27.204 23.8388 27.694C23.2634 28.8895 23.4587 39.0259 24.0613 39.2486C24.7073 39.4871 24.6317 44.0556 23.9773 44.3351C23.5474 44.5182 23.4731 45.9515 23.4731 54.0607C23.4731 61.3365 23.3743 63.6084 23.0529 63.7288C22.7245 63.8517 22.6594 66.694 22.7545 76.747C22.8217 83.8206 23.0106 89.6643 23.1746 89.7327C23.339 89.8015 23.4751 91.4832 23.4778 93.47C23.4801 95.4571 23.577 97.4756 23.6922 97.9555C24.0351 99.3783 24.4704 98.1151 24.4764 95.6814C24.4791 94.4993 24.6129 93.5324 24.7739 93.5324C24.9345 93.5324 25.1466 92.739 25.2451 91.7695C25.3432 90.7997 25.5899 89.945 25.7929 89.8695C25.996 89.7943 26.162 89.002 26.162 88.1088C26.162 87.1637 26.3728 86.2506 26.6662 85.9243C26.9818 85.5734 27.1703 84.6548 27.1703 83.4682C27.1703 82.4258 27.3186 81.573 27.5001 81.573C27.6813 81.573 27.9246 81.1525 28.0405 80.6387C28.1565 80.1248 28.3864 79.7043 28.5511 79.7043C28.7161 79.7043 28.8509 79.2118 28.8509 78.6097C28.8509 78.008 29.0778 77.2631 29.3551 76.9548C29.6324 76.6465 29.8593 76.149 29.8593 75.8497C29.8593 75.5499 30.0851 74.8234 30.3614 74.2344C30.6374 73.6458 30.8643 72.5335 30.8656 71.7625C30.8666 70.9919 31.0159 70.361 31.1974 70.361C31.3785 70.361 31.6218 69.9406 31.7378 69.4267C31.8538 68.9128 32.0837 68.4924 32.2484 68.4924C32.4134 68.4924 32.5482 67.9998 32.5482 67.3977C32.5482 66.796 32.7751 66.0512 33.0524 65.7428C33.3297 65.4345 33.5565 64.7498 33.5565 64.221C33.5565 63.6925 33.6944 63.2601 33.8631 63.2601C34.0318 63.2601 34.2718 62.5874 34.3968 61.7652C34.5219 60.943 34.7619 60.2703 34.9306 60.2703C35.0993 60.2703 35.2371 59.1891 35.2371 57.8676C35.2371 56.2302 35.3978 55.2866 35.7413 54.9046C36.0186 54.5963 36.2455 53.9116 36.2455 53.3828C36.2455 52.8543 36.3846 52.4219 36.5551 52.4219C36.7251 52.4219 36.9641 51.9174 37.0858 51.3007C37.2074 50.6841 37.4464 50.1795 37.6165 50.1795C37.7869 50.1795 37.926 49.8379 37.926 49.4205C37.926 49.0026 38.1529 48.5643 38.4302 48.4462C38.7075 48.3277 38.9344 47.8426 38.9344 47.3676C38.9344 46.8929 39.1048 46.4415 39.3132 46.3641C39.5216 46.2867 39.7676 45.3479 39.8601 44.2775C39.9525 43.2068 40.1481 42.3312 40.295 42.3312C40.4415 42.3312 40.6613 41.8266 40.783 41.21C40.9047 40.5933 41.1437 40.0888 41.3137 40.0888C41.4841 40.0888 41.6233 39.5181 41.6233 38.8207C41.6233 38.0381 41.8162 37.4704 42.1275 37.3374C42.4602 37.1953 42.6316 36.6101 42.6316 35.6156C42.6316 34.787 42.7618 34.1091 42.9211 34.1091C43.0801 34.1091 43.3042 33.2271 43.4188 32.1492C43.5338 31.0714 43.7819 30.1322 43.9701 30.0627C44.1583 29.9928 44.3169 28.9826 44.323 27.818C44.3294 26.5515 44.532 25.4086 44.8271 24.9747C45.0984 24.5755 45.3206 23.7769 45.3206 23.1995C45.3206 22.6221 45.4718 22.1497 45.6567 22.1497C45.8416 22.1497 45.9928 21.7292 45.9928 21.2153C45.9928 20.7014 45.8416 20.281 45.6567 20.281C45.4718 20.281 45.3206 19.8605 45.3206 19.3467C45.3206 18.8328 45.4597 18.4123 45.6302 18.4123C45.8002 18.4123 46.0392 17.9078 46.1609 17.2911C46.2825 16.6745 46.5215 16.1699 46.6916 16.1699C46.862 16.1699 47.0011 15.9177 47.0011 15.6093C47.0011 15.301 47.228 15.0487 47.5053 15.0487C47.8576 15.0487 48.0095 14.6541 48.0095 13.7407C48.0095 13.0213 48.154 12.4326 48.3305 12.4326C48.507 12.4326 48.7506 11.844 48.8719 11.1246C48.9933 10.4051 49.2272 9.8165 49.3913 9.8165C49.5556 9.8165 49.6901 9.39605 49.6901 8.88217C49.6901 8.30064 49.8807 7.94783 50.1942 7.94783C50.4715 7.94783 50.6984 7.79199 50.6984 7.60139Z" fill="black"/>
</svg>
