<svg width="113" height="144" viewBox="0 0 113 144" fill="none" xmlns="http://www.w3.org/2000/svg">
<path d="M17.7221 5.99554C18.103 5.86544 18.4146 5.59243 18.4146 5.38918C18.4146 4.73267 21.1286 4.96118 21.7358 5.6686C22.2042 6.215 22.2928 6.77913 22.2928 9.21964C22.2928 11.2058 22.402 12.1704 22.6391 12.2778C22.8823 12.3876 23.0131 13.7432 23.0785 16.8342C23.1297 19.2539 23.2854 21.234 23.4247 21.234C23.8411 21.234 23.7494 35.468 23.3317 35.6576C22.8596 35.8718 22.8754 42.4268 23.3483 42.6413C23.8162 42.8536 23.8087 50.5247 23.3406 50.737C22.9331 50.9222 22.9974 55.6697 23.4101 55.8631C23.5575 55.9325 23.6779 56.6414 23.6779 57.439C23.6779 58.2365 23.8649 59.1434 24.0935 59.4545C24.5555 60.0835 24.6671 62.7137 24.2319 62.7137C24.0796 62.7137 23.9549 62.9735 23.9549 63.291C23.9549 63.6089 23.7679 63.9664 23.5394 64.0855C23.2131 64.256 23.1239 65.0234 23.1239 67.6562C23.1239 69.6404 23.2369 71.0096 23.4009 71.0096C23.8101 71.0096 23.7616 76.9424 23.3507 77.1286C22.8912 77.3372 23.0114 86.1256 23.4801 86.5792C23.7425 86.8334 23.7402 86.9469 23.4701 87.0958C23.2759 87.2033 23.1239 87.936 23.1239 88.7641C23.1239 90.088 23.1956 90.2411 23.8164 90.2411C24.1973 90.2411 24.5089 90.0594 24.5089 89.8372C24.5089 89.6148 24.6959 89.1785 24.9245 88.8674C25.153 88.5563 25.34 87.8048 25.34 87.1976C25.34 86.5902 25.4646 86.0932 25.617 86.0932C25.7694 86.0932 25.894 85.6689 25.894 85.1504C25.894 84.5637 26.0511 84.2077 26.3095 84.2077C26.6192 84.2077 26.7273 83.7518 26.734 82.4165C26.7387 81.4312 26.9257 80.2958 27.1495 79.8934C27.3985 79.4447 27.5561 78.3131 27.5561 76.971C27.5561 75.7662 27.6782 74.7805 27.8278 74.7805C27.9771 74.7805 28.1778 74.3563 28.2734 73.8378C28.369 73.3193 28.5584 72.8951 28.6942 72.8951C28.8302 72.8951 28.9411 72.4708 28.9411 71.9523C28.9411 71.3656 29.0982 71.0096 29.3567 71.0096C29.6309 71.0096 29.7722 70.6359 29.7722 69.9097C29.7722 69.3048 29.8961 68.7535 30.0476 68.6841C30.1988 68.6151 30.4046 66.9891 30.5046 65.0705C30.6043 63.1519 30.7922 61.5824 30.9219 61.5824C31.0513 61.5824 31.1573 60.9885 31.1573 60.2626C31.1573 59.341 31.2825 58.9428 31.5728 58.9428C31.8263 58.9428 31.9883 58.591 31.9883 58.0404C31.9883 57.5442 32.1753 57.0404 32.4038 56.9209C32.6324 56.8017 32.8193 56.2745 32.8193 55.7493C32.8193 55.2244 32.944 54.7948 33.0964 54.7948C33.2487 54.7948 33.3734 53.8736 33.3734 52.7476C33.3734 51.4309 33.5216 50.4991 33.7889 50.1352C34.0174 49.8241 34.2044 48.9515 34.2044 48.1958C34.2044 47.4401 34.3914 46.5676 34.62 46.2565C34.8485 45.9454 35.0354 45.1938 35.0354 44.5867C35.0354 43.9792 35.1601 43.4822 35.3125 43.4822C35.4648 43.4822 35.5895 43.058 35.5895 42.5395C35.5895 41.9528 35.7467 41.5968 36.0051 41.5968C36.3198 41.5968 36.4207 41.133 36.4207 39.6846C36.4207 38.4873 36.576 37.5604 36.8361 37.2063C37.1018 36.8447 37.2517 35.9141 37.2517 34.6252C37.2517 33.4653 37.3841 32.5493 37.5639 32.4679C37.7356 32.3898 37.9384 31.4426 38.0146 30.3626C38.0908 29.2822 38.2462 28.3987 38.3597 28.3987C38.4733 28.3987 38.6286 27.5152 38.7048 26.4348C38.781 25.3549 38.9839 24.4076 39.1556 24.3295C39.3273 24.2515 39.4678 23.5373 39.4678 22.7424C39.4678 21.9475 39.6082 21.2333 39.78 21.1552C39.9517 21.0772 40.1545 20.1299 40.2307 19.0499C40.3068 17.9696 40.4781 17.0861 40.611 17.0861C41.0099 17.0861 40.9086 11.1409 40.5066 10.9584C39.9844 10.7216 40.0437 6.60039 40.5758 6.1426C40.8044 5.94576 41.6457 5.78248 42.4457 5.77909C43.5557 5.77494 43.9 5.9073 43.9 6.33906C43.9 6.65016 44.0335 6.9047 44.1966 6.9047C44.3601 6.9047 44.6805 6.65016 44.909 6.33906C45.2121 5.92653 45.9506 5.77343 47.6363 5.77343C49.2261 5.77343 49.992 5.62637 50.0887 5.30207C50.1898 4.96232 50.2929 4.94799 50.458 5.25117C50.5837 5.4827 50.9675 5.79078 51.3101 5.93671C51.6528 6.08227 51.9334 6.35943 51.9334 6.55287C51.9334 6.74632 52.1104 6.9047 52.327 6.9047C52.5433 6.9047 98.16 4.8941 98.2603 5.51629C98.3606 6.13849 98.5576 6.64755 98.6977 6.64755C98.8432 6.64755 98.9529 9.40482 98.9529 13.058C98.9529 17.0804 98.8495 19.4685 98.6759 19.4685C98.2916 19.4685 98.3022 30.6745 98.6864 30.8487C98.8717 30.9328 99.0351 35.1007 99.1462 42.5701C99.2409 48.9447 99.4232 54.1606 99.5512 54.1606C99.6792 54.1606 99.7839 55.0939 99.7839 56.2346C99.7839 57.3753 99.9086 58.3086 100.061 58.3086C100.213 58.3086 100.338 59.157 100.338 60.194C100.338 61.231 100.213 62.0795 100.061 62.0795C99.6709 62.0795 99.7126 65.3782 100.105 65.5558C100.583 65.773 100.608 81.3724 100.13 81.5919C99.8684 81.7122 99.7839 83.6206 99.7839 89.4183C99.7839 95.2168 99.8684 97.1241 100.13 97.2433C100.396 97.3647 100.476 99.9108 100.476 108.272C100.476 116.633 100.556 119.18 100.823 119.301C101.013 119.389 101.169 120.045 101.169 120.76C101.169 121.475 101.356 122.67 101.584 123.414C101.863 124.323 102 126.056 102 128.681C102 131.909 101.927 132.595 101.584 132.595C101.356 132.595 101.169 132.849 101.169 133.161C101.169 133.538 100.892 133.726 100.338 133.726C99.8809 133.726 99.5069 133.896 99.5069 134.103C99.5069 134.316 53.3647 137 52.3489 137C51.3586 137 50.5483 136.852 50.5483 136.671C50.5483 136.49 50.0497 136.234 49.4403 136.101C48.7233 135.945 48.3322 135.662 48.3322 135.299C48.3322 134.99 48.2101 134.737 48.0605 134.737C47.9112 134.737 47.7107 134.313 47.6151 133.795C47.5195 133.276 47.33 132.852 47.1943 132.852C47.0577 132.852 46.9472 129.475 46.9472 125.31C46.9472 120.534 47.0488 117.769 47.2242 117.769C47.6591 117.769 47.5915 106.576 47.1549 106.299C46.8779 106.123 46.8779 106.035 47.1549 105.859C47.5666 105.597 47.6217 104.57 47.2242 104.57C47.051 104.57 46.9472 102.322 46.9472 98.5774C46.9472 93.598 46.8768 92.5478 46.5316 92.3671C46.176 92.1816 46.1161 90.628 46.1161 81.5798C46.1161 74.7843 46.0172 71.0096 45.8391 71.0096C45.664 71.0096 45.5621 68.37 45.5621 63.845C45.5621 59.3199 45.664 56.6803 45.8391 56.6803C45.9915 56.6803 46.1161 56.2561 46.1161 55.7376C46.1161 55.1508 45.959 54.7948 45.7006 54.7948C45.472 54.7948 45.285 54.5403 45.285 54.2292C45.285 53.9181 45.1604 53.6636 45.008 53.6636C44.8557 53.6636 44.7291 53.0274 44.7268 52.2495C44.7244 51.472 44.611 50.596 44.4747 50.303C44.1065 49.5107 43.3528 50.6729 43.1542 52.34C43.0675 53.0678 42.9027 53.6636 42.788 53.6636C42.6733 53.6636 42.5262 54.7982 42.4614 56.1848C42.3918 57.6701 42.208 58.7678 42.0138 58.8561C41.8324 58.9383 41.6839 59.4157 41.6839 59.9168C41.6839 60.418 41.5618 60.8283 41.4122 60.8283C41.2629 60.8283 41.0622 61.2525 40.9666 61.771C40.8711 62.2895 40.6815 62.7137 40.5458 62.7137C40.4098 62.7137 40.2988 63.041 40.2988 63.4411C40.2988 63.8408 40.1118 64.4227 39.8833 64.7338C39.6331 65.0743 39.4678 65.9966 39.4678 67.0502C39.4678 68.1038 39.3024 69.0262 39.0523 69.3667C38.8237 69.6778 38.6368 70.3444 38.6368 70.8479C38.6368 71.3516 38.5264 71.7638 38.3918 71.7638C38.2575 71.7638 38.094 72.8985 38.0291 74.285C37.9596 75.7704 37.7758 76.8681 37.5816 76.9563C37.4001 77.0385 37.2517 77.7704 37.2517 78.5827C37.2517 79.6442 37.1348 80.0597 36.8361 80.0597C36.5746 80.0597 36.4207 80.4187 36.4207 81.0292C36.4207 81.5628 36.2337 82.2536 36.0051 82.5647C35.7766 82.8758 35.5895 83.7971 35.5895 84.6116C35.5895 85.4265 35.4648 86.0932 35.3125 86.0932C35.1601 86.0932 35.0354 86.5902 35.0354 87.1976C35.0354 87.8048 34.8485 88.5563 34.62 88.8674C34.3914 89.1785 34.2044 89.8693 34.2044 90.4029C34.2044 91.0134 34.0504 91.3724 33.7889 91.3724C33.5304 91.3724 33.3734 91.7284 33.3734 92.3151C33.3734 92.8336 33.2624 93.2578 33.1264 93.2578C32.9907 93.2578 32.8012 93.682 32.7056 94.2005C32.61 94.719 32.4094 95.1433 32.26 95.1433C32.1082 95.1433 31.9883 96.3088 31.9883 97.7829C31.9883 99.878 31.9025 100.422 31.5728 100.422C31.3443 100.422 31.1573 100.677 31.1573 100.988C31.1573 101.299 31.0463 101.554 30.9103 101.554C30.7746 101.554 30.585 101.978 30.4895 102.496C30.3939 103.015 30.1932 103.439 30.0439 103.439C29.8943 103.439 29.7722 103.845 29.7722 104.342C29.7722 104.838 29.5852 105.342 29.3567 105.461C29.1281 105.58 28.9411 105.865 28.9411 106.094C28.9411 106.323 28.7542 106.764 28.5257 107.075C28.2971 107.387 28.1101 108.053 28.1101 108.557C28.1101 109.06 27.9855 109.473 27.8331 109.473C27.6808 109.473 27.5561 110.373 27.5561 111.475C27.5561 112.651 27.3886 113.778 27.1495 114.208C26.8473 114.753 26.7403 116.07 26.734 119.34C26.7279 122.324 26.622 123.786 26.4049 123.885C26.1932 123.98 26.0399 125.72 25.9526 129.007L25.8207 133.983H21.8702C18.6144 133.983 17.892 134.083 17.7604 134.549C17.5144 135.422 15.5916 135.279 14.7866 134.329C14.127 133.55 14.121 133.475 14.121 126.347C14.121 120.926 14.2063 119.112 14.4672 118.994C14.7221 118.878 14.8135 117.452 14.8135 113.589C14.8135 110.342 14.919 108.341 15.0905 108.341C15.2467 108.341 15.3675 107.273 15.3675 105.89C15.3675 104.507 15.2467 103.439 15.0905 103.439C14.6511 103.439 14.7165 77.9039 15.1561 77.7045C15.6572 77.4771 15.6606 53.233 15.1598 53.0044C14.9088 52.8902 14.8135 51.6201 14.8135 48.3934C14.8135 44.6897 14.74 43.9015 14.3774 43.7122C14.0023 43.5165 13.9541 42.7111 14.0311 37.9522C14.096 33.9509 14.2168 32.3766 14.4672 32.2631C14.7237 32.1473 14.8135 30.6469 14.8135 26.482C14.8135 22.9833 14.9182 20.8569 15.0905 20.8569C15.2429 20.8569 15.3675 20.0085 15.3675 18.9715C15.3675 17.9345 15.2429 17.0861 15.0905 17.0861C14.9196 17.0861 14.8135 15.1377 14.8135 11.9954V6.9047H15.9216C16.531 6.9047 17.0296 6.75348 17.0296 6.56833C17.0296 6.38356 17.3412 6.12563 17.7221 5.99554Z" fill="black" stroke="black" stroke-width="6"/>
</svg>
