<svg width="71" height="144" viewBox="0 0 71 144" fill="none" xmlns="http://www.w3.org/2000/svg">
<path d="M14.1331 11.0199C14.4934 11.0199 14.7883 10.7968 14.7883 10.5241C14.7883 9.88043 22.8806 9.80275 23.2825 10.4414C23.4832 10.7597 26.8199 10.8546 33.3542 10.8546C39.8887 10.8546 41.8595 10.9495 41.9495 11.2678C42.0935 11.7782 46.4921 11.8582 46.4921 11.3505C46.4921 11.1561 47.4705 11.0199 48.8682 11.0199C50.2659 11.0199 51.2443 11.1561 51.2443 11.3505C51.2443 11.5323 51.7385 11.681 52.3426 11.681C52.9464 11.681 53.6294 11.9042 53.86 12.1769C54.1113 12.4741 54.795 12.6728 55.566 12.6728C56.4519 12.6728 56.9028 12.8271 57.0135 13.1686C57.1021 13.4413 57.2958 13.6645 57.444 13.6645C58.3475 13.6645 59.4036 16.9265 58.8437 17.9866C58.6458 18.3615 58.5124 19.9463 58.5124 21.9241C58.5124 23.9104 58.4006 25.2344 58.2328 25.2344C58.0643 25.2344 57.9533 26.6119 57.9533 28.7054C57.9533 30.7989 58.0643 32.1763 58.2328 32.1763C58.6088 32.1763 58.6116 42.3295 58.2357 42.4792C58.0833 42.5397 57.8767 43.5192 57.7763 44.6553C57.6763 45.7918 57.4862 46.7214 57.3545 46.7214C57.2226 46.7214 57.1147 48.442 57.1147 50.5448C57.1147 52.6475 57.0034 54.6184 56.8673 54.9248C56.7311 55.2309 56.5307 56.2623 56.4217 57.217C56.2545 58.6827 56.2928 58.9525 56.6691 58.9525C57.0641 58.9525 57.1136 59.8073 57.1057 66.4729C57.0985 72.5617 57.0188 74.1157 56.6864 74.635C56.0809 75.5821 56.0885 85.4635 56.6953 86.0592C57.0408 86.3983 57.1147 87.5642 57.1147 92.6834C57.1147 97.36 57.2011 98.9302 57.4641 99.034C58.0143 99.2508 58.0584 130.184 57.5094 130.833C57.2925 131.09 57.1147 131.459 57.1147 131.654C57.1147 131.884 56.0457 132.008 54.0596 132.008C51.7167 132.008 50.9069 132.124 50.5854 132.504C50.3361 132.799 49.6526 133 48.8989 133C47.7791 133 47.4842 132.83 46.3629 131.542L45.0944 130.084V124.93C45.0944 122.096 45.2006 119.777 45.3303 119.777C45.4603 119.777 45.6465 117.584 45.7443 114.903C45.8477 112.079 46.0423 109.982 46.2072 109.917C46.584 109.769 46.5893 103.579 46.2125 103.579C46.0588 103.579 45.933 103.207 45.933 102.753C45.933 102.298 46.0588 101.926 46.2125 101.926C46.3663 101.926 46.4921 101.173 46.4921 100.252C46.4921 99.3308 46.6145 98.3071 46.7641 97.9765C47.1784 97.0605 47.4341 69.7608 47.0674 65.5688C46.9008 63.6624 46.6838 59.1997 46.5857 55.6517C46.4736 51.5907 46.2936 49.0995 46.1004 48.9276C45.8821 48.7336 45.8944 48.606 46.1426 48.487C46.3652 48.3802 46.4921 47.6298 46.4921 46.4222C46.4921 45.379 46.6895 43.8405 46.9304 43.0038C47.4537 41.1877 47.3713 38.0602 46.5117 27.1352C46.5008 26.999 46.3034 26.8872 46.0727 26.8872C45.8421 26.8872 45.6535 26.7385 45.6535 26.5567C45.6535 26.0863 44.3251 26.1454 44.1909 26.6218C44.1107 26.9061 42.8701 27.0175 39.7831 27.0175C36.6961 27.0175 35.4555 26.9061 35.3753 26.6218C35.2447 26.158 33.6331 26.0793 33.6331 26.5368C33.6331 26.7074 33.1616 26.8935 32.5849 26.95L31.5366 27.0525L31.4605 33.4837C31.4077 37.9335 31.2842 39.988 31.0588 40.1527C30.8355 40.316 30.6946 42.4756 30.6099 47.0272C30.5422 50.677 30.377 53.6633 30.2428 53.6633C30.1089 53.6633 29.9991 54.9278 29.9991 56.4732C29.9991 58.126 30.1143 59.283 30.2786 59.283C30.6647 59.283 30.6482 65.1427 30.2619 65.2951C30.0776 65.3675 29.8669 67.9737 29.7047 72.1818C29.3824 80.5393 29.1845 83.084 28.8561 83.084C28.5212 83.084 28.5248 85.6406 28.86 85.7838C29.0073 85.8466 29.1574 90.0544 29.2094 95.5749C29.2874 103.89 29.241 105.305 28.8809 105.6C28.5656 105.858 28.5483 105.985 28.8111 106.111C29.253 106.323 29.3215 117.133 28.8809 117.133C28.7143 117.133 28.6014 118.4 28.6014 120.273C28.6014 122.146 28.7143 123.413 28.8809 123.413C29.0495 123.413 29.1605 124.791 29.1605 126.884C29.1605 129.75 29.0872 130.355 28.7412 130.355C28.5105 130.355 28.3219 130.515 28.3219 130.709C28.3219 131.542 29.3209 132.008 25.9656 132.008C24.0621 132.008 22.5047 131.86 22.5047 131.678C22.5047 131.491 19.1728 131.347 16.9295 131.347C14.6861 131.347 12.953 131.491 12.953 131.678C12.953 131.86 12.2648 132.008 11.4236 132.008C10.5824 132.008 9.89416 131.876 9.89416 131.713C9.89416 131.551 9.20591 131.325 8.36473 131.211C7.52355 131.097 6.83536 130.858 6.83536 130.68C6.83536 130.501 6.42236 130.355 5.91765 130.355C5.17924 130.355 5 129.844 5 127.738C5 126.273 5.27158 125.073 5.61662 125.01C6.00449 124.94 6.3801 120.84 6.62726 113.991C6.89154 106.649 7.2403 103.006 7.6924 102.847C8.16407 102.682 8.36473 98.2529 8.36473 87.9996C8.36473 76.6039 8.53298 73.3573 9.12946 73.2496C9.7241 73.1425 9.89416 70.1743 9.89416 59.8929C9.89416 48.5838 10.0269 46.6024 10.8118 46.1783C11.4976 45.8077 11.7294 44.8953 11.7294 42.5658C11.7294 40.0155 11.5625 39.4489 10.8118 39.4489C10.0202 39.4489 9.89416 38.2949 9.89416 31.0468C9.89416 24.6189 10.074 22.6126 10.6589 22.5075C11.2162 22.4077 11.4768 20.9532 11.6206 17.1434C11.8169 11.9544 12.1999 11.0199 14.1331 11.0199Z" fill="black" stroke="black" stroke-width="6"/>
</svg>
