<svg width="547" height="547" viewBox="0 0 547 547" fill="none" xmlns="http://www.w3.org/2000/svg">
<g clip-path="url(#clip0_2762_2)">
<rect width="547" height="547" rx="50" fill="white"/>
<g clip-path="url(#clip1_2762_2)">
<rect width="547" height="547" rx="50" fill="white"/>
<circle cx="134.5" cy="134.5" r="134.5" fill="url(#paint0_radial_2762_2)"/>
<circle cx="411" cy="411" r="136" fill="url(#paint1_radial_2762_2)"/>
<line x1="-1.31134e-07" y1="272.5" x2="547" y2="272.5" stroke="black" stroke-width="3"/>
<line x1="273.5" y1="547" x2="273.5" y2="-6.55671e-08" stroke="black" stroke-width="3"/>
<line x1="273.5" y1="547" x2="273.5" y2="-6.55671e-08" stroke="black" stroke-width="3"/>
<line x1="-1.31134e-07" y1="272.5" x2="547" y2="272.5" stroke="black" stroke-width="3"/>
<circle cx="132.5" cy="411.5" r="136.5" fill="url(#paint2_radial_2762_2)"/>
<circle cx="411.5" cy="134.5" r="136.5" fill="url(#paint3_radial_2762_2)"/>
</g>
<rect x="1.63576" y="1.63576" width="543.728" height="543.728" rx="48.3642" stroke="black" stroke-width="3.27152"/>
</g>
<rect x="1.63576" y="1.63576" width="543.728" height="543.728" rx="48.3642" stroke="black" stroke-width="3.27152"/>
<defs>
<radialGradient id="paint0_radial_2762_2" cx="0" cy="0" r="1" gradientUnits="userSpaceOnUse" gradientTransform="translate(134.5 134.5) rotate(90) scale(134.5)">
<stop offset="0.120192" stop-color="#BA4739"/>
<stop offset="0.389423" stop-color="#CC786E"/>
<stop offset="0.639423" stop-color="#DA9D96"/>
<stop offset="1" stop-color="white"/>
</radialGradient>
<radialGradient id="paint1_radial_2762_2" cx="0" cy="0" r="1" gradientUnits="userSpaceOnUse" gradientTransform="translate(411 411) rotate(90) scale(136)">
<stop offset="0.120192" stop-color="#6C8B9F"/>
<stop offset="0.548077" stop-color="#9FC2D6"/>
<stop offset="1" stop-color="white"/>
</radialGradient>
<radialGradient id="paint2_radial_2762_2" cx="0" cy="0" r="1" gradientUnits="userSpaceOnUse" gradientTransform="translate(132.5 411.5) rotate(90) scale(136.5)">
<stop offset="0.0528846" stop-color="#A7DFFF"/>
<stop offset="0.5625" stop-color="#FF6E5C"/>
<stop offset="1" stop-color="white"/>
</radialGradient>
<radialGradient id="paint3_radial_2762_2" cx="0" cy="0" r="1" gradientUnits="userSpaceOnUse" gradientTransform="translate(411.5 134.5) rotate(90) scale(136.5)">
<stop offset="0.134615" stop-color="#FF6E5C"/>
<stop offset="0.504808" stop-color="#A7DFFF"/>
<stop offset="1" stop-color="white"/>
</radialGradient>
<clipPath id="clip0_2762_2">
<rect width="547" height="547" rx="50" fill="white"/>
</clipPath>
<clipPath id="clip1_2762_2">
<rect width="547" height="547" rx="50" fill="white"/>
</clipPath>
</defs>
</svg>
