<svg width="184" height="210" viewBox="0 0 184 210" fill="none" xmlns="http://www.w3.org/2000/svg">
<rect x="166.078" y="26" width="167.043" height="167.043" transform="rotate(83.841 166.078 26)" fill="#E09E9B"/>
<rect width="28" height="68.7273" transform="matrix(-1 0 0 1 106.001 0)" fill="#FFEAD7"/>
<path d="M33.2812 109.765L40.8083 108.838L41.0694 110.958L35.8529 111.601L37.0588 121.391L34.7483 121.675L33.2812 109.765ZM42.9342 108.576L45.2686 108.289L45.5004 110.171C45.8729 109.399 46.393 108.779 47.0606 108.31C47.7442 107.839 48.5385 107.548 49.4437 107.436C50.2535 107.336 51.0274 107.402 51.7652 107.634C52.517 107.847 53.1822 108.209 53.7607 108.718C54.3374 109.211 54.8165 109.829 55.1982 110.572C55.5938 111.297 55.8474 112.112 55.9589 113.017C56.0704 113.923 56.0311 114.782 55.8411 115.595C55.6492 116.393 55.3264 117.109 54.8728 117.746C54.4331 118.364 53.8834 118.875 53.2238 119.279C52.5623 119.667 51.8186 119.911 50.9929 120.013C50.0877 120.124 49.2464 120.035 48.469 119.744C47.7074 119.45 47.0524 118.975 46.5039 118.317L47.3225 124.963L44.9881 125.25L42.9342 108.576ZM50.3209 117.895C50.8767 117.827 51.3722 117.661 51.8073 117.398C52.2582 117.133 52.628 116.797 52.9164 116.391C53.2049 115.984 53.4132 115.515 53.5411 114.984C53.6691 114.452 53.6969 113.892 53.6245 113.305C53.5502 112.701 53.3874 112.165 53.1362 111.697C52.8831 111.212 52.5673 110.807 52.1888 110.483C51.8103 110.159 51.3702 109.923 50.8683 109.775C50.3824 109.626 49.8615 109.585 49.3057 109.654C48.7499 109.722 48.2465 109.889 47.7956 110.154C47.3605 110.417 46.9987 110.752 46.7102 111.158C46.4217 111.564 46.2135 112.033 46.0855 112.565C45.9556 113.081 45.9278 113.64 46.0021 114.244C46.0745 114.831 46.2373 115.368 46.4904 115.852C46.7436 116.337 47.0594 116.741 47.4379 117.065C47.8163 117.39 48.2485 117.627 48.7345 117.776C49.2363 117.924 49.7651 117.964 50.3209 117.895ZM62.2946 118.04L56.1882 106.944L58.6417 106.642L63.1097 115.038L65.2398 105.829L67.6932 105.527L63.3157 122.993L60.9575 123.283L62.2946 118.04ZM69.8486 105.261L80.1388 103.994L81.6059 115.904L79.2715 116.191L78.0656 106.401L72.4202 107.097L73.6262 116.887L71.3156 117.171L69.8486 105.261ZM83.5032 103.579L93.7934 102.312L95.2605 114.222L92.9261 114.509L91.7202 104.719L86.0749 105.415L87.2808 115.205L84.9702 115.489L83.5032 103.579ZM98.6249 113.807L97.1578 101.897L99.4207 101.618L99.8872 105.406L102.698 105.06C103.333 104.981 103.926 105.013 104.475 105.155C105.022 105.281 105.501 105.504 105.912 105.824C106.32 106.129 106.658 106.514 106.925 106.981C107.192 107.448 107.362 107.983 107.437 108.587C107.509 109.174 107.473 109.735 107.33 110.268C107.2 110.784 106.967 111.248 106.63 111.66C106.308 112.055 105.898 112.387 105.399 112.658C104.916 112.927 104.358 113.101 103.722 113.179L98.6249 113.807ZM108.353 100.518L110.664 100.234L112.131 112.144L109.82 112.428L108.353 100.518ZM100.638 111.504L103.139 111.196C103.854 111.108 104.387 110.857 104.739 110.442C105.089 110.012 105.226 109.488 105.15 108.868C105.074 108.249 104.815 107.781 104.373 107.465C103.931 107.149 103.352 107.034 102.638 107.122L100.137 107.431L100.638 111.504ZM37.371 149.25C37.2282 148.09 37.5524 147.124 38.3437 146.349C39.1488 145.557 40.3644 145.02 41.9902 144.739L45.0483 144.241L45.0278 144.075C44.9202 143.201 44.582 142.55 44.0132 142.12C43.4444 141.69 42.7154 141.53 41.8261 141.64C40.4287 141.812 39.4836 142.581 38.991 143.948L36.968 143.23C37.3251 142.202 37.9011 141.382 38.696 140.768C39.4909 140.154 40.468 139.776 41.6273 139.633C42.3895 139.539 43.094 139.565 43.7407 139.711C44.4033 139.855 44.9823 140.107 45.4778 140.465C45.9733 140.823 46.3763 141.281 46.6869 141.839C46.9955 142.381 47.1939 143.01 47.2819 143.725L48.2091 151.252L45.9462 151.53L45.729 149.768C45.0278 151.273 43.764 152.138 41.9378 152.363C40.6833 152.517 39.6428 152.315 38.8162 151.756C37.9877 151.181 37.506 150.345 37.371 149.25ZM42.1469 150.33C42.6709 150.265 43.1366 150.119 43.5438 149.892C43.9669 149.662 44.3187 149.377 44.5991 149.036C44.8776 148.68 45.0778 148.276 45.1997 147.826C45.3374 147.374 45.376 146.901 45.3153 146.409L45.2684 146.028L42.3561 146.532C41.4072 146.681 40.6993 146.954 40.2322 147.35C39.7631 147.73 39.5658 148.222 39.6401 148.825C39.7086 149.381 39.9609 149.793 40.397 150.062C40.849 150.329 41.4323 150.418 42.1469 150.33ZM49.9575 138.946L52.2919 138.658L52.5237 140.54C52.8962 139.768 53.4162 139.148 54.0839 138.679C54.7674 138.208 55.5618 137.917 56.4669 137.805C57.2768 137.705 58.0507 137.771 58.7885 138.003C59.5403 138.217 60.2054 138.578 60.784 139.087C61.3606 139.58 61.8398 140.198 62.2215 140.941C62.6171 141.666 62.8706 142.481 62.9821 143.387C63.0936 144.292 63.0544 145.151 62.8644 145.964C62.6724 146.762 62.3497 147.479 61.896 148.115C61.4563 148.733 60.9067 149.244 60.2471 149.648C59.5855 150.036 58.8419 150.28 58.0161 150.382C57.111 150.494 56.2697 150.404 55.4923 150.113C54.7307 149.82 54.0757 149.344 53.5271 148.686L54.3457 155.332L52.0114 155.62L49.9575 138.946ZM57.3442 148.264C57.9 148.196 58.3954 148.03 58.8305 147.767C59.2815 147.502 59.6512 147.166 59.9397 146.76C60.2282 146.354 60.4364 145.885 60.5644 145.353C60.6924 144.821 60.7202 144.262 60.6478 143.674C60.5735 143.071 60.4107 142.535 60.1595 142.066C59.9063 141.581 59.5905 141.177 59.2121 140.852C58.8336 140.528 58.3934 140.292 57.8916 140.145C57.4057 139.995 56.8848 139.954 56.329 140.023C55.7732 140.091 55.2698 140.258 54.8188 140.523C54.3837 140.786 54.022 141.121 53.7335 141.527C53.445 141.934 53.2367 142.403 53.1088 142.934C52.9789 143.45 52.9511 144.01 53.0254 144.613C53.0978 145.201 53.2605 145.737 53.5137 146.221C53.7668 146.706 54.0827 147.111 54.4611 147.435C54.8396 147.759 55.2718 147.996 55.7577 148.145C56.2596 148.293 56.7884 148.333 57.3442 148.264ZM71.9962 148.66C71.0911 148.772 70.2378 148.716 69.4364 148.492C68.6351 148.268 67.9223 147.913 67.298 147.425C66.6877 146.92 66.1768 146.306 65.7653 145.583C65.3697 144.858 65.1161 144.043 65.0046 143.137C64.8931 142.232 64.9413 141.38 65.1491 140.581C65.3728 139.779 65.7204 139.067 66.1919 138.445C66.6772 137.805 67.2815 137.279 68.0046 136.868C68.7277 136.456 69.5419 136.195 70.447 136.083C71.3522 135.972 72.2054 136.028 73.0068 136.251C73.8082 136.475 74.514 136.84 75.1243 137.345C75.7486 137.832 76.2585 138.438 76.6541 139.163C77.0656 139.887 77.3271 140.701 77.4386 141.606C77.5501 142.511 77.494 143.364 77.2703 144.166C77.0625 144.965 76.7159 145.685 76.2305 146.325C75.759 146.947 75.1618 147.464 74.4386 147.876C73.7155 148.287 72.9014 148.549 71.9962 148.66ZM71.7292 146.493C72.3009 146.422 72.8043 146.255 73.2394 145.992C73.6903 145.727 74.0601 145.391 74.3486 144.985C74.6529 144.577 74.8691 144.107 74.9971 143.575C75.125 143.043 75.1528 142.484 75.0805 141.896C75.0061 141.293 74.8434 140.757 74.5922 140.288C74.339 139.803 74.0153 139.4 73.6209 139.078C73.2424 138.753 72.8023 138.517 72.3005 138.37C71.8145 138.22 71.2857 138.18 70.714 138.251C70.1423 138.321 69.631 138.489 69.18 138.754C68.745 139.017 68.3752 139.353 68.0709 139.761C67.7824 140.168 67.5741 140.637 67.4462 141.168C67.3162 141.684 67.2885 142.244 67.3628 142.847C67.4352 143.435 67.5979 143.971 67.8511 144.455C68.1042 144.94 68.42 145.344 68.7985 145.669C69.1929 145.991 69.633 146.227 70.119 146.376C70.6208 146.524 71.1575 146.563 71.7292 146.493ZM89.5065 134.074L92.3172 133.728L93.7843 145.638L91.6167 145.905L90.5399 137.163L87.9127 144.692L86.3644 144.883L81.9885 138.216L83.0653 146.958L80.8977 147.225L79.4306 135.315L82.289 134.963L86.8072 141.999L89.5065 134.074ZM95.9905 142.029C95.8477 140.87 96.1719 139.903 96.9631 139.128C97.7683 138.336 98.9838 137.799 100.61 137.518L103.668 137.021L103.647 136.854C103.54 135.981 103.201 135.329 102.633 134.899C102.064 134.47 101.335 134.31 100.446 134.419C99.0481 134.591 98.1031 135.361 97.6104 136.727L95.5875 136.009C95.9446 134.982 96.5206 134.161 97.3155 133.547C98.1104 132.934 99.0875 132.555 100.247 132.412C101.009 132.319 101.713 132.345 102.36 132.491C103.023 132.635 103.602 132.886 104.097 133.244C104.593 133.602 104.996 134.06 105.306 134.618C105.615 135.161 105.813 135.789 105.901 136.504L106.829 144.031L104.566 144.31L104.348 142.547C103.647 144.052 102.383 144.917 100.557 145.142C99.3028 145.297 98.2622 145.094 97.4357 144.535C96.6072 143.96 96.1254 143.125 95.9905 142.029ZM100.766 143.109C101.29 143.045 101.756 142.899 102.163 142.671C102.586 142.442 102.938 142.157 103.219 141.816C103.497 141.459 103.697 141.055 103.819 140.605C103.957 140.153 103.995 139.681 103.935 139.188L103.888 138.807L100.976 139.311C100.027 139.46 99.3187 139.733 98.8516 140.129C98.3826 140.509 98.1852 141.001 98.2596 141.604C98.328 142.16 98.5803 142.572 99.0164 142.841C99.4684 143.108 100.052 143.197 100.766 143.109ZM117.533 130.622L117.794 132.742L113.864 133.226L115.07 143.016L112.759 143.3L111.554 133.51L107.623 133.995L107.362 131.875L117.533 130.622ZM126.382 141.961C125.477 142.072 124.624 142.016 123.822 141.793C123.021 141.569 122.308 141.213 121.684 140.726C121.074 140.221 120.563 139.607 120.151 138.884C119.755 138.159 119.502 137.343 119.39 136.438C119.279 135.533 119.327 134.681 119.535 133.881C119.759 133.08 120.106 132.368 120.578 131.746C121.063 131.106 121.667 130.58 122.39 130.168C123.114 129.757 123.928 129.496 124.833 129.384C125.738 129.273 126.591 129.329 127.393 129.552C128.194 129.776 128.9 130.14 129.51 130.646C130.134 131.133 130.644 131.739 131.04 132.464C131.451 133.187 131.713 134.002 131.824 134.907C131.936 135.812 131.88 136.665 131.656 137.466C131.448 138.266 131.102 138.986 130.616 139.626C130.145 140.248 129.548 140.765 128.824 141.176C128.101 141.588 127.287 141.849 126.382 141.961ZM126.115 139.793C126.687 139.723 127.19 139.556 127.625 139.293C128.076 139.028 128.446 138.692 128.734 138.286C129.039 137.878 129.255 137.408 129.383 136.876C129.511 136.344 129.539 135.785 129.466 135.197C129.392 134.594 129.229 134.058 128.978 133.589C128.725 133.104 128.401 132.701 128.007 132.378C127.628 132.054 127.188 131.818 126.686 131.671C126.2 131.521 125.672 131.481 125.1 131.552C124.528 131.622 124.017 131.79 123.566 132.055C123.131 132.318 122.761 132.654 122.457 133.062C122.168 133.468 121.96 133.937 121.832 134.469C121.702 134.985 121.674 135.544 121.749 136.148C121.821 136.735 121.984 137.271 122.237 137.756C122.49 138.241 122.806 138.645 123.184 138.969C123.579 139.292 124.019 139.528 124.505 139.677C125.007 139.825 125.543 139.864 126.115 139.793ZM133.816 128.616L139.271 127.944C140.367 127.809 141.268 127.988 141.973 128.482C142.693 128.957 143.109 129.656 143.223 130.577C143.297 131.18 143.211 131.723 142.964 132.205C142.731 132.669 142.365 133.036 141.866 133.307C142.561 133.447 143.13 133.748 143.573 134.209C144.017 134.67 144.286 135.282 144.38 136.044C144.503 137.045 144.26 137.889 143.652 138.576C143.043 139.264 142.144 139.681 140.953 139.828L135.284 140.526L133.816 128.616ZM140.551 137.943C141.091 137.876 141.51 137.679 141.808 137.352C142.105 137.01 142.221 136.576 142.156 136.052C142.094 135.544 141.877 135.16 141.506 134.899C141.136 134.638 140.68 134.541 140.14 134.608L136.782 135.021L137.193 138.356L140.551 137.943ZM139.673 132.779C140.182 132.717 140.554 132.534 140.791 132.23C141.025 131.911 141.117 131.545 141.066 131.132C141.016 130.72 140.839 130.395 140.535 130.158C140.23 129.906 139.824 129.811 139.315 129.873L136.195 130.257L136.553 133.164L139.673 132.779Z" fill="white"/>
</svg>
