<svg width="184" height="210" viewBox="0 0 184 210" fill="none" xmlns="http://www.w3.org/2000/svg">
<rect x="166.078" y="26" width="167.043" height="167.043" transform="rotate(83.841 166.078 26)" fill="#E09E9B"/>
<rect width="28" height="68.7273" transform="matrix(-1 0 0 1 106.001 0)" fill="#FFEAD7"/>
<path d="M22.6026 77.6993L23.9269 78.5238C24.3209 78.345 24.7265 78.091 25.1435 77.7617C25.5712 77.4154 26.042 76.9428 26.5562 76.3441C27.0703 75.7454 27.635 74.9897 28.2503 74.077C28.8932 73.1579 29.6269 72.0362 30.4514 70.7119L31.8625 68.4453L41.1073 74.2009L34.3686 85.0246L36.457 86.3248L33.2066 91.5457L31.1691 90.2772L33.2304 86.9664L23.4508 80.8778L21.3896 84.1886L19.3522 82.9202L22.6026 77.6993ZM32.3057 83.7403L37.8552 74.8267L32.7108 71.6238L31.807 73.0755C31.2151 74.0263 30.6611 74.8593 30.145 75.5747C29.646 76.3006 29.1637 76.9427 28.6983 77.5011C28.2435 78.0425 27.8001 78.5086 27.3683 78.8994C26.9641 79.2838 26.547 79.6132 26.1171 79.8874L32.3057 83.7403ZM45.8343 77.1439L47.8972 78.4282L46.5494 80.5929C47.5556 80.112 48.5951 79.8993 49.6679 79.9547C50.7577 80.0206 51.812 80.3707 52.8307 81.0049C53.7135 81.5546 54.4313 82.237 54.9839 83.0523C55.5365 83.8675 55.908 84.7467 56.0983 85.6897C56.2886 86.6328 56.2776 87.6154 56.0653 88.6377C55.8805 89.6535 55.4868 90.6452 54.8843 91.613C54.2818 92.5808 53.5603 93.3802 52.7197 94.0113C51.9067 94.636 51.0351 95.0711 50.1049 95.3165C49.1746 95.5619 48.2218 95.6166 47.2463 95.4805C46.2709 95.3444 45.3417 95.0015 44.4589 94.4518C43.4402 93.8176 42.6607 93.0261 42.1206 92.0772C41.5975 91.139 41.3296 90.1123 41.3171 88.9972L36.7982 96.2555L34.7353 94.9712L45.8343 77.1439ZM45.3838 92.3419C46.0459 92.7541 46.7226 93.0105 47.4139 93.1111C48.1052 93.2116 48.7783 93.1712 49.433 92.9899C50.0984 92.7916 50.7126 92.4672 51.2757 92.0168C51.8664 91.56 52.3732 90.992 52.796 90.3128C53.2294 89.6167 53.5154 88.9113 53.6541 88.1966C53.8097 87.4925 53.8244 86.8067 53.6982 86.1391C53.5825 85.4546 53.327 84.8243 52.9317 84.2483C52.5364 83.6724 52.0076 83.1783 51.3455 82.7661C50.6833 82.3538 50.0066 82.0974 49.3153 81.9968C48.624 81.8963 47.9457 81.9452 47.2804 82.1435C46.6256 82.3248 46.0082 82.6354 45.428 83.0753C44.8649 83.5257 44.3666 84.099 43.9333 84.7951C43.5104 85.4742 43.2159 86.1743 43.0497 86.8954C42.911 87.6101 42.8995 88.3097 43.0152 88.9943C43.1414 89.6618 43.4022 90.2836 43.7975 90.8596C44.1929 91.4355 44.7216 91.9296 45.3838 92.3419ZM59.6328 103.899C58.648 103.286 57.8486 102.564 57.2345 101.734C56.6479 100.898 56.251 100.003 56.0437 99.0492C55.8364 98.0956 55.8251 97.1108 56.0099 96.095C56.1947 95.0792 56.5883 94.0875 57.1909 93.1197C57.8039 92.1349 58.5255 91.3355 59.3554 90.7214C60.196 90.0903 61.0899 89.6573 62.0371 89.4225C63.0119 89.1812 64.004 89.1392 65.0134 89.2964C66.0228 89.4537 66.9944 89.823 67.9282 90.4044C68.828 90.9646 69.5478 91.6248 70.0877 92.3849C70.655 93.1387 71.0327 93.951 71.2208 94.822C71.4089 95.693 71.4094 96.6004 71.2224 97.5441C71.0629 98.4814 70.6977 99.4085 70.1269 100.325C69.9049 100.682 69.6469 101.04 69.3529 101.398L58.9876 94.9451C58.2966 96.2819 58.1155 97.5945 58.4443 98.8828C58.7836 100.154 59.5899 101.186 60.8633 101.979C62.4762 102.983 64.166 103.069 65.9326 102.237L66.8015 104.475C64.3484 105.539 61.9588 105.347 59.6328 103.899ZM66.6881 92.2827C65.5675 91.5851 64.4275 91.3348 63.2682 91.5318C62.1365 91.7225 61.1188 92.2786 60.2152 93.2003L68.4412 98.3217C68.7413 97.8017 68.9185 97.2524 68.9726 96.6735C69.0437 96.1052 68.9961 95.5573 68.8298 95.0297C68.6911 94.4957 68.4369 93.9958 68.0672 93.5301C67.708 93.0473 67.2483 92.6315 66.6881 92.2827ZM76.7237 96.3751L82.3775 99.895C83.4981 100.593 84.2077 101.459 84.5063 102.493C84.8049 103.527 84.6423 104.544 84.0187 105.546C83.617 106.191 83.1122 106.643 82.5042 106.9C81.9237 107.151 81.2879 107.227 80.5966 107.126C81.1828 107.774 81.4968 108.499 81.5385 109.303C81.6077 110.1 81.3886 110.906 80.8812 111.721C80.2153 112.79 79.3164 113.421 78.1847 113.611C77.053 113.802 75.8759 113.517 74.6534 112.756L68.7959 109.109L76.7237 96.3751ZM75.7124 110.941C76.3066 111.311 76.9047 111.448 77.5066 111.351C78.1255 111.266 78.6358 110.9 79.0375 110.255C79.4286 109.627 79.5261 109.016 79.33 108.423C79.1615 107.823 78.7801 107.338 78.1859 106.968L74.3148 104.558L71.8413 108.531L75.7124 110.941ZM79.0603 105.11C79.6206 105.458 80.1624 105.572 80.6859 105.45C81.2093 105.328 81.6296 105.013 81.9467 104.504C82.2532 104.011 82.3456 103.503 82.2239 102.98C82.1127 102.439 81.777 101.995 81.2167 101.646L77.5493 99.3628L75.393 102.826L79.0603 105.11ZM87.1895 121.055C86.2048 120.442 85.4053 119.721 84.7912 118.891C84.2046 118.054 83.8077 117.159 83.6004 116.206C83.3931 115.252 83.3818 114.267 83.5666 113.251C83.7514 112.236 84.1451 111.244 84.7476 110.276C85.3607 109.291 86.0822 108.492 86.9122 107.878C87.7527 107.247 88.6466 106.814 89.5938 106.579C90.5686 106.338 91.5607 106.296 92.5701 106.453C93.5795 106.61 94.5511 106.979 95.4849 107.561C96.3847 108.121 97.1046 108.781 97.6444 109.541C98.2117 110.295 98.5894 111.107 98.7775 111.978C98.9656 112.849 98.9661 113.757 98.7791 114.7C98.6196 115.638 98.2544 116.565 97.6836 117.482C97.4617 117.838 97.2036 118.196 96.9096 118.555L86.5443 112.101C85.8534 113.438 85.6723 114.751 86.001 116.039C86.3403 117.311 87.1466 118.343 88.42 119.135C90.0329 120.14 91.7227 120.226 93.4894 119.394L94.3582 121.631C91.9051 122.695 89.5155 122.503 87.1895 121.055ZM94.2448 109.439C93.1242 108.741 91.9843 108.491 90.825 108.688C89.6932 108.879 88.6755 109.435 87.7719 110.357L95.9979 115.478C96.2981 114.958 96.4752 114.409 96.5293 113.83C96.6004 113.262 96.5528 112.714 96.3865 112.186C96.2478 111.652 95.9936 111.152 95.6239 110.686C95.2648 110.204 94.8051 109.788 94.2448 109.439ZM99.5525 119.423C100.155 118.455 100.863 117.659 101.676 117.034C102.516 116.403 103.41 115.97 104.357 115.735C105.305 115.5 106.283 115.461 107.292 115.619C108.319 115.786 109.324 116.177 110.309 116.79C111.565 117.572 112.486 118.534 113.071 119.676C113.684 120.811 113.929 122.083 113.806 123.49L111.43 123.39C111.628 121.369 110.87 119.825 109.155 118.757C108.476 118.334 107.782 118.067 107.074 117.956C106.366 117.845 105.679 117.889 105.013 118.087C104.359 118.268 103.741 118.579 103.161 119.019C102.581 119.459 102.074 120.027 101.641 120.723C101.218 121.402 100.932 122.107 100.783 122.839C100.644 123.554 100.633 124.253 100.748 124.938C100.874 125.605 101.135 126.227 101.531 126.803C101.943 127.39 102.489 127.894 103.168 128.317C104.034 128.856 104.908 129.118 105.789 129.101C106.688 129.095 107.578 128.801 108.459 128.219L109.639 130.297C108.398 131.079 107.123 131.463 105.813 131.448C104.502 131.433 103.211 131.03 101.937 130.237C100.952 129.624 100.158 128.894 99.5548 128.047C98.9682 127.21 98.5713 126.315 98.364 125.362C98.1567 124.408 98.1454 123.423 98.3302 122.408C98.5425 121.385 98.95 120.39 99.5525 119.423ZM129.253 129.079L121.325 141.812L119.262 140.528L122.877 134.721L116.306 130.631L112.691 136.437L110.628 135.153L118.556 122.419L120.619 123.704L117.496 128.721L124.066 132.811L127.19 127.794L129.253 129.079ZM144.973 138.866L147.036 140.15L139.108 152.884L137.045 151.6L144.973 138.866ZM128.423 143.652L131.326 145.459C132.141 145.967 132.91 146.151 133.633 146.012C134.366 145.856 134.96 145.413 135.414 144.683C135.858 143.97 135.983 143.258 135.789 142.548C135.595 141.838 135.09 141.23 134.275 140.722L131.372 138.915L128.423 143.652ZM125.203 144.227L133.13 131.493L135.193 132.777L132.53 137.056L135.688 139.022C136.35 139.434 136.889 139.911 137.305 140.453C137.722 140.995 138.009 141.575 138.167 142.191C138.325 142.808 138.342 143.443 138.218 144.096C138.122 144.743 137.878 145.38 137.487 146.008C137.106 146.62 136.642 147.12 136.093 147.509C135.573 147.891 135.001 148.148 134.378 148.278C133.772 148.419 133.128 148.431 132.447 148.313C131.794 148.189 131.137 147.921 130.474 147.509L125.203 144.227ZM148.595 159.285C147.61 158.672 146.811 157.951 146.197 157.121C145.61 156.284 145.213 155.389 145.006 154.436C144.799 153.482 144.788 152.497 144.972 151.481C145.157 150.466 145.551 149.474 146.153 148.506C146.766 147.521 147.488 146.722 148.318 146.108C149.158 145.477 150.052 145.044 151 144.809C151.974 144.568 152.966 144.526 153.976 144.683C154.985 144.84 155.957 145.209 156.891 145.791C157.79 146.351 158.51 147.011 159.05 147.771C159.617 148.525 159.995 149.337 160.183 150.208C160.371 151.079 160.372 151.987 160.185 152.931C160.025 153.868 159.66 154.795 159.089 155.712C158.867 156.068 158.609 156.426 158.315 156.785L147.95 150.331C147.259 151.668 147.078 152.981 147.407 154.269C147.746 155.541 148.552 156.573 149.826 157.366C151.439 158.37 153.128 158.456 154.895 157.624L155.764 159.861C153.311 160.925 150.921 160.733 148.595 159.285ZM155.651 147.669C154.53 146.971 153.39 146.721 152.231 146.918C151.099 147.109 150.081 147.665 149.178 148.587L157.404 153.708C157.704 153.188 157.881 152.639 157.935 152.06C158.006 151.492 157.959 150.944 157.792 150.416C157.654 149.882 157.399 149.382 157.03 148.916C156.671 148.434 156.211 148.018 155.651 147.669Z" fill="white"/>
</svg>
