<svg width="116" height="144" viewBox="0 0 116 144" fill="none" xmlns="http://www.w3.org/2000/svg">
<path fill-rule="evenodd" clip-rule="evenodd" d="M74.4218 7.37708C74.4218 7.60672 73.1546 7.75416 71.1838 7.75416C67.6551 7.75416 66.8124 8.17008 66.8124 9.91181C66.8124 10.3843 66.6856 10.7708 66.5306 10.7708C66.3627 10.7708 10.4091 12.1978 10.4091 14.3347C10.4091 17.2676 10.3325 17.9169 9.98638 17.9169C9.35086 17.9169 9.36186 28.6362 9.99823 29.4876C10.3742 29.9907 10.4218 31.5755 10.3505 41.2133C10.2877 49.7138 10.1845 52.3948 9.91592 52.5144C9.37875 52.7534 9.40666 71.8393 9.9441 71.8393C10.3674 71.8393 10.3327 74.8364 9.83585 81.1419C9.47511 85.7227 9.48815 86.1684 9.98135 86.1684C10.3012 86.1684 10.3914 86.6284 10.366 88.1311L9.56363 90.2547C9.40863 90.2547 10.4091 92.4562 10.4091 92.7673C10.4091 93.0784 10.2011 93.3329 9.94665 93.3329C9.54194 93.3329 9.50305 93.7386 9.63522 96.5739C9.71836 98.3567 9.92664 100.003 10.0977 100.232C10.574 100.869 10.4942 106.236 9.99538 107.119C9.6989 107.643 9.57911 108.893 9.57263 111.527C9.56728 113.719 9.44978 115.204 9.28182 115.204C9.11103 115.204 9 116.837 9 119.351C9 121.865 9.11103 123.499 9.28182 123.499C9.43682 123.499 9.56363 124.008 9.56363 124.631C9.56363 125.253 9.43682 125.762 9.28182 125.762C9.1068 125.762 9 127.836 9 131.229C9 134.623 9.1068 136.697 9.28182 136.697C9.43682 136.697 9.56363 136.952 9.56363 137.263C9.56363 137.574 9.75388 137.828 9.98638 137.828C10.2189 137.828 10.4091 137.995 10.4091 138.198C10.4091 138.965 67.732 139.067 69.2336 138.384C70.072 138.002 70.7581 137.556 70.7581 137.392C70.7581 137.227 70.9483 137.093 71.1808 137.093C71.4133 137.093 71.6035 137.262 71.6035 137.47C71.6035 137.677 72.0513 137.847 72.5986 137.847C73.2234 137.847 73.6543 138.057 73.756 138.412C73.9753 139.176 76.1128 139.205 76.1128 138.444C76.1128 138.15 76.2714 137.839 76.465 137.752C76.8878 137.563 76.7987 126.803 76.3726 126.597C75.9464 126.391 76.0369 108.531 76.465 108.34C76.7224 108.226 76.8173 106.88 76.8173 103.344C76.8173 99.8076 76.7224 98.4622 76.465 98.3476C75.9803 98.1315 75.9645 90.4636 76.4484 90.2479C76.646 90.1596 76.8331 89.062 76.9038 87.5767C76.9698 86.1901 77.136 85.0555 77.2727 85.0555C77.4097 85.0555 77.5219 84.3768 77.5219 83.5472V82.0388H81.7493C85.3192 82.0388 85.9767 82.1267 85.9767 82.6045C85.9767 83.06 86.4152 83.1701 88.2313 83.1701C90.0474 83.1701 90.4859 83.06 90.4859 82.6045C90.4859 82.2044 90.7951 82.0355 91.5427 82.0268C92.1242 82.0204 92.846 81.7659 93.1467 81.4612C93.4477 81.1569 94.1768 80.9076 94.7672 80.9076C95.3576 80.9076 95.8406 80.7564 95.8406 80.5713C95.8406 80.3865 96.1577 80.1286 96.5452 79.9985C96.9327 79.8684 97.2498 79.5954 97.2498 79.3921C97.2498 79.1885 97.3718 79.0222 97.5209 79.0222C97.9 79.0222 100.35 75.7857 100.35 75.285C100.35 75.0591 100.54 74.8743 100.773 74.8743C101.005 74.8743 101.195 74.6198 101.195 74.3087C101.195 73.9976 101.32 73.7431 101.472 73.7431C101.624 73.7431 101.828 73.3189 101.925 72.8004C102.022 72.2819 102.201 71.8577 102.323 71.8577C102.444 71.8577 102.623 71.4335 102.72 70.915C102.818 70.3965 103.022 69.9723 103.174 69.9723C103.326 69.9723 103.45 69.5662 103.45 69.07C103.45 68.5737 103.64 68.0699 103.873 67.9504C104.116 67.8256 104.295 67.2622 104.295 66.622C104.295 66.0103 104.454 65.4394 104.648 65.3531C104.918 65.2328 105 62.8753 105 55.267C105 47.659 104.918 45.3007 104.648 45.1801C104.382 45.0609 104.295 43.1902 104.295 37.5389C104.295 31.3899 104.22 29.9547 103.873 29.4902C103.64 29.1791 103.45 28.3367 103.45 27.618C103.45 26.8046 103.29 26.2299 103.027 26.0946C102.729 25.9415 102.604 25.3189 102.604 23.9803C102.604 22.9369 102.494 22.0832 102.359 22.0832C102.224 22.0832 102.032 21.4044 101.933 20.5749C101.833 19.7453 101.627 19.0666 101.474 19.0666C101.321 19.0666 101.195 18.5575 101.195 17.9353C101.195 17.3131 101.071 16.8041 100.919 16.8041C100.767 16.8041 100.563 16.3799 100.466 15.8614C100.368 15.3429 100.19 14.9187 100.068 14.9187C99.9466 14.9187 99.7677 14.4945 99.6704 13.976C99.5732 13.4575 99.369 13.0333 99.2171 13.0333C99.0649 13.0333 98.9407 12.7972 98.9407 12.5084C98.9407 12.2199 98.6237 11.8771 98.2361 11.7471C97.8486 11.617 97.5316 11.344 97.5316 11.1407C97.5316 10.9371 97.2779 10.7708 96.9679 10.7708C96.6579 10.7708 96.4042 10.6045 96.4042 10.4009C96.4042 10.1976 96.0872 9.92463 95.6997 9.79454C95.3122 9.66445 94.9951 9.42613 94.9951 9.2655C94.9951 9.10486 94.1708 8.85523 93.1633 8.71081C92.1557 8.56639 91.3314 8.29225 91.3314 8.10107C91.3314 7.90197 89.05 7.75416 85.9767 7.75416C82.5947 7.75416 80.622 7.61539 80.622 7.37708C80.622 7.16969 80.3049 7 79.9174 7C79.5299 7 79.2129 7.16969 79.2129 7.37708C79.2129 7.58447 78.7056 7.75416 78.0855 7.75416C77.4655 7.75416 76.9583 7.58447 76.9583 7.37708C76.9583 7.16969 76.3875 7 75.69 7C74.9925 7 74.4218 7.16969 74.4218 7.37708ZM82.0311 20.6024C82.0311 20.4105 82.2529 20.1755 82.5243 20.0805C83.6192 19.6978 85.9519 19.8411 86.3089 20.3132C86.5135 20.5839 86.9031 20.918 87.1745 21.0556C87.4459 21.1929 87.6677 21.4802 87.6677 21.6944C87.6677 21.9082 87.8637 22.0832 88.1039 22.0832C88.3437 22.0832 88.8339 22.5074 89.1929 23.0259C89.5523 23.5444 89.99 23.9686 90.1661 23.9686C90.342 23.9686 90.4859 24.2231 90.4859 24.5342C90.4859 24.8453 90.6761 25.0998 90.9086 25.0998C91.1411 25.0998 91.3314 25.3544 91.3314 25.6654C91.3314 25.9765 91.4445 26.2311 91.5828 26.2311C91.7209 26.2311 91.9137 26.6553 92.0109 27.1738C92.1081 27.6923 92.3121 28.1165 92.464 28.1165C92.6162 28.1165 92.7405 28.5226 92.7405 29.0188C92.7405 29.5151 92.9308 30.0188 93.1633 30.1384C93.4544 30.2877 93.586 30.8959 93.586 32.0909C93.586 33.1309 93.7554 34.0532 94.0087 34.3922C94.2412 34.7033 94.4315 35.4405 94.4315 36.0306C94.4315 36.6207 94.5848 37.172 94.7719 37.2554C95.2228 37.4563 95.2638 54.4276 94.8143 54.8182C94.6502 54.9611 94.4416 55.8375 94.3509 56.7662C94.2601 57.6953 94.051 58.5155 93.8862 58.589C93.721 58.6626 93.586 59.2056 93.586 59.7957C93.586 60.3858 93.3958 61.123 93.1633 61.4341C92.9308 61.7452 92.7405 62.1098 92.7405 62.2441C92.7405 62.6521 91.1144 64.6932 90.7895 64.6932C90.6227 64.6932 90.4859 64.9477 90.4859 65.2588C90.4859 65.5699 90.2957 65.8244 90.0632 65.8244C89.8307 65.8244 89.6404 65.9866 89.6404 66.1845C89.6404 66.3825 89.1966 66.6559 88.6541 66.792C88.1115 66.9281 87.6677 67.1906 87.6677 67.3746C87.6677 67.559 86.9701 67.7098 86.1176 67.7098C84.9277 67.7098 84.5676 67.8411 84.5676 68.2754C84.5676 68.7404 84.0688 68.8411 81.7693 68.8411C79.6579 68.8411 78.8676 68.7023 78.5485 68.2754C78.316 67.9644 77.8631 67.7098 77.5419 67.7098C76.8401 67.7098 76.8356 67.6321 76.9481 57.1516C77.0013 52.213 77.1315 49.7095 77.3448 49.5278C77.7608 49.1733 77.6588 28.3661 77.2403 28.1794C76.872 28.015 76.8717 23.9686 77.2401 23.9686C77.3951 23.9686 77.5219 23.5444 77.5219 23.0259C77.5219 22.4392 77.6817 22.0832 77.9447 22.0832C78.1772 22.0832 78.3674 21.8287 78.3674 21.5176C78.3674 21.073 78.7588 20.952 80.1992 20.952C81.2068 20.952 82.0311 20.7947 82.0311 20.6024Z" fill="black"/>
</svg>
