<svg width="182" height="206" viewBox="0 0 182 206" fill="none" xmlns="http://www.w3.org/2000/svg">
<rect width="165.227" height="165.227" transform="matrix(-0.994228 -0.107288 -0.107288 0.994228 182 41.7268)" fill="#BE5245"/>
<rect width="28" height="68.7273" transform="matrix(-1 0 0 1 105 0)" fill="#FFEAD7"/>
<path d="M14.9635 140.599L23.3585 136.884L24.2688 138.942L18.096 141.673L23.2549 153.333L21.0327 154.316L14.9635 140.599ZM35.8024 147.486L24.4653 136.395L26.8247 135.351L35.6891 144.19L34.9179 131.77L37.2498 130.738L38.3942 153.196L36.0897 154.215L35.8024 147.486ZM39.8797 129.575L42.1019 128.591L43.1337 130.923C43.302 129.821 43.7108 128.842 44.36 127.986C45.0275 127.122 45.91 126.447 47.0074 125.962C47.9584 125.541 48.9264 125.331 49.9113 125.333C50.8962 125.335 51.832 125.522 52.7188 125.895C53.6056 126.268 54.4119 126.83 55.1376 127.581C55.8735 128.305 56.4721 129.188 56.9334 130.231C57.3946 131.273 57.6498 132.319 57.6988 133.369C57.758 134.393 57.6274 135.358 57.3071 136.265C56.9868 137.173 56.496 137.991 55.8348 138.721C55.1736 139.451 54.3675 140.026 53.4164 140.447C52.319 140.933 51.2262 141.132 50.1379 141.045C49.0679 140.95 48.0684 140.594 47.1393 139.977L50.5988 147.796L48.3766 148.779L39.8797 129.575ZM52.1921 138.496C52.9054 138.18 53.4981 137.765 53.9701 137.25C54.442 136.735 54.7872 136.156 55.0056 135.512C55.2158 134.851 55.2931 134.16 55.2375 133.441C55.192 132.696 55.0074 131.957 54.6837 131.226C54.352 130.476 53.9296 129.843 53.4167 129.326C52.9221 128.801 52.3633 128.403 51.7403 128.132C51.1093 127.843 50.4445 127.7 49.7459 127.703C49.0473 127.705 48.3414 127.865 47.6281 128.18C46.9148 128.496 46.3222 128.911 45.8502 129.426C45.3782 129.941 45.0371 130.53 44.8268 131.191C44.6084 131.835 44.518 132.52 44.5553 133.247C44.611 133.966 44.8047 134.7 45.1365 135.45C45.4602 136.182 45.8734 136.819 46.3761 137.362C46.889 137.879 47.461 138.282 48.092 138.571C48.715 138.842 49.3758 138.976 50.0743 138.973C50.7729 138.971 51.4788 138.811 52.1921 138.496ZM68.5529 127.812L68.9278 116.722L71.7262 115.484L77.7954 129.202L75.6554 130.148L70.97 119.559L70.5655 130.137L68.8646 130.889L60.7643 124.074L65.4498 134.664L63.3099 135.611L57.2407 121.893L60.0939 120.631L68.5529 127.812ZM79.3611 124.014C78.7785 122.698 78.811 121.437 79.4588 120.231C80.1066 119.026 81.3247 117.973 83.1132 117.073L86.8691 115.181L86.7841 114.989C86.2905 113.874 85.5861 113.146 84.6708 112.808C83.7738 112.461 82.7766 112.53 81.6792 113.016C80.8013 113.404 80.1404 113.937 79.6966 114.615C79.2447 115.274 79.0058 116.069 78.9799 116.999L76.662 116.876C76.7069 115.544 77.0886 114.38 77.8071 113.384C78.5175 112.37 79.522 111.576 80.8205 111.001C81.6802 110.621 82.5141 110.405 83.3224 110.353C84.149 110.294 84.9104 110.384 85.6065 110.622C86.3026 110.861 86.9335 111.249 87.4992 111.786C88.0568 112.305 88.5136 112.966 88.8697 113.771L92.7661 122.578L90.5713 123.549L89.6002 121.354C89.4787 122.414 89.1035 123.345 88.4746 124.148C87.8641 124.943 87.0193 125.58 85.9402 126.057C84.4953 126.696 83.1772 126.831 81.9858 126.462C80.7944 126.092 79.9195 125.276 79.3611 124.014ZM85.3833 123.909C86.0234 123.626 86.5693 123.253 87.0209 122.791C87.4725 122.328 87.8053 121.82 88.0195 121.266C88.2519 120.704 88.3646 120.118 88.3575 119.509C88.3687 118.892 88.2448 118.291 87.9858 117.705L87.7067 117.074L84.1032 118.865C82.9387 119.446 82.1385 120.085 81.7028 120.78C81.2773 121.45 81.2304 122.159 81.5622 122.909C81.8697 123.604 82.3594 124.044 83.0312 124.228C83.7214 124.403 84.5054 124.297 85.3833 123.909ZM102.226 101.99L108.295 115.707L106.073 116.69L103.305 110.435L96.2273 113.567L98.9948 119.822L96.7726 120.805L90.7034 107.088L92.9256 106.105L95.3169 111.509L102.395 108.377L100.004 102.973L102.226 101.99ZM108.615 107.364C108.154 106.322 107.893 105.289 107.834 104.265C107.785 103.215 107.93 102.232 108.269 101.317C108.607 100.402 109.125 99.5712 109.823 98.8251C110.539 98.0709 111.428 97.4591 112.488 96.9897C113.842 96.3909 115.155 96.1707 116.428 96.3292C117.711 96.4613 118.9 96.974 119.996 97.8673L118.576 99.7748C117.016 98.4746 115.313 98.2332 113.466 99.0505C112.734 99.3742 112.123 99.7976 111.633 100.321C111.143 100.844 110.793 101.436 110.582 102.098C110.364 102.741 110.273 103.426 110.311 104.153C110.348 104.88 110.533 105.619 110.865 106.369C111.188 107.1 111.611 107.734 112.132 108.269C112.644 108.785 113.216 109.188 113.847 109.478C114.47 109.749 115.131 109.883 115.83 109.88C116.547 109.869 117.271 109.702 118.002 109.378C118.935 108.965 119.643 108.39 120.125 107.651C120.626 106.905 120.884 106.004 120.898 104.948L123.279 105.141C123.228 106.607 122.828 107.877 122.079 108.952C121.33 110.027 120.269 110.868 118.898 111.475C117.837 111.945 116.786 112.191 115.747 112.213C114.725 112.228 113.762 112.053 112.857 111.688C111.952 111.323 111.131 110.778 110.395 110.054C109.67 109.303 109.076 108.407 108.615 107.364ZM126.492 97.9781L128.66 97.0192L130.753 89.368L133.359 88.2148L130.886 97.0838L139.538 101.884L136.822 103.085L129.585 99.0372L127.391 100.008L130.073 106.071L127.851 107.055L121.782 93.3372L124.004 92.354L126.492 97.9781ZM138.337 86.0122L142.95 96.4373L145.553 82.8198L147.802 81.8244L153.872 95.5418L151.649 96.525L147.037 86.0998L144.434 99.7174L142.184 100.713L136.115 86.9954L138.337 86.0122ZM164.498 91.2996C163.437 91.7689 162.391 92.0241 161.359 92.065C160.337 92.0795 159.374 91.9043 158.469 91.5393C157.564 91.1743 156.743 90.6297 156.008 89.9056C155.272 89.1814 154.673 88.2981 154.212 87.2556C153.742 86.1948 153.487 85.1485 153.446 84.1169C153.397 83.0669 153.542 82.0843 153.881 81.169C154.23 80.2274 154.753 79.3835 155.451 78.6373C156.148 77.8912 157 77.2956 158.006 76.8505C158.976 76.4216 159.926 76.1978 160.858 76.1791C161.801 76.1339 162.685 76.2786 163.511 76.613C164.337 76.9474 165.087 77.4573 165.762 78.1428C166.448 78.8019 167.009 79.6253 167.446 80.6129C167.616 80.997 167.766 81.4115 167.897 81.8564L156.732 86.7968C157.448 88.1199 158.432 89.008 159.682 89.4609C160.924 89.8955 162.231 89.8093 163.602 89.2024C165.34 88.4337 166.362 87.0849 166.667 85.1563L169.006 85.6963C168.506 88.3232 167.003 90.191 164.498 91.2996ZM158.862 78.9324C157.655 79.4665 156.806 80.2682 156.317 81.3376C155.838 82.3805 155.726 83.5348 155.979 84.8004L164.841 80.8797C164.58 80.3391 164.225 79.8836 163.777 79.5132C163.347 79.1348 162.867 78.866 162.338 78.7067C161.818 78.521 161.262 78.45 160.669 78.4937C160.068 78.5191 159.465 78.6653 158.862 78.9324Z" fill="white"/>
</svg>
