<svg width="182" height="206" viewBox="0 0 182 206" fill="none" xmlns="http://www.w3.org/2000/svg">
<rect width="165.227" height="165.227" transform="matrix(-0.994228 -0.107288 -0.107288 0.994228 182 41.7268)" fill="#BE5245"/>
<rect width="28" height="68.7273" transform="matrix(-1 0 0 1 105 0)" fill="#FFEAD7"/>
<path d="M36.9704 89.1168L38.7109 89.3175L42.9746 85.0258L45.6211 85.331L40.4633 90.4619L44.3416 97.263L41.5998 96.9468L38.4716 91.3918L36.7312 91.1911L36.14 96.3171L33.8273 96.0504L35.2022 84.1294L37.5148 84.3961L36.9704 89.1168ZM55.8298 91.2919L57.5702 91.4926L61.834 87.2008L64.4805 87.5061L59.3227 92.6369L63.201 99.438L60.4592 99.1218L57.331 93.5668L55.5905 93.3661L54.9993 98.4921L52.6867 98.2254L54.0615 86.3044L56.3742 86.5712L55.8298 91.2919ZM70.1703 100.58C69.2643 100.476 68.4482 100.22 67.7219 99.8145C66.9957 99.4086 66.3864 98.8954 65.8943 98.275C65.4199 97.6404 65.0677 96.9233 64.8378 96.1237C64.6238 95.326 64.569 94.4741 64.6735 93.5681C64.778 92.6621 65.0252 91.845 65.4152 91.1169C65.8211 90.3907 66.3263 89.7805 66.9309 89.2865C67.5532 88.7785 68.2642 88.4095 69.0638 88.1796C69.8634 87.9497 70.7162 87.887 71.6222 87.9915C72.5282 88.096 73.3443 88.3512 74.0706 88.757C74.7969 89.1629 75.3972 89.6831 75.8717 90.3177C76.3638 90.9381 76.7169 91.6473 76.9309 92.445C77.1608 93.2446 77.2235 94.0974 77.119 95.0034C77.0145 95.9094 76.7593 96.7256 76.3535 97.4519C75.9635 98.18 75.4573 98.798 74.835 99.3061C74.2304 99.8001 73.5283 100.162 72.7287 100.392C71.9291 100.622 71.0763 100.685 70.1703 100.58ZM70.4206 98.4104C70.9928 98.4764 71.5213 98.4327 72.006 98.2792C72.5067 98.1276 72.945 97.8882 73.321 97.5611C73.7128 97.2359 74.0334 96.8299 74.2828 96.3433C74.5322 95.8567 74.6908 95.3193 74.7587 94.7312C74.8283 94.1272 74.7962 93.5679 74.6623 93.0531C74.5302 92.5225 74.3104 92.0542 74.0029 91.6483C73.7113 91.2443 73.339 90.9114 72.8859 90.6498C72.4488 90.39 71.9442 90.2271 71.372 90.1611C70.7998 90.0951 70.2633 90.1379 69.7626 90.2896C69.2779 90.443 68.8396 90.6824 68.4477 91.0076C68.0718 91.3347 67.7591 91.7416 67.5097 92.2282C67.2621 92.699 67.1035 93.2363 67.0339 93.8403C66.966 94.4284 66.9982 94.9878 67.1302 95.5184C67.2623 96.049 67.4742 96.5164 67.7658 96.9205C68.0733 97.3264 68.4456 97.6592 68.8827 97.919C69.3358 98.1806 69.8484 98.3444 70.4206 98.4104ZM89.1493 90.3511L88.9045 92.4731L84.9706 92.0194L83.8405 101.818L81.5278 101.552L82.6579 91.7526L78.724 91.2989L78.9687 89.177L89.1493 90.3511ZM95.0833 103.453C94.1773 103.349 93.3612 103.094 92.6349 102.688C91.9086 102.282 91.2994 101.769 90.8073 101.148C90.3328 100.514 89.9807 99.7966 89.7508 98.997C89.5368 98.1992 89.482 97.3473 89.5865 96.4413C89.691 95.5353 89.9382 94.7183 90.3282 93.9902C90.7341 93.2639 91.2393 92.6537 91.8439 92.1598C92.4662 91.6517 93.1772 91.2827 93.9768 91.0528C94.7764 90.8229 95.6292 90.7602 96.5352 90.8647C97.4412 90.9692 98.2573 91.2244 98.9836 91.6303C99.7099 92.0362 100.31 92.5564 100.785 93.1909C101.277 93.8114 101.63 94.5205 101.844 95.3183C102.074 96.1179 102.136 96.9707 102.032 97.8767C101.928 98.7827 101.672 99.5988 101.266 100.325C100.876 101.053 100.37 101.671 99.748 102.179C99.1434 102.673 98.4413 103.035 97.6417 103.265C96.8421 103.495 95.9893 103.558 95.0833 103.453ZM95.3336 101.284C95.9058 101.35 96.4343 101.306 96.919 101.152C97.4197 101.001 97.858 100.761 98.234 100.434C98.6258 100.109 98.9464 99.7032 99.1958 99.2165C99.4452 98.7299 99.6038 98.1925 99.6716 97.6044C99.7413 97.0004 99.7092 96.4411 99.5753 95.9264C99.4432 95.3957 99.2234 94.9275 98.9159 94.5216C98.6243 94.1175 98.2519 93.7846 97.7989 93.523C97.3618 93.2632 96.8572 93.1003 96.2849 93.0343C95.7127 92.9683 95.1763 93.0112 94.6756 93.1628C94.1909 93.3163 93.7525 93.5556 93.3607 93.8809C92.9848 94.208 92.6721 94.6148 92.4227 95.1014C92.1751 95.5722 92.0165 96.1095 91.9469 96.7135C91.879 97.3016 91.9112 97.861 92.0432 98.3916C92.1753 98.9223 92.3872 99.3896 92.6788 99.7937C92.9863 100.2 93.3586 100.532 93.7957 100.792C94.2487 101.054 94.7613 101.218 95.3336 101.284ZM105.424 92.228L107.76 92.4975L107.543 94.381C108.086 93.7189 108.738 93.2384 109.497 92.9394C110.272 92.6423 111.113 92.5459 112.019 92.6504C112.829 92.7439 113.566 92.9899 114.229 93.3885C114.909 93.773 115.471 94.2807 115.913 94.9115C116.358 95.5265 116.678 96.2399 116.874 97.0517C117.088 97.8495 117.143 98.7014 117.039 99.6074C116.934 100.513 116.694 101.339 116.318 102.085C115.944 102.815 115.462 103.436 114.871 103.948C114.298 104.445 113.644 104.813 112.908 105.05C112.174 105.271 111.393 105.334 110.567 105.239C109.661 105.134 108.864 104.849 108.177 104.384C107.506 103.92 106.981 103.303 106.603 102.535L105.835 109.187L103.499 108.917L105.424 92.228ZM110.412 103.023C110.968 103.087 111.489 103.042 111.973 102.889C112.474 102.737 112.912 102.498 113.288 102.171C113.664 101.844 113.977 101.437 114.226 100.95C114.476 100.463 114.634 99.926 114.702 99.3379C114.772 98.7339 114.74 98.1746 114.606 97.6598C114.474 97.1292 114.262 96.6618 113.97 96.2578C113.679 95.8537 113.306 95.5209 112.853 95.2592C112.416 94.9994 111.919 94.8375 111.363 94.7733C110.807 94.7091 110.278 94.7529 109.778 94.9045C109.293 95.058 108.863 95.2983 108.487 95.6253C108.111 95.9524 107.798 96.3593 107.549 96.8459C107.301 97.3166 107.142 97.854 107.073 98.458C107.005 99.0461 107.037 99.6055 107.169 100.136C107.301 100.667 107.513 101.134 107.805 101.538C108.096 101.942 108.461 102.274 108.898 102.534C109.351 102.796 109.855 102.958 110.412 103.023ZM119.067 105.881L120.442 93.9601L122.707 94.2213L122.27 98.0122L125.083 98.3367C125.719 98.41 126.287 98.5802 126.788 98.8473C127.29 99.0986 127.703 99.4281 128.027 99.8358C128.352 100.228 128.589 100.682 128.739 101.198C128.889 101.715 128.929 102.275 128.859 102.879C128.792 103.467 128.625 104.004 128.36 104.489C128.112 104.959 127.777 105.355 127.353 105.677C126.947 105.985 126.47 106.211 125.922 106.358C125.389 106.506 124.805 106.543 124.169 106.47L119.067 105.881ZM131.648 95.2525L133.96 95.5192L132.585 107.44L130.273 107.173L131.648 95.2525ZM121.566 104.116L124.069 104.404C124.784 104.487 125.362 104.368 125.801 104.049C126.243 103.713 126.499 103.235 126.571 102.615C126.642 101.995 126.5 101.48 126.145 101.068C125.79 100.657 125.255 100.41 124.539 100.327L122.036 100.039L121.566 104.116ZM147.407 97.07L150.221 97.3945L148.846 109.315L146.676 109.065L147.685 100.315L143.361 107.016L141.811 106.837L139.126 99.3281L138.117 108.078L135.947 107.828L137.322 95.9069L140.183 96.2369L142.92 104.138L147.407 97.07ZM36.5704 120.864C35.6645 120.76 34.8483 120.504 34.122 120.098C33.3958 119.693 32.7865 119.179 32.2944 118.559C31.82 117.924 31.4678 117.207 31.2379 116.408C31.0239 115.61 30.9691 114.758 31.0736 113.852C31.1781 112.946 31.4253 112.129 31.8153 111.401C32.2212 110.675 32.7264 110.065 33.331 109.571C33.9533 109.062 34.6643 108.694 35.4639 108.464C36.2635 108.234 37.1163 108.171 38.0223 108.275C38.9283 108.38 39.7444 108.635 40.4707 109.041C41.197 109.447 41.7973 109.967 42.2718 110.602C42.7639 111.222 43.117 111.931 43.331 112.729C43.5609 113.529 43.6236 114.381 43.5191 115.287C43.4146 116.193 43.1594 117.01 42.7536 117.736C42.3636 118.464 41.8574 119.082 41.2351 119.59C40.6305 120.084 39.9285 120.446 39.1288 120.676C38.3292 120.906 37.4764 120.969 36.5704 120.864ZM36.8207 118.694C37.3929 118.76 37.9214 118.717 38.4061 118.563C38.9068 118.412 39.3451 118.172 39.7211 117.845C40.1129 117.52 40.4335 117.114 40.6829 116.627C40.9323 116.141 41.0909 115.603 41.1588 115.015C41.2284 114.411 41.1963 113.852 41.0624 113.337C40.9303 112.806 40.7105 112.338 40.403 111.932C40.1114 111.528 39.7391 111.195 39.286 110.934C38.8489 110.674 38.3443 110.511 37.7721 110.445C37.1999 110.379 36.6634 110.422 36.1627 110.574C35.678 110.727 35.2397 110.966 34.8478 111.292C34.4719 111.619 34.1592 112.026 33.9098 112.512C33.6622 112.983 33.5036 113.52 33.434 114.124C33.3661 114.712 33.3983 115.272 33.5303 115.802C33.6624 116.333 33.8743 116.8 34.1659 117.204C34.4734 117.61 34.8457 117.943 35.2828 118.203C35.7359 118.465 36.2485 118.628 36.8207 118.694ZM55.5494 110.635L55.3046 112.757L51.3707 112.303L50.2406 122.102L47.9279 121.836L49.058 112.037L45.1241 111.583L45.3688 109.461L55.5494 110.635ZM67.9911 112.07L66.6163 123.991L64.2798 123.722L64.8847 118.476L59.2342 117.825L58.6292 123.07L56.3166 122.803L57.6914 110.882L60.0041 111.149L59.4816 115.679L65.1322 116.331L65.6546 111.801L67.9911 112.07ZM75.4766 125.351C74.5706 125.247 73.7545 124.991 73.0282 124.586C72.3019 124.18 71.6927 123.666 71.2006 123.046C70.7261 122.411 70.374 121.694 70.1441 120.895C69.9301 120.097 69.8753 119.245 69.9798 118.339C70.0843 117.433 70.3315 116.616 70.7215 115.888C71.1274 115.162 71.6326 114.552 72.2372 114.058C72.8595 113.55 73.5705 113.181 74.3701 112.951C75.1697 112.721 76.0225 112.658 76.9285 112.763C77.8345 112.867 78.6506 113.122 79.3769 113.528C80.1031 113.934 80.7035 114.454 81.1779 115.089C81.6701 115.709 82.0232 116.418 82.2372 117.216C82.4671 118.016 82.5298 118.869 82.4253 119.774C82.3208 120.68 82.0656 121.497 81.6597 122.223C81.2697 122.951 80.7636 123.569 80.1413 124.077C79.5367 124.571 78.8346 124.933 78.035 125.163C77.2354 125.393 76.3826 125.456 75.4766 125.351ZM75.7268 123.181C76.299 123.247 76.8275 123.204 77.3123 123.05C77.813 122.899 78.2513 122.659 78.6272 122.332C79.0191 122.007 79.3397 121.601 79.5891 121.114C79.8385 120.628 79.9971 120.09 80.0649 119.502C80.1346 118.898 80.1025 118.339 79.9686 117.824C79.8365 117.294 79.6167 116.825 79.3092 116.419C79.0175 116.015 78.6452 115.682 78.1922 115.421C77.7551 115.161 77.2504 114.998 76.6782 114.932C76.106 114.866 75.5696 114.909 75.0689 115.061C74.5841 115.214 74.1458 115.453 73.754 115.779C73.378 116.106 73.0654 116.513 72.816 116.999C72.5684 117.47 72.4098 118.007 72.3401 118.611C72.2723 119.199 72.3044 119.759 72.4365 120.289C72.5686 120.82 72.7804 121.287 73.0721 121.692C73.3796 122.097 73.7519 122.43 74.189 122.69C74.642 122.952 75.1546 123.115 75.7268 123.181ZM84.4619 120.009C84.5664 119.103 84.8136 118.286 85.2036 117.558C85.5955 116.814 86.0937 116.195 86.6982 115.701C87.3205 115.193 88.0306 114.832 88.8283 114.618C89.6279 114.388 90.4887 114.326 91.4106 114.433C92.6345 114.574 93.6673 114.975 94.5092 115.636C95.3528 116.281 95.9694 117.149 96.3589 118.241L94.2324 119.083C93.9952 118.347 93.6186 117.772 93.1026 117.358C92.5866 116.944 91.9551 116.694 91.208 116.608C90.6199 116.54 90.0756 116.582 89.5749 116.734C89.0742 116.885 88.628 117.124 88.2361 117.449C87.8602 117.776 87.5475 118.183 87.2981 118.67C87.0505 119.14 86.8919 119.678 86.8223 120.282C86.7544 120.87 86.7866 121.429 86.9186 121.96C87.0507 122.49 87.2626 122.958 87.5542 123.362C87.8617 123.768 88.242 124.101 88.695 124.363C89.148 124.625 89.6606 124.788 90.2328 124.854C90.9958 124.942 91.6765 124.836 92.2749 124.534C92.8893 124.235 93.3976 123.738 93.7998 123.043L95.6843 124.299C95.0669 125.323 94.2643 126.068 93.2764 126.534C92.3044 127.002 91.1985 127.164 89.9587 127.021C89.0369 126.915 88.2119 126.667 87.4837 126.277C86.7575 125.871 86.1482 125.358 85.6561 124.737C85.1817 124.103 84.8374 123.387 84.6234 122.589C84.4113 121.775 84.3574 120.915 84.4619 120.009ZM107.958 116.679L106.583 128.6L104.342 128.342L104.801 124.36L102.155 124.055L99.1922 127.748L96.5696 127.446L99.8568 123.452C99.1446 123.064 98.6097 122.535 98.252 121.866C97.9121 121.182 97.7916 120.411 97.8906 119.553C97.9584 118.965 98.1152 118.443 98.3609 117.988C98.6244 117.52 98.959 117.131 99.365 116.824C99.7709 116.516 100.239 116.297 100.77 116.164C101.318 116.018 101.91 115.982 102.546 116.055L107.958 116.679ZM105.483 118.448L102.574 118.112C101.875 118.031 101.306 118.151 100.866 118.471C100.443 118.792 100.198 119.239 100.132 119.811C100.066 120.384 100.202 120.874 100.542 121.284C100.899 121.68 101.427 121.918 102.126 121.998L105.035 122.334L105.483 118.448ZM120.277 118.1L120.032 120.222L116.098 119.768L114.968 129.567L112.655 129.301L113.785 119.502L109.851 119.048L110.096 116.926L120.277 118.1ZM120.714 124.19C120.818 123.284 121.066 122.467 121.456 121.739C121.847 120.995 122.346 120.376 122.95 119.882C123.572 119.374 124.282 119.013 125.08 118.799C125.88 118.569 126.741 118.507 127.662 118.614C128.886 118.755 129.919 119.156 130.761 119.817C131.605 120.462 132.221 121.33 132.611 122.422L130.484 123.264C130.247 122.528 129.87 121.953 129.354 121.539C128.839 121.125 128.207 120.875 127.46 120.789C126.872 120.721 126.327 120.763 125.827 120.915C125.326 121.066 124.88 121.305 124.488 121.63C124.112 121.957 123.799 122.364 123.55 122.85C123.302 123.321 123.144 123.859 123.074 124.463C123.006 125.051 123.038 125.61 123.171 126.141C123.303 126.671 123.514 127.139 123.806 127.543C124.114 127.949 124.494 128.282 124.947 128.544C125.4 128.806 125.912 128.969 126.485 129.035C127.248 129.123 127.928 129.017 128.527 128.715C129.141 128.416 129.649 127.919 130.052 127.224L131.936 128.48C131.319 129.504 130.516 130.249 129.528 130.715C128.556 131.183 127.45 131.345 126.211 131.202C125.289 131.096 124.464 130.848 123.736 130.458C123.009 130.052 122.4 129.539 121.908 128.918C121.434 128.284 121.089 127.568 120.875 126.77C120.663 125.956 120.609 125.096 120.714 124.19ZM144.21 120.86L142.835 132.781L140.594 132.523L141.053 128.541L138.407 128.236L135.444 131.929L132.821 131.626L136.109 127.633C135.396 127.245 134.862 126.716 134.504 126.046C134.164 125.363 134.043 124.592 134.142 123.734C134.21 123.146 134.367 122.624 134.613 122.169C134.876 121.701 135.211 121.312 135.617 121.005C136.023 120.697 136.491 120.477 137.022 120.345C137.57 120.199 138.162 120.163 138.798 120.236L144.21 120.86ZM141.735 122.628L138.826 122.293C138.127 122.212 137.558 122.332 137.118 122.652C136.694 122.973 136.45 123.42 136.384 123.992C136.318 124.565 136.454 125.055 136.794 125.465C137.151 125.861 137.679 126.099 138.378 126.179L141.287 126.515L141.735 122.628ZM29.7028 131.813L40.0025 133.001L38.6276 144.922L36.2911 144.653L37.4212 134.854L31.7707 134.202L30.6406 144.001L28.3279 143.734L29.7028 131.813ZM41.6116 141.932C41.7455 140.772 42.288 139.909 43.2392 139.342C44.2081 138.761 45.5157 138.525 47.162 138.635L50.2514 138.87L50.2706 138.703C50.3715 137.829 50.196 137.116 49.7442 136.565C49.2924 136.013 48.6214 135.686 47.7313 135.584C46.3326 135.422 45.2331 135.948 44.433 137.16L42.6356 135.987C43.2243 135.072 43.9771 134.41 44.894 134C45.811 133.591 46.8497 133.453 48.01 133.586C48.7729 133.674 49.4515 133.865 50.0457 134.159C50.6558 134.455 51.1596 134.836 51.557 135.3C51.9544 135.765 52.2384 136.305 52.409 136.92C52.5814 137.52 52.6264 138.178 52.5439 138.893L51.675 146.427L49.41 146.166L49.6134 144.401C48.5779 145.699 47.1462 146.243 45.3183 146.032C44.0627 145.887 43.0989 145.446 42.427 144.708C41.7569 143.954 41.4852 143.029 41.6116 141.932ZM45.9996 144.105C46.5241 144.166 47.011 144.133 47.4603 144.008C47.9255 143.885 48.3345 143.69 48.6872 143.425C49.0418 143.144 49.3312 142.798 49.5556 142.39C49.7958 141.982 49.9443 141.532 50.0012 141.04L50.0452 140.658L47.0961 140.463C46.1387 140.385 45.3865 140.483 44.8394 140.758C44.2941 141.018 43.9866 141.449 43.917 142.053C43.8528 142.61 44.0011 143.07 44.3618 143.433C44.7384 143.799 45.2843 144.023 45.9996 144.105ZM56.2683 134.877L58.6048 135.147L58.3876 137.03C58.931 136.368 59.5824 135.887 60.3416 135.588C61.1168 135.291 61.9573 135.195 62.8633 135.299C63.6739 135.393 64.4106 135.639 65.0733 136.038C65.7537 136.422 66.3153 136.93 66.7579 137.561C67.2024 138.176 67.5228 138.889 67.719 139.701C67.933 140.499 67.9878 141.35 67.8833 142.256C67.7788 143.162 67.5386 143.988 67.1627 144.734C66.7886 145.464 66.3063 146.085 65.7158 146.597C65.143 147.094 64.4886 147.462 63.7526 147.699C63.0184 147.92 62.238 147.983 61.4115 147.888C60.5055 147.784 59.7089 147.498 59.0218 147.033C58.3505 146.569 57.8256 145.952 57.4472 145.184L56.68 151.836L54.3435 151.566L56.2683 134.877ZM61.2564 145.672C61.8127 145.736 62.3332 145.691 62.818 145.538C63.3187 145.386 63.757 145.147 64.1329 144.82C64.5089 144.493 64.8216 144.086 65.071 143.599C65.3204 143.112 65.479 142.575 65.5468 141.987C65.6165 141.383 65.5843 140.824 65.4504 140.309C65.3184 139.778 65.1065 139.311 64.8149 138.907C64.5233 138.503 64.1509 138.17 63.6979 137.908C63.2608 137.649 62.7641 137.487 62.2078 137.422C61.6515 137.358 61.123 137.402 60.6223 137.554C60.1375 137.707 59.7072 137.947 59.3312 138.274C58.9553 138.601 58.6426 139.008 58.3932 139.495C58.1456 139.966 57.987 140.503 57.9174 141.107C57.8495 141.695 57.8817 142.255 58.0137 142.785C58.1458 143.316 58.3577 143.783 58.6493 144.187C58.9409 144.591 59.3053 144.923 59.7424 145.183C60.1954 145.445 60.7001 145.608 61.2564 145.672ZM69.9116 148.53L71.2865 136.609L73.5515 136.87L73.1143 140.661L75.9276 140.986C76.5634 141.059 77.1316 141.229 77.6323 141.496C78.1349 141.748 78.5478 142.077 78.8713 142.485C79.1965 142.877 79.434 143.331 79.5838 143.847C79.7336 144.364 79.7737 144.924 79.704 145.528C79.6362 146.116 79.4697 146.653 79.2044 147.138C78.9568 147.608 78.6212 148.005 78.1976 148.326C77.7917 148.634 77.3145 148.86 76.7662 149.007C76.2337 149.155 75.6496 149.192 75.0138 149.119L69.9116 148.53ZM82.4922 137.902L84.8049 138.168L83.43 150.089L81.1174 149.823L82.4922 137.902ZM72.4103 146.765L74.9138 147.054C75.629 147.136 76.2064 147.017 76.6459 146.698C77.0873 146.362 77.3437 145.884 77.4152 145.264C77.4867 144.644 77.3449 144.129 76.9896 143.717C76.6344 143.306 76.0992 143.059 75.384 142.977L72.8805 142.688L72.4103 146.765ZM104.66 140.458L103.285 152.379L100.948 152.11L101.553 146.864L95.9029 146.213L95.2979 151.458L92.9853 151.191L94.3601 139.27L96.6728 139.537L96.1503 144.067L101.801 144.719L102.323 140.189L104.66 140.458ZM112.145 153.739C111.239 153.635 110.423 153.38 109.697 152.974C108.971 152.568 108.361 152.055 107.869 151.434C107.395 150.8 107.043 150.083 106.813 149.283C106.599 148.485 106.544 147.633 106.648 146.727C106.753 145.821 107 145.004 107.39 144.276C107.796 143.55 108.301 142.94 108.906 142.446C109.528 141.938 110.239 141.569 111.039 141.339C111.838 141.109 112.691 141.046 113.597 141.151C114.503 141.255 115.319 141.51 116.046 141.916C116.772 142.322 117.372 142.842 117.847 143.477C118.339 144.097 118.692 144.806 118.906 145.604C119.136 146.404 119.198 147.257 119.094 148.163C118.989 149.069 118.734 149.885 118.328 150.611C117.938 151.339 117.432 151.957 116.81 152.465C116.205 152.959 115.503 153.321 114.704 153.551C113.904 153.781 113.051 153.844 112.145 153.739ZM112.396 151.57C112.968 151.636 113.496 151.592 113.981 151.438C114.482 151.287 114.92 151.047 115.296 150.72C115.688 150.395 116.008 149.989 116.258 149.502C116.507 149.016 116.666 148.478 116.734 147.89C116.803 147.286 116.771 146.727 116.637 146.212C116.505 145.682 116.285 145.213 115.978 144.807C115.686 144.403 115.314 144.071 114.861 143.809C114.424 143.549 113.919 143.386 113.347 143.32C112.775 143.254 112.238 143.297 111.738 143.449C111.253 143.602 110.815 143.842 110.423 144.167C110.047 144.494 109.734 144.901 109.485 145.387C109.237 145.858 109.078 146.395 109.009 146.999C108.941 147.588 108.973 148.147 109.105 148.678C109.237 149.208 109.449 149.676 109.741 150.08C110.048 150.486 110.421 150.818 110.858 151.078C111.311 151.34 111.823 151.504 112.396 151.57ZM131.124 143.51L130.879 145.632L126.946 145.179L125.815 154.978L123.503 154.711L124.633 144.912L120.699 144.458L120.944 142.336L131.124 143.51Z" fill="white"/>
</svg>
