<svg width="108" height="144" viewBox="0 0 108 144" fill="none" xmlns="http://www.w3.org/2000/svg">
<path d="M24.6751 13.8687C24.7436 13.6271 25.6954 13.393 27.1351 13.2639C28.4263 13.1482 30.2576 13.0318 31.2379 13.0056C33.9006 12.9338 40.6485 13.5733 40.8246 13.9139C40.909 14.0775 41.3162 14.3125 41.7295 14.4364C42.1427 14.5603 42.4808 14.7773 42.4808 14.9186C42.4808 15.0599 44.7031 15.268 47.4193 15.3811C50.1355 15.4942 52.3577 15.7315 52.3577 15.9082C52.3577 16.0852 53.6912 16.2298 55.3209 16.2298C57.164 16.2298 58.284 16.5392 58.284 17.0493C58.284 17.5 59.1631 17.8688 60.2357 17.8688C61.3103 17.8688 62.7485 18.4496 63.432 19.1596C64.1155 19.8696 65.9051 20.5288 67.4064 20.6246C69.2297 20.7406 70.1366 21.3467 70.1366 22.4478C70.1366 23.3548 71.0255 24.0969 72.112 24.0969C73.236 24.0969 74.0874 25.0593 74.0874 26.3289C74.0874 27.784 75.0969 28.7821 76.9873 29.1971C80.7445 30.0212 80.7682 30.9023 77.0505 31.5192C74.6583 31.9162 74.0874 33.0438 74.0874 37.3727C74.0874 41.7016 74.6583 42.8292 77.0505 43.2262C78.8916 43.532 80.0136 44.3368 80.0136 45.3529C80.0136 46.3262 80.9656 47.0408 82.3662 47.1181C83.743 47.1945 85.0568 48.133 85.5368 49.3822C86.171 51.0363 85.6434 51.6345 83.184 52.0423C81.4398 52.3317 80.0136 52.7107 80.0136 52.8841C80.0136 53.0578 77.7913 53.2925 75.0751 53.4056C72.359 53.5187 70.1366 53.756 70.1366 53.9327C70.1366 54.1097 67.4696 54.2543 64.2102 54.2543C60.9507 54.2543 58.284 54.4018 58.284 54.5821C58.284 54.7692 52.3578 54.9099 44.4561 54.9099C36.5545 54.9099 40.8355 54.7692 40.8355 54.5821C40.8355 54.4018 40.4491 54.2543 39.9766 54.2543C39.347 54.2543 38.8713 53.9419 38.1942 53.0837C37.2745 51.9177 37.2707 51.8997 37.2707 48.6856C37.2707 46.3956 37.1712 45.4185 36.9279 45.3211C36.6671 45.2166 36.5852 43.4061 36.5852 37.7543C36.5852 32.4053 36.4974 30.3247 36.272 30.3251C36.1 30.3251 35.8815 29.9563 35.7869 29.5056C35.6923 29.0549 35.4938 28.6861 35.346 28.6861C35.1979 28.6861 35.077 28.4648 35.077 28.1944C35.077 27.924 34.9368 27.7027 34.7657 27.7027C34.5943 27.7027 34.1413 27.2992 33.7588 26.8058C33.3154 26.2338 33.0225 26.0555 32.9504 26.3141C32.8788 26.5715 32.2783 26.7193 31.3049 26.7193C29.6823 26.7193 27.6923 27.5742 27.6803 28.2763C27.6764 28.5019 27.4851 28.6861 27.2553 28.6861C27.0256 28.6861 26.8377 28.8175 26.8377 28.9785C26.8377 29.1391 26.5244 29.3633 26.1415 29.4764C25.7586 29.5895 25.4453 29.8268 25.4453 30.0035C25.4453 30.1805 25.2574 30.3251 25.0276 30.3251C24.7979 30.3251 24.61 30.5463 24.61 30.8168C24.61 31.0872 24.4997 31.3085 24.3649 31.3085C24.2302 31.3085 24.0639 32.222 23.9951 33.3385C23.9252 34.4779 23.7273 35.4246 23.544 35.4964C23.1021 35.6698 23.1211 38.4122 23.5658 38.6567C23.8442 38.8095 23.8442 38.8862 23.5658 39.0389C23.3238 39.172 23.2177 40.1626 23.2177 42.2897C23.2177 44.4459 23.1149 45.3893 22.8696 45.4854C22.6304 45.5791 22.4918 46.6638 22.4258 48.9544C22.3731 50.7878 22.2281 52.2875 22.1031 52.2875C21.9783 52.2875 21.8335 53.8609 21.7811 55.7844C21.7154 58.2072 21.5792 59.323 21.3381 59.4174C21.0777 59.5193 20.99 60.9587 20.99 65.1224C20.99 69.6352 20.911 70.7841 20.5724 71.1827C20.2349 71.5797 20.1547 72.7099 20.1547 77.0594C20.1547 80.4312 20.0505 82.4448 19.8762 82.4448C19.7192 82.4448 19.5977 83.3735 19.5977 84.5755C19.5977 85.7775 19.7192 86.7062 19.8762 86.7062C20.0347 86.7062 20.1547 87.6686 20.1547 88.9382C20.1547 90.3933 20.297 91.3914 20.5634 91.8064C21.1844 92.7727 21.1699 100.65 20.5464 101.061C20.1722 101.308 20.1179 101.933 20.1984 105.066C20.2652 107.661 20.3986 108.82 20.642 108.915C20.8633 109.001 20.99 109.697 20.99 110.827C20.99 111.803 21.1017 112.602 21.2384 112.602C21.3749 112.602 21.5653 112.971 21.6614 113.422C21.7575 113.872 21.9591 114.241 22.1092 114.241C22.2595 114.241 22.3823 114.61 22.3823 115.061C22.3823 115.571 22.5402 115.88 22.8 115.88C23.0297 115.88 23.2177 116.101 23.2177 116.372C23.2177 116.642 23.4057 116.864 23.6354 116.864C23.8651 116.864 24.053 117.085 24.053 117.355C24.053 117.661 24.3159 117.847 24.7492 117.847C25.1321 117.847 25.4453 117.983 25.4453 118.149C25.4453 118.315 25.8213 118.548 26.2807 118.666C26.7402 118.785 27.1161 119.018 27.1161 119.184C27.1161 119.35 27.8651 119.486 28.77 119.486C29.6749 119.486 30.4153 119.35 30.4153 119.184C30.4153 119.018 30.7855 118.785 31.2379 118.666C31.6904 118.548 32.0606 118.315 32.0606 118.149C32.0606 117.983 32.3033 117.847 32.6 117.847C33.2987 117.847 35.077 115.721 35.077 114.886C35.077 114.531 35.199 114.241 35.3479 114.241C35.4971 114.241 35.6978 113.651 35.7943 112.93C35.8908 112.209 36.0639 111.619 36.179 111.619C36.2942 111.619 36.4661 111.25 36.5608 110.799C36.6554 110.349 36.8539 109.98 37.0017 109.98C37.1498 109.98 37.2707 109.55 37.2707 109.024C37.2707 108.498 37.4089 108.013 37.5778 107.945C37.7783 107.866 37.9335 106.066 38.0251 102.755C38.1021 99.9679 38.2546 97.6137 38.3637 97.5235C38.4731 97.4334 38.63 96.627 38.7123 95.7314C38.7948 94.8359 38.9977 94.0492 39.1633 93.983C39.329 93.9171 39.4644 93.2854 39.4644 92.5793C39.4644 91.8398 39.5963 91.2954 39.7757 91.2954C39.947 91.2954 40.3729 90.9266 40.7225 90.4759C41.2235 89.8298 36.3196 89.6564 43.516 89.6564C49.294 89.6564 53.8137 89.8511 55.8405 90.1877C58.3888 90.6103 61.8143 90.686 72.6059 90.5578C82.5165 90.4401 86.8977 90.5178 88.8771 90.846C90.3645 91.0931 92.5356 91.2954 93.7011 91.2954C94.8646 91.2954 95.8168 91.4534 95.8168 91.6464C95.8168 91.8398 97.247 92.2352 98.9972 92.5256C99.1099 95.8187 95.8168 96.9355 95.8168 97.3518C95.8168 97.7684 94.4834 98.1939 92.8537 98.2978C90.5089 98.4469 89.8906 99.133 89.8906 101.583C89.8906 103.37 89.049 104.727 87.9013 104.79C86.7575 104.854 85.5959 106.703 85.1653 109.149C84.6852 111.878 83.6306 113.44 82.2162 113.518C80.9954 113.586 80.0136 114.358 80.0136 115.252C80.0136 116.466 79.2827 116.864 77.0505 116.864C74.9111 116.864 74.0874 117.228 74.0874 118.175C74.0874 118.896 73.2083 119.486 72.1356 119.486C71.061 119.486 69.6149 120.076 68.9196 120.797C68.2242 121.518 66.8811 122.108 65.9329 122.108C64.9847 122.108 64.2102 122.482 64.2102 122.938C64.2102 123.395 62.8768 123.853 61.247 123.956C59.6173 124.06 58.284 124.351 58.284 124.602C58.284 124.853 57.4544 125.058 56.441 125.058C55.4277 125.058 54.0348 125.353 53.3474 125.713C52.658 126.073 49.932 126.458 47.2869 126.568C44.6438 126.678 42.4808 126.888 42.4808 127.035C42.4808 127.181 42.1106 127.398 41.6582 127.517C41.2057 127.636 40.8355 127.853 40.8355 127.999C40.8355 128.146 40.527 128.358 40.15 128.471C39.7729 128.584 39.4644 128.822 39.4644 128.998C39.4644 129.175 39.2897 129.32 39.0759 129.32C38.8622 129.32 38.6423 129.482 38.5872 129.68C38.5318 129.878 37.9047 130.118 37.1931 130.214C36.4818 130.31 35.8996 130.517 35.8996 130.674C35.8996 130.831 35.4021 130.959 34.7942 130.959C34.0645 130.959 33.6351 131.126 33.5309 131.451C33.2957 132.183 24.1912 132.183 23.9523 131.451C23.8392 131.104 23.3795 130.959 22.3909 130.959C21.6205 130.959 20.99 130.827 20.99 130.666C20.99 130.506 20.6768 130.282 20.2939 130.169C19.911 130.055 19.5977 129.818 19.5977 129.641C19.5977 129.464 19.2218 129.32 18.7624 129.32C18.2055 129.32 17.927 129.156 17.927 128.828C17.927 128.551 17.6781 128.336 17.3567 128.336C17.0432 128.336 16.4963 127.968 16.1416 127.517C15.7865 127.066 15.3541 126.697 15.18 126.697C15.0063 126.697 14.864 126.53 14.864 126.325C14.864 126.121 14.5752 125.638 14.2218 125.253C13.8688 124.867 13.4937 124.334 13.3884 124.068C13.1139 123.374 12.5536 122.372 12.149 121.853C11.9577 121.607 11.8009 121.195 11.8009 120.938C11.8009 120.68 11.6893 120.469 11.5526 120.469C11.4161 120.469 11.2256 120.101 11.1296 119.65C11.0335 119.199 10.8319 118.83 10.6819 118.83C10.5315 118.83 10.4087 118.179 10.4087 117.382C10.4087 116.586 10.2845 115.886 10.133 115.825C9.98123 115.765 9.77543 114.794 9.67546 113.668C9.57577 112.541 9.38642 111.619 9.25526 111.619C8.85011 111.619 8.95762 101.863 9.36444 101.703C9.62452 101.601 9.71251 100.172 9.71251 96.0491C9.71251 91.9267 9.62452 90.4969 9.36444 90.3946C9.10381 90.2917 9.01638 88.8238 9.01638 84.5483C9.01638 81.4083 9.12245 78.8391 9.25221 78.8391C9.38197 78.8391 9.56689 77.107 9.66323 74.9901C9.76097 72.8437 9.96451 71.0916 10.1235 71.0293C10.3073 70.9572 10.4087 68.1424 10.4087 63.1048C10.4087 57.1461 10.4914 55.2599 10.7567 55.156C11.0224 55.0521 11.124 52.714 11.1864 45.2946C11.2357 39.3857 11.3724 35.5698 11.5345 35.5698C11.9371 35.5698 11.8569 33.6073 11.4529 33.5771C11.1744 33.5565 11.1744 33.5181 11.4529 33.386C11.6445 33.2949 11.8009 32.7272 11.8009 32.124C11.8009 31.5209 11.9889 30.8063 12.2186 30.5358C12.4484 30.2654 12.6402 29.7754 12.6452 29.4469C12.65 29.1188 12.8379 28.5635 13.0629 28.2137C13.2876 27.8636 13.4717 26.9419 13.4717 26.165C13.4717 25.3881 13.597 24.7525 13.7501 24.7525C13.9033 24.7525 14.0286 24.4529 14.0286 24.0868C14.0286 23.7203 14.2166 23.3358 14.4463 23.2322C14.676 23.1283 14.864 22.6903 14.864 22.259C14.864 21.8276 14.9976 21.4745 15.1611 21.4745C15.3284 21.4745 15.3836 21.1969 15.2872 20.8396C15.0915 20.1135 15.6606 18.8522 16.1841 18.8522C16.3768 18.8522 16.5347 18.6309 16.5347 18.3605C16.5347 18.015 16.831 17.8688 17.5308 17.8688C18.2364 17.8688 18.7613 17.6062 19.3318 16.9673C20.7511 15.3782 20.9494 15.2464 21.9232 15.2464C22.5166 15.2464 22.9406 15.0599 23.04 14.7547C23.128 14.4843 23.507 14.263 23.8818 14.263C24.2569 14.263 24.6139 14.0857 24.6751 13.8687Z" fill="black" stroke="black" stroke-width="6"/>
</svg>
