<svg width="119" height="137" viewBox="0 0 119 137" fill="none" xmlns="http://www.w3.org/2000/svg">
<path d="M20.1382 3.65305C20.1382 3.47878 20.3669 3.25864 20.6466 3.16449C21.7281 2.79953 97.4549 3.09521 97.5781 3.53139C97.6472 3.77653 98.1843 3.95935 98.8364 3.95935C99.4621 3.95935 99.9742 4.10109 99.9742 4.27433C99.9742 4.44791 100.824 4.69681 101.862 4.82794C102.901 4.95906 103.75 5.20249 103.75 5.36854C103.75 5.53493 104.003 5.67119 104.311 5.67119C104.619 5.67119 105.067 5.90229 105.307 6.18474C105.546 6.46719 106.195 6.69829 106.748 6.69829C107.579 6.69829 107.786 6.84722 107.937 7.55421C108.037 8.02497 108.247 8.41013 108.404 8.41013C108.56 8.41013 108.689 8.64123 108.689 8.92368C108.689 9.20614 108.809 9.43723 108.956 9.43723C109.103 9.43723 109.31 9.89943 109.415 10.4643C109.52 11.0292 109.726 11.4914 109.873 11.4914C110.021 11.4914 110.141 12.9551 110.141 14.7439C110.141 16.6841 110.024 17.9964 109.85 17.9964C109.683 17.9964 109.56 19.0807 109.56 20.5642C109.56 21.9765 109.672 23.1319 109.809 23.1319C109.945 23.1319 110.133 24.323 110.227 25.7785C110.32 27.2342 110.535 28.4794 110.704 28.5458C110.874 28.6126 111.012 29.4887 111.012 30.4929C111.012 31.5429 111.151 32.3735 111.34 32.4474C111.52 32.5183 111.732 33.3783 111.812 34.3589C111.892 35.3398 112.055 36.1419 112.174 36.1419C112.293 36.1419 112.474 36.7582 112.576 37.5114C112.679 38.2646 112.891 38.8809 113.049 38.8809C113.209 38.8809 113.336 39.8686 113.336 41.1063C113.336 42.3617 113.21 43.3316 113.046 43.3316C112.886 43.3316 112.755 43.5087 112.755 43.725C112.755 44.369 110.797 46.413 110.18 46.413C109.865 46.413 109.554 46.6054 109.487 46.8409C109.324 47.4116 105.139 47.386 104.977 46.8128C104.915 46.593 104.67 46.413 104.432 46.413C104.194 46.413 103.815 46.1956 103.59 45.9299C103.364 45.6642 103.034 45.3896 102.856 45.3198C102.677 45.2496 102.46 44.4269 102.373 43.4915C102.286 42.5562 102.07 41.6636 101.893 41.5082C101.663 41.3059 101.675 41.1758 101.935 41.0518C102.365 40.8461 102.461 34.4301 102.034 34.4301C101.889 34.4301 101.725 32.7867 101.671 30.7777C101.602 28.2473 101.46 27.0818 101.209 26.9832C101.009 26.9048 100.846 26.331 100.846 25.7079C100.846 25.0163 100.676 24.498 100.41 24.3775C100.17 24.2693 99.9742 23.9447 99.9742 23.6561C99.9742 23.3678 99.8522 23.1319 99.7032 23.1319C99.5542 23.1319 99.3451 22.8077 99.2385 22.4113C98.9558 21.3616 96.5498 18.6812 95.8904 18.6812C95.5804 18.6812 95.3266 18.5271 95.3266 18.3388C95.3266 18.1505 94.9344 17.9964 94.4551 17.9964C93.9759 17.9964 93.5837 18.1505 93.5837 18.3388C93.5837 18.5271 93.257 18.6812 92.8575 18.6812C92.4581 18.6812 21.5906 18.8432 21.5906 19.0281C21.5906 19.2126 21.2638 19.4605 20.8644 19.5786C20.465 19.6967 20.1382 20.008 20.1382 20.2699C20.1382 20.5321 19.9422 20.7464 19.7025 20.7464C19.4315 20.7464 19.2668 21.0696 19.2668 21.6024C19.2668 22.0731 19.1529 22.4583 19.0135 22.4583C18.8741 22.4583 18.6765 23.0745 18.5742 23.8278C18.472 24.581 18.2594 25.1972 18.1014 25.1972C17.9436 25.1972 17.8145 25.5824 17.8145 26.0531C17.8145 26.5859 17.6497 26.9091 17.3787 26.9091C17.1391 26.9091 16.943 27.1275 16.943 27.3942C16.943 27.6609 16.7797 27.943 16.5799 28.0214C16.3205 28.1228 16.1895 29.4525 16.1212 32.6718C16.0683 35.1512 15.9051 37.1801 15.7581 37.1801C15.6108 37.1801 15.4906 38.2476 15.4906 39.5524C15.4906 41.2043 15.3584 42.0801 15.0549 42.4378C14.428 43.1767 14.4201 52.4881 15.0455 53.4628C15.2802 53.8281 15.4763 54.4738 15.4813 54.8976C15.4865 55.3215 15.6213 55.668 15.7811 55.668C15.9449 55.668 16.0715 56.6379 16.0715 57.8933C16.0715 59.1488 15.9449 60.1187 15.7811 60.1187C15.6213 60.1187 15.4906 60.3334 15.4906 60.5957C15.4906 60.8579 15.2945 61.1613 15.0549 61.2698C14.7841 61.392 14.6192 61.9138 14.6192 62.6471C14.6192 63.2966 14.4876 63.8793 14.3267 63.9427C13.8753 64.12 13.8088 70.1241 14.2561 70.3021C14.456 70.3819 14.6192 70.8027 14.6192 71.2375C14.6192 71.6726 14.8152 72.117 15.0549 72.2256C15.6596 72.4991 15.6523 77.1272 15.0455 78.0729C14.4774 78.9586 14.4835 81.211 15.0549 81.4695C15.2945 81.5777 15.4906 82.0563 15.4906 82.5332C15.4906 83.0098 15.6213 83.3998 15.7811 83.3998C15.9562 83.3998 16.0715 84.8264 16.0715 86.9946C16.0715 89.1628 15.9562 90.5895 15.7811 90.5895C15.6196 90.5895 15.4906 91.5026 15.4906 92.6437C15.4906 93.7735 15.6033 94.6979 15.7407 94.6979C15.8783 94.6979 16.0646 95.6569 16.1549 96.8291C16.245 98.0014 16.4593 99.0158 16.631 99.0833C17.0249 99.238 17.0453 101.888 16.6525 101.888C16.4928 101.888 16.3621 102.658 16.3621 103.599C16.3621 104.541 16.4928 105.311 16.6525 105.311C16.8123 105.311 16.943 106.159 16.943 107.194C16.943 108.23 17.0632 109.077 17.2105 109.077C17.3575 109.077 17.564 109.54 17.6692 110.104C17.7743 110.669 17.9786 111.132 18.1224 111.132C18.2665 111.132 18.4662 111.517 18.5664 111.987C18.6666 112.458 18.8654 112.843 19.0077 112.843C19.1503 112.843 19.2668 113.075 19.2668 113.357C19.2668 113.639 19.4629 113.87 19.7025 113.87C19.9422 113.87 20.1382 114.102 20.1382 114.384C20.1382 114.667 20.2861 114.898 20.467 114.898C20.6477 114.898 91.7622 115.419 92.2824 116.069C92.8029 116.719 93.5697 117.352 93.9869 117.475C94.4043 117.599 94.7457 117.837 94.7457 118.005C94.7457 118.173 95.2032 118.31 95.7623 118.31C96.3215 118.31 96.779 118.176 96.779 118.013C96.779 117.849 97.2984 117.634 97.9331 117.533C99.1874 117.335 99.7851 116.813 100.101 115.641C100.212 115.226 100.426 114.887 100.575 114.887C100.724 114.887 100.846 114.424 100.846 113.859C100.846 113.175 100.991 112.832 101.281 112.832C101.521 112.832 101.717 112.601 101.717 112.319C101.717 112.036 101.848 111.805 102.008 111.805C102.167 111.805 102.298 111.585 102.298 111.316C102.298 111.047 102.503 110.586 102.753 110.291C103.123 109.854 103.204 108.891 103.188 105.104C103.173 101.493 103.266 100.289 103.605 99.7193C103.845 99.3157 104.041 98.5703 104.041 98.0629C104.041 97.5555 104.204 97.0766 104.404 96.9982C104.659 96.8985 104.796 95.6677 104.865 92.8613C104.918 90.6644 105.082 88.8666 105.228 88.8666C105.374 88.8666 105.498 88.289 105.503 87.5827C105.511 86.4543 105.636 86.2307 106.532 85.7356C107.534 85.1824 108.689 85.2303 108.689 85.8253C108.689 85.9914 109.996 86.1276 111.593 86.1276C115.447 86.1276 115.66 86.3512 115.66 90.4072C115.66 92.0078 115.544 93.3174 115.401 93.3174C115.259 93.3174 115.052 93.7395 114.942 94.2554C114.833 94.7714 114.601 95.2966 114.428 95.4226C114.22 95.5739 114.035 99.5272 113.883 107.066C113.642 118.934 113.461 122.076 113.018 122.076C112.873 122.076 112.755 122.296 112.755 122.565C112.755 122.834 112.576 123.265 112.358 123.523C112.139 123.781 111.869 124.331 111.757 124.746C111.646 125.16 111.432 125.5 111.283 125.5C111.134 125.5 111.012 125.808 111.012 126.185C111.012 126.561 110.872 126.869 110.701 126.869C110.299 126.869 109.56 127.74 109.56 128.215C109.56 128.416 109.42 128.581 109.249 128.581C109.078 128.581 108.741 128.812 108.502 129.095C108.262 129.377 107.814 129.608 107.506 129.608C107.198 129.608 106.946 129.762 106.946 129.951C106.946 130.139 106.484 130.293 105.92 130.293C105.276 130.293 104.832 130.484 104.727 130.807C104.61 131.166 104.134 131.32 103.138 131.32C102.357 131.32 101.717 131.457 101.717 131.626C101.717 131.793 101.359 132.037 100.921 132.166C100.483 132.296 100.031 132.582 99.915 132.802C99.6408 133.326 95.095 133.348 94.8077 132.828C94.6936 132.622 94.2411 132.349 93.8016 132.222C93.3621 132.096 93.0028 131.841 93.0028 131.656C93.0028 131.47 21.6074 131.331 20.5532 131.331C19.2437 131.331 18.5075 131.17 18.2086 130.818C17.9689 130.535 17.2593 130.304 16.6318 130.304C16.0041 130.304 15.4906 130.167 15.4906 129.999C15.4906 129.831 15.1638 129.597 14.7644 129.479C14.365 129.361 14.0382 129.113 14.0382 128.928C14.0382 128.743 13.7768 128.592 13.4573 128.592C13.1377 128.592 12.8763 128.449 12.8763 128.273C12.8763 128.097 12.5881 127.846 12.2363 127.714C11.8843 127.583 11.4174 127.264 11.1987 127.006C10.9802 126.749 10.6146 126.538 10.3865 126.538C10.1582 126.538 9.97144 126.225 9.97144 125.843C9.97144 125.46 9.77541 125.058 9.53577 124.95C9.29612 124.842 9.10004 124.538 9.10004 124.276C9.10004 124.014 8.97192 123.799 8.81506 123.799C8.6585 123.799 8.44818 123.414 8.34796 122.943C8.24775 122.472 8.04901 122.087 7.90668 122.087C7.76405 122.087 7.64764 121.922 7.64764 121.721C7.64764 121.519 7.45156 121.123 7.21191 120.84C6.9226 120.499 6.77618 119.645 6.77618 118.297C6.77618 117.181 6.65366 116.267 6.50348 116.267C6.35359 116.267 6.13953 115.535 6.0274 114.641C5.91557 113.746 5.70815 112.926 5.5661 112.817C5.42406 112.709 5.22627 110.822 5.12634 108.623C5.02642 106.425 4.83379 104.627 4.69843 104.627C4.56306 104.627 4.45239 103.229 4.45239 101.521C4.45239 99.2165 4.33997 98.2825 4.01666 97.9014C3.6646 97.4868 3.58093 96.3063 3.58093 91.7635C3.58093 88.2419 3.47231 86.1387 3.29047 86.1387C3.11298 86.1387 3 84.5409 3 82.0303C3 79.6707 3.11708 77.9219 3.27539 77.9219C3.43835 77.9219 3.58649 74.7019 3.63849 70.0344C3.7114 63.4746 3.79941 62.0925 4.16193 61.8227C4.45095 61.6077 4.47536 61.4968 4.23456 61.4933C3.97923 61.4899 3.87146 60.7778 3.87146 59.0916C3.87146 57.7222 3.99606 56.6951 4.16193 56.6951C4.35074 56.6951 4.45239 51.7879 4.45239 42.658C4.45239 34.9376 4.56366 28.6209 4.69989 28.6209C4.83583 28.6209 5.03997 26.2747 5.15326 23.407C5.26655 20.5397 5.46178 18.113 5.58698 18.0147C5.71246 17.9168 5.8975 17.2214 5.99829 16.4696C6.09909 15.7178 6.31516 15.0501 6.4787 14.9861C6.64224 14.9217 6.77618 14.6509 6.77618 14.3842C6.77618 14.1175 6.9043 13.8991 7.06116 13.8991C7.21773 13.8991 7.42804 13.5139 7.52826 13.0432C7.62847 12.5724 7.8364 12.1873 7.99036 12.1873C8.36682 12.1873 9.10004 11.2985 9.10004 10.8421C9.10004 10.6404 9.29612 10.4754 9.53577 10.4754C9.77541 10.4754 9.97144 10.3231 9.97144 10.1368C9.97144 9.46782 10.9852 8.42121 11.6335 8.42121C11.9975 8.42121 12.2953 8.28392 12.2953 8.11581C12.2953 7.94805 12.6221 7.71387 13.0215 7.59576C13.421 7.47764 13.7477 7.22977 13.7477 7.04523C13.7477 6.86035 13.9438 6.70937 14.1835 6.70937C14.4231 6.70937 14.6192 6.55701 14.6192 6.37111C14.6192 6.18486 15.142 5.93425 15.7811 5.81373C16.4201 5.69322 16.943 5.47273 16.943 5.32346C16.943 5.17419 17.3352 4.95028 17.8145 4.82634C18.2937 4.70241 18.6859 4.45898 18.6859 4.28575C18.6859 4.11216 19.0126 3.97042 19.412 3.97042C19.8115 3.97042 20.1382 3.82766 20.1382 3.65305Z" fill="black" stroke="black" stroke-width="6"/>
</svg>
