<svg width="729" height="95" viewBox="0 0 729 95" fill="none" xmlns="http://www.w3.org/2000/svg">
<path d="M3.21317 64.5488C3.73188 59.6329 7.76455 55.8337 12.7026 55.6086L739.545 22.4766C745.24 22.217 750 26.7646 750 32.4662V85C750 90.5229 745.523 95 740 95H11.1107C5.17272 95 0.542801 89.8559 1.16591 83.9506L3.21317 64.5488Z" fill="#573738"/>
<path d="M19.968 7.10015C21.2456 2.88356 25.1324 0 29.5383 0H740C745.523 0 750 4.47715 750 10V63C750 68.5229 745.523 73 740 73H13.479C6.76887 73 1.96288 66.5219 3.90871 60.1002L19.968 7.10015Z" fill="#886A6B"/>
</svg>
