<svg width="768" height="963" viewBox="0 0 768 963" fill="none" xmlns="http://www.w3.org/2000/svg">
<path d="M281.45 38.1503L770.799 739.051L770.799 973.55L144.298 973.55L281.45 38.1503Z" fill="url(#paint0_linear_3061_44)"/>
<path d="M258.927 431.75H261.885V441.712H265.863L273.445 431.75H276.913L268.277 443.004L276.981 455.55H273.377L265.761 444.466H261.885V455.55H258.927V431.75ZM287.02 456.026C285.728 456.026 284.549 455.799 283.484 455.346C282.418 454.892 281.489 454.269 280.696 453.476C279.925 452.66 279.324 451.708 278.894 450.62C278.463 449.509 278.248 448.319 278.248 447.05C278.248 445.78 278.463 444.602 278.894 443.514C279.324 442.403 279.925 441.451 280.696 440.658C281.489 439.842 282.418 439.207 283.484 438.754C284.549 438.3 285.728 438.074 287.02 438.074C288.312 438.074 289.49 438.3 290.556 438.754C291.621 439.207 292.539 439.842 293.31 440.658C294.103 441.451 294.715 442.403 295.146 443.514C295.576 444.602 295.792 445.78 295.792 447.05C295.792 448.319 295.576 449.509 295.146 450.62C294.715 451.708 294.103 452.66 293.31 453.476C292.539 454.269 291.621 454.892 290.556 455.346C289.49 455.799 288.312 456.026 287.02 456.026ZM287.02 453.442C287.904 453.442 288.708 453.283 289.434 452.966C290.182 452.648 290.816 452.206 291.338 451.64C291.859 451.05 292.267 450.37 292.562 449.6C292.856 448.806 293.004 447.956 293.004 447.05C293.004 446.12 292.856 445.27 292.562 444.5C292.267 443.729 291.859 443.06 291.338 442.494C290.816 441.904 290.182 441.451 289.434 441.134C288.708 440.816 287.904 440.658 287.02 440.658C286.136 440.658 285.32 440.816 284.572 441.134C283.846 441.451 283.223 441.904 282.702 442.494C282.18 443.06 281.772 443.729 281.478 444.5C281.183 445.27 281.036 446.12 281.036 447.05C281.036 447.956 281.183 448.806 281.478 449.6C281.772 450.37 282.18 451.05 282.702 451.64C283.223 452.206 283.846 452.648 284.572 452.966C285.32 453.283 286.136 453.442 287.02 453.442ZM314.233 438.55V455.55H311.479V447.798H302.707V455.55H299.953V438.55H302.707V445.248H311.479V438.55H314.233ZM318.39 447.05C318.39 445.758 318.594 444.568 319.002 443.48C319.433 442.369 320.034 441.417 320.804 440.624C321.575 439.83 322.493 439.207 323.558 438.754C324.646 438.3 325.848 438.074 327.162 438.074C328.84 438.074 330.302 438.448 331.548 439.196C332.818 439.921 333.815 440.998 334.54 442.426L332.194 443.752C331.174 441.689 329.52 440.658 327.23 440.658C326.324 440.658 325.496 440.816 324.748 441.134C324 441.451 323.366 441.904 322.844 442.494C322.323 443.06 321.915 443.729 321.62 444.5C321.326 445.27 321.178 446.12 321.178 447.05C321.178 447.956 321.326 448.806 321.62 449.6C321.915 450.37 322.323 451.05 322.844 451.64C323.366 452.206 323.989 452.648 324.714 452.966C325.462 453.283 326.29 453.442 327.196 453.442C328.352 453.442 329.35 453.17 330.188 452.626C331.05 452.082 331.73 451.266 332.228 450.178L334.608 451.47C333.883 452.966 332.886 454.099 331.616 454.87C330.347 455.64 328.862 456.026 327.162 456.026C325.848 456.026 324.646 455.799 323.558 455.346C322.493 454.892 321.575 454.269 320.804 453.476C320.034 452.682 319.433 451.742 319.002 450.654C318.594 449.543 318.39 448.342 318.39 447.05ZM350.45 438.55V441.066H344.602V455.55H341.882V441.066H336.034V438.55H350.45ZM352.553 450.892C352.553 449.26 353.165 447.968 354.389 447.016C355.613 446.064 357.358 445.531 359.625 445.418L364.385 445.18V444.942C364.385 443.559 363.988 442.482 363.195 441.712C362.424 440.941 361.359 440.556 359.999 440.556C358.911 440.556 357.982 440.805 357.211 441.304C356.44 441.78 355.828 442.494 355.375 443.446L353.029 442.256C353.686 440.896 354.616 439.864 355.817 439.162C357.018 438.436 358.424 438.074 360.033 438.074C361.098 438.074 362.062 438.232 362.923 438.55C363.807 438.867 364.555 439.309 365.167 439.876C365.779 440.442 366.255 441.134 366.595 441.95C366.935 442.743 367.105 443.638 367.105 444.636V455.55H364.385V452.83C363.773 453.872 362.957 454.666 361.937 455.21C360.94 455.754 359.772 456.026 358.435 456.026C356.644 456.026 355.216 455.561 354.151 454.632C353.086 453.702 352.553 452.456 352.553 450.892ZM358.843 453.544C359.636 453.544 360.373 453.408 361.053 453.136C361.733 452.864 362.311 452.49 362.787 452.014C363.286 451.538 363.671 450.982 363.943 450.348C364.238 449.713 364.385 449.033 364.385 448.308V447.526L359.829 447.73C358.356 447.798 357.234 448.092 356.463 448.614C355.715 449.112 355.341 449.826 355.341 450.756C355.341 451.617 355.647 452.297 356.259 452.796C356.894 453.294 357.755 453.544 358.843 453.544ZM386.35 438.55V455.55H383.596V447.798H374.824V455.55H372.07V438.55H374.824V445.248H383.596V438.55H386.35ZM404.039 438.55V441.066H398.191V455.55H395.471V441.066H389.623V438.55H404.039ZM410.053 438.55V451.47L418.995 438.55H421.783V455.55H419.029V442.63L410.087 455.55H407.299V438.55H410.053ZM441.235 438.55V455.55H438.481V447.798H429.709V455.55H426.955V438.55H429.709V445.248H438.481V438.55H441.235ZM454.164 456.026C452.872 456.026 451.693 455.799 450.628 455.346C449.563 454.892 448.633 454.269 447.84 453.476C447.069 452.66 446.469 451.708 446.038 450.62C445.607 449.509 445.392 448.319 445.392 447.05C445.392 445.78 445.607 444.602 446.038 443.514C446.469 442.403 447.069 441.451 447.84 440.658C448.633 439.842 449.563 439.207 450.628 438.754C451.693 438.3 452.872 438.074 454.164 438.074C455.456 438.074 456.635 438.3 457.7 438.754C458.765 439.207 459.683 439.842 460.454 440.658C461.247 441.451 461.859 442.403 462.29 443.514C462.721 444.602 462.936 445.78 462.936 447.05C462.936 448.319 462.721 449.509 462.29 450.62C461.859 451.708 461.247 452.66 460.454 453.476C459.683 454.269 458.765 454.892 457.7 455.346C456.635 455.799 455.456 456.026 454.164 456.026ZM454.164 453.442C455.048 453.442 455.853 453.283 456.578 452.966C457.326 452.648 457.961 452.206 458.482 451.64C459.003 451.05 459.411 450.37 459.706 449.6C460.001 448.806 460.148 447.956 460.148 447.05C460.148 446.12 460.001 445.27 459.706 444.5C459.411 443.729 459.003 443.06 458.482 442.494C457.961 441.904 457.326 441.451 456.578 441.134C455.853 440.816 455.048 440.658 454.164 440.658C453.28 440.658 452.464 440.816 451.716 441.134C450.991 441.451 450.367 441.904 449.846 442.494C449.325 443.06 448.917 443.729 448.622 444.5C448.327 445.27 448.18 446.12 448.18 447.05C448.18 447.956 448.327 448.806 448.622 449.6C448.917 450.37 449.325 451.05 449.846 451.64C450.367 452.206 450.991 452.648 451.716 452.966C452.464 453.283 453.28 453.442 454.164 453.442ZM467.098 438.55H474.646C476.142 438.55 477.343 438.958 478.25 439.774C479.156 440.59 479.61 441.666 479.61 443.004C479.61 443.865 479.394 444.602 478.964 445.214C478.556 445.803 477.989 446.256 477.264 446.574C478.216 446.846 478.952 447.356 479.474 448.104C480.018 448.829 480.29 449.736 480.29 450.824C480.29 452.252 479.802 453.396 478.828 454.258C477.853 455.119 476.55 455.55 474.918 455.55H467.098V438.55ZM474.85 453.17C475.643 453.17 476.3 452.943 476.822 452.49C477.366 452.036 477.638 451.379 477.638 450.518C477.638 449.679 477.366 449.033 476.822 448.58C476.3 448.104 475.643 447.866 474.85 447.866H469.682V453.17H474.85ZM474.578 445.554C475.326 445.554 475.915 445.338 476.346 444.908C476.776 444.477 476.992 443.922 476.992 443.242C476.992 442.584 476.776 442.04 476.346 441.61C475.915 441.156 475.326 440.93 474.578 440.93H469.682V445.554H474.578ZM483.008 450.892C483.008 449.26 483.62 447.968 484.844 447.016C486.068 446.064 487.813 445.531 490.08 445.418L494.84 445.18V444.942C494.84 443.559 494.443 442.482 493.65 441.712C492.879 440.941 491.814 440.556 490.454 440.556C489.366 440.556 488.437 440.805 487.666 441.304C486.895 441.78 486.283 442.494 485.83 443.446L483.484 442.256C484.141 440.896 485.071 439.864 486.272 439.162C487.473 438.436 488.879 438.074 490.488 438.074C491.553 438.074 492.517 438.232 493.378 438.55C494.262 438.867 495.01 439.309 495.622 439.876C496.234 440.442 496.71 441.134 497.05 441.95C497.39 442.743 497.56 443.638 497.56 444.636V455.55H494.84V452.83C494.228 453.872 493.412 454.666 492.392 455.21C491.395 455.754 490.227 456.026 488.89 456.026C487.099 456.026 485.671 455.561 484.606 454.632C483.541 453.702 483.008 452.456 483.008 450.892ZM489.298 453.544C490.091 453.544 490.828 453.408 491.508 453.136C492.188 452.864 492.766 452.49 493.242 452.014C493.741 451.538 494.126 450.982 494.398 450.348C494.693 449.713 494.84 449.033 494.84 448.308V447.526L490.284 447.73C488.811 447.798 487.689 448.092 486.918 448.614C486.17 449.112 485.796 449.826 485.796 450.756C485.796 451.617 486.102 452.297 486.714 452.796C487.349 453.294 488.21 453.544 489.298 453.544ZM257.091 497.796H259.165C259.913 496.662 260.445 494.894 260.763 492.492C261.103 490.089 261.273 486.87 261.273 482.836V476.75H276.607V497.796H279.939V505.786H277.015V500.55H260.015V505.786H257.091V497.796ZM264.197 483.516C264.197 486.938 264.061 489.794 263.789 492.084C263.517 494.373 263.052 496.277 262.395 497.796H273.649V479.504H264.197V483.516ZM291.436 501.026C290.144 501.026 288.965 500.799 287.9 500.346C286.834 499.892 285.905 499.269 285.112 498.476C284.341 497.66 283.74 496.708 283.31 495.62C282.879 494.509 282.664 493.319 282.664 492.05C282.664 490.78 282.879 489.602 283.31 488.514C283.74 487.403 284.341 486.451 285.112 485.658C285.905 484.842 286.834 484.207 287.9 483.754C288.965 483.3 290.144 483.074 291.436 483.074C292.728 483.074 293.906 483.3 294.972 483.754C296.037 484.207 296.955 484.842 297.726 485.658C298.519 486.451 299.131 487.403 299.562 488.514C299.992 489.602 300.208 490.78 300.208 492.05C300.208 493.319 299.992 494.509 299.562 495.62C299.131 496.708 298.519 497.66 297.726 498.476C296.955 499.269 296.037 499.892 294.972 500.346C293.906 500.799 292.728 501.026 291.436 501.026ZM291.436 498.442C292.32 498.442 293.124 498.283 293.85 497.966C294.598 497.648 295.232 497.206 295.754 496.64C296.275 496.05 296.683 495.37 296.978 494.6C297.272 493.806 297.42 492.956 297.42 492.05C297.42 491.12 297.272 490.27 296.978 489.5C296.683 488.729 296.275 488.06 295.754 487.494C295.232 486.904 294.598 486.451 293.85 486.134C293.124 485.816 292.32 485.658 291.436 485.658C290.552 485.658 289.736 485.816 288.988 486.134C288.262 486.451 287.639 486.904 287.118 487.494C286.596 488.06 286.188 488.729 285.894 489.5C285.599 490.27 285.452 491.12 285.452 492.05C285.452 492.956 285.599 493.806 285.894 494.6C286.188 495.37 286.596 496.05 287.118 496.64C287.639 497.206 288.262 497.648 288.988 497.966C289.736 498.283 290.552 498.442 291.436 498.442ZM313.379 494.872L318.853 483.55H322.321V500.55H319.669V487.426L314.399 498.204H312.291L307.021 487.426V500.55H304.369V483.55H307.905L313.379 494.872ZM330.233 483.55V496.47L339.175 483.55H341.963V500.55H339.209V487.63L330.267 500.55H327.479V483.55H330.233ZM361.415 483.55V500.55H358.661V492.798H349.889V500.55H347.135V483.55H349.889V490.248H358.661V483.55H361.415ZM369.346 483.55V496.47L378.288 483.55H381.076V500.55H378.322V487.63L369.38 500.55H366.592V483.55H369.346ZM389.002 490.52H391.688L397.366 483.55H400.596L393.966 491.608L400.732 500.55H397.366L391.722 493.036H389.002V500.55H386.248V483.55H389.002V490.52ZM402.457 495.892C402.457 494.26 403.069 492.968 404.293 492.016C405.517 491.064 407.263 490.531 409.529 490.418L414.289 490.18V489.942C414.289 488.559 413.893 487.482 413.099 486.712C412.329 485.941 411.263 485.556 409.903 485.556C408.815 485.556 407.886 485.805 407.115 486.304C406.345 486.78 405.733 487.494 405.279 488.446L402.933 487.256C403.591 485.896 404.52 484.864 405.721 484.162C406.923 483.436 408.328 483.074 409.937 483.074C411.003 483.074 411.966 483.232 412.827 483.55C413.711 483.867 414.459 484.309 415.071 484.876C415.683 485.442 416.159 486.134 416.499 486.95C416.839 487.743 417.009 488.638 417.009 489.636V500.55H414.289V497.83C413.677 498.872 412.861 499.666 411.841 500.21C410.844 500.754 409.677 501.026 408.339 501.026C406.549 501.026 405.121 500.561 404.055 499.632C402.99 498.702 402.457 497.456 402.457 495.892ZM408.747 498.544C409.541 498.544 410.277 498.408 410.957 498.136C411.637 497.864 412.215 497.49 412.691 497.014C413.19 496.538 413.575 495.982 413.847 495.348C414.142 494.713 414.289 494.033 414.289 493.308V492.526L409.733 492.73C408.26 492.798 407.138 493.092 406.367 493.614C405.619 494.112 405.245 494.826 405.245 495.756C405.245 496.617 405.551 497.297 406.163 497.796C406.798 498.294 407.659 498.544 408.747 498.544Z" fill="white"/>
<path d="M273.867 529.75V532.538H262.443V539.406H268.529C269.685 539.406 270.716 539.576 271.623 539.916C272.552 540.256 273.345 540.743 274.003 541.378C274.66 541.99 275.159 542.726 275.499 543.588C275.861 544.449 276.043 545.412 276.043 546.478C276.043 547.52 275.861 548.484 275.499 549.368C275.159 550.229 274.66 550.977 274.003 551.612C273.345 552.224 272.552 552.7 271.623 553.04C270.716 553.38 269.685 553.55 268.529 553.55H259.485V529.75H273.867ZM262.443 550.796H268.359C269.764 550.796 270.897 550.41 271.759 549.64C272.62 548.869 273.051 547.815 273.051 546.478C273.051 545.14 272.62 544.086 271.759 543.316C270.897 542.545 269.764 542.16 268.359 542.16H262.443V550.796ZM278.942 550.524L288.224 543.044C289.652 541.888 290.683 540.8 291.318 539.78C291.975 538.76 292.304 537.706 292.304 536.618C292.304 535.19 291.828 534.034 290.876 533.15C289.946 532.266 288.7 531.824 287.136 531.824C285.776 531.824 284.608 532.186 283.634 532.912C282.682 533.637 281.911 534.702 281.322 536.108L278.738 535.156C279.463 533.229 280.54 531.756 281.968 530.736C283.396 529.716 285.118 529.206 287.136 529.206C288.337 529.206 289.425 529.387 290.4 529.75C291.374 530.112 292.202 530.622 292.882 531.28C293.584 531.914 294.117 532.685 294.48 533.592C294.865 534.498 295.058 535.507 295.058 536.618C295.058 538.159 294.661 539.587 293.868 540.902C293.074 542.216 291.771 543.599 289.958 545.05L282.478 551H295.466V553.55H278.942V550.524ZM306.287 554.094C304.429 554.094 302.819 553.697 301.459 552.904C300.099 552.088 299.011 550.92 298.195 549.402L300.507 548.042C301.845 550.354 303.76 551.51 306.253 551.51C307.115 551.51 307.897 551.385 308.599 551.136C309.325 550.864 309.937 550.49 310.435 550.014C310.957 549.538 311.353 548.96 311.625 548.28C311.897 547.6 312.033 546.852 312.033 546.036C312.033 544.404 311.523 543.112 310.503 542.16C309.483 541.208 308.089 540.732 306.321 540.732C304.259 540.732 302.638 541.468 301.459 542.942L299.215 542.126L299.861 529.75H313.461V532.334H302.377L301.969 539.61C303.329 538.658 304.95 538.182 306.831 538.182C308.033 538.182 309.121 538.374 310.095 538.76C311.093 539.122 311.931 539.644 312.611 540.324C313.314 541.004 313.847 541.831 314.209 542.806C314.595 543.758 314.787 544.823 314.787 546.002C314.787 547.226 314.583 548.336 314.175 549.334C313.767 550.331 313.189 551.181 312.441 551.884C311.716 552.586 310.832 553.13 309.789 553.516C308.747 553.901 307.579 554.094 306.287 554.094ZM325.644 546.376L317.382 529.75H320.612L327.106 543.146L332.852 529.75H336.048L325.44 553.55H322.448L325.644 546.376ZM340.046 529.75H343.004V539.712H346.982L354.564 529.75H358.032L349.396 541.004L358.1 553.55H354.496L346.88 542.466H343.004V553.55H340.046V529.75ZM377.494 553.55V534.51L365.22 553.55H362.126V529.75H365.118V548.79L377.392 529.75H380.486V553.55H377.494ZM395.196 554.094C393.745 554.094 392.442 553.788 391.286 553.176C390.13 552.564 389.144 551.714 388.328 550.626C387.512 549.515 386.877 548.2 386.424 546.682C385.993 545.14 385.778 543.463 385.778 541.65C385.778 539.836 385.993 538.17 386.424 536.652C386.877 535.11 387.512 533.796 388.328 532.708C389.144 531.597 390.13 530.736 391.286 530.124C392.442 529.512 393.745 529.206 395.196 529.206C396.646 529.206 397.95 529.512 399.106 530.124C400.262 530.736 401.248 531.597 402.064 532.708C402.88 533.796 403.503 535.11 403.934 536.652C404.387 538.17 404.614 539.836 404.614 541.65C404.614 543.463 404.387 545.14 403.934 546.682C403.503 548.2 402.88 549.515 402.064 550.626C401.248 551.714 400.262 552.564 399.106 553.176C397.95 553.788 396.646 554.094 395.196 554.094ZM395.196 531.892C394.176 531.892 393.258 532.13 392.442 532.606C391.626 533.082 390.934 533.762 390.368 534.646C389.801 535.507 389.359 536.538 389.042 537.74C388.747 538.918 388.6 540.222 388.6 541.65C388.6 543.078 388.747 544.392 389.042 545.594C389.359 546.772 389.801 547.804 390.368 548.688C390.934 549.549 391.626 550.218 392.442 550.694C393.258 551.17 394.176 551.408 395.196 551.408C396.216 551.408 397.134 551.17 397.95 550.694C398.766 550.218 399.457 549.549 400.024 548.688C400.59 547.804 401.021 546.772 401.316 545.594C401.633 544.392 401.792 543.078 401.792 541.65C401.792 540.222 401.633 538.918 401.316 537.74C401.021 536.538 400.59 535.507 400.024 534.646C399.457 533.762 398.766 533.082 397.95 532.606C397.134 532.13 396.216 531.892 395.196 531.892ZM408.035 550.524L417.317 543.044C418.745 541.888 419.777 540.8 420.411 539.78C421.069 538.76 421.397 537.706 421.397 536.618C421.397 535.19 420.921 534.034 419.969 533.15C419.04 532.266 417.793 531.824 416.229 531.824C414.869 531.824 413.702 532.186 412.727 532.912C411.775 533.637 411.005 534.702 410.415 536.108L407.831 535.156C408.557 533.229 409.633 531.756 411.061 530.736C412.489 529.716 414.212 529.206 416.229 529.206C417.431 529.206 418.519 529.387 419.493 529.75C420.468 530.112 421.295 530.622 421.975 531.28C422.678 531.914 423.211 532.685 423.573 533.592C423.959 534.498 424.151 535.507 424.151 536.618C424.151 538.159 423.755 539.587 422.961 540.902C422.168 542.216 420.865 543.599 419.051 545.05L411.571 551H424.559V553.55H408.035V550.524Z" fill="white"/>
<path d="M259.927 741.75H262.885V751.712H266.863L274.445 741.75H277.913L269.277 753.004L277.981 765.55H274.377L266.761 754.466H262.885V765.55H259.927V741.75ZM279.543 760.892C279.543 759.26 280.155 757.968 281.379 757.016C282.603 756.064 284.349 755.531 286.615 755.418L291.375 755.18V754.942C291.375 753.559 290.979 752.482 290.185 751.712C289.415 750.941 288.349 750.556 286.989 750.556C285.901 750.556 284.972 750.805 284.201 751.304C283.431 751.78 282.819 752.494 282.365 753.446L280.019 752.256C280.677 750.896 281.606 749.864 282.807 749.162C284.009 748.436 285.414 748.074 287.023 748.074C288.089 748.074 289.052 748.232 289.913 748.55C290.797 748.867 291.545 749.309 292.157 749.876C292.769 750.442 293.245 751.134 293.585 751.95C293.925 752.743 294.095 753.638 294.095 754.636V765.55H291.375V762.83C290.763 763.872 289.947 764.666 288.927 765.21C287.93 765.754 286.763 766.026 285.425 766.026C283.635 766.026 282.207 765.561 281.141 764.632C280.076 763.702 279.543 762.456 279.543 760.892ZM285.833 763.544C286.627 763.544 287.363 763.408 288.043 763.136C288.723 762.864 289.301 762.49 289.777 762.014C290.276 761.538 290.661 760.982 290.933 760.348C291.228 759.713 291.375 759.033 291.375 758.308V757.526L286.819 757.73C285.346 757.798 284.224 758.092 283.453 758.614C282.705 759.112 282.331 759.826 282.331 760.756C282.331 761.617 282.637 762.297 283.249 762.796C283.884 763.294 284.745 763.544 285.833 763.544ZM308.071 759.872L313.545 748.55H317.013V765.55H314.361V752.426L309.091 763.204H306.983L301.713 752.426V765.55H299.061V748.55H302.597L308.071 759.872ZM324.924 748.55V761.47L333.866 748.55H336.654V765.55H333.9V752.63L324.958 765.55H322.17V748.55H324.924ZM340.058 762.966H340.466C341.056 762.966 341.543 762.841 341.928 762.592C342.314 762.342 342.608 761.912 342.812 761.3C343.039 760.665 343.198 759.826 343.288 758.784C343.379 757.718 343.424 756.392 343.424 754.806V748.55H355.766V765.55H353.012V751.1H346.144V755.486C346.144 757.344 346.042 758.92 345.838 760.212C345.657 761.504 345.351 762.558 344.92 763.374C344.512 764.167 343.957 764.745 343.254 765.108C342.574 765.448 341.736 765.618 340.738 765.618H340.058V762.966ZM359.762 760.892C359.762 759.26 360.374 757.968 361.598 757.016C362.822 756.064 364.567 755.531 366.834 755.418L371.594 755.18V754.942C371.594 753.559 371.197 752.482 370.404 751.712C369.633 750.941 368.568 750.556 367.208 750.556C366.12 750.556 365.191 750.805 364.42 751.304C363.649 751.78 363.037 752.494 362.584 753.446L360.238 752.256C360.895 750.896 361.825 749.864 363.026 749.162C364.227 748.436 365.633 748.074 367.242 748.074C368.307 748.074 369.271 748.232 370.132 748.55C371.016 748.867 371.764 749.309 372.376 749.876C372.988 750.442 373.464 751.134 373.804 751.95C374.144 752.743 374.314 753.638 374.314 754.636V765.55H371.594V762.83C370.982 763.872 370.166 764.666 369.146 765.21C368.149 765.754 366.981 766.026 365.644 766.026C363.853 766.026 362.425 765.561 361.36 764.632C360.295 763.702 359.762 762.456 359.762 760.892ZM366.052 763.544C366.845 763.544 367.582 763.408 368.262 763.136C368.942 762.864 369.52 762.49 369.996 762.014C370.495 761.538 370.88 760.982 371.152 760.348C371.447 759.713 371.594 759.033 371.594 758.308V757.526L367.038 757.73C365.565 757.798 364.443 758.092 363.672 758.614C362.924 759.112 362.55 759.826 362.55 760.756C362.55 761.617 362.856 762.297 363.468 762.796C364.103 763.294 364.964 763.544 366.052 763.544ZM388.655 741.75H397.563C398.697 741.75 399.728 741.931 400.657 742.294C401.609 742.656 402.414 743.166 403.071 743.824C403.751 744.481 404.273 745.274 404.635 746.204C405.021 747.11 405.213 748.13 405.213 749.264C405.213 750.397 405.021 751.428 404.635 752.358C404.273 753.287 403.751 754.092 403.071 754.772C402.414 755.429 401.609 755.939 400.657 756.302C399.728 756.664 398.697 756.846 397.563 756.846H391.613V765.55H388.655V741.75ZM397.325 754.092C398.799 754.092 399.977 753.672 400.861 752.834C401.768 751.972 402.221 750.794 402.221 749.298C402.221 748.572 402.097 747.926 401.847 747.36C401.621 746.77 401.292 746.26 400.861 745.83C400.431 745.399 399.909 745.07 399.297 744.844C398.708 744.617 398.051 744.504 397.325 744.504H391.613V754.092H397.325ZM412.182 748.55V761.47L421.124 748.55H423.912V765.55H421.158V752.63L412.216 765.55H409.428V748.55H412.182ZM433.402 756.948L427.588 748.55H430.682L435.102 755.214L439.488 748.55H442.548L436.734 756.948L442.956 765.55H439.794L435.068 758.614L430.308 765.55H427.18L433.402 756.948ZM458.729 748.55V751.066H452.881V765.55H450.161V751.066H444.313V748.55H458.729ZM469.309 766.026C467.995 766.026 466.793 765.81 465.705 765.38C464.64 764.926 463.722 764.303 462.951 763.51C462.181 762.716 461.58 761.776 461.149 760.688C460.719 759.6 460.503 758.41 460.503 757.118C460.503 755.803 460.719 754.602 461.149 753.514C461.58 752.403 462.181 751.451 462.951 750.658C463.745 749.842 464.674 749.207 465.739 748.754C466.805 748.3 467.961 748.074 469.207 748.074C470.409 748.074 471.497 748.278 472.471 748.686C473.469 749.071 474.319 749.626 475.021 750.352C475.724 751.077 476.268 751.95 476.653 752.97C477.061 753.967 477.265 755.078 477.265 756.302C477.265 756.778 477.231 757.276 477.163 757.798H463.325C463.461 759.498 464.073 760.869 465.161 761.912C466.249 762.932 467.643 763.442 469.343 763.442C471.497 763.442 473.174 762.512 474.375 760.654L476.551 762.286C474.829 764.779 472.415 766.026 469.309 766.026ZM469.139 750.624C467.643 750.624 466.397 751.066 465.399 751.95C464.425 752.811 463.779 753.956 463.461 755.384H474.443C474.421 754.704 474.262 754.069 473.967 753.48C473.695 752.89 473.321 752.392 472.845 751.984C472.392 751.553 471.848 751.224 471.213 750.998C470.579 750.748 469.887 750.624 469.139 750.624ZM481.246 748.55H484V751.44C484.68 750.374 485.553 749.547 486.618 748.958C487.706 748.368 488.93 748.074 490.29 748.074C491.469 748.074 492.568 748.3 493.588 748.754C494.608 749.207 495.492 749.83 496.24 750.624C496.988 751.417 497.566 752.369 497.974 753.48C498.405 754.568 498.62 755.758 498.62 757.05C498.62 758.342 498.405 759.543 497.974 760.654C497.566 761.742 496.988 762.682 496.24 763.476C495.492 764.269 494.608 764.892 493.588 765.346C492.568 765.799 491.469 766.026 490.29 766.026C488.93 766.026 487.706 765.731 486.618 765.142C485.553 764.552 484.68 763.725 484 762.66V772.35H481.246V748.55ZM489.916 763.442C490.8 763.442 491.605 763.283 492.33 762.966C493.055 762.648 493.679 762.206 494.2 761.64C494.721 761.05 495.118 760.37 495.39 759.6C495.685 758.806 495.832 757.956 495.832 757.05C495.832 756.12 495.685 755.27 495.39 754.5C495.118 753.729 494.721 753.06 494.2 752.494C493.679 751.904 493.055 751.451 492.33 751.134C491.605 750.816 490.8 750.658 489.916 750.658C489.032 750.658 488.227 750.816 487.502 751.134C486.777 751.451 486.153 751.904 485.632 752.494C485.111 753.06 484.703 753.729 484.408 754.5C484.136 755.27 484 756.12 484 757.05C484 757.956 484.136 758.806 484.408 759.6C484.703 760.37 485.111 761.05 485.632 761.64C486.153 762.206 486.777 762.648 487.502 762.966C488.227 763.283 489.032 763.442 489.916 763.442Z" fill="white"/>
<path d="M258.927 692.75H261.885V702.576H274.057V692.75H277.015V716.55H274.057V705.33H261.885V716.55H258.927V692.75ZM290.473 717.026C289.181 717.026 288.002 716.799 286.937 716.346C285.871 715.892 284.942 715.269 284.149 714.476C283.378 713.66 282.777 712.708 282.347 711.62C281.916 710.509 281.701 709.319 281.701 708.05C281.701 706.78 281.916 705.602 282.347 704.514C282.777 703.403 283.378 702.451 284.149 701.658C284.942 700.842 285.871 700.207 286.937 699.754C288.002 699.3 289.181 699.074 290.473 699.074C291.765 699.074 292.943 699.3 294.009 699.754C295.074 700.207 295.992 700.842 296.763 701.658C297.556 702.451 298.168 703.403 298.599 704.514C299.029 705.602 299.245 706.78 299.245 708.05C299.245 709.319 299.029 710.509 298.599 711.62C298.168 712.708 297.556 713.66 296.763 714.476C295.992 715.269 295.074 715.892 294.009 716.346C292.943 716.799 291.765 717.026 290.473 717.026ZM290.473 714.442C291.357 714.442 292.161 714.283 292.887 713.966C293.635 713.648 294.269 713.206 294.791 712.64C295.312 712.05 295.72 711.37 296.015 710.6C296.309 709.806 296.457 708.956 296.457 708.05C296.457 707.12 296.309 706.27 296.015 705.5C295.72 704.729 295.312 704.06 294.791 703.494C294.269 702.904 293.635 702.451 292.887 702.134C292.161 701.816 291.357 701.658 290.473 701.658C289.589 701.658 288.773 701.816 288.025 702.134C287.299 702.451 286.676 702.904 286.155 703.494C285.633 704.06 285.225 704.729 284.931 705.5C284.636 706.27 284.489 707.12 284.489 708.05C284.489 708.956 284.636 709.806 284.931 710.6C285.225 711.37 285.633 712.05 286.155 712.64C286.676 713.206 287.299 713.648 288.025 713.966C288.773 714.283 289.589 714.442 290.473 714.442ZM317.686 699.55V716.55H314.932V708.798H306.16V716.55H303.406V699.55H306.16V706.248H314.932V699.55H317.686ZM321.707 711.892C321.707 710.26 322.319 708.968 323.543 708.016C324.767 707.064 326.513 706.531 328.779 706.418L333.539 706.18V705.942C333.539 704.559 333.143 703.482 332.349 702.712C331.579 701.941 330.513 701.556 329.153 701.556C328.065 701.556 327.136 701.805 326.365 702.304C325.595 702.78 324.983 703.494 324.529 704.446L322.183 703.256C322.841 701.896 323.77 700.864 324.971 700.162C326.173 699.436 327.578 699.074 329.187 699.074C330.253 699.074 331.216 699.232 332.077 699.55C332.961 699.867 333.709 700.309 334.321 700.876C334.933 701.442 335.409 702.134 335.749 702.95C336.089 703.743 336.259 704.638 336.259 705.636V716.55H333.539V713.83C332.927 714.872 332.111 715.666 331.091 716.21C330.094 716.754 328.927 717.026 327.589 717.026C325.799 717.026 324.371 716.561 323.305 715.632C322.24 714.702 321.707 713.456 321.707 711.892ZM327.997 714.544C328.791 714.544 329.527 714.408 330.207 714.136C330.887 713.864 331.465 713.49 331.941 713.014C332.44 712.538 332.825 711.982 333.097 711.348C333.392 710.713 333.539 710.033 333.539 709.308V708.526L328.983 708.73C327.51 708.798 326.388 709.092 325.617 709.614C324.869 710.112 324.495 710.826 324.495 711.756C324.495 712.617 324.801 713.297 325.413 713.796C326.048 714.294 326.909 714.544 327.997 714.544ZM369.097 716.55H366.003L363.759 710.226H353.661L351.417 716.55H348.357L357.095 692.75H360.359L369.097 716.55ZM362.875 707.642L358.727 695.844L354.545 707.642H362.875ZM372.568 699.55H375.322V702.44C376.002 701.374 376.875 700.547 377.94 699.958C379.028 699.368 380.252 699.074 381.612 699.074C382.791 699.074 383.89 699.3 384.91 699.754C385.93 700.207 386.814 700.83 387.562 701.624C388.31 702.417 388.888 703.369 389.296 704.48C389.727 705.568 389.942 706.758 389.942 708.05C389.942 709.342 389.727 710.543 389.296 711.654C388.888 712.742 388.31 713.682 387.562 714.476C386.814 715.269 385.93 715.892 384.91 716.346C383.89 716.799 382.791 717.026 381.612 717.026C380.252 717.026 379.028 716.731 377.94 716.142C376.875 715.552 376.002 714.725 375.322 713.66V723.35H372.568V699.55ZM381.238 714.442C382.122 714.442 382.927 714.283 383.652 713.966C384.378 713.648 385.001 713.206 385.522 712.64C386.044 712.05 386.44 711.37 386.712 710.6C387.007 709.806 387.154 708.956 387.154 708.05C387.154 707.12 387.007 706.27 386.712 705.5C386.44 704.729 386.044 704.06 385.522 703.494C385.001 702.904 384.378 702.451 383.652 702.134C382.927 701.816 382.122 701.658 381.238 701.658C380.354 701.658 379.55 701.816 378.824 702.134C378.099 702.451 377.476 702.904 376.954 703.494C376.433 704.06 376.025 704.729 375.73 705.5C375.458 706.27 375.322 707.12 375.322 708.05C375.322 708.956 375.458 709.806 375.73 710.6C376.025 711.37 376.433 712.05 376.954 712.64C377.476 713.206 378.099 713.648 378.824 713.966C379.55 714.283 380.354 714.442 381.238 714.442ZM392.928 711.892C392.928 710.26 393.54 708.968 394.764 708.016C395.988 707.064 397.733 706.531 400 706.418L404.76 706.18V705.942C404.76 704.559 404.363 703.482 403.57 702.712C402.799 701.941 401.734 701.556 400.374 701.556C399.286 701.556 398.357 701.805 397.586 702.304C396.815 702.78 396.203 703.494 395.75 704.446L393.404 703.256C394.061 701.896 394.991 700.864 396.192 700.162C397.393 699.436 398.799 699.074 400.408 699.074C401.473 699.074 402.437 699.232 403.298 699.55C404.182 699.867 404.93 700.309 405.542 700.876C406.154 701.442 406.63 702.134 406.97 702.95C407.31 703.743 407.48 704.638 407.48 705.636V716.55H404.76V713.83C404.148 714.872 403.332 715.666 402.312 716.21C401.315 716.754 400.147 717.026 398.81 717.026C397.019 717.026 395.591 716.561 394.526 715.632C393.461 714.702 392.928 713.456 392.928 711.892ZM399.218 714.544C400.011 714.544 400.748 714.408 401.428 714.136C402.108 713.864 402.686 713.49 403.162 713.014C403.661 712.538 404.046 711.982 404.318 711.348C404.613 710.713 404.76 710.033 404.76 709.308V708.526L400.204 708.73C398.731 708.798 397.609 709.092 396.838 709.614C396.09 710.112 395.716 710.826 395.716 711.756C395.716 712.617 396.022 713.297 396.634 713.796C397.269 714.294 398.13 714.544 399.218 714.544ZM415.199 706.52H417.885L423.563 699.55H426.793L420.163 707.608L426.929 716.55H423.563L417.919 709.036H415.199V716.55H412.445V699.55H415.199V706.52ZM437.099 717.026C435.784 717.026 434.583 716.81 433.495 716.38C432.429 715.926 431.511 715.303 430.741 714.51C429.97 713.716 429.369 712.776 428.939 711.688C428.508 710.6 428.293 709.41 428.293 708.118C428.293 706.803 428.508 705.602 428.939 704.514C429.369 703.403 429.97 702.451 430.741 701.658C431.534 700.842 432.463 700.207 433.529 699.754C434.594 699.3 435.75 699.074 436.997 699.074C438.198 699.074 439.286 699.278 440.261 699.686C441.258 700.071 442.108 700.626 442.811 701.352C443.513 702.077 444.057 702.95 444.443 703.97C444.851 704.967 445.055 706.078 445.055 707.302C445.055 707.778 445.021 708.276 444.953 708.798H431.115C431.251 710.498 431.863 711.869 432.951 712.912C434.039 713.932 435.433 714.442 437.133 714.442C439.286 714.442 440.963 713.512 442.165 711.654L444.341 713.286C442.618 715.779 440.204 717.026 437.099 717.026ZM436.929 701.624C435.433 701.624 434.186 702.066 433.189 702.95C432.214 703.811 431.568 704.956 431.251 706.384H442.233C442.21 705.704 442.051 705.069 441.757 704.48C441.485 703.89 441.111 703.392 440.635 702.984C440.181 702.553 439.637 702.224 439.003 701.998C438.368 701.748 437.677 701.624 436.929 701.624ZM446.869 713.966H447.277C447.866 713.966 448.353 713.841 448.739 713.592C449.124 713.342 449.419 712.912 449.623 712.3C449.849 711.665 450.008 710.826 450.099 709.784C450.189 708.718 450.235 707.392 450.235 705.806V699.55H462.577V716.55H459.823V702.1H452.955V706.486C452.955 708.344 452.853 709.92 452.649 711.212C452.467 712.504 452.161 713.558 451.731 714.374C451.323 715.167 450.767 715.745 450.065 716.108C449.385 716.448 448.546 716.618 447.549 716.618H446.869V713.966ZM479.731 699.55V716.55H477.011V710.668H473.033L469.157 716.55H465.995L470.109 710.328C468.953 709.942 468.046 709.296 467.389 708.39C466.754 707.483 466.437 706.395 466.437 705.126C466.437 704.31 466.573 703.562 466.845 702.882C467.139 702.179 467.547 701.59 468.069 701.114C468.59 700.615 469.213 700.23 469.939 699.958C470.664 699.686 471.469 699.55 472.353 699.55H479.731ZM477.011 702.032H472.625C471.537 702.032 470.687 702.326 470.075 702.916C469.463 703.482 469.157 704.219 469.157 705.126C469.157 706.032 469.463 706.769 470.075 707.336C470.687 707.902 471.537 708.186 472.625 708.186H477.011V702.032ZM499.175 699.55V716.55H496.421V708.798H487.649V716.55H484.895V699.55H487.649V706.248H496.421V699.55H499.175Z" fill="white"/>
<path d="M377.287 372.36C378.169 375.612 378.115 377.586 378.103 381.21C378.1 382.407 378.098 383.603 378.095 384.836C378.089 386.099 378.083 387.363 378.077 388.627C378.074 389.494 378.032 388.368 378.03 389.235C378.029 389.642 378.067 392.043 378.066 392.45C378.065 392.791 378.064 393.132 378.063 393.473C378.055 396.253 378.044 399.032 378.03 401.812C376.172 402.497 374.474 402.497 373.359 401.127C373.227 398.342 373.227 398.342 373.238 394.724C373.238 394.089 373.239 393.455 373.24 392.8C373.242 391.457 373.247 390.114 373.255 388.771C373.267 386.707 373.27 384.643 373.272 382.579C373.301 371.516 375 371.516 377.287 372.36Z" fill="white"/>
<path d="M397.233 374.164C399.255 374.616 401.276 375.068 403.359 375.534C403.763 376.212 404.167 376.89 404.584 377.589C405.797 378.041 407.01 378.493 408.259 378.958C411.487 384.281 411.241 389.902 409.485 395.397C408.272 396.075 407.059 396.753 405.809 397.452C405.329 398.031 404.849 398.61 404.354 399.207C399.651 402.743 389.593 402.236 387.398 401.812C385.68 400.828 385.68 400.828 384.937 397.403C384.569 396.499 384.201 395.595 383.822 394.663C383.792 394.267 383.764 393.87 383.736 393.473C383.684 392.726 383.495 389.984 383.451 389.235C383.398 388.326 383.492 389.41 383.451 388.499C383.328 387.595 383.206 386.691 383.079 385.759C384.502 374.683 384.502 374.683 387.375 372.36C388.897 372.003 393.566 372.114 397.233 374.164ZM386.795 380.965C386.072 386.293 386.249 391.052 387.538 396.033C388.852 397.192 390.542 397.241 394.783 397.452C402.454 393.163 401.614 386.613 399.683 381.013C393.17 376.976 388.48 376.407 386.795 380.965Z" fill="white"/>
<path d="M378.03 389.235L378.066 392.45C378.065 392.791 378.064 393.132 378.063 393.473H383.736C383.684 392.726 383.495 389.984 383.451 389.235H378.03Z" fill="white"/>
<path d="M354.842 367.986C354.858 369.813 354.858 371.64 354.842 373.466C355.264 373.438 364.997 373.495 365.431 373.466C367.901 374.589 369.099 377.226 370.47 381.086C371.191 385.87 370.781 389.565 369.727 394.1C368.13 396.755 357.172 398.554 355.214 400.178C355.214 402.213 355.214 404.247 355.214 406.343C353.356 407.028 353.356 407.028 351.87 406.343C351.842 403.628 351.882 401.461 352.242 398.809C351.322 399.148 342.219 399.833 341.281 400.178C340.913 399.5 340.546 398.822 340.167 398.124C339.554 397.672 338.94 397.22 338.309 396.754C337.078 394.484 336.884 391.575 336.451 388.535C336.574 388.083 336.696 387.63 336.823 387.165C336.853 386.204 336.884 385.243 336.916 384.254C337.357 379.101 338.707 376.754 341.281 374.836C341.772 374.61 351.365 373.699 351.87 373.466C351.747 371.432 351.625 369.397 351.499 367.302C353.876 366.206 353.876 366.206 354.842 367.986ZM340.167 381.685C339.118 385.553 338.88 389.426 340.027 393.329C341.027 395.052 350.13 394.367 352.242 395.384C352.242 389.507 352.242 383.63 352.242 377.576C351.236 377.576 340.905 380.634 340.167 381.685ZM354.842 378.261C354.545 381.15 354.421 383.882 354.424 386.822C354.423 387.564 354.423 388.306 354.422 389.07C354.47 391.229 354.624 393.263 354.842 395.384C357.582 393.432 367.682 390.353 368.241 385.196C367.278 380.664 367.278 380.664 365.153 378.303C364.823 378.317 355.182 378.246 354.842 378.261Z" fill="white"/>
<path d="M297.034 371.719C302.43 376.246 302.706 379.63 302.29 385.161C302.046 389.414 301.944 393.017 304.127 397.062C303.793 398.192 303.458 399.322 303.114 400.486C301.107 400.26 299.101 400.034 297.034 399.801C297.034 399.349 297.034 398.897 297.034 398.431V395.899C296.7 396.578 294.339 399.788 293.994 400.486C289.488 402.009 288.47 402.696 286.7 402.198C286.067 402.037 286.067 402.037 285.421 401.872C284.308 401.257 284.308 401.257 283.193 398.517C282.722 394.052 282.841 391.126 284.378 387.515C286.435 384.592 289.896 383.16 297.034 382.687C297.034 380.653 297.498 378.2 296.197 375.956C291.16 374.911 288.406 375.553 286.909 377.284C286.541 378.188 286.173 379.092 285.794 380.024C285.181 380.024 284.568 380.024 283.936 380.024C284.027 373.626 284.027 373.626 285.214 371.719C287.566 370.654 291.08 369.706 297.034 371.719ZM288.581 387.515C287.968 387.741 287.912 388.695 287.28 388.928C287.28 389.606 286.909 389.716 286.909 390.415C286.541 390.641 286.545 391.435 286.166 391.667C285.613 394.481 285.613 394.481 286.537 397.147C287.807 397.889 287.807 397.889 289.138 397.832C294.975 393.659 294.084 390.765 293.994 386.103C291.729 385.941 289.236 385.984 288.581 387.515Z" fill="white"/>
<path d="M259.62 375.946C261.584 375.901 273.908 374.973 274.069 374.673C274.313 374.222 276.838 374.904 277.205 375.52C277.356 375.773 277.319 376.532 277.124 377.207C276.929 377.881 276.839 378.792 276.924 379.231C277.009 379.669 277.13 383.754 277.191 388.309C277.253 392.863 277.403 396.774 277.524 396.998C277.977 397.836 277.722 400.198 277.115 400.801C275.378 402.521 274.912 400.67 274.845 391.781C274.819 388.3 274.713 384.065 274.61 382.37L274.424 379.288L272.729 379.398C271.796 379.458 270.877 379.686 270.687 379.905C270.405 380.226 270.311 387.863 270.588 387.863C270.63 387.863 270.713 390.033 270.774 392.685C270.835 395.337 270.974 398.076 271.083 398.773C271.475 401.28 260.629 403.433 259.594 401.518C259.217 400.821 259.145 399.371 259.255 394.689C259.332 391.419 259.267 388.11 259.112 387.335C258.958 386.56 258.94 384.823 259.073 383.475C259.212 382.067 259.177 380.547 258.991 379.905C258.545 378.359 258.925 375.962 259.62 375.946Z" fill="white"/>
<path fill-rule="evenodd" clip-rule="evenodd" d="M312.82 370.852C312.675 371.143 311.83 371.306 310.942 371.213L309.328 371.045L309.474 390.275C309.555 400.851 309.693 409.924 309.782 410.436C309.872 410.949 310.535 411.368 311.258 411.368H312.57V404.363V397.36L314.072 398.036L314.901 398.444C314.901 398.444 318.026 397.28 319.852 397.28C325.942 397.28 333.436 392.931 333.773 389.313C334.108 385.721 333.846 380.37 333.303 379.697C333.125 379.477 332.98 378.728 332.98 378.034C332.98 376.89 327.698 374.721 318.438 372.059C314.617 370.96 313.229 370.031 312.82 370.852ZM312.132 380.787C312.185 378.124 312.373 377.244 313.035 376.568C314.883 374.68 320.668 377.406 320.797 381.027C320.821 381.726 321.902 383.155 323.197 384.202C324.904 385.584 324.955 386.568 323.381 387.78C322.187 388.698 320.71 390.027 320.101 390.732C319.492 391.437 314.158 392.96 314.158 392.96L313.533 393.173C313.533 393.173 312.388 391.524 312.31 389.609C312.254 388.248 312.177 386.464 312.137 385.643C312.098 384.823 312.096 382.638 312.132 380.787Z" fill="white"/>
<path fill-rule="evenodd" clip-rule="evenodd" d="M473.697 370.353C473.552 370.645 472.707 370.807 471.819 370.715L470.205 370.547L470.351 389.776C470.431 400.352 470.57 409.425 470.659 409.937C470.749 410.45 471.412 410.869 472.135 410.869H473.447V403.865V396.861L474.949 397.537L475.778 397.946C475.778 397.946 478.903 396.781 480.729 396.781C486.819 396.781 494.313 392.433 494.65 388.814C494.984 385.223 494.723 379.872 494.18 379.199C494.002 378.979 493.857 378.23 493.857 377.535C493.857 376.392 488.575 374.222 479.315 371.56C475.494 370.462 474.106 369.533 473.697 370.353ZM473.009 380.289C473.062 377.626 473.25 376.745 473.912 376.069C475.76 374.181 481.545 376.908 481.674 380.529C481.698 381.227 482.779 382.656 484.073 383.704L484.258 387.281C483.064 388.2 481.587 389.529 480.978 390.233C480.369 390.939 475.035 392.462 475.035 392.462L474.41 392.674C474.41 392.674 473.265 391.025 473.187 389.11C473.131 387.749 473.054 385.965 473.014 385.145C472.975 384.325 472.973 382.139 473.009 380.289Z" fill="white"/>
<path d="M429.601 370.165C429.954 371.954 430.308 373.743 430.661 375.532C430.843 376.45 431.026 377.367 431.213 378.312C431.631 380.441 432.032 382.586 432.428 384.734C432.661 385.24 432.894 385.746 433.135 386.268C433.27 385.116 433.27 385.116 433.408 383.94C433.854 380.815 434.433 378.104 435.122 375.197C435.345 374.249 435.569 373.301 435.799 372.324C436.054 371.255 436.054 371.255 436.315 370.165C438.744 370.835 438.744 370.835 439.142 371.698C439.259 373.743 439.377 375.788 439.495 377.833C439.67 378.212 439.67 378.212 439.848 378.6C439.966 380.9 440.084 383.2 440.202 385.501C440.318 385.754 440.435 386.007 440.555 386.268C440.673 388.057 440.791 389.846 440.908 391.635C441.025 391.888 441.142 392.142 441.262 392.402C441.382 394.958 441.5 397.514 441.615 400.07C441.732 400.83 441.848 401.589 441.968 402.371C440.555 403.138 440.555 403.138 438.788 402.371C438.08 398.167 437.824 394.095 437.574 389.67C437.382 387.123 437.076 384.854 436.668 382.434C435.864 385.05 435.691 387.03 435.409 390.102C434.928 395.294 434.928 395.294 434.548 397.77C433.732 397.77 432.916 397.77 432.075 397.77C431.794 396.445 431.515 395.118 431.235 393.792C431.08 393.054 430.924 392.315 430.763 391.555C430.354 389.558 429.975 387.531 429.601 385.501C428.35 388.216 428.867 398.035 428.894 401.604C427.845 401.604 421.159 401.604 412.988 401.604C413.367 399.415 413.759 397.227 414.157 395.038C414.373 393.819 414.59 392.601 414.814 391.345C415.659 387.801 415.659 387.801 417.098 385.016C418.854 381.332 418.244 377.717 417.901 374.008C418.772 369.306 427.789 370.019 429.601 370.165ZM428.894 382.434C429.248 383.967 429.248 383.967 429.248 383.967L428.894 382.434Z" fill="white"/>
<path fill-rule="evenodd" clip-rule="evenodd" d="M451.64 370.513C450.67 370.734 450.019 371.521 449.178 373.49C448.549 374.963 448.034 376.711 448.033 377.375C448.031 378.038 447.812 379.507 447.545 380.637C446.904 383.351 447.133 394.413 447.868 396.206C448.146 396.884 448.374 397.797 448.374 398.232C448.374 399.339 449.911 401.445 450.719 401.445C451.088 401.445 451.484 401.782 451.6 402.195C452.221 404.414 457.701 401.391 462.725 397.342C466.492 394.306 465.818 393.48 458.975 392.745C458.975 392.745 454.635 391.83 454.635 392.745C454.635 394.5 452.697 397.7 451.812 397.189C450.425 396.388 449.129 388.043 450.366 387.878C450.671 387.837 458.59 387.603 459.884 387.451C462.58 387.134 463.255 386.133 463.241 382.472C463.222 377.402 462.708 374.037 461.64 371.977C461.06 370.86 460.357 369.989 460.077 370.042C459.797 370.094 452.364 370.348 451.64 370.513ZM450.411 379.378C450.411 377.328 450.939 376.215 452.109 375.801C453.17 375.424 460.285 376.343 460.572 379.378C460.764 381.404 460.685 381.827 460.029 382.288C458.222 383.554 449.011 383.028 450.066 381.588C450.256 381.329 450.411 380.335 450.411 379.378Z" fill="white"/>
<path d="M519.627 627.83C520.812 627.608 521.996 627.342 523.171 627.004C523.505 628.641 523.839 630.278 524.184 631.964C522.231 634.09 520.916 633.741 518.614 633.618C518.618 634.851 518.618 634.851 518.622 636.109C518.632 639.808 518.639 643.508 518.645 647.207C518.65 648.502 518.654 649.796 518.658 651.13C518.661 652.972 518.661 652.972 518.663 654.852C518.667 656.56 518.667 656.56 518.671 658.302C518.614 660.9 518.614 660.9 518.107 661.727C516.926 661.761 508.655 661.762 507.474 661.727C507.02 658.764 506.902 656.559 506.9 653.54C506.9 652.6 506.899 651.659 506.898 650.69C506.9 649.711 506.902 648.733 506.904 647.724C506.901 646.261 506.901 646.261 506.898 644.767C506.899 643.826 506.9 642.884 506.9 641.914C506.901 641.056 506.901 640.198 506.902 639.315C506.967 636.925 506.967 636.925 507.474 632.791C505.803 633.064 504.132 633.337 502.41 633.618C501.397 630.311 501.397 630.311 501.397 627.83C505.176 626.758 515.86 626.6 519.627 627.83Z" fill="white"/>
<path d="M300.601 622.655C303.656 626.561 304.653 629.953 304.38 636.463C303.133 636.463 301.886 636.463 300.601 636.463C300.245 634.336 299.889 632.21 299.522 630.019C296.282 629.966 296.282 629.966 294.124 633.644C293.139 640.462 293.148 647.374 294.663 653.954C296.28 655.437 296.28 655.437 297.902 655.795C299.722 653.053 299.722 653.053 300.601 648.43C301.67 648.734 302.739 649.038 303.84 649.351C304.525 654.024 303.919 654.915 302.221 658.556C301.864 658.556 301.508 658.556 301.141 658.556C300.785 659.771 300.428 660.987 300.061 662.239C295.088 662.981 293.15 662.239 289.805 655.795C289.627 654.276 289.449 652.757 289.265 651.192C289.087 649.977 288.909 648.762 288.726 647.51C288.745 645.551 288.805 643.594 288.894 641.641C288.937 640.628 288.979 639.614 289.023 638.57C289.98 626.622 293.263 620.248 300.601 622.655Z" fill="white"/>
<path d="M400.354 623.257C403.409 627.163 404.405 630.555 404.133 637.065C402.886 637.065 401.639 637.065 400.354 637.065C399.998 634.939 399.642 632.812 399.275 630.621C396.035 630.568 396.035 630.568 393.877 634.246C392.892 641.064 392.901 647.976 394.416 654.556C396.033 656.039 396.033 656.039 397.655 656.397C399.475 653.655 399.475 653.655 400.354 649.032C401.423 649.336 402.492 649.64 403.593 649.953C404.278 654.626 403.672 655.517 401.974 659.158C401.617 659.158 401.261 659.158 400.894 659.158C400.538 660.374 400.181 661.589 399.814 662.841C394.841 663.583 392.903 662.841 389.558 656.397C389.38 654.878 389.202 653.359 389.018 651.794C388.84 650.579 388.662 649.364 388.479 648.112C388.498 646.153 388.558 644.196 388.647 642.243C388.69 641.23 388.732 640.216 388.776 639.172C389.733 627.224 393.016 620.85 400.354 623.257Z" fill="white"/>
<path d="M465.605 626.8C465.288 624.003 465.392 623.465 466.42 622.586C469.173 620.233 469.622 621.417 469.636 631.076C469.642 635.13 469.787 638.696 469.959 639C470.407 639.796 482.344 640.551 483.05 639.777C483.459 639.327 483.575 636.633 483.422 631.076L483.202 623.027H485.137L495.294 622.586L495.274 628.661C495.222 643.783 495.61 658.268 496.103 659.671C496.803 661.661 496.582 661.959 494.147 662.317L483.899 663.056L483.835 659.467C483.799 657.493 483.742 653.591 483.708 650.796L483.646 645.716L473.552 645.278C471.949 645.406 470.459 645.566 470.24 645.634C469.862 645.751 470.025 657.374 470.442 660.078C470.575 660.934 469.994 661.6 468.662 662.118C467.575 662.54 466.584 662.706 466.46 662.485C466.336 662.265 466.175 654.867 466.102 646.045C466.029 637.224 465.805 628.564 465.605 626.8Z" fill="white"/>
<path d="M421.392 624.22C422.578 623.997 423.761 623.731 424.936 623.393C425.271 625.03 425.627 634.963 425.971 636.65C424.018 638.775 422.703 638.427 420.401 638.303C420.405 639.537 420.387 632.498 420.387 632.498C420.398 636.198 420.404 639.897 420.411 643.596C420.415 644.891 420.419 646.185 420.424 647.519C420.426 649.361 420.426 649.361 420.429 651.241C420.433 652.949 420.433 652.949 420.437 654.691C420.379 657.289 420.379 657.289 419.873 658.116C418.692 658.15 417.51 658.151 416.328 658.116C415.875 655.153 415.757 652.949 415.755 649.929C415.754 648.989 415.753 648.048 415.753 647.079C415.755 646.101 415.757 645.122 415.759 644.113C415.756 642.65 415.756 642.65 415.753 641.157C415.753 640.215 415.754 639.273 415.755 638.303L415.753 637.574L416.35 637.477C414.679 637.749 413.008 638.022 411.287 638.303C410.274 634.996 410.252 626.7 410.252 624.22C414.03 623.147 417.625 622.99 421.392 624.22Z" fill="white"/>
<path d="M273.995 625.983C281.349 631.447 281.725 635.532 281.158 642.208C280.825 647.342 280.686 651.691 283.662 656.573C283.206 657.937 282.75 659.301 282.281 660.707C279.546 660.434 276.812 660.161 273.995 659.88C273.995 659.334 273.995 658.789 273.995 658.227V655.17C273.539 655.989 270.321 659.863 269.852 660.707C263.71 662.545 262.324 663.374 259.91 662.773C259.048 662.578 259.048 662.578 258.168 662.379C256.651 661.637 256.651 661.637 255.132 658.33C254.489 652.941 254.651 649.409 256.746 645.05C259.55 641.522 264.266 639.794 273.995 639.223C273.995 636.767 274.627 633.806 272.854 631.098C265.99 629.836 262.235 630.612 260.195 632.7C259.694 633.792 259.193 634.883 258.676 636.007C257.841 636.007 257.005 636.007 256.144 636.007C256.267 628.286 256.267 628.286 257.885 625.983C261.091 624.697 265.879 623.554 273.995 625.983ZM262.474 645.05C261.638 645.323 261.562 646.474 260.702 646.755C260.702 647.574 260.195 647.707 260.195 648.55C259.694 648.823 259.699 649.781 259.183 650.062C258.429 653.459 258.429 653.459 259.689 656.676C261.419 657.572 261.419 657.572 263.233 657.503C271.188 652.466 269.974 648.973 269.852 643.345C266.764 643.15 263.367 643.202 262.474 645.05Z" fill="white"/>
<path d="M312.018 627.808C312.089 627.219 313.009 625.771 313.984 624.59C315.404 622.872 316.212 622.53 318.037 622.873C319.292 623.109 337.339 623.921 337.943 624.713C339.296 626.484 340.645 631.288 340.645 634.336C340.645 636.412 340.48 636.586 338.749 636.33C337.321 636.12 320.281 635.635 320.143 634.279C319.822 631.125 318.469 629.167 317.049 629.8C315.233 630.61 314.491 631.925 314.491 634.336C314.491 635.484 314.262 636.674 313.983 636.981C313.362 637.662 313.76 650.305 314.477 652.682C314.751 653.594 315.622 654.74 316.412 655.229C317.624 655.979 318.019 655.799 318.956 654.071C319.565 652.946 320.064 651.398 320.064 650.63C320.064 649.864 320.269 649.01 320.519 648.736C321.282 647.899 340.645 649.252 340.645 650.461C340.645 652.277 339.463 655.827 337.842 658.876C336.562 661.286 319.454 661.729 317.365 661.729C315.299 661.729 314.563 661.218 312.676 658.471C311.199 656.321 310.956 654.501 310.956 653.124C310.956 651.975 310.823 650.819 310.661 650.553C310.353 650.05 310.519 637.992 310.866 635.629C310.975 634.886 311.029 633.733 310.987 633.066C310.945 632.399 311.131 631.184 311.4 630.366C311.669 629.548 311.947 628.397 312.018 627.808Z" fill="white"/>
<path d="M352.812 626.216C352.527 623.58 346.957 624.407 346.957 622.753V629.729V637.548V658.304C346.957 658.585 351.023 658.031 352.527 658.304L353.54 654.17C354.046 652.516 365.186 637.711 365.692 636.057C365.525 636.876 366.333 643.201 366.161 644.045L366.136 647.322C366.092 651.693 367.212 659.206 367.212 659.206L382.402 658.246C382.402 656.367 382.298 654.486 381.865 652.613C380.885 648.871 379.974 645.156 379.871 641.397C379.94 639.022 379.947 636.646 379.947 634.27L369.743 622.83H366.199C365.511 625.3 364.838 627.782 364.173 630.27C363.858 631.935 363.527 633.594 363.161 635.231C361.642 636.884 358.097 642.464 358.097 642.464C356.072 643.367 352.948 648.765 352.812 649.686C352.806 648.997 352.515 642.066 352.509 641.397L352.495 638.72C352.484 636.981 352.494 635.24 352.527 633.501C353.033 629.368 353.033 629.368 352.812 626.216Z" fill="white"/>
<path d="M457.85 629.08C458.761 633.746 459.073 637.529 458.356 642.308C456.924 644.646 455.827 644.296 453.831 644.478C453.199 644.54 440.542 644.602 439.892 644.665C438.832 644.743 437.77 644.788 436.709 644.788C436.546 648.608 436.198 654.37 437.722 657.357C439.279 658.481 451.812 657.429 453.293 657.958C453.293 657.413 453.293 654.444 453.293 653.882C453.794 653.337 454.295 652.791 454.812 652.229C454.979 651.41 455.146 650.592 455.318 649.748C456.488 650.021 457.657 650.294 458.863 650.575C459.657 654.466 458.375 655.851 456.837 658.843C453.533 662.327 439.122 661.536 435.697 658.843C432.297 655.143 432.34 650.238 432.152 643.961C432.11 643.126 432.068 642.29 432.025 641.429C432.343 635.346 433.27 630.507 436.203 626.6C436.37 626.327 436.537 626.054 436.709 625.773C440.322 624.79 455.221 624.44 457.85 629.08ZM437.722 632.387C436.738 635.704 436.738 635.704 436.203 639.001C438.569 639.967 446.587 639.52 448.989 639.001C448.821 636.545 449.161 633.407 448.989 630.877C447.001 629.795 439.573 630.813 437.722 632.387Z" fill="white"/>
<path d="M558.153 624.575C570.669 628.202 569.905 630.402 569.724 634.443C569.69 635.777 569.656 637.11 569.621 638.485C569.533 639.894 569.444 641.303 569.353 642.711C569.3 644.132 569.252 645.553 569.209 646.974C569.085 650.453 568.911 653.932 568.694 657.412C542.34 658.175 556.553 658.175 554.954 656.648C554.764 653.542 554.764 653.542 554.779 649.51C554.78 648.802 554.781 648.094 554.782 647.364C554.786 645.867 554.793 644.369 554.804 642.872C554.821 640.57 554.826 638.27 554.829 635.968C554.871 623.635 558.153 624.575 558.153 624.575Z" fill="white"/>
<path d="M531.94 624.559C533.099 624.559 534.258 624.559 535.452 624.559C535.121 628.595 534.79 632.631 534.449 636.789C536.187 636.433 544.193 636.689 545.967 636.326C549.23 637.945 550.191 640.201 550.921 644.914C551.022 649.618 549.494 653.247 546.939 656.246C544.287 657.945 533.419 658.588 530.937 656.215C530.758 654.116 530.758 654.116 530.772 651.454C530.775 650.498 530.777 649.542 530.78 648.556C530.79 647.552 530.801 646.548 530.811 645.513C530.814 644.514 530.817 643.515 530.819 642.486C530.859 635.076 530.859 635.076 531.438 631.753C531.273 630.566 531.107 629.379 530.937 628.156C531.268 626.969 531.599 625.782 531.94 624.559ZM534.449 641.106C534.381 645.193 534.39 648.603 534.95 652.617C537.577 651.472 545.583 651.728 546.97 648.556C547.223 645.66 547.295 644.168 546.092 641.766C544.916 640.595 535.657 639.373 534.449 641.106Z" fill="white"/>
<defs>
<linearGradient id="paint0_linear_3061_44" x1="529.299" y1="26.0503" x2="645.556" y2="1041.03" gradientUnits="userSpaceOnUse">
<stop offset="0.54515" stop-color="#C35446"/>
<stop offset="0.929279" stop-color="#FEFEFF" stop-opacity="0"/>
</linearGradient>
</defs>
</svg>
