<svg width="1141" height="565" viewBox="0 0 1141 565" fill="none" xmlns="http://www.w3.org/2000/svg">
<g clip-path="url(#clip0_2965_103)">
<path d="M12.4337 25.1834L1225 137.543L863.564 793.148L12.4337 25.1834Z" fill="url(#paint0_linear_2965_103)"/>
<path d="M266.375 162.928L272.113 163.43L271.161 174.308L275.185 174.66L283.19 164.399L289.526 164.953L279.642 177.419L287.086 192.847L280.67 192.285L274.634 179.591L270.729 179.249L269.672 191.323L263.934 190.821L266.375 162.928ZM298.533 194.41C296.993 194.275 295.595 193.885 294.339 193.24C293.084 192.595 292.019 191.766 291.144 190.752C290.296 189.741 289.661 188.575 289.242 187.253C288.851 185.907 288.722 184.477 288.854 182.963C288.987 181.449 289.361 180.076 289.977 178.845C290.623 177.59 291.451 176.538 292.462 175.69C293.499 174.844 294.692 174.212 296.041 173.795C297.389 173.377 298.833 173.236 300.374 173.371C301.941 173.508 303.339 173.898 304.568 174.541C305.823 175.186 306.875 176.014 307.724 177.025C308.599 178.039 309.231 179.218 309.622 180.564C310.042 181.886 310.186 183.304 310.053 184.818C309.921 186.332 309.532 187.717 308.887 188.972C308.27 190.203 307.443 191.241 306.406 192.088C305.395 192.936 304.215 193.569 302.867 193.986C301.545 194.406 300.101 194.547 298.533 194.41ZM298.952 189.629C299.722 189.696 300.438 189.625 301.098 189.415C301.788 189.181 302.394 188.832 302.917 188.369C303.441 187.88 303.867 187.301 304.193 186.634C304.521 185.94 304.721 185.181 304.793 184.358C304.868 183.508 304.802 182.726 304.597 182.012C304.392 181.298 304.072 180.667 303.638 180.121C303.206 179.548 302.67 179.099 302.029 178.775C301.417 178.427 300.726 178.22 299.956 178.152C299.185 178.085 298.455 178.168 297.766 178.402C297.105 178.612 296.512 178.962 295.987 179.451C295.465 179.914 295.041 180.48 294.715 181.147C294.389 181.814 294.188 182.573 294.114 183.423C294.042 184.247 294.107 185.029 294.31 185.769C294.516 186.483 294.834 187.127 295.266 187.7C295.7 188.247 296.223 188.694 296.835 189.042C297.476 189.366 298.181 189.561 298.952 189.629ZM332.901 176.779L331.158 196.702L325.978 196.249L326.693 188.08L318.883 187.397L318.168 195.566L312.988 195.113L314.731 175.189L319.911 175.642L319.294 182.695L327.104 183.378L327.721 176.325L332.901 176.779ZM335.862 187.076C335.997 185.535 336.386 184.15 337.029 182.922C337.674 181.666 338.502 180.615 339.513 179.766C340.524 178.918 341.703 178.298 343.049 177.907C344.423 177.492 345.881 177.352 347.422 177.487C349.6 177.677 351.455 178.348 352.988 179.5C354.52 180.651 355.591 182.177 356.201 184.077L351.539 185.958C351.181 184.856 350.614 183.99 349.839 183.36C349.064 182.73 348.119 182.366 347.003 182.269C346.207 182.199 345.463 182.281 344.774 182.515C344.086 182.723 343.48 183.071 342.955 183.561C342.46 184.026 342.049 184.592 341.723 185.26C341.397 185.927 341.196 186.686 341.122 187.536C341.05 188.359 341.115 189.141 341.318 189.882C341.524 190.596 341.829 191.238 342.234 191.809C342.668 192.356 343.191 192.803 343.803 193.151C344.444 193.475 345.163 193.671 345.96 193.741C347.075 193.839 348.083 193.646 348.982 193.162C349.883 192.652 350.595 191.858 351.117 190.779L355.432 193.325C354.521 195.173 353.195 196.556 351.455 197.474C349.744 198.369 347.773 198.718 345.541 198.523C344 198.388 342.601 198.011 341.344 197.393C340.089 196.748 339.037 195.919 338.188 194.908C337.34 193.897 336.706 192.731 336.286 191.409C335.869 190.061 335.727 188.617 335.862 187.076ZM375.178 180.477L374.767 185.179L368.75 184.653L367.418 199.875L362.238 199.422L363.569 184.2L357.552 183.673L357.964 178.971L375.178 180.477ZM375.906 194.996C376.083 192.977 377.005 191.465 378.672 190.46C380.342 189.428 382.629 188.986 385.534 189.133L389.812 189.346L389.829 189.147C389.929 188.005 389.636 187.069 388.95 186.34C388.291 185.613 387.324 185.194 386.049 185.082C384.03 184.906 382.432 185.729 381.255 187.554L377.365 185.206C379.44 181.988 382.51 180.557 386.574 180.912C389.364 181.156 391.478 182.077 392.918 183.676C394.357 185.274 394.965 187.348 394.742 189.898L393.669 202.171L388.727 201.739L388.944 199.269C387.306 201.16 385.106 201.984 382.343 201.743C381.28 201.65 380.337 201.42 379.512 201.053C378.688 200.687 377.993 200.211 377.429 199.626C376.866 199.015 376.445 198.322 376.165 197.548C375.914 196.75 375.827 195.899 375.906 194.996ZM383.984 197.67C385.498 197.803 386.761 197.445 387.772 196.596C388.783 195.748 389.356 194.553 389.491 193.012L389.498 192.933L385.499 192.743C384.087 192.673 382.99 192.818 382.209 193.178C381.454 193.541 381.04 194.147 380.966 194.997C380.9 195.741 381.128 196.35 381.649 196.823C382.196 197.3 382.975 197.582 383.984 197.67ZM418.201 184.241L416.457 204.165L411.277 203.712L411.992 195.543L404.182 194.86L403.467 203.029L398.287 202.575L400.03 182.652L405.21 183.105L404.593 190.158L412.403 190.841L413.02 183.788L418.201 184.241ZM438.53 186.02L438.118 190.722L432.101 190.195L430.77 205.417L425.589 204.964L426.921 189.742L420.904 189.216L421.316 184.514L438.53 186.02ZM446.809 186.744L445.728 199.097L454.819 187.445L459.959 187.895L458.216 207.819L453.036 207.365L454.116 195.013L445.026 206.665L439.886 206.215L441.629 186.291L446.809 186.744ZM482.914 189.903L481.171 209.827L475.991 209.374L476.706 201.205L468.896 200.522L468.181 208.69L463.001 208.237L464.744 188.313L469.924 188.766L469.307 195.82L477.117 196.503L477.734 189.45L482.914 189.903ZM495.554 211.647C494.013 211.513 492.615 211.123 491.36 210.477C490.105 209.832 489.04 209.003 488.165 207.989C487.316 206.978 486.682 205.812 486.263 204.49C485.872 203.144 485.743 201.714 485.875 200.2C486.007 198.686 486.382 197.313 486.998 196.082C487.643 194.827 488.472 193.775 489.483 192.927C490.52 192.081 491.713 191.449 493.061 191.032C494.41 190.614 495.854 190.473 497.395 190.608C498.962 190.745 500.36 191.135 501.589 191.778C502.844 192.423 503.896 193.251 504.744 194.262C505.619 195.276 506.252 196.455 506.643 197.801C507.063 199.123 507.207 200.541 507.074 202.055C506.942 203.569 506.553 204.954 505.908 206.209C505.291 207.44 504.464 208.479 503.427 209.325C502.415 210.173 501.236 210.806 499.888 211.223C498.566 211.643 497.122 211.784 495.554 211.647ZM495.973 206.866C496.743 206.933 497.459 206.862 498.119 206.652C498.809 206.418 499.415 206.069 499.937 205.606C500.462 205.117 500.887 204.538 501.213 203.871C501.542 203.177 501.742 202.418 501.814 201.595C501.889 200.745 501.823 199.963 501.618 199.249C501.413 198.535 501.093 197.904 500.659 197.358C500.227 196.785 499.691 196.336 499.05 196.013C498.438 195.665 497.747 195.457 496.977 195.389C496.206 195.322 495.476 195.405 494.786 195.64C494.126 195.849 493.533 196.199 493.008 196.689C492.486 197.151 492.062 197.717 491.736 198.384C491.41 199.052 491.209 199.81 491.135 200.66C491.063 201.484 491.128 202.266 491.331 203.006C491.536 203.72 491.855 204.364 492.287 204.937C492.721 205.484 493.244 205.931 493.856 206.279C494.496 206.603 495.202 206.798 495.973 206.866ZM511.752 192.426L521.475 193.277C523.467 193.451 524.981 194.038 526.018 195.039C527.055 196.04 527.507 197.298 527.375 198.812C527.286 199.821 526.943 200.688 526.344 201.412C525.774 202.112 525.008 202.607 524.046 202.897C525.206 203.4 526.068 204.105 526.631 205.011C527.221 205.919 527.461 206.997 527.352 208.246C527.204 209.946 526.487 211.248 525.204 212.153C523.92 213.058 522.242 213.42 520.17 213.239L510.009 212.35L511.752 192.426ZM520.001 200.937C520.772 201.005 521.359 200.869 521.764 200.529C522.17 200.163 522.396 199.728 522.44 199.223C522.484 198.719 522.335 198.277 521.994 197.899C521.654 197.495 521.099 197.259 520.329 197.192L516.185 196.829L515.857 200.575L520.001 200.937ZM519.881 209.198C520.704 209.27 521.333 209.125 521.766 208.761C522.228 208.373 522.486 207.874 522.54 207.263C522.593 206.652 522.425 206.128 522.035 205.693C521.673 205.233 521.081 204.967 520.257 204.895L515.515 204.48L515.139 208.783L519.881 209.198ZM529.966 208.474C530.143 206.456 531.065 204.943 532.732 203.938C534.402 202.907 536.689 202.464 539.594 202.611L543.872 202.825L543.889 202.626C543.989 201.483 543.696 200.548 543.01 199.818C542.351 199.092 541.384 198.672 540.109 198.561C538.09 198.384 536.492 199.208 535.315 201.032L531.425 198.684C533.5 195.466 536.57 194.035 540.634 194.391C543.424 194.635 545.538 195.556 546.978 197.154C548.417 198.752 549.025 200.827 548.802 203.377L547.729 215.65L542.787 215.218L543.004 212.747C541.366 214.638 539.166 215.463 536.403 215.221C535.34 215.128 534.397 214.898 533.572 214.532C532.748 214.165 532.053 213.69 531.489 213.105C530.926 212.493 530.505 211.801 530.225 211.027C529.973 210.228 529.887 209.378 529.966 208.474ZM538.044 211.149C539.558 211.281 540.821 210.923 541.832 210.075C542.843 209.226 543.416 208.032 543.551 206.491L543.558 206.411L539.559 206.222C538.147 206.152 537.05 206.297 536.269 206.657C535.514 207.019 535.1 207.625 535.026 208.475C534.96 209.219 535.188 209.828 535.709 210.302C536.256 210.778 537.035 211.06 538.044 211.149ZM561.963 211.595L564.194 211.79C564.641 211.267 565.047 210.607 565.411 209.809C565.778 208.984 566.092 207.995 566.354 206.84C566.644 205.66 566.898 204.291 567.115 202.73C567.358 201.172 567.568 199.384 567.745 197.365L568.446 189.355L588.688 191.126L586.708 213.76L590.534 214.095L589.557 225.252L583.899 224.757L584.415 218.86L567.161 217.35L566.645 223.247L560.987 222.752L561.963 211.595ZM573.25 198.69C572.958 202.037 572.57 204.787 572.087 206.94C571.633 209.068 571.021 210.862 570.251 212.32L580.97 213.258L582.49 195.884L573.564 195.103L573.25 198.69ZM603.034 221.051C601.493 220.916 600.095 220.526 598.84 219.881C597.585 219.235 596.52 218.406 595.645 217.393C594.796 216.382 594.162 215.215 593.743 213.894C593.352 212.548 593.223 211.118 593.355 209.603C593.488 208.089 593.862 206.717 594.478 205.486C595.123 204.23 595.952 203.179 596.963 202.33C598 201.484 599.193 200.852 600.542 200.435C601.89 200.018 603.334 199.876 604.875 200.011C606.442 200.148 607.84 200.538 609.069 201.181C610.324 201.826 611.376 202.654 612.224 203.665C613.099 204.679 613.732 205.859 614.123 207.204C614.543 208.526 614.687 209.944 614.554 211.458C614.422 212.972 614.033 214.357 613.388 215.612C612.771 216.843 611.944 217.882 610.907 218.728C609.896 219.576 608.716 220.209 607.368 220.627C606.046 221.046 604.602 221.188 603.034 221.051ZM603.453 216.269C604.223 216.336 604.939 216.265 605.599 216.055C606.289 215.821 606.895 215.473 607.417 215.01C607.942 214.52 608.367 213.942 608.694 213.274C609.022 212.58 609.222 211.821 609.294 210.998C609.369 210.148 609.303 209.366 609.098 208.652C608.893 207.938 608.573 207.308 608.139 206.761C607.707 206.188 607.171 205.74 606.53 205.416C605.918 205.068 605.227 204.86 604.457 204.793C603.686 204.725 602.956 204.809 602.266 205.043C601.606 205.253 601.013 205.602 600.488 206.092C599.966 206.555 599.542 207.12 599.216 207.787C598.89 208.455 598.689 209.214 598.615 210.064C598.543 210.887 598.608 211.669 598.811 212.41C599.017 213.124 599.335 213.767 599.767 214.34C600.201 214.887 600.724 215.334 601.336 215.682C601.977 216.006 602.682 216.202 603.453 216.269ZM629.626 213.821L635.888 203.286L641.865 203.809L640.122 223.733L635.42 223.322L636.567 210.212L630.441 220.116L627.651 219.872L623.338 209.055L622.191 222.164L617.489 221.753L619.232 201.829L625.289 202.359L629.626 213.821ZM651.846 204.683L650.766 217.035L659.856 205.383L664.996 205.833L663.253 225.757L658.073 225.304L659.153 212.951L650.063 224.603L644.923 224.153L646.666 204.229L651.846 204.683ZM687.951 207.841L686.208 227.765L681.028 227.312L681.743 219.143L673.933 218.46L673.218 226.629L668.038 226.176L669.781 206.252L674.961 206.705L674.344 213.758L682.154 214.441L682.771 207.388L687.951 207.841ZM697.92 208.714L696.84 221.066L705.93 209.414L711.07 209.864L709.327 229.788L704.147 229.335L705.227 216.982L696.137 228.634L690.997 228.184L692.74 208.26L697.92 208.714ZM720.394 218.068L722.784 218.277L728.766 211.412L734.464 211.911L726.581 220.777L732.92 231.852L727.062 231.34L722.268 222.809L719.996 222.61L719.292 230.66L714.112 230.207L715.855 210.283L721.035 210.736L720.394 218.068ZM734.848 226.399C735.024 224.38 735.946 222.868 737.614 221.863C739.283 220.831 741.571 220.389 744.475 220.536L748.753 220.75L748.771 220.55C748.87 219.408 748.578 218.472 747.892 217.743C747.233 217.016 746.266 216.597 744.99 216.486C742.971 216.309 741.374 217.133 740.197 218.957L736.307 216.609C738.382 213.391 741.451 211.96 745.516 212.315C748.305 212.56 750.42 213.481 751.859 215.079C753.299 216.677 753.907 218.751 753.684 221.302L752.61 233.575L747.669 233.142L747.885 230.672C746.247 232.563 744.047 233.388 741.284 233.146C740.222 233.053 739.278 232.823 738.454 232.457C737.629 232.09 736.935 231.614 736.37 231.03C735.808 230.418 735.387 229.726 735.106 228.952C734.855 228.153 734.769 227.303 734.848 226.399ZM742.925 229.073C744.44 229.206 745.702 228.848 746.713 228C747.725 227.151 748.298 225.957 748.432 224.416L748.439 224.336L744.441 224.147C743.028 224.077 741.931 224.222 741.15 224.582C740.396 224.944 739.981 225.55 739.907 226.4C739.842 227.144 740.07 227.753 740.59 228.227C741.138 228.703 741.916 228.985 742.925 229.073Z" fill="white"/>
<path d="M557.56 405.887L563.298 406.389L562.346 417.267L566.371 417.619L574.376 407.358L580.711 407.912L570.827 420.378L578.271 435.806L571.856 435.244L565.819 422.55L561.914 422.208L560.858 434.282L555.119 433.78L557.56 405.887ZM580.002 430.336C580.179 428.317 581.101 426.805 582.768 425.799C584.438 424.768 586.725 424.325 589.63 424.472L593.908 424.686L593.925 424.487C594.025 423.345 593.732 422.409 593.047 421.68C592.387 420.953 591.42 420.533 590.145 420.422C588.126 420.245 586.528 421.069 585.351 422.894L581.461 420.546C583.536 417.327 586.606 415.896 590.671 416.252C593.46 416.496 595.574 417.417 597.014 419.015C598.453 420.613 599.062 422.688 598.838 425.238L597.765 437.511L592.824 437.079L593.04 434.608C591.402 436.499 589.202 437.324 586.439 437.082C585.376 436.989 584.433 436.76 583.608 436.393C582.784 436.026 582.089 435.551 581.525 434.966C580.963 434.355 580.541 433.662 580.261 432.888C580.01 432.09 579.923 431.239 580.002 430.336ZM588.08 433.01C589.594 433.142 590.857 432.784 591.868 431.936C592.879 431.087 593.452 429.893 593.587 428.352L593.594 428.272L589.595 428.083C588.183 428.013 587.086 428.158 586.305 428.518C585.55 428.88 585.136 429.487 585.062 430.337C584.997 431.08 585.224 431.689 585.745 432.163C586.292 432.639 587.071 432.922 588.08 433.01ZM614.521 429.983L620.782 419.448L626.76 419.971L625.017 439.895L620.314 439.484L621.461 426.374L615.335 436.278L612.546 436.034L608.232 425.217L607.085 438.326L602.383 437.915L604.126 417.991L610.183 418.521L614.521 429.983ZM636.741 420.845L635.66 433.197L644.75 421.545L649.89 421.995L648.147 441.919L642.967 441.466L644.048 429.113L634.958 440.765L629.817 440.315L631.56 420.391L636.741 420.845ZM651.757 437.416L651.996 437.437C652.66 437.495 653.2 437.436 653.617 437.258C654.061 437.083 654.427 436.726 654.715 436.19C655.005 435.626 655.234 434.843 655.402 433.841C655.597 432.84 655.764 431.543 655.903 429.949L656.548 422.578L672.567 423.979L670.824 443.903L665.644 443.45L666.975 428.228L661.157 427.719L660.858 431.146C660.674 433.244 660.396 435.04 660.025 436.534C659.68 438.029 659.159 439.242 658.462 440.171C657.794 441.076 656.922 441.71 655.846 442.071C654.797 442.434 653.489 442.547 651.922 442.41L651.324 442.358L651.757 437.416ZM674.913 438.639C675.09 436.62 676.012 435.108 677.679 434.103C679.349 433.071 681.636 432.629 684.541 432.776L688.819 432.99L688.836 432.79C688.936 431.648 688.643 430.712 687.957 429.983C687.298 429.256 686.331 428.837 685.056 428.726C683.037 428.549 681.439 429.373 680.262 431.197L676.372 428.849C678.447 425.631 681.517 424.2 685.581 424.555C688.371 424.8 690.485 425.721 691.925 427.319C693.364 428.917 693.972 430.991 693.749 433.542L692.676 445.815L687.734 445.382L687.951 442.912C686.313 444.803 684.113 445.628 681.35 445.386C680.287 445.293 679.344 445.063 678.519 444.697C677.695 444.33 677 443.854 676.436 443.27C675.873 442.658 675.452 441.966 675.172 441.192C674.921 440.393 674.834 439.543 674.913 438.639ZM682.991 441.313C684.505 441.446 685.768 441.088 686.779 440.24C687.79 439.391 688.363 438.196 688.498 436.656L688.505 436.576L684.506 436.387C683.094 436.317 681.997 436.462 681.216 436.822C680.461 437.184 680.047 437.79 679.973 438.64C679.907 439.384 680.135 439.993 680.656 440.467C681.203 440.943 681.982 441.225 682.991 441.313ZM710.803 419.294L722.04 420.277C723.474 420.402 724.756 420.742 725.885 421.296C727.044 421.825 728.012 422.539 728.79 423.437C729.595 424.337 730.173 425.378 730.524 426.56C730.903 427.744 731.03 429.04 730.907 430.448C730.784 431.856 730.432 433.124 729.851 434.251C729.3 435.354 728.55 436.278 727.601 437.025C726.681 437.748 725.604 438.283 724.369 438.63C723.163 438.952 721.843 439.051 720.408 438.926L714.829 438.437L714.021 447.682L708.362 447.187L710.803 419.294ZM720.456 433.79C721.784 433.906 722.868 433.6 723.708 432.87C724.575 432.143 725.062 431.168 725.169 429.946C725.276 428.724 724.966 427.68 724.238 426.813C723.538 425.949 722.523 425.459 721.195 425.342L716.015 424.889L715.276 433.337L720.456 433.79ZM740.018 429.88L738.937 442.233L748.027 430.581L753.168 431.031L751.425 450.955L746.244 450.501L747.325 438.149L738.235 449.801L733.095 449.351L734.838 429.427L740.018 429.88ZM762.402 441.636L756.598 431.331L762.376 431.836L765.813 438.441L770.345 432.533L776.043 433.032L768.538 442.173L774.699 452.991L768.762 452.471L765.116 445.487L760.314 451.732L754.456 451.22L762.402 441.636ZM795.013 434.692L794.601 439.394L788.584 438.867L787.252 454.089L782.072 453.636L783.404 438.414L777.387 437.888L777.798 433.186L795.013 434.692ZM805.418 456.241C803.851 456.103 802.438 455.726 801.181 455.107C799.926 454.462 798.873 453.647 798.022 452.662C797.173 451.651 796.54 450.471 796.123 449.123C795.732 447.777 795.604 446.334 795.739 444.793C795.874 443.253 796.249 441.867 796.866 440.636C797.511 439.381 798.339 438.329 799.35 437.48C800.361 436.632 801.526 436.011 802.846 435.618C804.167 435.198 805.599 435.056 807.139 435.19C808.6 435.318 809.908 435.674 811.061 436.256C812.242 436.841 813.218 437.609 813.992 438.56C814.794 439.487 815.381 440.583 815.752 441.846C816.126 443.084 816.247 444.446 816.117 445.934C816.092 446.226 816.05 446.544 815.994 446.887C815.937 447.23 815.864 447.598 815.776 447.992L800.714 446.674C800.854 448.132 801.38 449.316 802.291 450.225C803.201 451.135 804.414 451.656 805.928 451.788C807.044 451.886 808.047 451.746 808.936 451.369C809.855 450.967 810.62 450.325 811.233 449.441L814.608 452.628C813.502 453.95 812.171 454.931 810.616 455.571C809.064 456.185 807.331 456.408 805.418 456.241ZM806.683 439.487C805.381 439.373 804.248 439.635 803.282 440.274C802.318 440.885 801.609 441.8 801.154 443.019L811.116 443.89C811.064 442.654 810.644 441.64 809.856 440.849C809.069 440.057 808.011 439.603 806.683 439.487ZM820.604 436.931L825.784 437.384L825.551 440.054C826.412 439.085 827.411 438.369 828.549 437.907C829.687 437.444 830.947 437.273 832.328 437.394C833.656 437.51 834.855 437.883 835.924 438.512C837.023 439.117 837.943 439.92 838.685 440.922C839.456 441.899 840.01 443.059 840.348 444.4C840.715 445.717 840.829 447.159 840.692 448.726C840.557 450.267 840.194 451.667 839.602 452.927C839.036 454.189 838.301 455.249 837.396 456.107C836.494 456.938 835.448 457.57 834.259 458.001C833.1 458.408 831.855 458.553 830.527 458.437C829.146 458.316 827.922 457.928 826.855 457.273C825.814 456.62 824.954 455.741 824.275 454.638L823.344 465.277L818.164 464.824L820.604 436.931ZM829.71 453.547C830.454 453.613 831.156 453.54 831.817 453.33C832.48 453.094 833.06 452.743 833.556 452.278C834.08 451.788 834.506 451.21 834.832 450.542C835.16 449.848 835.36 449.09 835.432 448.266C835.507 447.416 835.441 446.634 835.236 445.92C835.031 445.206 834.711 444.576 834.277 444.029C833.872 443.458 833.362 443.012 832.748 442.691C832.136 442.343 831.458 442.136 830.714 442.071C829.944 442.004 829.214 442.087 828.524 442.321C827.863 442.531 827.271 442.881 826.746 443.37C826.25 443.836 825.839 444.402 825.513 445.069C825.187 445.737 824.987 446.496 824.913 447.346C824.84 448.169 824.906 448.951 825.109 449.692C825.314 450.406 825.619 451.048 826.024 451.619C826.458 452.165 826.981 452.613 827.593 452.961C828.234 453.284 828.94 453.48 829.71 453.547Z" fill="white"/>
<path d="M562.502 357.149L568.24 357.651L567.323 368.131L578.959 369.149L579.876 358.669L585.614 359.171L583.173 387.065L577.435 386.563L578.499 374.409L566.863 373.391L565.8 385.545L560.062 385.043L562.502 357.149ZM598.28 388.949C596.739 388.814 595.341 388.424 594.086 387.779C592.831 387.133 591.765 386.304 590.89 385.291C590.042 384.279 589.408 383.113 588.988 381.792C588.597 380.446 588.468 379.016 588.601 377.501C588.733 375.987 589.107 374.615 589.724 373.384C590.369 372.128 591.197 371.077 592.208 370.228C593.246 369.382 594.439 368.75 595.787 368.333C597.135 367.915 598.58 367.774 600.12 367.909C601.688 368.046 603.086 368.436 604.314 369.079C605.57 369.724 606.621 370.552 607.47 371.563C608.345 372.577 608.978 373.756 609.369 375.102C609.788 376.424 609.932 377.842 609.8 379.356C609.667 380.87 609.278 382.255 608.633 383.51C608.017 384.741 607.19 385.78 606.152 386.626C605.141 387.474 603.961 388.107 602.613 388.525C601.292 388.944 599.847 389.086 598.28 388.949ZM598.698 384.167C599.468 384.234 600.184 384.163 600.845 383.953C601.535 383.719 602.141 383.37 602.663 382.908C603.188 382.418 603.613 381.84 603.939 381.172C604.267 380.478 604.468 379.719 604.54 378.896C604.614 378.046 604.549 377.264 604.343 376.55C604.138 375.836 603.819 375.206 603.385 374.659C602.953 374.086 602.417 373.638 601.776 373.314C601.164 372.966 600.473 372.758 599.702 372.691C598.932 372.623 598.202 372.707 597.512 372.941C596.851 373.151 596.258 373.5 595.734 373.99C595.211 374.453 594.787 375.018 594.461 375.685C594.135 376.353 593.935 377.112 593.861 377.962C593.788 378.785 593.854 379.567 594.057 380.308C594.262 381.022 594.58 381.665 595.012 382.238C595.446 382.785 595.969 383.232 596.581 383.58C597.222 383.904 597.928 384.099 598.698 384.167ZM632.648 371.317L630.905 391.241L625.725 390.788L626.439 382.619L618.629 381.935L617.914 390.104L612.734 389.651L614.477 369.727L619.657 370.18L619.04 377.233L626.851 377.917L627.468 370.864L632.648 371.317ZM635.066 385.983C635.242 383.964 636.164 382.452 637.832 381.447C639.501 380.415 641.788 379.973 644.693 380.12L648.971 380.334L648.988 380.135C649.088 378.992 648.795 378.057 648.11 377.327C647.451 376.6 646.483 376.181 645.208 376.07C643.189 375.893 641.591 376.717 640.415 378.541L636.524 376.193C638.6 372.975 641.669 371.544 645.734 371.9C648.523 372.144 650.638 373.065 652.077 374.663C653.517 376.261 654.125 378.335 653.902 380.886L652.828 393.159L647.887 392.726L648.103 390.256C646.465 392.147 644.265 392.972 641.502 392.73C640.44 392.637 639.496 392.407 638.671 392.041C637.847 391.674 637.152 391.198 636.588 390.614C636.026 390.002 635.604 389.31 635.324 388.536C635.073 387.737 634.987 386.887 635.066 385.983ZM643.143 388.658C644.658 388.79 645.92 388.432 646.931 387.584C647.942 386.735 648.515 385.541 648.65 384L648.657 383.92L644.658 383.731C643.246 383.661 642.149 383.806 641.368 384.166C640.614 384.528 640.199 385.134 640.125 385.984C640.06 386.728 640.288 387.337 640.808 387.811C641.355 388.287 642.134 388.569 643.143 388.658ZM692.184 396.602L686.207 396.079L684.734 389.967L674.453 389.068L671.941 394.831L666.124 394.322L678.646 367.311L684.543 367.827L692.184 396.602ZM683.496 384.84L680.936 374.176L676.563 384.233L683.496 384.84ZM697.052 376.952L702.233 377.405L701.999 380.075C702.86 379.106 703.86 378.39 704.998 377.928C706.136 377.465 707.395 377.294 708.777 377.415C710.105 377.531 711.304 377.904 712.373 378.533C713.471 379.137 714.391 379.941 715.133 380.943C715.904 381.92 716.459 383.08 716.797 384.421C717.163 385.738 717.278 387.18 717.141 388.747C717.006 390.288 716.643 391.688 716.051 392.948C715.485 394.21 714.75 395.27 713.845 396.128C712.942 396.959 711.897 397.59 710.708 398.022C709.548 398.429 708.304 398.574 706.976 398.458C705.594 398.337 704.37 397.949 703.303 397.294C702.263 396.641 701.403 395.762 700.723 394.659L699.792 405.298L694.612 404.845L697.052 376.952ZM706.159 393.568C706.903 393.634 707.605 393.561 708.266 393.351C708.929 393.115 709.508 392.764 710.004 392.299C710.529 391.809 710.954 391.231 711.28 390.563C711.609 389.869 711.809 389.111 711.881 388.287C711.955 387.437 711.89 386.655 711.685 385.941C711.479 385.227 711.16 384.597 710.726 384.05C710.321 383.479 709.811 383.033 709.197 382.712C708.585 382.364 707.907 382.157 707.163 382.092C706.393 382.025 705.662 382.108 704.973 382.342C704.312 382.552 703.719 382.902 703.195 383.391C702.699 383.857 702.288 384.423 701.962 385.09C701.636 385.758 701.435 386.517 701.361 387.367C701.289 388.19 701.355 388.972 701.557 389.713C701.763 390.427 702.068 391.069 702.473 391.64C702.907 392.186 703.43 392.634 704.042 392.982C704.683 393.305 705.388 393.501 706.159 393.568ZM719.47 393.368C719.646 391.349 720.568 389.837 722.236 388.832C723.905 387.8 726.193 387.358 729.097 387.505L733.375 387.718L733.393 387.519C733.492 386.377 733.2 385.441 732.514 384.712C731.855 383.985 730.888 383.566 729.612 383.454C727.593 383.277 725.996 384.101 724.819 385.926L720.929 383.578C723.004 380.36 726.073 378.928 730.138 379.284C732.927 379.528 735.042 380.449 736.481 382.047C737.921 383.646 738.529 385.72 738.306 388.27L737.232 400.543L732.291 400.111L732.507 397.64C730.869 399.531 728.669 400.356 725.906 400.114C724.844 400.021 723.9 399.792 723.076 399.425C722.251 399.059 721.557 398.583 720.992 397.998C720.43 397.387 720.009 396.694 719.728 395.92C719.477 395.122 719.391 394.271 719.47 393.368ZM727.547 396.042C729.062 396.174 730.324 395.816 731.335 394.968C732.347 394.12 732.92 392.925 733.054 391.384L733.061 391.305L729.063 391.115C727.65 391.045 726.553 391.19 725.772 391.55C725.018 391.912 724.603 392.519 724.529 393.369C724.464 394.113 724.692 394.721 725.212 395.195C725.76 395.671 726.538 395.954 727.547 396.042ZM748.132 388.809L750.523 389.018L756.504 382.153L762.202 382.651L754.32 391.518L760.658 402.593L754.801 402.08L750.006 393.55L747.735 393.351L747.031 401.4L741.85 400.947L743.593 381.023L748.774 381.477L748.132 388.809ZM771.991 404.146C770.424 404.009 769.011 403.631 767.754 403.013C766.499 402.368 765.446 401.553 764.595 400.568C763.746 399.557 763.114 398.377 762.696 397.029C762.305 395.683 762.177 394.24 762.312 392.699C762.447 391.158 762.822 389.773 763.439 388.542C764.084 387.286 764.912 386.235 765.923 385.386C766.934 384.538 768.1 383.917 769.419 383.524C770.74 383.104 772.172 382.961 773.712 383.096C775.173 383.224 776.481 383.579 777.634 384.162C778.815 384.747 779.791 385.515 780.565 386.466C781.367 387.393 781.954 388.488 782.325 389.752C782.699 390.989 782.82 392.352 782.69 393.84C782.665 394.132 782.623 394.449 782.567 394.792C782.51 395.135 782.438 395.504 782.35 395.898L767.287 394.58C767.427 396.038 767.953 397.221 768.864 398.131C769.774 399.04 770.987 399.561 772.501 399.694C773.617 399.791 774.62 399.652 775.509 399.274C776.428 398.873 777.193 398.231 777.806 397.347L781.181 400.534C780.075 401.856 778.744 402.837 777.189 403.477C775.637 404.091 773.904 404.314 771.991 404.146ZM773.256 387.393C771.954 387.279 770.821 387.541 769.855 388.179C768.891 388.791 768.182 389.706 767.727 390.924L777.689 391.796C777.637 390.56 777.217 389.546 776.43 388.755C775.642 387.963 774.584 387.509 773.256 387.393ZM783.791 399.798L784.03 399.819C784.695 399.877 785.235 399.817 785.652 399.64C786.096 399.464 786.462 399.108 786.749 398.571C787.04 398.008 787.269 397.225 787.437 396.222C787.631 395.222 787.798 393.925 787.938 392.331L788.583 384.959L804.602 386.361L802.859 406.285L797.678 405.832L799.01 390.61L793.192 390.101L792.892 393.528C792.709 395.626 792.431 397.422 792.06 398.916C791.715 400.411 791.194 401.624 790.497 402.553C789.829 403.458 788.957 404.091 787.881 404.452C786.832 404.816 785.524 404.929 783.957 404.792L783.359 404.739L783.791 399.798ZM825.736 388.21L823.993 408.134L819.092 407.705L819.629 401.568L815.724 401.227L811.68 407.057L805.982 406.558L810.979 399.928C809.941 399.249 809.162 398.364 808.641 397.274C808.147 396.187 807.96 394.966 808.078 393.611C808.167 392.602 808.419 391.701 808.837 390.907C809.257 390.087 809.799 389.399 810.463 388.841C811.154 388.286 811.953 387.874 812.86 387.605C813.793 387.339 814.805 387.254 815.894 387.349L825.736 388.21ZM820.458 392.085L816.195 391.712C815.265 391.63 814.513 391.805 813.94 392.237C813.367 392.669 813.047 393.27 812.98 394.04C812.912 394.811 813.123 395.458 813.613 395.983C814.102 396.507 814.812 396.81 815.742 396.892L820.005 397.265L820.458 392.085ZM848.698 390.219L846.954 410.143L841.774 409.689L842.489 401.521L834.679 400.837L833.964 409.006L828.784 408.553L830.527 388.629L835.707 389.082L835.09 396.135L842.9 396.819L843.517 389.766L848.698 390.219Z" fill="white"/>
<path d="M456.369 109.705C457.391 114.341 457.082 117.078 456.65 122.114C456.511 123.777 456.371 125.44 456.227 127.153C456.074 128.909 455.92 130.665 455.767 132.421C455.664 133.627 455.726 132.055 455.624 133.261C455.576 133.826 455.364 137.169 455.316 137.735C455.276 138.209 455.236 138.683 455.195 139.157C454.866 143.02 454.533 146.882 454.195 150.744C451.187 151.457 448.507 151.238 446.904 149.19C447.012 145.301 447.012 145.301 447.439 140.274C447.513 139.391 447.586 138.509 447.661 137.599C447.818 135.732 447.979 133.865 448.143 131.999C448.396 129.131 448.636 126.263 448.874 123.394C450.176 108.019 452.856 108.238 456.369 109.705Z" fill="white"/>
<path d="M487.633 114.785C490.77 115.674 493.908 116.563 497.141 117.479C497.702 118.474 498.263 119.469 498.841 120.494C500.703 121.278 502.565 122.063 504.484 122.872C508.971 130.687 507.944 138.469 504.549 145.882C502.559 146.668 500.568 147.454 498.517 148.265C497.694 149.008 496.871 149.751 496.023 150.517C488.201 154.826 472.39 152.824 468.976 151.953C466.376 150.362 466.376 150.362 465.593 145.506C465.115 144.201 464.638 142.897 464.146 141.553C464.144 140.999 464.143 140.443 464.145 139.888C464.148 138.843 464.16 135.006 464.176 133.96C464.196 132.689 464.221 134.208 464.26 132.936C464.169 131.663 464.078 130.391 463.985 129.079C467.488 113.865 467.488 113.865 472.285 111.006C474.726 110.706 482.079 111.462 487.633 114.785ZM470.391 122.893C468.646 130.207 468.385 136.846 469.852 143.937C471.794 145.718 474.454 146.003 481.121 146.843C493.711 141.87 493.13 132.656 490.72 124.623C480.903 118.171 473.569 116.774 470.391 122.893Z" fill="white"/>
<path d="M455.624 133.261L455.316 137.735C455.276 138.209 455.236 138.683 455.195 139.157L464.145 139.888C464.148 138.843 464.16 135.006 464.176 133.96L455.624 133.261Z" fill="white"/>
<path d="M421.455 100.732C421.271 103.273 421.064 105.813 420.832 108.349C421.5 108.364 436.85 109.699 437.538 109.715C441.307 111.594 442.898 115.414 444.622 120.957C445.216 127.7 444.15 132.785 441.972 138.953C439.149 142.438 421.657 143.527 418.384 145.532C418.152 148.36 417.921 151.188 417.683 154.102C414.675 154.814 414.675 154.814 412.408 153.671C412.671 149.893 412.981 146.886 413.85 143.244C412.36 143.597 397.921 143.376 396.402 143.736C395.899 142.746 395.395 141.756 394.877 140.736C393.961 140.028 393.045 139.321 392.102 138.592C390.417 135.277 390.442 131.209 390.105 126.926C390.349 126.313 390.594 125.701 390.846 125.07C391.004 123.738 391.161 122.407 391.324 121.035C392.605 113.929 395.001 110.84 399.281 108.505C400.08 108.254 415.319 108.225 416.143 107.966C416.18 105.122 416.218 102.279 416.257 99.3486C420.133 98.1317 420.133 98.1317 421.455 100.732ZM396.744 117.883C394.65 123.125 393.836 128.478 395.202 134.052C396.583 136.576 411.022 136.798 414.239 138.484C414.906 130.314 415.574 122.144 416.262 113.727C414.676 113.597 398.029 116.517 396.744 117.883ZM420.287 115.015C419.49 118.993 418.983 122.775 418.655 126.863C418.57 127.894 418.484 128.925 418.395 129.987C418.226 132.995 418.239 135.842 418.342 138.819C422.887 136.459 439.17 133.481 440.638 126.383C439.634 119.959 439.634 119.959 436.549 116.403C436.027 116.38 420.825 115.038 420.287 115.015Z" fill="white"/>
<path d="M329.827 98.4676C337.826 105.456 337.877 110.196 336.593 117.832C335.724 123.713 335.154 128.708 338.139 134.613C337.483 136.141 336.827 137.669 336.151 139.243C333.011 138.67 329.872 138.097 326.637 137.507C326.688 136.878 326.739 136.25 326.792 135.602L327.08 132.083C326.475 132.982 322.386 137.14 321.763 138.067C314.481 139.603 312.797 140.427 310.06 139.507C309.08 139.2 309.08 139.2 308.08 138.888C306.394 137.889 306.394 137.889 304.947 133.937C304.71 127.669 305.23 123.617 308.065 118.795C311.643 114.997 317.266 113.453 328.581 113.715C328.812 110.887 329.822 107.537 328.026 104.251C320.198 102.148 315.779 102.686 313.22 104.898C312.537 106.108 311.854 107.317 311.151 108.563C310.183 108.484 309.216 108.405 308.22 108.324C309.089 99.4423 309.089 99.4423 311.178 96.9432C315.011 95.7658 320.661 94.9022 329.827 98.4676ZM314.696 119.337C313.703 119.572 313.507 120.891 312.484 121.133C312.407 122.076 311.808 122.182 311.729 123.153C311.123 123.42 311.038 124.523 310.414 124.798C309.222 128.639 309.222 128.639 310.378 132.463C312.296 133.659 312.296 133.659 314.403 133.751C324.085 128.703 323.009 124.565 323.397 118.071C319.841 117.555 315.904 117.293 314.696 119.337Z" fill="white"/>
<path d="M270.319 99.5201C273.423 99.7104 292.971 100.01 293.261 99.6134C293.696 99.018 297.603 100.291 298.111 101.195C298.32 101.566 298.177 102.617 297.793 103.53C297.408 104.442 297.163 105.697 297.247 106.318C297.332 106.938 297.057 112.633 296.637 118.972C296.217 125.312 296.009 130.767 296.175 131.094C296.794 132.318 296.124 135.569 295.097 136.328C292.161 138.495 291.636 135.862 292.541 123.496C292.895 118.654 293.21 112.753 293.24 110.383L293.295 106.075L290.608 106.009C289.131 105.972 287.655 106.171 287.329 106.45C286.849 106.861 285.832 117.465 286.27 117.501C286.335 117.506 286.221 120.534 286.016 124.228C285.811 127.923 285.719 131.749 285.811 132.732C286.145 136.268 268.788 137.862 267.373 135.067C266.858 134.049 266.909 132.024 267.614 125.529C268.106 120.993 268.381 116.385 268.225 115.288C268.069 114.19 268.238 111.773 268.601 109.917C268.98 107.977 269.099 105.86 268.878 104.942C268.349 102.736 269.221 99.4531 270.319 99.5201Z" fill="white"/>
<path fill-rule="evenodd" clip-rule="evenodd" d="M354.832 99.2968C354.57 99.6834 353.218 99.8005 351.828 99.5575L349.301 99.1162L347.347 125.867C346.272 140.58 345.46 153.211 345.543 153.934C345.625 154.659 346.625 155.327 347.764 155.42L349.835 155.589L350.631 145.852L351.427 136.115L353.719 137.249L354.981 137.924C354.981 137.924 360.043 136.708 362.925 136.943C372.532 137.729 384.849 132.65 385.792 127.663C386.728 122.713 386.923 115.24 386.143 114.234C385.887 113.906 385.743 112.846 385.822 111.88C385.952 110.291 377.865 106.594 363.559 101.699C357.654 99.6799 355.571 98.2094 354.832 99.2968ZM352.618 113.02C353.004 109.326 353.4 108.126 354.522 107.271C357.652 104.885 366.469 109.421 366.261 114.471C366.22 115.446 367.763 117.571 369.686 119.194C372.223 121.335 372.191 122.71 369.57 124.192C367.583 125.315 365.102 126.971 364.061 127.872C363.02 128.775 354.432 130.204 354.432 130.204L353.421 130.419C353.421 130.419 351.802 127.979 351.896 125.307C351.963 123.408 352.043 120.917 352.074 119.772C352.106 118.627 352.351 115.588 352.618 113.02Z" fill="white"/>
<path fill-rule="evenodd" clip-rule="evenodd" d="M608.702 119.345C608.44 119.732 607.089 119.849 605.699 119.606L603.171 119.164L601.217 145.915C600.143 160.628 599.331 173.259 599.413 173.983C599.496 174.707 600.495 175.375 601.635 175.468L603.706 175.638L604.502 165.9L605.297 156.164L607.59 157.298L608.851 157.972C608.851 157.972 613.913 156.756 616.795 156.992C626.402 157.777 638.72 152.698 639.663 147.711C640.598 142.761 640.793 135.289 640.013 134.283C639.758 133.954 639.614 132.895 639.693 131.929C639.823 130.34 631.736 126.642 617.429 121.748C611.525 119.728 609.441 118.258 608.702 119.345ZM606.489 133.069C606.874 129.374 607.271 128.174 608.393 127.319C611.522 124.933 620.339 129.469 620.132 134.52C620.091 135.494 621.633 137.619 623.557 139.243L623.441 144.24C621.453 145.363 618.972 147.02 617.932 147.921C616.891 148.823 608.302 150.252 608.302 150.252L607.292 150.468C607.292 150.468 605.672 148.027 605.767 145.355C605.834 143.456 605.914 140.966 605.945 139.82C605.977 138.675 606.221 135.637 606.489 133.069Z" fill="white"/>
<path d="M539.153 113.398C539.508 115.931 539.862 118.464 540.216 120.997C540.399 122.296 540.582 123.594 540.771 124.932C541.189 127.946 541.577 130.979 541.958 134.017C542.268 134.75 542.579 135.484 542.899 136.24C543.243 134.656 543.243 134.656 543.594 133.04C544.652 128.752 545.875 125.058 547.292 121.106C547.752 119.817 548.212 118.528 548.686 117.199C549.21 115.746 549.21 115.746 549.745 114.264C553.502 115.51 553.502 115.51 554.031 116.76C553.985 119.618 553.938 122.476 553.892 125.334C554.124 125.884 554.124 125.884 554.362 126.445C554.286 129.659 554.211 132.872 554.135 136.085C554.291 136.452 554.446 136.819 554.606 137.197C554.588 139.699 554.571 142.202 554.553 144.704C554.709 145.071 554.864 145.438 555.024 145.816C554.924 149.384 554.819 152.952 554.71 156.521C554.808 157.592 554.906 158.662 555.006 159.765C552.689 160.649 552.689 160.649 549.989 159.355C549.348 153.419 549.408 147.725 549.515 141.543C549.502 137.976 549.278 134.782 548.909 131.365C547.344 134.899 546.845 137.629 546.052 141.863C544.703 149.02 544.703 149.02 543.822 152.412C542.534 152.307 541.246 152.202 539.92 152.093C539.628 150.215 539.338 148.335 539.047 146.455C538.886 145.409 538.724 144.362 538.557 143.284C538.137 140.455 537.771 137.588 537.411 134.718C535.129 138.331 534.83 152.048 534.467 157.013C532.811 156.878 522.263 156.016 509.372 154.963C510.218 151.969 511.085 148.977 511.961 145.985C512.441 144.319 512.922 142.653 513.417 140.936C515.153 136.119 515.153 136.119 517.74 132.432C520.929 127.537 520.378 122.433 520.258 117.232C522.166 110.809 536.31 112.962 539.153 113.398ZM536.645 130.363C537.028 132.541 537.028 132.541 537.028 132.541L536.645 130.363Z" fill="white"/>
<path fill-rule="evenodd" clip-rule="evenodd" d="M573.885 116.724C572.33 116.907 571.213 117.917 569.663 120.546C568.503 122.513 567.491 124.875 567.414 125.798C567.336 126.72 566.823 128.734 566.273 130.271C564.954 133.96 564.059 149.368 565.015 151.956C565.377 152.935 565.632 154.232 565.583 154.838C565.457 156.376 567.643 159.502 568.917 159.606C569.5 159.654 570.086 160.174 570.222 160.762C570.95 163.928 579.94 160.432 588.326 155.45C594.614 151.715 593.645 150.481 582.931 148.576C582.931 148.576 576.187 146.745 576.084 148.017C575.884 150.456 572.463 154.655 571.126 153.831C569.028 152.538 567.931 140.771 569.901 140.7C570.388 140.683 582.908 141.379 584.967 141.334C589.256 141.241 590.434 139.936 590.828 134.845C591.375 127.795 590.947 123.051 589.495 120.049C588.708 118.421 587.697 117.12 587.249 117.157C586.801 117.194 575.046 116.588 573.885 116.724ZM570.939 128.891C571.172 126.04 572.131 124.561 574.024 124.136C575.741 123.749 586.862 125.944 586.97 130.199C587.043 133.041 586.869 133.619 585.782 134.175C582.787 135.702 568.315 133.783 570.144 131.917C570.472 131.582 570.83 130.22 570.939 128.891Z" fill="white"/>
<path d="M791.59 315.66C793.013 315.557 794.437 315.41 795.857 315.189C796.115 316.854 796.374 318.518 796.64 320.233C794.149 322.157 792.621 321.678 789.905 321.326C789.806 322.555 789.806 322.555 789.705 323.809C789.408 327.496 789.105 331.184 788.803 334.871C788.699 336.161 788.595 337.451 788.489 338.78C788.337 340.616 788.337 340.616 788.182 342.49C788.044 344.192 788.044 344.192 787.902 345.929C787.616 348.512 787.616 348.512 786.947 349.286C785.546 349.202 775.75 348.378 774.354 348.225C774.065 345.228 774.111 343.019 774.361 340.01C774.44 339.073 774.518 338.136 774.598 337.17C774.683 336.195 774.767 335.22 774.854 334.215C774.973 332.756 774.973 332.756 775.095 331.268C775.175 330.33 775.255 329.392 775.337 328.425C775.409 327.57 775.482 326.716 775.557 325.835C775.835 323.46 775.835 323.46 776.781 319.391C774.779 319.497 772.778 319.602 770.715 319.71C769.793 316.314 769.793 316.314 770.001 313.842C774.566 313.15 787.232 314.059 791.59 315.66Z" fill="white"/>
<path d="M532.633 288.667C535.923 292.865 536.819 296.344 535.95 302.804C534.473 302.679 532.997 302.555 531.475 302.427C531.232 300.273 530.988 298.118 530.737 295.898C526.905 295.522 526.905 295.522 524.04 298.972C522.303 305.668 521.733 312.556 522.976 319.264C524.766 320.903 524.766 320.903 526.657 321.422C529.043 318.871 529.043 318.871 530.471 314.352C531.712 314.761 532.952 315.171 534.23 315.592C534.649 320.317 533.857 321.145 531.54 324.604C531.118 324.568 530.696 324.533 530.261 324.496C529.737 325.672 529.213 326.847 528.674 328.058C522.721 328.302 520.489 327.369 517.068 320.614C516.984 319.083 516.901 317.552 516.815 315.974C516.706 314.745 516.597 313.517 516.484 312.251C516.671 310.301 516.907 308.357 517.176 306.42C517.312 305.414 517.447 304.409 517.586 303.373C519.722 291.561 524.145 285.538 532.633 288.667Z" fill="white"/>
<path d="M650.72 299.212C654.01 303.409 654.906 306.888 654.037 313.348C652.56 313.224 651.083 313.099 649.562 312.971C649.318 310.817 649.075 308.662 648.824 306.442C644.992 306.067 644.992 306.067 642.127 309.516C640.389 316.212 639.819 323.1 641.062 329.808C642.852 331.448 642.852 331.448 644.744 331.966C647.129 329.415 647.129 329.415 648.558 324.896C649.798 325.306 651.039 325.715 652.316 326.136C652.736 330.861 651.943 331.689 649.626 335.148C649.204 335.113 648.783 335.077 648.348 335.041C647.824 336.216 647.3 337.391 646.76 338.602C640.808 338.846 638.575 337.913 635.155 331.158C635.071 329.627 634.987 328.096 634.901 326.518C634.792 325.29 634.683 324.061 634.571 322.795C634.758 320.846 634.993 318.901 635.263 316.964C635.398 315.958 635.533 314.953 635.673 313.917C637.808 302.106 642.232 296.082 650.72 299.212Z" fill="white"/>
<path d="M727.698 309.247C727.557 306.428 727.726 305.903 729.017 305.13C732.475 303.059 732.907 304.284 732.114 313.91C731.78 317.95 731.654 321.518 731.831 321.838C732.295 322.676 746.369 324.618 747.269 323.917C747.792 323.51 748.155 320.837 748.44 315.285L748.854 307.242L751.147 307.435L763.212 308.008L762.678 314.06C761.349 329.123 760.593 343.595 761.06 345.042C761.721 347.096 761.435 347.371 758.521 347.484L746.323 347.199L746.547 343.617C746.671 341.646 746.93 337.752 747.125 334.964L747.478 329.895L735.56 328.453C733.651 328.42 731.873 328.432 731.607 328.477C731.15 328.556 730.368 340.154 730.636 342.891C730.721 343.757 729.977 344.362 728.356 344.745C727.034 345.058 725.846 345.124 725.717 344.892C725.589 344.66 726.019 337.272 726.672 328.474C727.326 319.677 727.788 311.025 727.698 309.247Z" fill="white"/>
<path d="M675.555 302.268C676.977 302.165 678.401 302.018 679.822 301.798C680.08 303.463 679.669 313.397 679.935 315.111C677.444 317.035 675.916 316.556 673.2 316.204C673.101 317.433 673.67 310.418 673.67 310.418C673.372 314.105 673.07 317.792 672.767 321.479C672.664 322.769 672.56 324.06 672.454 325.389C672.302 327.225 672.302 327.225 672.147 329.098C672.009 330.801 672.009 330.801 671.867 332.537C671.581 335.121 671.581 335.121 670.912 335.894C669.51 335.81 668.111 335.694 666.714 335.541C666.426 332.543 666.471 330.334 666.722 327.326C666.8 326.389 666.878 325.451 666.959 324.486C667.043 323.51 667.127 322.535 667.214 321.53C667.334 320.072 667.334 320.072 667.455 318.584C667.535 317.645 667.615 316.707 667.697 315.741L667.756 315.014L668.472 314.976C666.47 315.081 664.468 315.187 662.405 315.295C661.483 311.899 662.154 303.629 662.362 301.158C666.926 300.466 671.197 300.667 675.555 302.268Z" fill="white"/>
<path d="M500.845 289.332C509.096 295.51 509.198 299.617 507.968 306.214C507.142 311.296 506.613 315.615 509.727 320.777C509.073 322.091 508.419 323.405 507.745 324.759C504.53 324.214 501.314 323.67 498.001 323.109C498.047 322.565 498.093 322.021 498.14 321.461L498.396 318.416C497.788 319.186 493.652 322.726 493.025 323.52C485.598 324.739 483.886 325.427 481.079 324.588C480.074 324.308 480.074 324.308 479.048 324.022C477.314 323.13 477.314 323.13 475.792 319.683C475.483 314.249 475.971 310.746 478.817 306.611C482.435 303.376 488.165 302.123 499.734 302.524C499.94 300.077 500.937 297.19 499.065 294.315C491.041 292.373 486.53 292.772 483.939 294.649C483.253 295.687 482.568 296.724 481.862 297.793C480.873 297.71 479.883 297.627 478.864 297.541C479.657 289.859 479.657 289.859 481.766 287.725C485.671 286.764 491.438 286.102 500.845 289.332ZM485.601 307.183C484.589 307.371 484.402 308.511 483.359 308.705C483.291 309.521 482.68 309.603 482.609 310.444C481.993 310.665 481.918 311.62 481.283 311.849C480.106 315.158 480.106 315.158 481.328 318.49C483.302 319.555 483.302 319.555 485.456 319.667C495.299 315.441 494.154 311.84 494.482 306.219C490.842 305.717 486.814 305.43 485.601 307.183Z" fill="white"/>
<path d="M545.722 294.94C545.856 294.361 547.066 293.009 548.32 291.93C550.146 290.359 551.132 290.099 553.265 290.623C554.73 290.983 576.036 293.592 576.685 294.44C578.138 296.34 579.333 301.262 579.077 304.299C578.903 306.368 578.693 306.525 576.664 306.097C574.991 305.746 554.851 303.564 554.801 302.198C554.686 299.024 553.248 296.938 551.513 297.427C549.294 298.053 548.305 299.29 548.103 301.692C548.007 302.836 547.636 303.999 547.279 304.277C546.488 304.894 545.898 317.531 546.547 319.972C546.796 320.908 547.731 322.137 548.625 322.702C549.998 323.571 550.481 323.431 551.735 321.803C552.551 320.742 553.272 319.25 553.337 318.485C553.401 317.72 553.715 316.891 554.034 316.642C555.008 315.884 577.826 319.162 577.724 320.368C577.572 322.177 575.874 325.597 573.7 328.474C571.981 330.747 551.683 329.484 549.209 329.275C546.762 329.069 545.934 328.487 543.929 325.561C542.36 323.271 542.226 321.434 542.341 320.062C542.437 318.916 542.377 317.751 542.207 317.47C541.885 316.938 543.092 304.939 543.701 302.619C543.893 301.89 544.054 300.746 544.06 300.077C544.067 299.408 544.388 298.216 544.775 297.427C545.162 296.639 545.588 295.52 545.722 294.94Z" fill="white"/>
<path d="M594.168 297.42C594.051 294.766 587.385 295.034 587.524 293.387L586.939 300.338L586.283 308.129L584.542 328.812C584.519 329.092 589.38 328.945 591.139 329.367L592.685 325.349C593.423 323.752 607.858 310.109 608.596 308.512C608.33 309.311 608.756 315.694 608.481 316.517L608.176 319.781C607.758 324.132 608.454 331.73 608.454 331.73L626.525 332.287C626.682 330.416 626.716 328.531 626.361 326.622C625.514 322.795 624.747 319.001 624.94 315.246C625.221 312.886 625.429 310.519 625.628 308.151L614.503 295.734L610.306 295.381C609.284 297.774 608.278 300.18 607.283 302.593C606.77 304.221 606.239 305.841 605.667 307.435C603.73 308.932 599.064 314.138 599.064 314.138C596.589 314.836 592.437 319.904 592.199 320.808C592.249 320.121 592.487 313.185 592.536 312.518L592.744 309.849C592.876 308.115 593.034 306.381 593.219 304.652C594.166 300.583 594.166 300.583 594.168 297.42Z" fill="white"/>
<path d="M718.324 310.746C719.012 315.487 719.064 319.288 717.814 323.978C715.922 326.166 714.652 325.708 712.272 325.69C711.52 325.688 696.524 324.488 695.749 324.487C694.487 324.459 693.226 324.398 691.969 324.292C691.456 328.082 690.56 333.789 692.115 336.917C693.865 338.193 708.795 338.394 710.504 339.069C710.55 338.525 710.799 335.567 710.846 335.007C711.486 334.513 712.125 334.02 712.784 333.511C713.051 332.712 713.317 331.913 713.592 331.09C714.954 331.478 716.316 331.867 717.72 332.267C718.335 336.224 716.7 337.476 714.628 340.304C710.422 343.446 693.422 341.221 689.591 338.196C685.876 334.17 686.338 329.287 686.642 323.014C686.662 322.177 686.683 321.34 686.704 320.478C687.59 314.447 689.094 309.718 692.895 306.117C693.116 305.862 693.337 305.606 693.565 305.344C697.925 304.724 715.6 305.861 718.324 310.746ZM694.209 312.035C692.766 315.242 692.766 315.242 691.855 318.474C694.577 319.673 704.11 320.027 706.997 319.749C707.005 317.286 707.67 314.192 707.679 311.654C705.415 310.378 696.533 310.652 694.209 312.035Z" fill="white"/>
<path d="M837.489 316.257C852.008 321.118 850.919 323.235 850.365 327.243C850.213 328.569 850.061 329.895 849.904 331.26C849.682 332.656 849.458 334.051 849.233 335.446C849.051 336.856 848.875 338.267 848.705 339.679C848.265 343.134 847.768 346.583 847.22 350.028C815.944 348.162 832.777 349.579 831.011 347.898C831.046 344.784 831.046 344.784 831.402 340.767C831.463 340.062 831.524 339.356 831.586 338.63C831.716 337.138 831.85 335.646 831.989 334.155C832.202 331.863 832.401 329.571 832.597 327.279C833.681 314.992 837.489 316.257 837.489 316.257Z" fill="white"/>
<path d="M806.447 313.627C807.82 313.743 809.192 313.858 810.606 313.977C809.876 317.966 809.145 321.955 808.392 326.065C810.481 325.883 819.941 326.936 822.072 326.751C825.8 328.69 826.749 331.034 827.219 335.803C826.944 340.5 824.83 343.964 821.552 346.698C818.269 348.126 805.345 347.684 802.604 345.071C802.568 342.962 802.568 342.962 802.808 340.311C802.891 339.358 802.974 338.406 803.06 337.425C803.157 336.425 803.253 335.425 803.353 334.395C803.44 333.4 803.526 332.405 803.616 331.379C804.285 323.999 804.285 323.999 805.25 320.746C805.153 319.547 805.057 318.347 804.957 317.112C805.449 315.962 805.941 314.812 806.447 313.627ZM808.03 330.366C807.607 334.432 807.332 337.831 807.658 341.887C810.865 341.008 820.325 342.061 822.234 339.039C822.776 336.177 822.986 334.698 821.764 332.185C820.469 330.901 809.606 328.76 808.03 330.366Z" fill="white"/>
<path d="M805.316 211.697L805.03 214.964L791.641 213.793L790.937 221.842L798.069 222.466C799.424 222.585 800.616 222.89 801.643 223.381C802.698 223.875 803.577 224.527 804.283 225.339C804.99 226.123 805.499 227.038 805.809 228.082C806.146 229.129 806.26 230.276 806.151 231.525C806.044 232.747 805.732 233.857 805.217 234.856C804.73 235.831 804.069 236.656 803.233 237.333C802.4 237.983 801.422 238.459 800.298 238.762C799.2 239.068 797.974 239.161 796.619 239.043L786.02 238.116L788.46 210.222L805.316 211.697ZM789.769 235.191L796.702 235.798C798.349 235.942 799.717 235.607 800.806 234.792C801.894 233.977 802.507 232.786 802.644 231.218C802.781 229.651 802.385 228.371 801.454 227.38C800.524 226.388 799.235 225.821 797.588 225.676L790.654 225.07L789.769 235.191ZM809.133 236.564L820.779 228.749C822.571 227.541 823.891 226.372 824.739 225.241C825.614 224.113 826.108 222.912 826.219 221.637C826.366 219.963 825.926 218.559 824.901 217.426C823.903 216.294 822.487 215.648 820.654 215.488C819.06 215.349 817.655 215.654 816.438 216.404C815.248 217.157 814.235 218.326 813.401 219.913L810.47 218.532C811.517 216.348 812.93 214.732 814.709 213.683C816.487 212.634 818.558 212.213 820.922 212.42C822.33 212.543 823.587 212.867 824.692 213.392C825.797 213.917 826.714 214.6 827.444 215.44C828.202 216.256 828.748 217.213 829.08 218.313C829.438 219.415 829.561 220.617 829.447 221.919C829.289 223.725 828.678 225.358 827.613 226.818C826.548 228.277 824.879 229.764 822.605 231.278L813.229 237.485L828.45 238.816L828.189 241.805L808.823 240.111L809.133 236.564ZM840.816 243.552C838.638 243.362 836.792 242.732 835.28 241.662C833.77 240.567 832.614 239.087 831.814 237.223L834.663 235.867C835.993 238.713 838.119 240.265 841.041 240.52C842.051 240.609 842.98 240.543 843.829 240.322C844.707 240.078 845.463 239.702 846.096 239.196C846.756 238.691 847.28 238.055 847.668 237.285C848.057 236.516 848.293 235.654 848.377 234.697C848.544 232.785 848.079 231.218 846.981 229.998C845.883 228.778 844.298 228.077 842.226 227.895C839.809 227.684 837.834 228.381 836.301 229.987L833.755 228.801L835.781 214.362L851.72 215.757L851.455 218.785L838.465 217.649L837.241 226.134C838.932 225.158 840.88 224.766 843.085 224.959C844.493 225.082 845.749 225.42 846.851 225.971C847.983 226.499 848.913 227.196 849.64 228.062C850.394 228.931 850.933 229.955 851.258 231.135C851.612 232.29 851.729 233.559 851.608 234.94C851.482 236.374 851.129 237.655 850.549 238.782C849.969 239.909 849.204 240.846 848.255 241.593C847.333 242.342 846.241 242.889 844.98 243.234C843.718 243.578 842.33 243.685 840.816 243.552ZM864.293 236.491L856.315 216.159L860.101 216.49L866.338 232.856L874.446 217.745L878.192 218.073L863.319 244.878L859.812 244.572L864.293 236.491ZM882.877 218.483L886.344 218.786L885.322 230.461L889.985 230.869L899.892 219.971L903.957 220.327L892.681 232.631L901.596 248.227L897.372 247.858L889.583 234.086L885.04 233.689L883.904 246.679L880.437 246.376L882.877 218.483ZM924.326 250.216L926.278 227.901L909.941 248.957L906.315 248.64L908.755 220.747L912.261 221.053L910.309 243.368L926.647 222.312L930.273 222.629L927.832 250.523L924.326 250.216ZM945.016 252.668C943.316 252.52 941.82 252.027 940.528 251.192C939.236 250.356 938.167 249.259 937.322 247.9C936.48 246.514 935.871 244.908 935.495 243.082C935.149 241.232 935.068 239.244 935.254 237.118C935.44 234.993 935.863 233.063 936.524 231.327C937.213 229.567 938.092 228.091 939.16 226.9C940.23 225.682 941.474 224.774 942.891 224.175C944.309 223.576 945.868 223.351 947.568 223.5C949.268 223.649 950.764 224.141 952.056 224.977C953.348 225.812 954.416 226.923 955.258 228.308C956.103 229.667 956.699 231.272 957.045 233.122C957.421 234.949 957.516 236.925 957.33 239.05C957.144 241.175 956.706 243.118 956.017 244.878C955.356 246.613 954.491 248.09 953.421 249.308C952.353 250.5 951.11 251.395 949.693 251.993C948.275 252.592 946.716 252.817 945.016 252.668ZM947.293 226.648C946.097 226.543 944.997 226.728 943.992 227.202C942.986 227.676 942.107 228.402 941.352 229.38C940.599 230.332 939.976 231.495 939.48 232.871C939.014 234.222 938.708 235.734 938.562 237.408C938.415 239.081 938.453 240.637 938.675 242.075C938.926 243.489 939.338 244.743 939.912 245.838C940.488 246.905 941.229 247.76 942.137 248.401C943.045 249.043 944.096 249.416 945.291 249.52C946.487 249.625 947.587 249.44 948.592 248.966C949.597 248.492 950.476 247.779 951.229 246.828C951.983 245.85 952.594 244.685 953.06 243.334C953.555 241.959 953.876 240.434 954.022 238.76C954.169 237.087 954.117 235.543 953.865 234.129C953.643 232.691 953.244 231.438 952.669 230.371C952.095 229.276 951.355 228.409 950.447 227.767C949.539 227.125 948.488 226.752 947.293 226.648ZM960.43 249.801L972.076 241.986C973.868 240.778 975.188 239.608 976.036 238.478C976.911 237.35 977.405 236.148 977.516 234.873C977.663 233.2 977.223 231.796 976.198 230.662C975.2 229.531 973.784 228.885 971.951 228.725C970.357 228.585 968.952 228.891 967.735 229.641C966.545 230.393 965.533 231.563 964.698 233.15L961.767 231.769C962.815 229.585 964.227 227.969 966.006 226.92C967.784 225.871 969.855 225.45 972.219 225.657C973.627 225.78 974.884 226.104 975.989 226.629C977.094 227.154 978.011 227.836 978.741 228.676C979.499 229.492 980.045 230.45 980.377 231.55C980.735 232.652 980.858 233.854 980.744 235.156C980.586 236.962 979.975 238.595 978.91 240.054C977.845 241.514 976.176 243.001 973.902 244.515L964.526 250.721L979.747 252.053L979.486 255.042L960.12 253.347L960.43 249.801Z" fill="white"/>
</g>
<defs>
<linearGradient id="paint0_linear_2965_103" x1="461.5" y1="-264.536" x2="918.275" y2="634.227" gradientUnits="userSpaceOnUse">
<stop offset="0.54515" stop-color="#C35446"/>
<stop offset="0.929279" stop-color="#FEFEFF" stop-opacity="0"/>
</linearGradient>
<clipPath id="clip0_2965_103">
<rect width="1141" height="565" fill="white"/>
</clipPath>
</defs>
</svg>
