<svg width="197" height="197" viewBox="0 0 197 197" fill="none" xmlns="http://www.w3.org/2000/svg">
<path fill-rule="evenodd" clip-rule="evenodd" d="M33.1959 60.2392C33.2084 60.4973 33.3446 60.7281 33.4981 60.7523C33.8731 60.8107 34.2084 59.996 33.9567 59.6381C33.6842 59.2505 33.1672 59.6586 33.1959 60.2392ZM102.627 28.0031C102.46 28.9141 102.767 29.1792 103.436 28.701C103.76 28.47 103.902 27.9612 103.756 27.5612C103.46 26.7529 102.811 27.007 102.627 28.0031ZM17.8972 94.1528C17.7472 94.9662 17.3038 95.716 16.7297 96.1262C16.1928 96.5099 15.8634 97.0323 15.9457 97.37C16.0234 97.6904 15.9095 98.0794 15.6922 98.2347C15.0954 98.6611 15.0673 101.659 15.6523 102.491C15.9351 102.893 16.0968 103.868 16.0114 104.657C15.8347 106.295 16.2278 107.06 17.2806 107.125C18.1474 107.178 18.8367 108.07 19.2959 109.731C19.5951 110.812 19.7697 110.962 20.946 111.146C21.6694 111.259 22.8222 111.66 23.5074 112.037C24.1928 112.413 24.8669 112.641 25.0055 112.542C25.144 112.443 26.1053 112.468 27.1415 112.599C28.8647 112.817 29.1783 112.725 30.813 111.523C31.7963 110.8 32.9946 110.153 33.4767 110.086C34.7768 109.904 35.4913 109.268 36.7484 107.175C38.4215 104.389 39.0909 101.084 38.6017 98.0214C38.2009 95.5135 38.1382 95.3839 37.1324 95.0021C36.1618 94.6333 36.0641 94.4963 35.8564 93.2134C35.5666 91.4277 35.3816 91.1917 34.1158 90.9939C33.5402 90.9039 32.8491 90.5265 32.5801 90.1546C32.2391 89.6837 31.234 89.4691 29.2659 89.4468C27.7123 89.4292 25.9726 89.3662 25.4 89.307C24.5867 89.2228 23.8956 89.5362 22.2474 90.7372C21.0859 91.5831 19.9635 92.2046 19.7531 92.118C19.0508 91.8293 18.1416 92.8261 17.8972 94.1528ZM92.115 54.7942C92.0375 55.478 92.0315 56.1193 92.1017 56.2191C92.2723 56.4617 92.0306 60.2781 91.8226 60.6195C91.7329 60.7674 91.846 61.1542 92.0747 61.4793C92.3031 61.8041 92.3361 62.2982 92.1478 62.5767C91.9596 62.8556 91.8801 63.1896 91.9709 63.3188C92.062 63.4483 92.0025 64.481 91.8384 65.614C91.3682 68.8632 91.1863 71.4757 91.4079 71.7908C91.5199 71.9501 91.6092 74.0143 91.6064 76.3782C91.6036 78.742 91.7033 80.8212 91.8281 80.9986C91.9528 81.176 91.9109 82.0185 91.7349 82.871C91.4183 84.4051 91.4012 84.4232 90.0549 84.6215C88.3397 84.8742 84.3091 87.1574 84.3437 87.8563C84.3571 88.1284 83.9887 88.614 83.5255 88.9354L82.6829 89.5197L83.3171 88.4345C84.5649 86.2998 84.8285 83.8557 84.0465 81.6708C83.4109 79.8953 83.1732 79.5461 82.3008 79.1068C81.7448 78.8269 81.0153 78.2067 80.6789 77.7284C80.1709 77.006 79.5324 76.8557 76.912 76.8425C73.0453 76.8226 71.7225 77.6115 69.4476 81.2959C67.941 83.7354 67.9613 84.3538 69.6844 88.5904C70.8195 91.3802 75.2834 93.4295 77.8236 92.3266C80.2705 91.2645 80.8571 92.4717 79.6263 96.0347C79.0046 97.8337 78.9839 98.4678 79.5093 99.5806C79.8614 100.326 80.0185 101.029 79.8585 101.143C79.6989 101.257 79.6756 101.786 79.8068 102.319C79.9379 102.852 79.9023 103.39 79.7277 103.515C79.5529 103.64 79.5539 103.947 79.7299 104.197C79.9059 104.447 79.9103 104.751 79.7398 104.873C79.5693 104.995 79.2389 104.823 79.0056 104.492C78.4522 103.704 73.735 102.297 71.4791 102.246C67.2013 102.149 66.135 102.376 63.6483 103.914C62.3271 104.731 60.6789 105.668 59.9851 105.996C59.0465 106.438 58.5106 106.989 57.892 108.146C57.2858 109.28 56.5745 110.019 55.2674 110.875C53.6224 111.952 53.4651 112.167 53.3603 113.484C53.2975 114.273 53.2212 115.211 53.1911 115.569C53.1239 116.364 51.2518 117.475 48.2669 118.49C46.2792 119.165 46.0636 119.317 44.7301 120.982C43.2675 122.809 42.5192 125.444 42.3366 129.41C42.2249 131.828 43.227 134.464 44.4894 135.074C45.0596 135.35 45.6924 136.037 46.07 136.789C46.6257 137.898 46.9053 138.071 48.4622 138.27C49.4318 138.393 50.5974 138.742 51.0526 139.044C51.5855 139.398 53.2394 139.474 55.6985 139.256C57.7984 139.07 59.6355 138.834 59.7806 138.73C60.4769 138.232 60.8476 139.11 61.0852 141.817C61.3124 144.408 61.4902 144.942 62.5298 146.155C63.3086 147.064 63.7646 147.952 63.86 148.745C64.0247 150.112 64.576 150.614 65.7361 150.452C66.227 150.384 66.7651 150.669 67.134 151.194C67.9806 152.397 69.5187 153.08 72.3862 153.526C74.3061 153.824 75.2333 153.738 76.4878 153.147C77.3789 152.726 78.7385 152.374 79.5084 152.365C80.6547 152.351 81.0197 152.185 81.5221 151.445C81.9379 150.833 82.5827 150.371 83.5182 150.015C86.3198 148.949 89.4511 145.007 90.1971 141.606C90.5236 140.119 90.6463 139.957 91.389 140.036C91.8445 140.083 92.4461 140.4 92.7262 140.74C93.7352 141.961 96.7635 141.925 99.7281 140.654C101.795 139.769 103.988 136.687 104.369 134.133C104.77 131.448 103.242 128.034 101.174 126.994C100.628 126.719 99.7287 126.244 99.1758 125.937C98.6229 125.631 97.316 125.437 96.2712 125.506C94.033 125.655 93.6422 125.318 94.4981 123.977C95.0597 123.097 95.3705 122.972 97.3571 122.824C99.5386 122.662 99.6175 122.693 101.058 124.307C102.444 125.86 104.513 126.816 105.289 126.262C105.43 126.161 106.196 126.165 106.991 126.272C108.206 126.436 108.534 126.328 109.054 125.595C109.853 124.47 109.795 123.469 108.886 122.696C107.934 121.886 103.203 120.917 102.534 121.395C101.96 121.805 100.344 121.589 99.9665 121.052C99.8349 120.865 99.4616 120.738 99.1365 120.77C98.8114 120.802 97.9386 120.49 97.1961 120.077C95.9661 119.393 95.7784 119.145 95.0695 117.267C94.5404 115.867 93.9764 114.945 93.3035 114.384C92.1271 113.402 92.1236 112.949 93.2923 112.865C93.7653 112.83 94.3988 112.627 94.6999 112.413C95.001 112.199 96.1217 111.882 97.1897 111.709C98.3399 111.523 100.065 110.855 101.421 110.07C103.383 108.934 103.762 108.584 104.063 107.629C104.256 107.015 104.859 106.058 105.402 105.501C105.946 104.944 106.419 104.166 106.455 103.771C106.491 103.376 106.648 102.962 106.805 102.85C107.091 102.645 107.979 100.418 108.247 99.2316C108.326 98.8796 108.135 98.2269 107.822 97.7811C107.457 97.2622 107.372 96.3218 107.585 95.1641C107.912 93.3877 107.886 93.311 106.014 90.5223C104.451 88.1947 103.844 87.5514 102.625 86.9286C101.808 86.5112 101.131 86.0079 101.121 85.8104C101.112 85.6129 100.659 85.1758 100.116 84.8393C99.2604 84.3098 99.1301 84.0444 99.1493 82.8668C99.1727 81.4133 98.5858 80.2487 97.8578 80.305C97.2626 80.3507 96.3857 82.8434 96.7717 83.3923C97.2075 84.0119 96.813 84.1511 95.0159 84.0117L93.4371 83.8894L93.3221 81.0256C93.259 79.4502 93.263 78.0193 93.3311 77.8453C93.399 77.6715 93.3414 77.1671 93.2025 76.7246C93.0642 76.2821 93.127 75.4853 93.3424 74.9536C93.5577 74.422 93.5922 72.9437 93.4189 71.6681C93.2456 70.393 93.2204 69.2663 93.3633 69.1642C93.5059 69.0623 93.4806 68.7773 93.3075 68.531C93.1343 68.2847 93.184 67.6103 93.4181 67.0325C93.6522 66.4547 93.7501 65.8488 93.6358 65.6862C93.5214 65.5237 93.7345 63.7032 94.1091 61.6409C95.0056 56.705 94.305 52.0865 92.8201 53.1475C92.5101 53.369 92.1927 54.1098 92.115 54.7942ZM60.0391 92.0918C60.1632 92.2683 60.3451 92.229 60.4431 92.004C60.5411 91.7791 60.5791 91.535 60.5273 91.4613C60.4754 91.3876 60.2937 91.4272 60.1232 91.5491C59.9527 91.6709 59.915 91.9153 60.0391 92.0918ZM38.0563 116.879C37.5764 117.617 37.9676 119.36 38.679 119.652C39.4389 119.965 40.7024 118.631 40.9961 117.207C41.1592 116.417 41.1767 115.606 41.0353 115.405C40.5489 114.713 38.9513 115.503 38.0563 116.879ZM52.9004 108.102C52.9123 108.345 53.07 108.437 53.2504 108.308C53.4308 108.179 53.4827 107.937 53.3654 107.77C53.2481 107.603 53.0907 107.511 53.0154 107.565C52.9401 107.618 52.8885 107.86 52.9004 108.102ZM117.289 93.8321C117.139 94.0617 117.051 94.9212 117.091 95.7417C117.152 96.9858 117.307 97.3052 118.019 97.6663C119.825 98.5801 121.061 98.5869 122.318 97.6886C123.849 96.5948 124.067 95.1047 122.936 93.4656C121.608 91.5406 118.65 91.7327 117.289 93.8321ZM149.016 90.4593C148.877 91.502 146.696 93.4513 146.299 92.8872C146.003 92.4669 144.623 93.0211 143.912 93.8462C143.57 94.2435 143.425 94.7616 143.591 94.9973C144.013 95.5981 143.126 97.8582 142.21 98.5123C141.662 98.9042 141.456 99.5693 141.48 100.873C141.498 101.893 141.179 103.218 140.752 103.899C140.333 104.566 139.656 105.642 139.248 106.291C138.603 107.315 138.605 107.672 139.265 109.002C139.683 109.845 139.958 110.687 139.876 110.874C139.795 111.061 139.894 111.653 140.096 112.189C140.299 112.725 140.35 114.024 140.211 115.075C139.949 117.049 140.209 117.886 141.065 117.82C141.665 117.774 143.208 120.619 142.929 121.259C142.803 121.549 143.602 122.761 145.367 124.952L147.993 128.213L149.417 128.074C151.638 127.857 152.492 128.351 153.852 130.636L155.042 132.634L156.645 131.489C158.159 130.406 158.309 130.381 159.367 131.025C160.774 131.882 163.985 132.348 166.127 132.006C167.144 131.844 168.379 131.306 169.383 130.589C170.739 129.62 171.185 129.486 172.143 129.756C173.58 130.162 175.215 129.083 176.335 126.989C177.263 125.253 178.209 124.513 179.471 124.534C179.975 124.542 180.85 124.218 181.417 123.813C182.232 123.23 182.431 122.799 182.371 121.743C182.33 121.01 182.526 119.728 182.807 118.895C183.257 117.56 183.539 117.253 185.183 116.313C187.374 115.059 187.503 114.652 186.452 112.32C185.485 110.175 185.513 108.699 186.551 107.115C187.5 105.666 187.335 104.508 186.093 103.902C185.42 103.575 185.395 103.233 185.898 101.267C186.458 99.0758 186.243 97.9486 185.28 98.0229C184.231 98.1036 183.212 97.0146 182.719 95.2859C182.239 93.6058 181.292 92.4595 180.721 92.8677C180.206 93.2356 179.634 91.977 179.718 90.6615C179.796 89.447 179.751 89.3701 178.864 89.1853C178.349 89.0778 177.53 89.2124 177.043 89.4835C176.1 90.0088 175.661 89.5923 174.817 87.3701C174.261 85.9059 172.848 85.3744 170.305 85.672C169.099 85.8131 165.82 85.6252 163.018 85.2545C160.216 84.8841 157.695 84.7374 157.416 84.9284C157.137 85.1193 156.749 85.79 156.555 86.4181C156.018 88.1569 154.215 89.1151 152.238 88.7129C150.393 88.3376 149.214 88.9763 149.016 90.4593ZM165.865 79.9437C165.763 82.0205 166.997 83.7516 167.553 82.3104C167.952 81.2754 167.821 78.3394 167.362 78.0383C166.544 77.5003 165.948 78.2586 165.865 79.9437ZM85.061 160.962C83.9002 162.598 83.7841 163.11 84.0705 165.328C84.2694 166.87 84.5444 167.457 85.63 168.661C86.3549 169.464 87.1227 170.066 87.336 169.998C87.5495 169.931 87.816 170.007 87.9284 170.167C88.6958 171.258 94.1241 169.928 94.7392 168.497C94.9175 168.084 95.2511 167.611 95.4811 167.447C95.7115 167.282 96.0156 166.251 96.1575 165.155C96.3708 163.507 96.2291 162.817 95.3379 161.164C94.362 159.352 94.1065 159.107 92.6159 158.549C90.8541 157.889 88.0347 158.173 86.725 159.142C86.2934 159.461 85.5443 160.28 85.061 160.962ZM112.403 161.164C111.695 163.06 112.221 166.877 113.103 166.247C113.268 166.129 113.179 165.885 112.905 165.705C112.604 165.507 112.584 165.251 112.856 165.056C113.103 164.88 113.234 164.083 113.147 163.285C113.059 162.487 113.194 161.589 113.447 161.29C113.7 160.99 113.754 160.528 113.567 160.262C113.145 159.662 112.89 159.859 112.403 161.164ZM112.241 167.319C112.253 167.561 112.411 167.653 112.591 167.524C112.772 167.395 112.824 167.153 112.706 166.986C112.589 166.82 112.432 166.727 112.356 166.781C112.281 166.835 112.229 167.077 112.241 167.319Z" fill="#84A7BB"/>
</svg>
