<svg width="182" height="150" viewBox="0 0 182 150" fill="none" xmlns="http://www.w3.org/2000/svg">
<path fill-rule="evenodd" clip-rule="evenodd" d="M161.38 113.045C161.373 112.778 161.235 112.542 161.074 112.521C160.68 112.47 160.305 113.324 160.562 113.689C160.84 114.084 161.396 113.647 161.38 113.045ZM87.2729 148.282C87.4732 147.332 87.1553 147.065 86.4367 147.578C86.0896 147.826 85.9263 148.358 86.0705 148.769C86.3624 149.6 87.0539 149.32 87.2729 148.282ZM178.387 77.4601C178.566 76.6122 179.053 75.8228 179.67 75.3823C180.246 74.9704 180.607 74.4198 180.529 74.0716C180.455 73.7411 180.585 73.3345 180.818 73.1677C181.459 72.7099 181.565 69.5982 180.968 68.7499C180.68 68.3399 180.534 67.3329 180.644 66.5117C180.872 64.8077 180.476 64.024 179.366 63.9834C178.453 63.95 177.748 63.0428 177.305 61.331C177.017 60.2167 176.836 60.066 175.599 59.9054C174.838 59.8064 173.632 59.4203 172.918 59.0466C172.204 58.6735 171.498 58.4549 171.349 58.5612C171.201 58.6675 170.186 58.6655 169.096 58.5563C167.283 58.3747 166.949 58.4781 165.193 59.7677C164.137 60.5434 162.856 61.2452 162.345 61.3276C160.968 61.5491 160.198 62.2273 158.818 64.4315C156.981 67.3659 156.191 70.8132 156.63 73.9782C156.989 76.5703 157.052 76.7032 158.104 77.0735C159.12 77.4312 159.219 77.5709 159.406 78.8968C159.667 80.7423 159.856 80.9824 161.187 81.1552C161.793 81.2337 162.513 81.6076 162.787 81.9866C163.135 82.4665 164.191 82.6633 166.268 82.6358C167.907 82.6142 169.742 82.6348 170.345 82.6815C171.201 82.748 171.939 82.405 173.709 81.1164C174.956 80.2087 176.157 79.5349 176.377 79.6194C177.111 79.9009 178.096 78.8431 178.387 77.4601ZM99.0478 120.211C99.1469 119.499 99.1694 118.833 99.0979 118.732C98.9239 118.484 99.2757 114.518 99.5038 114.158C99.6023 114.002 99.4927 113.604 99.2596 113.272C99.0267 112.941 99.0043 112.429 99.2102 112.136C99.4158 111.841 99.5083 111.493 99.4156 111.361C99.3228 111.229 99.4117 110.156 99.6136 108.976C100.192 105.592 100.45 102.876 100.224 102.555C100.11 102.393 100.068 100.253 100.131 97.8001C100.194 95.3471 100.141 93.1921 100.014 93.0112C99.8866 92.8303 99.9522 91.955 100.16 91.0658C100.533 89.4658 100.551 89.4466 101.977 89.2062C103.794 88.8998 108.107 86.427 108.088 85.7026C108.081 85.4206 108.482 84.9073 108.979 84.5618L109.883 83.9339L109.186 85.0763C107.815 87.3235 107.475 89.8664 108.245 92.1136C108.871 93.9397 109.113 94.2959 110.023 94.7293C110.603 95.0055 111.357 95.6303 111.7 96.1179C112.218 96.8545 112.888 96.994 115.654 96.9404C119.735 96.8616 121.151 96.0089 123.646 92.1272C125.298 89.557 125.292 88.9158 123.581 84.5639C122.453 81.6982 117.793 79.6864 115.083 80.8962C112.474 82.0612 111.885 80.8237 113.274 77.0948C113.976 75.212 114.014 74.5534 113.488 73.4122C113.135 72.6481 112.987 71.9227 113.159 71.8C113.33 71.6775 113.368 71.1277 113.243 70.5781C113.118 70.0285 113.169 69.4692 113.357 69.3353C113.544 69.2012 113.551 68.8828 113.372 68.6277C113.192 68.3726 113.195 68.0568 113.378 67.926C113.561 67.7952 113.906 67.9649 114.144 68.3032C114.708 69.1057 119.652 70.4447 122.032 70.4399C126.545 70.4306 127.676 70.1677 130.34 68.5072C131.755 67.6255 133.519 66.6111 134.259 66.2534C135.262 65.7697 135.841 65.1845 136.523 63.968C137.192 62.7761 137.962 61.9902 139.363 61.0688C141.127 59.9089 141.298 59.6813 141.442 58.3123C141.528 57.492 141.633 56.5166 141.673 56.1445C141.765 55.3175 143.769 54.1171 146.945 52.9871C149.061 52.2347 149.292 52.0717 150.742 50.3095C152.332 48.3765 153.189 45.623 153.482 41.5028C153.661 38.9913 152.67 36.2812 151.352 35.6804C150.758 35.409 150.107 34.7128 149.728 33.9413C149.169 32.8049 148.878 32.6326 147.24 32.4666C146.219 32.3632 144.998 32.0313 144.525 31.7294C143.971 31.376 142.227 31.3402 139.626 31.629C137.405 31.8758 135.46 32.1689 135.304 32.2802C134.556 32.8143 134.187 31.9133 134.005 29.1104C133.831 26.4277 133.656 25.8784 132.59 24.646C131.791 23.7223 131.332 22.813 131.251 21.9929C131.112 20.5782 130.543 20.0715 129.314 20.2693C128.794 20.3527 128.233 20.0709 127.857 19.5359C126.994 18.3086 125.388 17.6392 122.372 17.2507C120.353 16.9907 119.372 17.1034 118.033 17.7499C117.081 18.209 115.637 18.609 114.824 18.6384C113.614 18.6823 113.225 18.8644 112.675 19.6452C112.221 20.2905 111.529 20.7865 110.532 21.1799C107.548 22.3585 104.143 26.5298 103.269 30.0778C102.887 31.6292 102.753 31.8004 101.971 31.738C101.492 31.7002 100.865 31.3867 100.578 31.0418C99.5434 29.8001 96.3459 29.916 93.1844 31.3104C90.9804 32.2823 88.5876 35.5365 88.1204 38.1967C87.629 40.9931 89.1555 44.4965 91.3121 45.523C91.8819 45.7942 92.819 46.2643 93.3949 46.5683C93.9708 46.8718 95.3455 47.0395 96.4501 46.9406C98.8164 46.7286 99.2205 47.0685 98.283 48.4818C97.668 49.4091 97.3367 49.5469 95.2359 49.7517C92.9291 49.9765 92.8465 49.9458 91.3665 48.3076C89.9431 46.7322 87.783 45.7932 86.9506 46.388C86.7985 46.4967 85.99 46.5118 85.1539 46.4215C83.8749 46.2831 83.5264 46.4034 82.9591 47.1768C82.0872 48.3648 82.1231 49.4022 83.0624 50.1811C84.0472 50.9976 89.0166 51.881 89.7352 51.3676C90.3516 50.9271 92.0513 51.1097 92.4366 51.6577C92.5708 51.8485 92.9617 51.9706 93.3057 51.9292C93.6496 51.8879 94.563 52.189 95.3364 52.5982C96.6174 53.2765 96.8093 53.5287 97.5101 55.4589C98.0332 56.899 98.6052 57.8404 99.3012 58.4057C100.518 59.3946 100.51 59.8643 99.2746 59.9821C98.7745 60.0296 98.1007 60.2569 97.7774 60.487C97.4541 60.7171 96.2631 61.0742 95.1314 61.2812C93.9125 61.5035 92.0741 62.2415 90.6229 63.0913C88.5232 64.3203 88.1147 64.693 87.7728 65.6924C87.5535 66.3341 86.893 67.3427 86.3051 67.9347C85.7174 68.5261 85.1977 69.3458 85.1498 69.7564C85.1022 70.1672 84.9258 70.6013 84.7578 70.7214C84.4499 70.9414 83.4562 73.2753 83.1437 74.5133C83.0509 74.8807 83.2362 75.553 83.5558 76.0076C83.9279 76.5367 83.994 77.5103 83.7395 78.7171C83.3489 80.5689 83.3744 80.6478 85.2805 83.4934C86.8717 85.8685 87.4957 86.5205 88.7672 87.1354C89.6191 87.5475 90.3202 88.0524 90.3257 88.2571C90.3305 88.4618 90.7973 88.9037 91.3626 89.2389C92.2521 89.7663 92.383 90.0385 92.3329 91.2609C92.2714 92.7698 92.8615 93.9632 93.6314 93.886C94.2609 93.8232 95.2495 91.2142 94.8559 90.6544C94.4117 90.0227 94.8315 89.8681 96.725 89.9665L98.3885 90.0528L98.4374 93.0217C98.4641 94.6547 98.4237 96.1397 98.3474 96.322C98.2714 96.5041 98.3194 97.026 98.4548 97.4817C98.5897 97.9373 98.5031 98.7657 98.2624 99.3229C98.0216 99.8802 97.9478 101.415 98.0984 102.734C98.2491 104.053 98.2472 105.221 98.0937 105.331C97.9406 105.441 97.9601 105.736 98.1367 105.987C98.3133 106.238 98.2437 106.939 97.982 107.545C97.7203 108.15 97.6016 108.781 97.7181 108.947C97.8347 109.113 97.5637 111.007 97.1161 113.157C96.0449 118.302 96.6675 123.077 98.2618 121.937C98.5946 121.7 98.9484 120.923 99.0478 120.211ZM133.851 80.6826C133.724 80.5026 133.531 80.5481 133.422 80.784C133.313 81.02 133.267 81.2742 133.319 81.3493C133.372 81.4245 133.565 81.3787 133.748 81.2479C133.931 81.1171 133.977 80.8625 133.851 80.6826ZM157.683 54.3956C158.208 53.6178 157.839 51.819 157.096 51.5339C156.301 51.2294 154.934 52.6456 154.588 54.1311C154.396 54.9551 154.357 55.797 154.501 56.002C154.997 56.7074 156.703 55.8463 157.683 54.3956ZM141.791 63.8849C141.785 63.634 141.621 63.5422 141.427 63.6806C141.233 63.819 141.173 64.0716 141.292 64.2417C141.412 64.4118 141.575 64.5038 141.656 64.446C141.737 64.3883 141.798 64.1359 141.791 63.8849ZM73.4627 80.3489C73.6259 80.1067 73.7413 79.2126 73.7194 78.3622C73.6863 77.0728 73.5315 76.7453 72.7883 76.3889C70.9059 75.4871 69.6007 75.5119 68.251 76.4763C66.6075 77.6507 66.3396 79.2026 67.4917 80.8743C68.8449 82.8378 71.9723 82.5624 73.4627 80.3489ZM39.8859 84.6647C40.0592 83.5791 42.4113 81.5002 42.8158 82.0753C43.1172 82.5039 44.5881 81.8933 45.3594 81.0189C45.7308 80.5978 45.8967 80.0564 45.7278 79.8161C45.297 79.2035 46.2911 76.8354 47.274 76.1331C47.8627 75.7124 48.0968 75.0169 48.1048 73.6651C48.1114 72.6071 48.4814 71.2239 48.9501 70.5057C49.4088 69.8034 50.1504 68.6691 50.5978 67.9855C51.3044 66.9059 51.3112 66.5359 50.6487 65.1721C50.229 64.3086 49.9602 63.4414 50.051 63.2455C50.1415 63.0493 50.052 62.4377 49.8519 61.8865C49.6519 61.3353 49.6302 59.989 49.8041 58.8951C50.1304 56.8402 49.8768 55.9783 48.9721 56.0685C48.3372 56.132 46.7806 53.2188 47.0909 52.5478C47.2316 52.2437 46.4183 51.0068 44.6113 48.7785L41.9221 45.4614L40.4152 45.6425C38.0654 45.9249 37.176 45.4346 35.798 43.0981L34.593 41.0553L32.8719 42.2851C31.2457 43.4472 31.0866 43.4777 29.9868 42.8367C28.5224 41.9832 25.1452 41.5818 22.8758 41.9921C21.7976 42.1869 20.4804 42.7764 19.4027 43.5465C17.9472 44.5865 17.4729 44.7377 16.4686 44.4815C14.9613 44.0973 13.2084 45.2592 11.9735 47.4612C10.9498 49.2859 9.93259 50.0788 8.60014 50.0891C8.06919 50.0935 7.13697 50.4525 6.52856 50.8873C5.65287 51.513 5.43195 51.9655 5.46831 53.0597C5.49351 53.8194 5.25431 55.1547 4.93653 56.0262C4.42743 57.4228 4.12187 57.7485 2.36312 58.7669C0.0189006 60.1246 -0.127825 60.5496 0.922689 62.943C1.88897 65.1435 1.82178 66.6764 0.686507 68.3467C-0.35232 69.8747 -0.207186 71.0724 1.08867 71.6685C1.79063 71.9912 1.80844 72.345 1.22801 74.3976C0.581106 76.6863 0.779122 77.8503 1.79817 77.7485C2.90699 77.6378 3.95528 78.7416 4.43219 80.5228C4.89592 82.2539 5.86681 83.4191 6.48022 82.9807C7.03306 82.5857 7.60509 83.877 7.48294 85.2443C7.36994 86.5066 7.41526 86.5853 8.34667 86.7542C8.88734 86.8524 9.75597 86.6917 10.277 86.398C11.2858 85.8286 11.7383 86.2495 12.573 88.5337C13.1229 90.0388 14.6003 90.554 17.2931 90.1798C18.5695 90.0023 22.0259 90.113 24.9742 90.4256C27.9222 90.7379 30.5796 90.8253 30.8793 90.62C31.1789 90.4147 31.6051 89.7087 31.8259 89.052C32.4372 87.2339 34.3643 86.1932 36.4413 86.5597C38.3795 86.9017 39.6394 86.2086 39.8859 84.6647ZM21.8344 96.0098C21.9944 93.8521 20.7355 92.0875 20.1129 93.5973C19.6657 94.6816 19.7295 97.7248 20.206 98.0255C21.0563 98.5627 21.7044 97.7605 21.8344 96.0098ZM109.181 9.86054C110.448 8.13254 110.583 7.59849 110.337 5.30406C110.166 3.70988 109.89 3.10705 108.775 1.88629C108.03 1.07163 107.235 0.466258 107.008 0.541924C106.781 0.617281 106.501 0.545613 106.387 0.382647C105.604 -0.72998 99.8407 0.789921 99.1552 2.28984C98.9566 2.72353 98.5924 3.22257 98.3455 3.39904C98.0982 3.57575 97.751 4.65363 97.5735 5.79429C97.3066 7.50984 97.4387 8.22251 98.3376 9.91537C99.322 11.7702 99.5854 12.0183 101.145 12.559C102.988 13.1986 105.971 12.8314 107.378 11.7921C107.842 11.4496 108.653 10.5803 109.181 9.86054ZM80.3239 10.3535C81.119 8.36872 80.6604 4.42049 79.7132 5.09735C79.5361 5.22387 79.624 5.4747 79.9085 5.65467C80.2222 5.85245 80.2361 6.11757 79.9438 6.32638C79.6786 6.51593 79.5206 7.34664 79.5927 8.17235C79.665 8.99836 79.4994 9.93346 79.2248 10.2505C78.9505 10.5673 78.8818 11.0485 79.0723 11.3194C79.5027 11.9313 79.7764 11.7204 80.3239 10.3535ZM80.6503 3.96309C80.6439 3.71215 80.4798 3.62032 80.2861 3.75874C80.0923 3.89715 80.0314 4.14975 80.151 4.31983C80.2706 4.48991 80.4344 4.58198 80.5153 4.52419C80.5962 4.46639 80.6567 4.21403 80.6503 3.96309Z" fill="#E09E9B"/>
</svg>
