<svg width="221" height="159" viewBox="0 0 221 159" fill="none" xmlns="http://www.w3.org/2000/svg">
<path fill-rule="evenodd" clip-rule="evenodd" d="M119.995 0.982095C119.168 2.17629 119.171 3.9929 120.001 4.83281C121.57 6.42062 125.137 4.75627 125.137 2.43647C125.137 0.155147 121.316 -0.926114 119.995 0.982095ZM114.517 7.98291C113.789 8.43173 112.906 9.36283 112.554 10.0517C111.252 12.6008 112.097 16.8058 114.036 17.429C114.526 17.5863 115.69 18.4141 116.623 19.2678C119.192 21.6198 120.232 22.2213 121.73 22.2213C126.655 22.2213 128.705 17.7657 125.486 14.0547C124.791 13.2541 123.824 11.801 123.337 10.8256C121.624 7.39773 117.578 6.09352 114.517 7.98291ZM42.3474 12.4723C41.9862 12.8379 42.8932 13.8556 43.5795 13.8556C43.8927 13.8556 44.1489 13.6741 44.1489 13.452C44.1489 12.9291 42.6833 12.1323 42.3474 12.4723ZM77.4118 12.7133C74.5677 13.0466 72.5827 13.1039 70.6481 12.9086C70.0336 12.8467 69.4952 13.1178 69.2019 13.6368C68.9449 14.0915 68.5329 14.6562 68.2862 14.8917C66.8363 16.2758 64.662 19.5158 63.4926 22.036C61.6708 25.9612 61.6241 28.9305 63.3294 32.4466C64.6294 35.1266 67.1681 37.955 69.1527 38.9346C71.348 40.018 73.3992 42.7071 74.3004 45.6828C75.326 49.0709 76.0098 49.7661 80.4732 51.9587C82.0306 52.7242 82.7801 52.8216 85.6383 52.6317C87.477 52.5092 89.429 52.2695 89.9757 52.0984C90.6062 51.9014 90.8764 51.9412 90.7145 52.2064C90.3083 52.8718 91.2078 55.5953 92.5793 57.8515C93.516 59.3929 93.7201 60.0475 93.3734 60.3984C92.0966 61.6909 93.5061 63.4389 95.2762 62.7576C96.0084 62.4756 96.6154 62.6149 97.7774 63.3314C98.6211 63.8518 99.8368 64.5478 100.478 64.8783L101.645 65.4789L100.55 66.287C98.9806 67.444 98.5719 68.8055 99.2794 70.5192C100.326 73.0553 103.076 73.6204 105.271 71.7507C106.722 70.5146 106.884 69.2786 105.859 67.2704C105.252 66.0825 105.249 65.9942 105.833 66.4836C106.311 66.886 106.707 66.9182 107.289 66.6028C107.729 66.3644 108.81 65.988 109.691 65.7654C112.242 65.1229 114.296 64.2684 115.132 63.5034C116.148 62.5723 116.46 62.6095 116.46 63.6619C116.46 64.263 116.682 64.4859 117.183 64.3884C118.038 64.2216 118.28 61.8319 118.166 54.6813L118.094 50.1233L119.756 47.5412C120.67 46.1212 121.418 44.7245 121.418 44.4372C121.418 44.0394 120.643 43.9829 118.173 44.2012C115.083 44.474 114.917 44.4447 114.696 43.5868C114.511 42.8711 114.18 42.7009 113.085 42.7577C112.328 42.7975 110.864 42.4516 109.832 41.9894C108.8 41.5272 107.359 41.0164 106.629 40.8541C105.168 40.5291 105.104 40.3735 105.739 38.6824C106.379 36.9796 105.908 35.5202 104.772 35.6837C103.947 35.8025 103.856 36.0581 103.847 38.2809C103.838 40.5116 103.74 40.7826 102.824 41.126C102.064 41.4105 101.693 41.3427 101.342 40.8562C101.084 40.4994 100.754 40.2075 100.609 40.2075C100.141 40.2075 100.328 41.387 100.822 41.5539C101.464 41.7702 97.5162 44.3903 96.5493 44.3903C95.8275 44.3903 95.8225 44.3096 96.451 42.8217C96.8158 41.9592 97.2113 41.0143 97.3303 40.7228C97.7212 39.7633 96.6088 37.927 94.9143 36.7349C93.8784 36.0058 93.3329 35.3391 93.4726 34.9714C93.5957 34.646 93.9222 32.4153 94.1978 30.0139C94.6102 26.4242 94.8097 25.6909 95.3209 25.8896C95.7804 26.0678 95.87 25.9394 95.6647 25.3969C95.5114 24.9928 95.3862 24.5837 95.3862 24.4875C95.3862 24.3913 95.1353 24.3127 94.8292 24.3127C94.5226 24.3127 93.9833 23.4071 93.63 22.3003C93.2767 21.1936 92.4966 19.5547 91.8958 18.6588C90.8128 17.0433 87.8051 14.6976 86.8122 14.6938C86.5283 14.693 86.2957 14.5416 86.2957 14.3575C86.2957 14.1735 85.1337 13.7803 83.7132 13.4838C82.293 13.1876 80.9447 12.8166 80.7174 12.6597C80.4902 12.5029 79.0026 12.5271 77.4118 12.7133ZM57.2681 15.9721C56.3909 16.4996 56.3269 17.7528 57.1421 18.4375C58.5582 19.6275 60.9523 17.9866 60.013 16.4699C59.4701 15.5927 58.2627 15.374 57.2681 15.9721ZM57.7846 23.2377C57.7846 23.6648 58.1578 23.8944 58.8519 23.8944C60.1465 23.8944 60.0048 22.9123 58.6821 22.7149C58.0859 22.6262 57.7846 22.8019 57.7846 23.2377ZM27.4534 25.824C27.0762 26.8186 27.7121 27.3319 29.1199 27.1687C29.986 27.0688 30.3066 26.8057 30.3066 26.195C30.3066 25.0623 27.8625 24.7444 27.4534 25.824ZM105.079 25.5956C104.93 25.8407 104.906 26.1419 105.027 26.2648C105.324 26.5643 106.129 26.0364 106.129 25.5429C106.129 25.0083 105.416 25.0439 105.079 25.5956ZM45.8918 27.3051C45.9935 27.615 46.4083 27.9329 46.8133 28.0128C47.2843 28.1049 47.4831 27.9543 47.3645 27.5945C47.2628 27.2846 46.848 26.9667 46.443 26.8868C45.972 26.7948 45.7732 26.9454 45.8918 27.3051ZM59.1036 29.7818C59.185 30.029 59.4284 30.2314 59.6441 30.2314C59.8597 30.2314 60.1031 30.029 60.1845 29.7818C60.2659 29.5345 60.023 29.3321 59.6441 29.3321C59.2651 29.3321 59.0222 29.5345 59.1036 29.7818ZM56.1318 31.8418C56.1318 32.0719 56.5037 32.2601 56.9582 32.2601C57.4128 32.2601 57.7846 32.0719 57.7846 31.8418C57.7846 31.6117 57.4128 31.4235 56.9582 31.4235C56.5037 31.4235 56.1318 31.6117 56.1318 31.8418ZM144.007 34.2122C143.369 34.8568 143.765 35.6595 144.657 35.5311C145.826 35.3621 146.196 33.9332 145.07 33.9332C144.636 33.9332 144.158 34.0587 144.007 34.2122ZM128.856 36.2974C125.848 38.0788 123.484 40.691 123.484 42.2332C123.484 42.9811 124.707 43.0995 126.146 42.4909C126.94 42.1554 127.98 41.8806 128.458 41.8806C129.601 41.8806 133.355 38.6561 133.664 37.4087C134.24 35.0843 131.84 34.5297 128.856 36.2974ZM65.6355 38.1407C65.6355 38.3842 65.8214 38.4674 66.0487 38.3252C66.276 38.183 66.4619 37.9839 66.4619 37.8822C66.4619 37.7806 66.276 37.6978 66.0487 37.6978C65.8214 37.6978 65.6355 37.8973 65.6355 38.1407ZM39.3529 41.2875C39.4909 41.6514 39.6066 42.0747 39.6099 42.2286C39.6186 42.6026 40.4156 41.3398 40.4239 40.9395C40.4272 40.7671 40.1314 40.6258 39.7661 40.6258C39.3302 40.6258 39.1884 40.8533 39.3529 41.2875ZM114.394 41.044C114.394 41.2741 114.579 41.4623 114.807 41.4623C115.034 41.4623 115.22 41.2741 115.22 41.044C115.22 40.814 115.034 40.6258 114.807 40.6258C114.579 40.6258 114.394 40.814 114.394 41.044ZM42.7205 42.6883C42.4383 43.1505 43.0899 43.6499 43.4717 43.2635C43.8642 42.8657 43.7911 42.2989 43.3469 42.2989C43.1329 42.2989 42.8511 42.4741 42.7205 42.6883ZM179.886 44.3903C179.54 44.9567 180.007 45.6452 180.737 45.6452C181.065 45.6452 181.332 45.2687 181.332 44.8086C181.332 43.9427 180.335 43.6541 179.886 44.3903ZM148.116 46.0982C145.683 46.6955 143.375 48.1712 142.416 49.7427C141.695 50.9226 141.596 51.5589 141.81 53.6331C142.081 56.2478 143.119 58.76 144.425 59.9555C144.855 60.3491 146.115 61.0777 147.225 61.5747C149.024 62.3803 149.469 62.4263 151.342 61.9984C154.624 61.2484 156.595 59.912 157.894 57.5554C159.293 55.0164 159.162 53.2132 157.342 49.9941C155.538 46.8013 151.756 45.2043 148.116 46.0982ZM123.153 47.8202C122.881 48.0963 122.658 48.8116 122.658 49.4097C122.658 50.8482 123.367 51.5011 124.93 51.5011C126.43 51.5011 127.203 50.8545 127.203 49.6C127.203 47.7914 124.399 46.5591 123.153 47.8202ZM34.7948 52.9651C34.4329 53.9192 34.939 54.8474 35.8212 54.8474C36.8237 54.8474 37.703 53.7954 37.3902 52.9706C37.0798 52.152 35.1043 52.1478 34.7948 52.9651ZM85.2404 58.2301C84.8796 58.8207 85.6763 59.6271 86.2597 59.262C86.5068 59.1072 86.7089 58.7098 86.7089 58.3781C86.7089 57.6737 85.6453 57.5667 85.2404 58.2301ZM57.4747 60.7448C56.9632 60.9372 56.545 61.3036 56.545 61.5588C56.545 62.3786 59.0098 64.5629 59.6531 64.3132C60.3482 64.0434 60.4705 62.9734 59.8507 62.5856C59.6234 62.4434 59.4375 61.9821 59.4375 61.56C59.4375 60.6017 58.685 60.2893 57.4747 60.7448ZM89.1881 60.8878C89.1881 61.2195 89.3567 61.596 89.5625 61.7248C89.7682 61.8536 89.8451 62.3142 89.7331 62.7479C89.6211 63.1821 89.7492 63.6744 90.0182 63.8426C90.7095 64.2751 91.8545 63.0182 91.4128 62.3121C91.0665 61.7591 90.9959 61.5412 90.8926 60.7034C90.8108 60.0416 89.1881 60.2173 89.1881 60.8878ZM116.539 65.4187C116.308 65.701 116.219 66.4548 116.34 67.0943C116.502 67.9485 116.745 68.1969 117.258 68.0325C117.712 67.8866 118.403 68.3207 119.238 69.2757C120.078 70.2352 120.749 70.6552 121.177 70.4887C122.566 69.9487 121.525 68.0865 118.757 66.1578C117.38 65.1991 116.86 65.0259 116.539 65.4187ZM81.7504 66.1411C81.7504 66.3711 81.9364 66.5593 82.1636 66.5593C82.3909 66.5593 82.5768 66.3711 82.5768 66.1411C82.5768 65.911 82.3909 65.7228 82.1636 65.7228C81.9364 65.7228 81.7504 65.911 81.7504 66.1411ZM163.647 66.2247C162.33 67.5578 163.963 69.5547 165.631 68.6508C166.682 68.0811 166.697 66.7187 165.658 66.1557C164.627 65.5973 164.254 65.6103 163.647 66.2247ZM62.5195 67.4239C62.3695 67.669 62.3464 67.9702 62.4675 68.0932C62.7637 68.3927 63.5695 67.8648 63.5695 67.3712C63.5695 66.8367 62.8563 66.8722 62.5195 67.4239ZM22.2491 69.069C22.2491 69.2991 22.4351 69.4873 22.6624 69.4873C22.8896 69.4873 23.0756 69.2991 23.0756 69.069C23.0756 68.839 22.8896 68.6508 22.6624 68.6508C22.4351 68.6508 22.2491 68.839 22.2491 69.069ZM63.7575 70.0959C63.1997 70.6606 62.7431 71.4846 62.7431 71.9272C62.7431 72.4212 62.2799 72.9265 61.5444 73.2347C59.4854 74.0981 58.414 75.5959 58.4644 77.5422C58.5235 79.8231 60.0019 81.1993 62.3923 81.1993C65.5194 81.1993 67.9957 78.6105 67.4606 75.9013C67.2838 75.0066 67.4437 74.4942 68.0817 73.9094C69.1163 72.9616 69.2312 70.6773 68.292 69.7262C67.2817 68.7039 64.9442 68.8942 63.7575 70.0959ZM82.1636 69.9361C82.1636 71.0082 83.5313 70.8865 83.7388 69.7964C83.8342 69.2945 83.6115 69.069 83.0202 69.069C82.4289 69.069 82.1636 69.3376 82.1636 69.9361ZM108.348 69.6898C107.977 70.6669 108.925 71.5725 109.445 70.7388C109.66 70.3954 109.78 69.9382 109.712 69.7228C109.49 69.0088 108.614 68.9879 108.348 69.6898ZM208.191 72.4153C208.191 72.6454 208.388 72.8336 208.628 72.8336C208.869 72.8336 208.951 72.6454 208.81 72.4153C208.67 72.1853 208.473 71.997 208.373 71.997C208.272 71.997 208.191 72.1853 208.191 72.4153ZM48.7545 74.224C48.3805 74.6799 48.4008 74.9233 48.8433 75.2952C49.5925 75.9243 50.8366 75.4265 50.6726 74.5636C50.504 73.6781 49.3669 73.4769 48.7545 74.224ZM180.919 78.2713C180.919 78.5013 181.105 78.6896 181.332 78.6896C181.56 78.6896 181.746 78.5013 181.746 78.2713C181.746 78.0412 181.56 77.853 181.332 77.853C181.105 77.853 180.919 78.0412 180.919 78.2713ZM49.7272 82.6691C48.8181 83.2878 47.6095 84.2113 47.0414 84.7212C46.4732 85.2311 45.5154 85.9568 44.9129 86.3341C44.289 86.7252 43.5064 87.8441 43.0953 88.9337C42.4779 90.5705 42.4358 91.2954 42.8031 93.9469C43.0647 95.8342 43.5692 97.5249 44.0923 98.2686C45.8699 100.796 52.4742 102.395 56.545 101.284C59.0205 100.608 61.5436 97.9377 62.7377 94.7282C63.5455 92.5565 63.5992 91.9885 63.2187 89.636C62.7282 86.6014 61.4964 84.6882 58.9247 82.9652C57.5793 82.0638 56.6483 81.8066 54.3096 81.6903C51.6849 81.5594 51.2077 81.6611 49.7272 82.6691ZM104.687 82.9439C103.172 84.1502 103.416 85.5482 105.172 85.7201C106.647 85.8648 107.607 84.7082 107.169 83.3137C106.797 82.1245 105.886 81.989 104.687 82.9439ZM188.987 85.905C185.6 89.2671 185.253 90.6541 186.914 94.1719C188.098 96.6812 188.565 97.0748 191.611 98.1368C194.392 99.1064 196.403 98.9341 199.065 97.4973C201.592 96.1341 202.574 94.8709 203.033 92.3913C203.457 90.1045 203.049 89.0392 200.857 86.7005C198.577 84.269 196.511 83.2907 193.658 83.2907C191.716 83.2907 191.499 83.4124 188.987 85.905ZM156.457 92.5055C155.679 93.1664 155.613 93.3826 156.09 93.7009C156.834 94.1966 158.362 93.6382 158.523 92.8121C158.72 91.8057 157.495 91.6237 156.457 92.5055ZM104.647 93.1174C103.771 94.4706 104.153 95.9739 105.533 96.6105C107.862 97.6847 110.471 94.7638 108.826 92.9238C107.715 91.6806 105.511 91.7827 104.647 93.1174ZM18.3452 94.8315C17.4097 95.7785 18.1212 96.5084 19.3373 95.8496C20.236 95.3628 20.3104 94.5576 19.4823 94.2782C19.2385 94.1958 18.727 94.445 18.3452 94.8315ZM96.1952 99.2181C95.6014 100.341 95.9679 101.277 97.0018 101.277C98.0554 101.277 98.4195 100.647 98.103 99.3708C97.7931 98.1205 96.8167 98.0427 96.1952 99.2181ZM72.929 100.636C72.8009 100.974 72.8819 101.366 73.1091 101.509C73.6298 101.834 74.7954 100.892 74.4905 100.393C74.1351 99.8108 73.1856 99.9589 72.929 100.636ZM167.284 102.138C167.284 102.382 167.469 102.465 167.697 102.323C167.924 102.18 168.11 101.981 168.11 101.88C168.11 101.778 167.924 101.695 167.697 101.695C167.469 101.695 167.284 101.895 167.284 102.138ZM180.713 105.909C178.708 106.554 176.224 108.509 175.422 110.072C173.8 113.232 175.338 118.86 178.541 121.484C179.716 122.447 180.62 122.794 182.326 122.937C184.11 123.087 184.61 123.292 184.777 123.94C184.948 124.601 185.287 124.73 186.569 124.623C188.076 124.498 188.161 124.413 188.373 122.801C188.496 121.871 188.985 120.46 189.459 119.664C191.116 116.887 191.382 115.339 190.644 112.767C189.246 107.899 184.566 104.667 180.713 105.909ZM158.193 106.505C158.193 106.851 158.472 107.133 158.813 107.133C159.154 107.133 159.433 106.851 159.433 106.505C159.433 106.16 159.154 105.878 158.813 105.878C158.472 105.878 158.193 106.16 158.193 106.505ZM118.526 107.92C118.526 108.15 118.711 108.455 118.939 108.597C119.166 108.739 119.352 108.667 119.352 108.437C119.352 108.207 119.166 107.902 118.939 107.76C118.711 107.618 118.526 107.69 118.526 107.92ZM196.073 107.826C195.701 108.203 196.59 109.224 197.291 109.224C197.604 109.224 197.861 108.848 197.861 108.388C197.861 107.574 196.687 107.205 196.073 107.826ZM1.38238 110.561C-0.418778 111.595 -0.456379 112.344 1.24932 113.236C2.48398 113.883 2.59472 113.879 3.10874 113.167C3.78846 112.226 3.80788 111.219 3.15915 110.563C2.55959 109.956 2.43604 109.956 1.38238 110.561ZM47.2868 113.246C46.8984 114.272 47.7 114.974 48.6024 114.398C49.5859 113.77 49.4941 112.806 48.4367 112.653C47.9049 112.576 47.4525 112.809 47.2868 113.246ZM220.174 118.008C220.174 118.238 220.36 118.426 220.587 118.426C220.814 118.426 221 118.238 221 118.008C221 117.778 220.814 117.59 220.587 117.59C220.36 117.59 220.174 117.778 220.174 118.008ZM111.763 120.13C110.56 121.088 110.338 122.752 111.25 123.969C112.09 125.089 114.991 124.963 115.816 123.771C116.58 122.667 116.661 120.471 115.964 119.765C115.189 118.981 112.963 119.175 111.763 120.13ZM38.3207 122.049C37.9558 122.148 37.4063 122.703 37.1001 123.283C36.3377 124.725 37.0125 125.711 38.8711 125.873C40.6553 126.028 41.8267 125.039 41.4267 123.716C40.8801 121.908 40.1966 121.541 38.3207 122.049ZM74.5371 125.508C74.2549 125.971 74.9065 126.47 75.2883 126.084C75.6809 125.686 75.6078 125.119 75.1636 125.119C74.9495 125.119 74.6677 125.294 74.5371 125.508ZM174.8 138.4C174.877 138.802 175.213 139.132 175.548 139.132C175.882 139.132 176.219 138.802 176.296 138.4C176.393 137.886 176.17 137.668 175.548 137.668C174.925 137.668 174.702 137.886 174.8 138.4ZM213.149 142.687C213.149 143.226 213.358 143.523 213.666 143.419C213.95 143.323 214.182 142.994 214.182 142.687C214.182 142.38 213.95 142.051 213.666 141.955C213.358 141.851 213.149 142.148 213.149 142.687ZM148.512 145.435C148.155 145.797 147.863 146.349 147.863 146.661C147.863 147.635 149.156 148.594 150.291 148.461C151.785 148.286 152.032 146.4 150.687 145.446C149.518 144.617 149.322 144.616 148.512 145.435ZM137.533 158.373C137.533 158.718 137.719 159 137.946 159C138.173 159 138.359 158.718 138.359 158.373C138.359 158.027 138.173 157.745 137.946 157.745C137.719 157.745 137.533 158.027 137.533 158.373Z" fill="#C7695E"/>
</svg>
