<svg width="689" height="326" viewBox="0 0 689 326" fill="none" xmlns="http://www.w3.org/2000/svg">
<path d="M655.841 184.552C665.288 184.552 672.946 185.511 672.946 186.693V323.733C672.941 324.915 665.284 325.873 655.841 325.873C646.541 325.873 638.975 324.944 638.741 323.787L638.735 323.732V186.693C638.735 185.511 646.394 184.552 655.841 184.552Z" fill="url(#paint0_linear_3058_23)"/>
<path d="M30.1191 184.282C39.5662 184.282 47.2246 185.241 47.2246 186.424V323.464C47.2189 324.646 39.5627 325.604 30.1191 325.604C20.8192 325.604 13.253 324.675 13.0195 323.518L13.0137 323.463V186.424C13.0137 185.241 20.6721 184.282 30.1191 184.282Z" fill="url(#paint1_linear_3058_23)"/>
<path d="M603.689 173.616C612.445 173.616 619.544 174.249 619.544 175.03V265.528L619.538 265.564C619.322 266.329 612.309 266.942 603.689 266.942C595.069 266.942 588.056 266.329 587.841 265.564L587.836 265.528V175.03C587.836 174.249 594.934 173.616 603.689 173.616Z" fill="url(#paint2_linear_3058_23)"/>
<path d="M82.3271 173.616C91.0826 173.616 98.181 174.249 98.1816 175.03V265.528L98.1758 265.564C97.96 266.329 90.947 266.942 82.3271 266.942C73.7068 266.942 66.6933 266.329 66.4785 265.564L66.4736 265.528V175.03C66.4742 174.249 73.5718 173.616 82.3271 173.616Z" fill="url(#paint3_linear_3058_23)"/>
<path d="M3.16504 181.82C3.16504 176.297 7.64219 171.82 13.165 171.82H674.779C680.302 171.82 684.779 176.297 684.779 181.82V198.567C684.779 204.09 680.302 208.567 674.779 208.567H13.1651C7.64221 208.567 3.16504 204.09 3.16504 198.567V181.82Z" fill="#573738"/>
<path d="M50.686 7.25608C51.9115 2.96142 55.8361 0 60.3022 0H613.058C617.233 0 620.968 2.59279 622.427 6.50355L683.963 171.39C686.402 177.926 681.57 184.887 674.594 184.887H13.2526C6.61019 184.887 1.8138 178.53 3.63641 172.143L50.686 7.25608Z" fill="#886A6B"/>
<defs>
<linearGradient id="paint0_linear_3058_23" x1="655.841" y1="184.552" x2="655.841" y2="325.873" gradientUnits="userSpaceOnUse">
<stop stop-color="#573738"/>
<stop offset="0.370192" stop-color="#886A6B"/>
</linearGradient>
<linearGradient id="paint1_linear_3058_23" x1="30.1191" y1="184.282" x2="30.1191" y2="325.604" gradientUnits="userSpaceOnUse">
<stop stop-color="#573738"/>
<stop offset="0.370192" stop-color="#886A6B"/>
</linearGradient>
<linearGradient id="paint2_linear_3058_23" x1="603.69" y1="173.616" x2="603.69" y2="266.942" gradientUnits="userSpaceOnUse">
<stop offset="0.423114" stop-color="#886A6B"/>
<stop offset="1" stop-color="#573738"/>
</linearGradient>
<linearGradient id="paint3_linear_3058_23" x1="82.3276" y1="173.616" x2="82.3276" y2="266.942" gradientUnits="userSpaceOnUse">
<stop offset="0.423114" stop-color="#886A6B"/>
<stop offset="1" stop-color="#573738"/>
</linearGradient>
</defs>
</svg>
