<svg width="975" height="393" viewBox="0 0 975 393" fill="none" xmlns="http://www.w3.org/2000/svg">
<path d="M928.077 192.525C941.446 192.525 952.283 193.882 952.283 195.556V389.479L952.274 389.558C951.942 391.195 941.236 392.51 928.077 392.51C914.918 392.51 904.211 391.195 903.879 389.558L903.871 389.479V195.556C903.871 193.882 914.709 192.525 928.077 192.525Z" fill="url(#paint0_linear_2920_123)"/>
<path d="M42.6211 192.144C55.9895 192.144 66.8271 193.5 66.8271 195.174V389.099C66.8228 390.772 55.9868 392.128 42.6211 392.128C29.4613 392.128 18.754 390.813 18.4229 389.176L18.415 389.098V195.174C18.415 193.5 29.2526 192.144 42.6211 192.144Z" fill="url(#paint1_linear_2920_123)"/>
<path d="M854.279 177.051C866.669 177.051 876.714 177.947 876.714 179.052V307.115L876.706 307.167C876.398 308.248 866.475 309.116 854.279 309.116C842.083 309.116 832.159 308.248 831.852 307.167L831.844 307.115V179.052C831.844 177.947 841.889 177.051 854.279 177.051Z" fill="url(#paint2_linear_2920_123)"/>
<path d="M116.501 177.051C128.891 177.051 138.935 177.947 138.936 179.052V307.115L138.928 307.167C138.62 308.248 128.697 309.116 116.501 309.116C104.305 309.116 94.3809 308.248 94.0732 307.167L94.0664 307.115V179.052C94.0665 177.947 104.111 177.051 116.501 177.051Z" fill="url(#paint3_linear_2920_123)"/>
<path d="M4.47925 184.51C4.47925 178.987 8.9564 174.51 14.4792 174.51H959.028C964.55 174.51 969.027 178.987 969.027 184.51V216.51C969.027 222.033 964.55 226.51 959.027 226.51H14.4792C8.95637 226.51 4.47925 222.033 4.47925 216.51V184.51Z" fill="#573738"/>
<path d="M72.1828 6.39235C73.673 2.53981 77.3786 0 81.5093 0H872.32C876.107 0 879.57 2.14003 881.264 5.52787L967.764 178.528C971.088 185.177 966.253 193 958.82 193H14.5902C7.56429 193 2.72893 185.946 5.26365 179.393L72.1828 6.39235Z" fill="#886A6B"/>
<defs>
<linearGradient id="paint0_linear_2920_123" x1="928.077" y1="192.525" x2="928.077" y2="392.51" gradientUnits="userSpaceOnUse">
<stop stop-color="#573738"/>
<stop offset="0.370192" stop-color="#886A6B"/>
</linearGradient>
<linearGradient id="paint1_linear_2920_123" x1="42.6211" y1="192.144" x2="42.6211" y2="392.128" gradientUnits="userSpaceOnUse">
<stop stop-color="#573738"/>
<stop offset="0.370192" stop-color="#886A6B"/>
</linearGradient>
<linearGradient id="paint2_linear_2920_123" x1="854.279" y1="177.051" x2="854.279" y2="309.116" gradientUnits="userSpaceOnUse">
<stop offset="0.423114" stop-color="#886A6B"/>
<stop offset="1" stop-color="#573738"/>
</linearGradient>
<linearGradient id="paint3_linear_2920_123" x1="116.501" y1="177.051" x2="116.501" y2="309.116" gradientUnits="userSpaceOnUse">
<stop offset="0.423114" stop-color="#886A6B"/>
<stop offset="1" stop-color="#573738"/>
</linearGradient>
</defs>
</svg>
