<svg width="975" height="393" viewBox="0 0 975 393" fill="none" xmlns="http://www.w3.org/2000/svg">
<path d="M928.077 192.525C941.446 192.525 952.283 193.882 952.283 195.556V389.479L952.274 389.558C951.942 391.195 941.236 392.51 928.077 392.51C914.918 392.51 904.211 391.195 903.879 389.558L903.871 389.479V195.556C903.871 193.882 914.709 192.525 928.077 192.525Z" fill="url(#paint0_linear_2438_3336)"/>
<path d="M42.6211 192.144C55.9895 192.144 66.8271 193.5 66.8271 195.174V389.099C66.8228 390.772 55.9868 392.128 42.6211 392.128C29.4613 392.128 18.754 390.813 18.4229 389.176L18.415 389.098V195.174C18.415 193.5 29.2526 192.144 42.6211 192.144Z" fill="url(#paint1_linear_2438_3336)"/>
<path fill-rule="evenodd" clip-rule="evenodd" d="M854.279 177.051C866.669 177.051 876.714 177.947 876.714 179.052V307.115L876.706 307.167C876.398 308.248 866.475 309.116 854.279 309.116C842.083 309.116 832.159 308.248 831.852 307.167L831.844 307.115V179.052C831.844 177.947 841.889 177.051 854.279 177.051Z" fill="url(#paint2_linear_2438_3336)"/>
<path fill-rule="evenodd" clip-rule="evenodd" d="M116.501 177.051C128.891 177.051 138.935 177.947 138.936 179.052V307.115L138.928 307.167C138.62 308.248 128.697 309.116 116.501 309.116C104.305 309.116 94.3809 308.248 94.0732 307.167L94.0664 307.115V179.052C94.0665 177.947 104.111 177.051 116.501 177.051Z" fill="url(#paint3_linear_2438_3336)"/>
<path d="M4.47925 184.51C4.47925 178.987 8.9564 174.51 14.4792 174.51H959.028C964.55 174.51 969.027 178.987 969.027 184.51V216.51C969.027 222.033 964.55 226.51 959.027 226.51H14.4792C8.95637 226.51 4.47925 222.033 4.47925 216.51V184.51Z" fill="#573738"/>
<path d="M72.1828 6.39235C73.673 2.53981 77.3786 0 81.5093 0H872.32C876.107 0 879.57 2.14003 881.264 5.52787L967.764 178.528C971.088 185.177 966.253 193 958.82 193H14.5902C7.56429 193 2.72893 185.946 5.26365 179.393L72.1828 6.39235Z" fill="#886A6B"/>
<path fill-rule="evenodd" clip-rule="evenodd" d="M827.043 120.066C827.051 120.218 827.131 120.355 827.222 120.369C827.443 120.403 827.641 119.923 827.493 119.711C827.332 119.483 827.027 119.723 827.043 120.066ZM868.026 101.038C867.927 101.576 868.109 101.733 868.504 101.45C868.695 101.314 868.779 101.014 868.693 100.777C868.518 100.3 868.135 100.45 868.026 101.038ZM818.013 140.084C817.925 140.564 817.663 141.007 817.324 141.249C817.007 141.475 816.813 141.784 816.861 141.983C816.907 142.172 816.84 142.402 816.712 142.494C816.359 142.745 816.343 144.515 816.688 145.006C816.855 145.243 816.95 145.818 816.9 146.284C816.796 147.251 817.028 147.703 817.649 147.741C818.161 147.773 818.568 148.299 818.839 149.279C819.015 149.918 819.118 150.006 819.813 150.114C820.24 150.181 820.92 150.418 821.325 150.64C821.729 150.863 822.127 150.997 822.209 150.938C822.291 150.88 822.858 150.895 823.47 150.972C824.487 151.101 824.672 151.047 825.637 150.337C826.217 149.91 826.925 149.528 827.209 149.489C827.977 149.382 828.398 149.006 829.14 147.771C830.128 146.126 830.523 144.175 830.234 142.368C829.998 140.887 829.961 140.811 829.367 140.585C828.794 140.368 828.736 140.287 828.614 139.53C828.443 138.476 828.334 138.336 827.586 138.22C827.247 138.166 826.839 137.944 826.68 137.724C826.479 137.446 825.885 137.319 824.724 137.306C823.807 137.296 822.78 137.259 822.442 137.224C821.962 137.174 821.554 137.359 820.581 138.068C819.895 138.567 819.233 138.934 819.109 138.883C818.694 138.713 818.157 139.301 818.013 140.084ZM861.821 116.852C861.776 117.256 861.772 117.634 861.813 117.693C861.914 117.836 861.771 120.089 861.649 120.291C861.596 120.378 861.663 120.606 861.797 120.798C861.932 120.99 861.952 121.281 861.841 121.446C861.73 121.611 861.683 121.808 861.736 121.884C861.79 121.96 861.755 122.57 861.658 123.239C861.381 125.157 861.273 126.699 861.404 126.885C861.47 126.979 861.523 128.197 861.521 129.592C861.519 130.988 861.578 132.215 861.652 132.32C861.726 132.424 861.701 132.922 861.597 133.425C861.41 134.33 861.4 134.341 860.605 134.458C859.593 134.607 857.214 135.955 857.234 136.368C857.242 136.528 857.025 136.815 856.751 137.004L856.254 137.349L856.628 136.709C857.365 135.449 857.52 134.006 857.059 132.716C856.684 131.668 856.543 131.462 856.028 131.203C855.7 131.038 855.27 130.672 855.071 130.389C854.771 129.963 854.394 129.874 852.848 129.866C850.565 129.855 849.784 130.32 848.442 132.495C847.552 133.935 847.564 134.3 848.581 136.801C849.251 138.448 851.886 139.657 853.386 139.006C854.83 138.379 855.176 139.092 854.45 141.195C854.083 142.257 854.07 142.631 854.381 143.288C854.588 143.728 854.681 144.143 854.587 144.21C854.493 144.277 854.479 144.59 854.556 144.904C854.634 145.219 854.613 145.537 854.51 145.61C854.406 145.684 854.407 145.865 854.511 146.013C854.615 146.16 854.617 146.34 854.517 146.412C854.416 146.484 854.221 146.383 854.083 146.187C853.757 145.722 850.972 144.891 849.641 144.861C847.116 144.804 846.486 144.938 845.018 145.846C844.239 146.328 843.266 146.881 842.856 147.074C842.302 147.336 841.986 147.661 841.621 148.344C841.263 149.013 840.843 149.45 840.072 149.955C839.101 150.59 839.008 150.718 838.946 151.495C838.909 151.96 838.864 152.514 838.846 152.725C838.806 153.195 837.701 153.85 835.939 154.449C834.766 154.848 834.639 154.938 833.852 155.921C832.988 156.999 832.547 158.554 832.439 160.895C832.373 162.322 832.964 163.878 833.71 164.239C834.046 164.401 834.42 164.807 834.643 165.251C834.971 165.906 835.136 166.008 836.055 166.125C836.627 166.198 837.315 166.404 837.584 166.582C837.898 166.791 838.874 166.835 840.326 166.707C841.565 166.597 842.65 166.458 842.735 166.396C843.146 166.103 843.365 166.621 843.505 168.219C843.64 169.748 843.745 170.063 844.358 170.779C844.818 171.316 845.087 171.84 845.143 172.308C845.241 173.115 845.566 173.411 846.251 173.316C846.541 173.275 846.858 173.444 847.076 173.753C847.576 174.464 848.484 174.867 850.176 175.13C851.309 175.306 851.857 175.255 852.597 174.906C853.123 174.658 853.926 174.45 854.38 174.445C855.057 174.437 855.272 174.338 855.569 173.902C855.814 173.541 856.195 173.268 856.747 173.058C858.401 172.428 860.249 170.101 860.689 168.094C860.882 167.216 860.954 167.121 861.393 167.167C861.662 167.195 862.017 167.382 862.182 167.583C862.778 168.304 864.565 168.282 866.315 167.532C867.535 167.01 868.829 165.191 869.054 163.683C869.291 162.098 868.389 160.083 867.169 159.469C866.846 159.307 866.315 159.026 865.989 158.845C865.663 158.664 864.891 158.55 864.275 158.591C862.953 158.679 862.723 158.48 863.228 157.688C863.559 157.169 863.743 157.095 864.916 157.008C866.203 156.912 866.25 156.93 867.1 157.883C867.918 158.8 869.14 159.364 869.597 159.037C869.681 158.977 870.133 158.98 870.602 159.043C871.32 159.14 871.513 159.076 871.82 158.644C872.291 157.98 872.257 157.389 871.721 156.932C871.159 156.454 868.366 155.882 867.971 156.164C867.632 156.407 866.679 156.279 866.456 155.962C866.378 155.851 866.158 155.776 865.966 155.795C865.774 155.814 865.259 155.63 864.821 155.386C864.094 154.982 863.984 154.836 863.565 153.728C863.253 152.901 862.92 152.357 862.523 152.026C861.828 151.446 861.826 151.179 862.516 151.129C862.795 151.109 863.169 150.989 863.347 150.862C863.525 150.736 864.186 150.549 864.817 150.447C865.496 150.337 866.514 149.943 867.315 149.479C868.473 148.809 868.696 148.602 868.874 148.038C868.988 147.676 869.343 147.111 869.664 146.782C869.985 146.454 870.265 145.995 870.286 145.762C870.307 145.528 870.4 145.284 870.492 145.218C870.661 145.097 871.185 143.782 871.343 143.082C871.39 142.874 871.277 142.489 871.092 142.226C870.877 141.919 870.827 141.364 870.953 140.681C871.146 139.632 871.131 139.587 870.025 137.941C869.103 136.567 868.745 136.188 868.025 135.82C867.542 135.574 867.143 135.276 867.137 135.16C867.132 135.043 866.865 134.785 866.544 134.587C866.039 134.274 865.962 134.117 865.973 133.422C865.987 132.564 865.641 131.877 865.211 131.91C864.86 131.937 864.342 133.409 864.57 133.733C864.827 134.098 864.594 134.181 863.534 134.098L862.602 134.026L862.534 132.336C862.497 131.406 862.499 130.561 862.539 130.458C862.579 130.356 862.545 130.058 862.463 129.797C862.382 129.536 862.419 129.065 862.546 128.752C862.673 128.438 862.693 127.565 862.591 126.812C862.489 126.06 862.474 125.394 862.558 125.334C862.642 125.274 862.627 125.106 862.525 124.96C862.423 124.815 862.452 124.417 862.59 124.076C862.729 123.735 862.786 123.377 862.719 123.281C862.651 123.185 862.777 122.111 862.998 120.894C863.528 117.98 863.114 115.254 862.238 115.88C862.055 116.011 861.867 116.448 861.821 116.852ZM842.888 138.868C842.961 138.972 843.069 138.949 843.127 138.816C843.184 138.683 843.207 138.539 843.176 138.495C843.146 138.452 843.038 138.475 842.938 138.547C842.837 138.619 842.815 138.763 842.888 138.868ZM829.912 153.499C829.629 153.934 829.86 154.963 830.28 155.136C830.728 155.32 831.474 154.533 831.648 153.692C831.744 153.226 831.754 152.747 831.671 152.629C831.384 152.22 830.441 152.687 829.912 153.499ZM838.674 148.318C838.681 148.461 838.774 148.516 838.881 148.439C838.987 148.363 839.018 148.22 838.949 148.122C838.88 148.024 838.787 147.969 838.742 148.001C838.698 148.032 838.667 148.175 838.674 148.318ZM876.68 139.895C876.592 140.03 876.54 140.538 876.564 141.022C876.6 141.756 876.691 141.945 877.112 142.158C878.177 142.697 878.907 142.701 879.649 142.171C880.553 141.526 880.682 140.646 880.014 139.679C879.23 138.542 877.484 138.656 876.68 139.895ZM895.408 137.904C895.326 138.519 894.038 139.67 893.804 139.337C893.63 139.089 892.815 139.416 892.395 139.903C892.193 140.138 892.108 140.443 892.206 140.583C892.455 140.937 891.931 142.271 891.391 142.657C891.067 142.889 890.946 143.281 890.96 144.051C890.97 144.653 890.782 145.435 890.53 145.837C890.283 146.23 889.883 146.866 889.642 147.249C889.262 147.853 889.263 148.064 889.652 148.849C889.899 149.347 890.061 149.844 890.013 149.954C889.965 150.065 890.023 150.414 890.143 150.73C890.262 151.047 890.293 151.813 890.21 152.434C890.056 153.599 890.21 154.093 890.715 154.054C891.069 154.027 891.98 155.706 891.815 156.084C891.741 156.255 892.212 156.97 893.254 158.264L894.804 160.189L895.645 160.107C896.955 159.979 897.46 160.27 898.263 161.619L898.965 162.798L899.911 162.122C900.805 161.483 900.893 161.468 901.518 161.848C902.349 162.354 904.244 162.63 905.508 162.428C906.108 162.332 906.837 162.014 907.43 161.591C908.23 161.019 908.493 160.94 909.059 161.1C909.907 161.339 910.872 160.702 911.533 159.466C912.081 158.442 912.639 158.004 913.385 158.017C913.682 158.022 914.198 157.83 914.533 157.591C915.014 157.247 915.132 156.993 915.096 156.37C915.072 155.937 915.188 155.18 915.354 154.689C915.619 153.901 915.786 153.72 916.756 153.164C918.049 152.424 918.125 152.184 917.505 150.807C916.934 149.542 916.951 148.67 917.563 147.735C918.124 146.88 918.026 146.196 917.293 145.839C916.896 145.646 916.881 145.444 917.178 144.284C917.509 142.99 917.382 142.325 916.813 142.369C916.194 142.416 915.593 141.773 915.301 140.753C915.018 139.761 914.459 139.085 914.122 139.326C913.818 139.543 913.48 138.8 913.53 138.023C913.576 137.306 913.55 137.261 913.026 137.152C912.722 137.089 912.239 137.168 911.951 137.328C911.394 137.638 911.135 137.392 910.637 136.081C910.309 135.216 909.475 134.903 907.974 135.078C907.262 135.162 905.327 135.051 903.673 134.832C902.019 134.613 900.531 134.527 900.366 134.639C900.201 134.752 899.973 135.148 899.858 135.519C899.541 136.545 898.477 137.111 897.31 136.873C896.22 136.652 895.525 137.029 895.408 137.904ZM905.353 131.697C905.293 132.923 906.022 133.945 906.349 133.094C906.585 132.483 906.508 130.75 906.237 130.572C905.754 130.255 905.402 130.702 905.353 131.697ZM857.658 179.519C856.972 180.485 856.904 180.787 857.073 182.097C857.19 183.006 857.353 183.353 857.993 184.063C858.421 184.537 858.875 184.893 859 184.853C859.126 184.813 859.284 184.858 859.35 184.952C859.803 185.596 863.007 184.811 863.37 183.967C863.476 183.723 863.672 183.444 863.808 183.347C863.944 183.25 864.124 182.641 864.207 181.994C864.333 181.022 864.25 180.614 863.724 179.638C863.148 178.569 862.997 178.424 862.117 178.095C861.077 177.705 859.413 177.873 858.64 178.445C858.385 178.633 857.943 179.117 857.658 179.519ZM873.797 179.639C873.379 180.757 873.689 183.011 874.21 182.639C874.307 182.569 874.255 182.425 874.093 182.319C873.915 182.202 873.904 182.051 874.064 181.936C874.21 181.832 874.287 181.361 874.235 180.89C874.184 180.419 874.264 179.889 874.413 179.713C874.562 179.536 874.594 179.263 874.484 179.106C874.235 178.752 874.084 178.868 873.797 179.639ZM873.701 183.271C873.708 183.414 873.801 183.469 873.908 183.393C874.014 183.317 874.045 183.174 873.976 183.075C873.906 182.977 873.814 182.922 873.769 182.954C873.725 182.986 873.694 183.128 873.701 183.271Z" fill="#84A7BB"/>
<path fill-rule="evenodd" clip-rule="evenodd" d="M222.101 145.349C222.123 145.176 222.047 145.036 221.933 145.039C221.653 145.046 221.297 145.64 221.445 145.851C221.606 146.08 222.052 145.739 222.101 145.349ZM165.071 175.843C165.311 175.205 165.108 175.063 164.538 175.471C164.263 175.668 164.091 176.03 164.154 176.283C164.281 176.794 164.809 176.541 165.071 175.843ZM237.952 120.457C238.166 119.887 238.597 119.324 239.086 118.974C239.543 118.647 239.859 118.252 239.838 118.034C239.818 117.826 239.952 117.548 240.138 117.416C240.646 117.053 241.035 115.017 240.69 114.526C240.523 114.289 240.518 113.648 240.68 113.103C241.016 111.971 240.809 111.501 240.012 111.588C239.356 111.659 238.939 111.141 238.791 110.072C238.695 109.377 238.58 109.297 237.703 109.319C237.164 109.332 236.332 109.204 235.854 109.034C235.376 108.864 234.889 108.794 234.771 108.878C234.652 108.962 233.921 109.065 233.145 109.105C231.854 109.172 231.603 109.273 230.206 110.292C229.366 110.904 228.37 111.492 227.993 111.597C226.977 111.882 226.353 112.402 225.136 113.977C223.515 116.074 222.598 118.398 222.597 120.413C222.596 122.063 222.628 122.143 223.351 122.276C224.047 122.405 224.105 122.486 224.107 123.33C224.11 124.504 224.222 124.641 225.166 124.618C225.595 124.607 226.077 124.777 226.237 124.995C226.44 125.272 227.182 125.292 228.684 125.062C229.869 124.881 231.192 124.707 231.622 124.676C232.234 124.632 232.8 124.333 234.208 123.314C235.199 122.596 236.133 122.035 236.284 122.068C236.785 122.176 237.602 121.387 237.952 120.457ZM176.39 156.375C176.533 155.902 176.616 155.466 176.575 155.408C176.474 155.264 177.127 152.647 177.327 152.39C177.414 152.279 177.375 152.031 177.24 151.839C177.105 151.647 177.141 151.316 177.319 151.104C177.497 150.892 177.598 150.655 177.545 150.579C177.491 150.503 177.663 149.795 177.927 149.007C178.685 146.746 179.144 144.952 179.013 144.766C178.947 144.672 179.132 143.284 179.424 141.682C179.715 140.079 179.894 138.682 179.82 138.578C179.747 138.473 179.882 137.897 180.121 137.297C180.551 136.218 180.566 136.203 181.62 135.901C182.962 135.516 186.323 133.467 186.382 132.998C186.405 132.815 186.746 132.44 187.14 132.164L187.856 131.663L187.238 132.478C186.022 134.08 185.521 135.77 185.852 137.153C186.12 138.278 186.259 138.485 186.872 138.674C187.263 138.794 187.744 139.124 187.943 139.406C188.243 139.833 188.713 139.855 190.714 139.538C193.668 139.07 194.776 138.37 196.966 135.59C198.417 133.749 198.477 133.332 197.679 130.675C197.153 128.925 193.992 128.092 191.914 129.156C189.914 130.18 189.613 129.435 190.991 126.867C191.686 125.57 191.78 125.138 191.515 124.449C191.337 123.988 191.303 123.531 191.439 123.433C191.575 123.336 191.658 122.975 191.623 122.63C191.588 122.285 191.681 121.916 191.83 121.809C191.979 121.703 192.015 121.495 191.912 121.347C191.808 121.2 191.842 120.994 191.987 120.89C192.132 120.786 192.364 120.862 192.501 121.057C192.828 121.522 196.262 121.889 197.98 121.642C201.239 121.176 202.082 120.889 204.171 119.537C205.281 118.818 206.656 117.978 207.227 117.67C207.999 117.253 208.476 116.813 209.09 115.952C209.693 115.108 210.327 114.518 211.431 113.775C212.821 112.84 212.967 112.675 213.209 111.769C213.354 111.227 213.527 110.581 213.594 110.335C213.742 109.788 215.31 108.802 217.716 107.742C219.318 107.037 219.502 106.907 220.725 105.612C222.067 104.192 222.962 102.313 223.588 99.6021C223.969 97.9496 223.526 96.2873 222.636 96.0308C222.234 95.915 221.834 95.5283 221.638 95.0651C221.349 94.3827 221.156 94.3002 219.99 94.3595C219.264 94.3963 218.416 94.3051 218.105 94.1569C217.741 93.9834 216.486 94.1382 214.579 94.5917C212.951 94.9791 211.517 95.3684 211.394 95.4567C210.8 95.8806 210.625 95.3319 210.775 93.5267C210.918 91.7988 210.848 91.4592 210.202 90.7661C209.718 90.2467 209.478 89.7018 209.502 89.1764C209.544 88.27 209.184 87.9985 208.277 88.2526C207.893 88.36 207.517 88.2338 207.299 87.9241C206.799 87.2136 205.707 86.9421 203.57 86.9971C202.138 87.034 201.419 87.2075 200.388 87.7649C199.655 88.1608 198.572 88.5685 197.983 88.6706C197.105 88.8227 196.805 88.981 196.33 89.5451C195.938 90.0114 195.388 90.4049 194.629 90.7626C192.357 91.8341 189.48 94.8961 188.493 97.294C188.061 98.3425 187.947 98.4676 187.389 98.5068C187.047 98.5312 186.626 98.3912 186.453 98.196C185.831 97.4936 183.512 97.8955 181.09 99.1256C179.401 99.983 177.347 102.345 176.743 104.124C176.107 105.993 176.857 108.117 178.311 108.565C178.695 108.683 179.324 108.894 179.709 109.033C180.094 109.171 181.069 109.14 181.877 108.963C183.606 108.583 183.863 108.763 183.045 109.779C182.508 110.445 182.255 110.568 180.718 110.916C179.03 111.298 178.974 111.286 178.07 110.371C177.201 109.492 175.736 109.101 175.076 109.573C174.955 109.659 174.37 109.752 173.775 109.778C172.866 109.819 172.602 109.933 172.115 110.494C171.367 111.356 171.288 112.027 171.888 112.438C172.517 112.869 176.015 112.937 176.585 112.529C177.074 112.18 178.283 112.125 178.506 112.442C178.584 112.553 178.853 112.592 179.106 112.53C179.358 112.468 179.987 112.571 180.504 112.758C181.361 113.069 181.474 113.213 181.786 114.398C182.019 115.281 182.337 115.835 182.783 116.132C183.562 116.651 183.509 116.958 182.605 117.161C182.239 117.243 181.73 117.459 181.474 117.642C181.217 117.825 180.322 118.179 179.484 118.429C178.582 118.698 177.181 119.366 176.048 120.067C174.409 121.081 174.077 121.366 173.729 122.051C173.507 122.491 172.929 123.214 172.445 123.66C171.961 124.104 171.504 124.691 171.428 124.963C171.352 125.235 171.181 125.536 171.048 125.631C170.804 125.805 169.852 127.426 169.502 128.263C169.398 128.512 169.464 128.93 169.649 129.193C169.865 129.5 169.815 130.126 169.51 130.938C169.042 132.183 169.052 132.231 170.142 133.888C171.052 135.271 171.437 135.632 172.293 135.902C172.866 136.083 173.322 136.34 173.305 136.473C173.288 136.606 173.581 136.846 173.955 137.006C174.544 137.259 174.611 137.422 174.452 138.223C174.256 139.211 174.562 139.927 175.126 139.798C175.586 139.693 176.562 137.895 176.334 137.571C176.077 137.205 176.395 137.061 177.752 136.932L178.944 136.818L178.681 138.745C178.537 139.805 178.358 140.776 178.285 140.902C178.212 141.028 178.194 141.363 178.246 141.646C178.297 141.928 178.152 142.476 177.922 142.864C177.692 143.251 177.485 144.257 177.461 145.1C177.437 145.943 177.318 146.703 177.197 146.79C177.075 146.877 177.059 147.067 177.162 147.212C177.264 147.358 177.143 147.821 176.894 148.242C176.644 148.663 176.495 149.086 176.562 149.182C176.63 149.278 176.244 150.538 175.705 151.982C174.415 155.44 174.384 158.483 175.649 157.579C175.914 157.39 176.247 156.849 176.39 156.375ZM205.482 127.101C205.409 126.997 205.265 127.046 205.162 127.211C205.06 127.375 205.001 127.545 205.031 127.589C205.062 127.632 205.206 127.583 205.351 127.479C205.496 127.375 205.555 127.205 205.482 127.101ZM225.325 107.563C225.782 107.003 225.696 105.87 225.188 105.761C224.646 105.643 223.516 106.705 223.117 107.707C222.896 108.262 222.783 108.814 222.867 108.933C223.154 109.341 224.472 108.607 225.325 107.563ZM212.901 115.36C212.922 115.197 212.812 115.154 212.659 115.264C212.505 115.374 212.436 115.544 212.505 115.643C212.574 115.741 212.683 115.785 212.747 115.739C212.811 115.693 212.88 115.522 212.901 115.36ZM161.928 133.049C162.07 132.874 162.243 132.281 162.313 131.73C162.419 130.894 162.34 130.697 161.839 130.541C160.571 130.146 159.627 130.296 158.555 131.061C157.251 131.993 156.902 133.03 157.566 134C158.345 135.14 160.63 134.641 161.928 133.049ZM137.259 139.285C137.493 138.561 139.4 136.968 139.634 137.301C139.809 137.549 140.932 137.002 141.576 136.354C141.887 136.042 142.061 135.673 141.963 135.534C141.714 135.179 142.669 133.536 143.449 132.979C143.916 132.645 144.155 132.169 144.297 131.288C144.408 130.599 144.814 129.661 145.224 129.146C145.626 128.642 146.275 127.829 146.667 127.338C147.285 126.563 147.327 126.322 146.986 125.502C146.77 124.983 146.663 124.446 146.748 124.309C146.833 124.173 146.83 123.784 146.741 123.446C146.652 123.107 146.772 122.233 147.007 121.504C147.449 120.133 147.353 119.598 146.691 119.75C146.226 119.856 145.395 118.119 145.686 117.651C145.819 117.438 145.356 116.717 144.275 115.451L142.668 113.567L141.562 113.839C139.837 114.262 139.245 114.034 138.485 112.655L137.82 111.448L136.454 112.424C135.164 113.346 135.046 113.382 134.317 113.078C133.345 112.672 130.948 112.755 129.269 113.254C128.471 113.491 127.461 114.009 126.606 114.62C125.451 115.445 125.093 115.592 124.394 115.528C123.345 115.432 121.963 116.367 120.85 117.926C119.928 119.218 119.114 119.837 118.151 119.98C117.768 120.037 117.059 120.366 116.576 120.711C115.881 121.208 115.676 121.525 115.592 122.233C115.534 122.725 115.227 123.618 114.91 124.218C114.403 125.178 114.149 125.421 112.778 126.264C110.949 127.386 110.801 127.678 111.318 129.128C111.795 130.461 111.592 131.466 110.605 132.669C109.702 133.769 109.686 134.533 110.562 134.789C111.036 134.927 111.013 135.156 110.388 136.551C109.691 138.106 109.717 138.843 110.463 138.673C111.274 138.488 111.92 139.099 112.085 140.209C112.246 141.288 112.83 141.947 113.317 141.6C113.755 141.286 114.038 142.068 113.813 142.97C113.604 143.803 113.629 143.85 114.285 143.864C114.665 143.873 115.308 143.68 115.714 143.436C116.499 142.962 116.783 143.19 117.156 144.591C117.402 145.514 118.417 145.699 120.398 145.18C121.337 144.934 123.821 144.654 125.917 144.556C128.014 144.458 129.923 144.244 130.16 144.08C130.397 143.915 130.775 143.412 131.001 142.963C131.625 141.717 133.12 140.843 134.582 140.87C135.947 140.894 136.926 140.315 137.259 139.285ZM123.09 148.51C123.422 147.09 122.691 146.07 122.09 147.116C121.658 147.867 121.398 149.841 121.712 149.988C122.272 150.251 122.82 149.663 123.09 148.51ZM194.791 83.5349C195.879 82.2812 196.03 81.9198 196.083 80.452C196.12 79.4321 195.982 79.0679 195.299 78.3875C194.843 77.9334 194.33 77.6207 194.159 77.6931C193.987 77.7653 193.793 77.7472 193.727 77.6528C193.274 77.0087 188.961 78.5861 188.315 79.6321C188.128 79.9346 187.815 80.2965 187.619 80.4366C187.423 80.5768 187.064 81.3136 186.821 82.074C186.456 83.2175 186.48 83.6678 186.959 84.6776C187.483 85.7841 187.648 85.9186 188.72 86.1112C189.986 86.3392 192.176 85.7958 193.296 84.9759C193.665 84.7056 194.338 84.0572 194.791 83.5349ZM173.913 86.8017C174.686 85.429 174.752 82.9067 174 83.4438C173.86 83.5442 173.898 83.6985 174.085 83.7865C174.292 83.8832 174.275 84.0543 174.043 84.22C173.833 84.3704 173.635 84.9271 173.604 85.4571C173.573 85.9872 173.36 86.6125 173.13 86.8469C172.9 87.081 172.802 87.4011 172.912 87.558C173.162 87.9123 173.38 87.7471 173.913 86.8017ZM174.79 82.6101C174.811 82.4475 174.702 82.4044 174.548 82.5143C174.394 82.6241 174.325 82.7947 174.394 82.8932C174.464 82.9916 174.572 83.0348 174.637 82.989C174.701 82.9431 174.77 82.7727 174.79 82.6101Z" fill="#E09E9B"/>
<path fill-rule="evenodd" clip-rule="evenodd" d="M360.988 100.189C360.423 101.015 360.425 102.272 360.992 102.853C362.064 103.952 364.501 102.8 364.501 101.195C364.501 99.6171 361.89 98.8691 360.988 100.189ZM357.245 105.033C356.748 105.343 356.144 105.987 355.904 106.464C355.014 108.227 355.591 111.136 356.916 111.568C357.251 111.676 358.046 112.249 358.684 112.84C360.439 114.467 361.15 114.883 362.173 114.883C365.538 114.883 366.939 111.801 364.739 109.233C364.265 108.679 363.604 107.674 363.271 106.999C362.101 104.628 359.336 103.725 357.245 105.033ZM307.934 108.138C307.687 108.391 308.307 109.095 308.776 109.095C308.99 109.095 309.165 108.97 309.165 108.816C309.165 108.454 308.164 107.903 307.934 108.138ZM331.892 108.305C329.949 108.536 328.593 108.575 327.271 108.44C326.851 108.397 326.483 108.585 326.283 108.944C326.107 109.259 325.826 109.649 325.657 109.812C324.666 110.77 323.181 113.011 322.382 114.755C321.137 117.47 321.105 119.525 322.27 121.957C323.159 123.811 324.893 125.768 326.249 126.446C327.749 127.195 329.151 129.056 329.766 131.114C330.467 133.458 330.934 133.939 333.984 135.456C335.048 135.986 335.56 136.053 337.513 135.922C338.769 135.837 340.103 135.671 340.477 135.553C340.907 135.416 341.092 135.444 340.981 135.627C340.704 136.088 341.318 137.972 342.256 139.533C342.896 140.599 343.035 141.052 342.798 141.295C341.926 142.189 342.889 143.398 344.098 142.927C344.599 142.732 345.013 142.828 345.807 143.324C346.384 143.684 347.214 144.165 347.653 144.394L348.45 144.81L347.701 145.369C346.629 146.169 346.35 147.111 346.833 148.297C347.549 150.051 349.428 150.442 350.927 149.149C351.919 148.293 352.03 147.438 351.329 146.049C350.914 145.227 350.912 145.166 351.311 145.505C351.638 145.783 351.908 145.805 352.306 145.587C352.606 145.422 353.345 145.162 353.947 145.008C355.69 144.563 357.094 143.972 357.665 143.443C358.359 142.799 358.572 142.825 358.572 143.553C358.572 143.968 358.724 144.123 359.066 144.055C359.65 143.94 359.816 142.287 359.738 137.34L359.689 134.186L360.824 132.4C361.449 131.417 361.96 130.451 361.96 130.252C361.96 129.977 361.43 129.938 359.743 130.089C357.631 130.278 357.518 130.258 357.367 129.664C357.24 129.169 357.014 129.051 356.266 129.091C355.749 129.118 354.748 128.879 354.043 128.559C353.338 128.239 352.354 127.886 351.855 127.774C350.857 127.549 350.813 127.441 351.247 126.271C351.684 125.093 351.362 124.083 350.586 124.197C350.023 124.279 349.96 124.456 349.954 125.993C349.948 127.537 349.881 127.724 349.255 127.962C348.736 128.159 348.483 128.112 348.243 127.775C348.067 127.528 347.841 127.326 347.742 127.326C347.422 127.326 347.55 128.142 347.888 128.258C348.326 128.407 345.629 130.22 344.968 130.22C344.475 130.22 344.471 130.164 344.901 129.135C345.15 128.538 345.42 127.884 345.502 127.683C345.769 127.019 345.009 125.749 343.851 124.924C343.143 124.419 342.77 123.958 342.866 123.704C342.95 123.479 343.173 121.935 343.361 120.274C343.643 117.791 343.78 117.283 344.129 117.421C344.443 117.544 344.504 117.455 344.364 117.08C344.259 116.8 344.173 116.517 344.173 116.451C344.173 116.384 344.002 116.33 343.793 116.33C343.583 116.33 343.215 115.703 342.973 114.938C342.732 114.172 342.199 113.038 341.789 112.418C341.049 111.301 338.994 109.678 338.315 109.675C338.121 109.675 337.962 109.57 337.962 109.443C337.962 109.315 337.168 109.043 336.198 108.838C335.227 108.633 334.306 108.377 334.151 108.268C333.996 108.16 332.979 108.176 331.892 108.305ZM318.129 110.56C317.53 110.925 317.486 111.792 318.043 112.265C319.01 113.089 320.646 111.953 320.004 110.904C319.633 110.297 318.808 110.146 318.129 110.56ZM318.482 115.586C318.482 115.882 318.737 116.04 319.211 116.04C320.096 116.04 319.999 115.361 319.095 115.224C318.688 115.163 318.482 115.285 318.482 115.586ZM297.758 117.375C297.5 118.064 297.935 118.419 298.896 118.306C299.488 118.237 299.707 118.055 299.707 117.632C299.707 116.848 298.037 116.629 297.758 117.375ZM350.796 117.217C350.694 117.387 350.678 117.595 350.761 117.68C350.963 117.888 351.514 117.522 351.514 117.181C351.514 116.811 351.026 116.836 350.796 117.217ZM310.356 118.4C310.425 118.615 310.709 118.834 310.986 118.89C311.307 118.953 311.443 118.849 311.362 118.6C311.293 118.386 311.009 118.166 310.733 118.111C310.411 118.047 310.275 118.151 310.356 118.4ZM319.383 120.113C319.439 120.285 319.605 120.425 319.752 120.425C319.9 120.425 320.066 120.285 320.122 120.113C320.177 119.942 320.011 119.802 319.752 119.802C319.493 119.802 319.327 119.942 319.383 120.113ZM317.353 121.539C317.353 121.698 317.607 121.828 317.917 121.828C318.228 121.828 318.482 121.698 318.482 121.539C318.482 121.38 318.228 121.249 317.917 121.249C317.607 121.249 317.353 121.38 317.353 121.539ZM377.394 123.179C376.958 123.625 377.229 124.18 377.838 124.091C378.637 123.974 378.889 122.986 378.12 122.986C377.824 122.986 377.497 123.072 377.394 123.179ZM367.042 124.621C364.986 125.854 363.371 127.661 363.371 128.728C363.371 129.245 364.207 129.327 365.19 128.906C365.733 128.674 366.444 128.484 366.77 128.484C367.551 128.484 370.116 126.253 370.327 125.39C370.721 123.782 369.081 123.398 367.042 124.621ZM323.846 125.896C323.846 126.065 323.973 126.122 324.128 126.024C324.284 125.926 324.411 125.788 324.411 125.718C324.411 125.647 324.284 125.59 324.128 125.59C323.973 125.59 323.846 125.728 323.846 125.896ZM305.888 128.073C305.982 128.325 306.062 128.618 306.064 128.725C306.07 128.983 306.614 128.11 306.62 127.833C306.622 127.713 306.42 127.616 306.17 127.616C305.873 127.616 305.776 127.773 305.888 128.073ZM357.16 127.905C357.16 128.064 357.287 128.194 357.443 128.194C357.598 128.194 357.725 128.064 357.725 127.905C357.725 127.746 357.598 127.616 357.443 127.616C357.287 127.616 357.16 127.746 357.16 127.905ZM308.189 129.043C307.996 129.362 308.442 129.708 308.702 129.44C308.971 129.165 308.921 128.773 308.617 128.773C308.471 128.773 308.278 128.894 308.189 129.043ZM401.909 130.22C401.672 130.612 401.991 131.088 402.49 131.088C402.714 131.088 402.897 130.828 402.897 130.509C402.897 129.91 402.216 129.711 401.909 130.22ZM380.202 131.402C378.539 131.815 376.962 132.836 376.307 133.923C375.814 134.739 375.747 135.179 375.893 136.614C376.078 138.423 376.787 140.161 377.68 140.988C377.974 141.261 378.834 141.765 379.592 142.109C380.822 142.666 381.126 142.698 382.405 142.402C384.648 141.883 385.995 140.958 386.882 139.328C387.838 137.571 387.748 136.324 386.505 134.097C385.272 131.888 382.688 130.783 380.202 131.402ZM363.146 132.593C362.959 132.784 362.807 133.279 362.807 133.693C362.807 134.688 363.292 135.139 364.36 135.139C365.384 135.139 365.912 134.692 365.912 133.824C365.912 132.573 363.997 131.72 363.146 132.593ZM302.774 136.152C302.527 136.812 302.872 137.455 303.475 137.455C304.16 137.455 304.761 136.727 304.547 136.156C304.335 135.59 302.985 135.587 302.774 136.152ZM337.241 139.795C336.995 140.203 337.539 140.761 337.938 140.509C338.106 140.402 338.245 140.127 338.245 139.897C338.245 139.41 337.518 139.336 337.241 139.795ZM318.27 141.534C317.921 141.668 317.635 141.921 317.635 142.098C317.635 142.665 319.319 144.176 319.758 144.003C320.233 143.816 320.317 143.076 319.893 142.808C319.738 142.71 319.611 142.39 319.611 142.098C319.611 141.435 319.097 141.219 318.27 141.534ZM339.938 141.633C339.938 141.863 340.054 142.123 340.194 142.212C340.335 142.302 340.387 142.62 340.311 142.92C340.234 143.221 340.322 143.561 340.506 143.678C340.978 143.977 341.76 143.107 341.459 142.619C341.222 142.236 341.174 142.085 341.103 141.506C341.047 141.048 339.938 141.17 339.938 141.633ZM358.626 144.768C358.469 144.963 358.407 145.485 358.49 145.927C358.601 146.518 358.767 146.69 359.117 146.576C359.427 146.475 359.9 146.776 360.471 147.436C361.044 148.1 361.502 148.391 361.795 148.276C362.744 147.902 362.033 146.614 360.141 145.279C359.201 144.616 358.845 144.496 358.626 144.768ZM334.857 145.268C334.857 145.427 334.984 145.557 335.139 145.557C335.294 145.557 335.421 145.427 335.421 145.268C335.421 145.109 335.294 144.978 335.139 144.978C334.984 144.978 334.857 145.109 334.857 145.268ZM390.813 145.326C389.914 146.248 391.029 147.629 392.169 147.004C392.887 146.61 392.897 145.667 392.187 145.278C391.483 144.892 391.228 144.901 390.813 145.326ZM321.717 146.155C321.614 146.325 321.599 146.533 321.681 146.618C321.884 146.825 322.434 146.46 322.434 146.119C322.434 145.749 321.947 145.774 321.717 146.155ZM294.202 147.293C294.202 147.453 294.329 147.583 294.484 147.583C294.64 147.583 294.767 147.453 294.767 147.293C294.767 147.134 294.64 147.004 294.484 147.004C294.329 147.004 294.202 147.134 294.202 147.293ZM322.563 148.004C322.182 148.394 321.87 148.965 321.87 149.271C321.87 149.612 321.553 149.962 321.051 150.175C319.644 150.773 318.912 151.809 318.946 153.155C318.987 154.733 319.997 155.685 321.63 155.685C323.767 155.685 325.459 153.894 325.093 152.02C324.972 151.401 325.081 151.047 325.517 150.642C326.224 149.986 326.303 148.406 325.661 147.748C324.971 147.041 323.374 147.172 322.563 148.004ZM335.139 147.893C335.139 148.635 336.073 148.551 336.215 147.797C336.28 147.449 336.128 147.293 335.724 147.293C335.32 147.293 335.139 147.479 335.139 147.893ZM353.029 147.723C352.776 148.399 353.424 149.025 353.779 148.449C353.926 148.211 354.008 147.895 353.962 147.746C353.81 147.252 353.211 147.237 353.029 147.723ZM421.248 149.608C421.248 149.768 421.383 149.898 421.547 149.898C421.711 149.898 421.767 149.768 421.671 149.608C421.575 149.449 421.441 149.319 421.372 149.319C421.304 149.319 421.248 149.449 421.248 149.608ZM312.312 150.86C312.056 151.175 312.07 151.344 312.373 151.601C312.884 152.036 313.735 151.692 313.622 151.095C313.507 150.482 312.73 150.343 312.312 150.86ZM402.615 153.66C402.615 153.819 402.742 153.949 402.897 153.949C403.052 153.949 403.179 153.819 403.179 153.66C403.179 153.501 403.052 153.37 402.897 153.37C402.742 153.37 402.615 153.501 402.615 153.66ZM312.976 156.702C312.355 157.13 311.53 157.769 311.141 158.122C310.753 158.475 310.099 158.977 309.687 159.238C309.261 159.508 308.726 160.282 308.445 161.036C308.023 162.169 307.995 162.67 308.246 164.504C308.424 165.81 308.769 166.98 309.126 167.494C310.341 169.243 314.853 170.349 317.635 169.58C319.326 169.113 321.05 167.265 321.866 165.045C322.418 163.543 322.455 163.15 322.195 161.522C321.86 159.423 321.018 158.099 319.261 156.907C318.341 156.283 317.705 156.106 316.107 156.025C314.314 155.935 313.988 156.005 312.976 156.702ZM350.528 156.892C349.493 157.727 349.66 158.694 350.86 158.813C351.868 158.913 352.523 158.113 352.224 157.148C351.97 156.325 351.348 156.232 350.528 156.892ZM408.127 158.941C405.813 161.267 405.575 162.226 406.71 164.66C407.52 166.396 407.838 166.668 409.92 167.403C411.82 168.074 413.194 167.955 415.013 166.961C416.74 166.018 417.41 165.144 417.724 163.428C418.013 161.846 417.735 161.109 416.237 159.491C414.679 157.809 413.268 157.132 411.318 157.132C409.991 157.132 409.843 157.216 408.127 158.941ZM385.901 163.507C385.369 163.964 385.324 164.114 385.65 164.334C386.158 164.677 387.202 164.291 387.312 163.719C387.447 163.023 386.61 162.897 385.901 163.507ZM350.501 163.931C349.903 164.867 350.163 165.907 351.106 166.347C352.698 167.09 354.48 165.07 353.357 163.797C352.597 162.937 351.091 163.007 350.501 163.931ZM291.535 165.116C290.895 165.772 291.381 166.277 292.212 165.821C292.826 165.484 292.877 164.927 292.311 164.734C292.145 164.677 291.795 164.849 291.535 165.116ZM344.726 168.151C344.32 168.928 344.571 169.576 345.277 169.576C345.997 169.576 346.246 169.14 346.03 168.257C345.818 167.392 345.151 167.338 344.726 168.151ZM328.829 169.132C328.742 169.366 328.797 169.637 328.952 169.736C329.308 169.961 330.105 169.31 329.896 168.964C329.653 168.561 329.005 168.664 328.829 169.132ZM393.298 170.171C393.298 170.34 393.425 170.397 393.58 170.299C393.735 170.201 393.862 170.063 393.862 169.993C393.862 169.922 393.735 169.865 393.58 169.865C393.425 169.865 393.298 170.003 393.298 170.171ZM402.473 172.78C401.104 173.226 399.406 174.579 398.858 175.66C397.75 177.846 398.801 181.74 400.99 183.555C401.792 184.222 402.41 184.461 403.576 184.561C404.795 184.664 405.136 184.806 405.251 185.255C405.367 185.712 405.599 185.801 406.475 185.727C407.505 185.64 407.562 185.581 407.708 184.467C407.791 183.823 408.125 182.847 408.45 182.296C409.582 180.375 409.764 179.304 409.259 177.524C408.304 174.157 405.106 171.921 402.473 172.78ZM387.087 173.193C387.087 173.431 387.277 173.627 387.51 173.627C387.743 173.627 387.934 173.431 387.934 173.193C387.934 172.954 387.743 172.759 387.51 172.759C387.277 172.759 387.087 172.954 387.087 173.193ZM359.984 174.171C359.984 174.331 360.111 174.541 360.266 174.64C360.421 174.738 360.548 174.688 360.548 174.529C360.548 174.37 360.421 174.159 360.266 174.061C360.111 173.963 359.984 174.012 359.984 174.171ZM412.969 174.107C412.714 174.367 413.322 175.074 413.801 175.074C414.015 175.074 414.19 174.813 414.19 174.495C414.19 173.932 413.388 173.677 412.969 174.107ZM279.945 175.998C278.714 176.714 278.688 177.232 279.854 177.849C280.697 178.297 280.773 178.294 281.124 177.801C281.588 177.151 281.602 176.454 281.159 176C280.749 175.58 280.664 175.58 279.945 175.998ZM311.309 177.856C311.044 178.566 311.591 179.052 312.208 178.653C312.88 178.218 312.817 177.551 312.095 177.446C311.731 177.393 311.422 177.554 311.309 177.856ZM429.435 181.151C429.435 181.31 429.562 181.44 429.718 181.44C429.873 181.44 430 181.31 430 181.151C430 180.992 429.873 180.861 429.718 180.861C429.562 180.861 429.435 180.992 429.435 181.151ZM355.363 182.619C354.541 183.282 354.389 184.433 355.012 185.274C355.586 186.049 357.569 185.962 358.132 185.137C358.654 184.374 358.71 182.855 358.233 182.366C357.704 181.824 356.183 181.958 355.363 182.619ZM305.183 183.946C304.934 184.015 304.558 184.399 304.349 184.8C303.828 185.797 304.289 186.48 305.559 186.592C306.778 186.699 307.578 186.015 307.305 185.099C306.932 183.849 306.465 183.595 305.183 183.946ZM329.928 186.34C329.735 186.659 330.18 187.005 330.441 186.737C330.71 186.462 330.66 186.07 330.356 186.07C330.21 186.07 330.017 186.191 329.928 186.34ZM398.433 195.258C398.486 195.536 398.716 195.764 398.944 195.764C399.173 195.764 399.403 195.536 399.455 195.258C399.522 194.903 399.369 194.751 398.944 194.751C398.519 194.751 398.367 194.903 398.433 195.258ZM424.636 198.224C424.636 198.597 424.779 198.802 424.989 198.73C425.183 198.664 425.342 198.436 425.342 198.224C425.342 198.012 425.183 197.784 424.989 197.718C424.779 197.646 424.636 197.851 424.636 198.224ZM380.472 200.126C380.228 200.376 380.029 200.757 380.029 200.973C380.029 201.647 380.912 202.311 381.688 202.219C382.708 202.097 382.877 200.793 381.958 200.133C381.16 199.559 381.025 199.559 380.472 200.126ZM372.97 209.076C372.97 209.314 373.097 209.51 373.253 209.51C373.408 209.51 373.535 209.314 373.535 209.076C373.535 208.837 373.408 208.642 373.253 208.642C373.097 208.642 372.97 208.837 372.97 209.076Z" fill="#C7695E"/>
<defs>
<linearGradient id="paint0_linear_2438_3336" x1="928.077" y1="192.525" x2="928.077" y2="392.51" gradientUnits="userSpaceOnUse">
<stop stop-color="#573738"/>
<stop offset="0.370192" stop-color="#886A6B"/>
</linearGradient>
<linearGradient id="paint1_linear_2438_3336" x1="42.6211" y1="192.144" x2="42.6211" y2="392.128" gradientUnits="userSpaceOnUse">
<stop stop-color="#573738"/>
<stop offset="0.370192" stop-color="#886A6B"/>
</linearGradient>
<linearGradient id="paint2_linear_2438_3336" x1="854.279" y1="177.051" x2="854.279" y2="309.116" gradientUnits="userSpaceOnUse">
<stop offset="0.423114" stop-color="#886A6B"/>
<stop offset="1" stop-color="#573738"/>
</linearGradient>
<linearGradient id="paint3_linear_2438_3336" x1="116.501" y1="177.051" x2="116.501" y2="309.116" gradientUnits="userSpaceOnUse">
<stop offset="0.423114" stop-color="#886A6B"/>
<stop offset="1" stop-color="#573738"/>
</linearGradient>
</defs>
</svg>
