<svg width="231" height="63" viewBox="0 0 231 63" fill="none" xmlns="http://www.w3.org/2000/svg">
<rect x="1.5" y="1.5" width="228" height="60" rx="30" fill="#D9D9D9" stroke="black" stroke-width="3"/>
<path d="M75.928 41.336C74.488 41.336 73.304 41.024 72.376 40.4C71.464 39.76 70.784 38.872 70.336 37.736L72.952 36.704C73.4 38.08 74.36 38.768 75.832 38.768C76.504 38.768 77.04 38.632 77.44 38.36C77.84 38.072 78.04 37.696 78.04 37.232C78.04 36.848 77.896 36.552 77.608 36.344C77.32 36.12 76.896 36.008 76.336 36.008H73.936V33.536H76.264C76.76 33.536 77.136 33.44 77.392 33.248C77.664 33.04 77.8 32.776 77.8 32.456C77.8 32.088 77.624 31.784 77.272 31.544C76.92 31.304 76.44 31.184 75.832 31.184C75.16 31.184 74.6 31.344 74.152 31.664C73.72 31.968 73.4 32.408 73.192 32.984L70.648 31.928C71.144 30.856 71.848 30.048 72.76 29.504C73.672 28.944 74.768 28.664 76.048 28.664C77.456 28.664 78.584 28.976 79.432 29.6C80.28 30.224 80.704 31.056 80.704 32.096C80.704 33.36 80.048 34.224 78.736 34.688C79.44 34.912 79.984 35.28 80.368 35.792C80.768 36.304 80.968 36.92 80.968 37.64C80.968 38.184 80.848 38.688 80.608 39.152C80.368 39.6 80.024 39.992 79.576 40.328C79.128 40.648 78.592 40.896 77.968 41.072C77.36 41.248 76.68 41.336 75.928 41.336ZM82.5571 37.64C82.5571 36.424 83.0291 35.472 83.9731 34.784C84.9171 34.08 86.2611 33.696 88.0051 33.632L90.5731 33.536V33.416C90.5731 32.728 90.3491 32.184 89.9011 31.784C89.4691 31.384 88.8691 31.184 88.1011 31.184C86.8851 31.184 85.9731 31.76 85.3651 32.912L82.9171 31.712C83.9891 29.68 85.7491 28.664 88.1971 28.664C89.8771 28.664 91.1891 29.104 92.1331 29.984C93.0771 30.864 93.5491 32.072 93.5491 33.608V41H90.5731V39.512C89.6931 40.728 88.4211 41.336 86.7571 41.336C86.1171 41.336 85.5411 41.248 85.0291 41.072C84.5171 40.896 84.0771 40.648 83.7091 40.328C83.3411 39.992 83.0531 39.6 82.8451 39.152C82.6531 38.688 82.5571 38.184 82.5571 37.64ZM87.5251 38.816C88.4371 38.816 89.1731 38.536 89.7331 37.976C90.2931 37.416 90.5731 36.672 90.5731 35.744V35.696L88.1731 35.792C87.3251 35.824 86.6771 35.968 86.2291 36.224C85.7971 36.48 85.5811 36.864 85.5811 37.376C85.5811 37.824 85.7491 38.176 86.0851 38.432C86.4371 38.688 86.9171 38.816 87.5251 38.816ZM102.523 41.336C101.531 41.336 100.635 41.168 99.8346 40.832C99.0346 40.496 98.3466 40.008 97.7706 39.368C97.2106 38.712 96.7706 37.912 96.4506 36.968C96.1466 36.008 95.9946 34.92 95.9946 33.704V33.128C95.9946 31.624 96.1386 30.32 96.4266 29.216C96.7306 28.096 97.1946 27.16 97.8186 26.408C98.4586 25.64 99.2666 25.056 100.243 24.656C101.235 24.24 102.411 23.976 103.771 23.864L107.779 23.552L107.923 26.6L103.915 26.864C102.219 26.976 100.971 27.368 100.171 28.04C99.3866 28.696 98.9546 29.736 98.8746 31.16C99.8346 29.816 101.235 29.144 103.075 29.144C103.923 29.144 104.699 29.288 105.403 29.576C106.123 29.864 106.731 30.272 107.227 30.8C107.739 31.328 108.131 31.96 108.403 32.696C108.691 33.432 108.835 34.248 108.835 35.144C108.835 36.072 108.683 36.92 108.379 37.688C108.075 38.44 107.643 39.088 107.083 39.632C106.539 40.176 105.875 40.6 105.091 40.904C104.323 41.192 103.467 41.336 102.523 41.336ZM102.547 38.48C103.011 38.48 103.435 38.4 103.819 38.24C104.203 38.08 104.531 37.856 104.803 37.568C105.075 37.28 105.291 36.936 105.451 36.536C105.611 36.136 105.691 35.688 105.691 35.192C105.691 34.696 105.611 34.248 105.451 33.848C105.291 33.448 105.075 33.104 104.803 32.816C104.531 32.528 104.203 32.312 103.819 32.168C103.435 32.008 103.011 31.928 102.547 31.928C101.619 31.928 100.859 32.224 100.267 32.816C99.6906 33.408 99.4026 34.2 99.4026 35.192C99.4026 36.184 99.6906 36.984 100.267 37.592C100.859 38.184 101.619 38.48 102.547 38.48ZM111.143 29H114.263V30.608C114.727 29.984 115.287 29.504 115.943 29.168C116.599 28.832 117.343 28.664 118.175 28.664C118.975 28.664 119.711 28.824 120.383 29.144C121.071 29.448 121.663 29.88 122.159 30.44C122.671 30.984 123.063 31.648 123.335 32.432C123.623 33.2 123.767 34.056 123.767 35C123.767 35.928 123.623 36.784 123.335 37.568C123.063 38.352 122.679 39.024 122.183 39.584C121.687 40.128 121.095 40.56 120.407 40.88C119.735 41.184 118.999 41.336 118.199 41.336C117.367 41.336 116.615 41.168 115.943 40.832C115.287 40.496 114.727 40.016 114.263 39.392V45.8H111.143V29ZM117.455 38.456C117.903 38.456 118.319 38.376 118.703 38.216C119.087 38.04 119.415 37.8 119.687 37.496C119.975 37.176 120.199 36.808 120.359 36.392C120.519 35.96 120.599 35.496 120.599 35C120.599 34.488 120.519 34.024 120.359 33.608C120.199 33.192 119.975 32.832 119.687 32.528C119.415 32.208 119.087 31.968 118.703 31.808C118.319 31.632 117.903 31.544 117.455 31.544C116.991 31.544 116.559 31.632 116.159 31.808C115.775 31.968 115.439 32.208 115.151 32.528C114.879 32.832 114.663 33.192 114.503 33.608C114.343 34.024 114.263 34.488 114.263 35C114.263 35.496 114.343 35.96 114.503 36.392C114.663 36.808 114.879 37.176 115.151 37.496C115.439 37.8 115.775 38.04 116.159 38.216C116.559 38.376 116.991 38.456 117.455 38.456ZM125.401 37.64C125.401 36.424 125.873 35.472 126.817 34.784C127.761 34.08 129.105 33.696 130.849 33.632L133.417 33.536V33.416C133.417 32.728 133.193 32.184 132.745 31.784C132.313 31.384 131.713 31.184 130.945 31.184C129.729 31.184 128.817 31.76 128.209 32.912L125.761 31.712C126.833 29.68 128.593 28.664 131.041 28.664C132.721 28.664 134.033 29.104 134.977 29.984C135.921 30.864 136.393 32.072 136.393 33.608V41H133.417V39.512C132.537 40.728 131.265 41.336 129.601 41.336C128.961 41.336 128.385 41.248 127.873 41.072C127.361 40.896 126.921 40.648 126.553 40.328C126.185 39.992 125.897 39.6 125.689 39.152C125.497 38.688 125.401 38.184 125.401 37.64ZM130.369 38.816C131.281 38.816 132.017 38.536 132.577 37.976C133.137 37.416 133.417 36.672 133.417 35.744V35.696L131.017 35.792C130.169 35.824 129.521 35.968 129.073 36.224C128.641 36.48 128.425 36.864 128.425 37.376C128.425 37.824 128.593 38.176 128.929 38.432C129.281 38.688 129.761 38.816 130.369 38.816ZM148.534 29V31.832H144.91V41H141.79V31.832H138.166V29H148.534ZM153.329 38.384H155.537C156.177 38.384 156.657 38.232 156.977 37.928C157.313 37.608 157.481 37.192 157.481 36.68C157.481 36.168 157.313 35.76 156.977 35.456C156.657 35.136 156.177 34.976 155.537 34.976H153.329V38.384ZM150.401 41V29H153.329V32.36H155.969C156.657 32.36 157.273 32.472 157.817 32.696C158.377 32.904 158.849 33.2 159.233 33.584C159.633 33.968 159.937 34.424 160.145 34.952C160.353 35.48 160.457 36.056 160.457 36.68C160.457 37.304 160.353 37.88 160.145 38.408C159.937 38.936 159.633 39.392 159.233 39.776C158.849 40.16 158.377 40.464 157.817 40.688C157.273 40.896 156.657 41 155.969 41H150.401Z" fill="black"/>
</svg>
