<svg width="768" height="8058" viewBox="0 0 768 8058" fill="none" xmlns="http://www.w3.org/2000/svg">
<g clip-path="url(#clip0_2997_221)">
<rect width="768" height="8058" fill="white"/>
<rect y="2265" width="768" height="1116" fill="url(#paint0_radial_2997_221)"/>
<rect x="768" width="1268" height="768" transform="rotate(90 768 0)" fill="url(#paint1_radial_2997_221)"/>
<rect x="515" y="1337" width="253" height="678" fill="url(#paint2_radial_2997_221)"/>
<rect x="253" y="1337" width="262" height="678" fill="url(#paint3_radial_2997_221)"/>
<rect y="1337" width="253" height="678" fill="url(#paint4_radial_2997_221)"/>
<path d="M543.581 3219.87L553.683 3215.4L554.778 3217.87L547.351 3221.16L553.558 3235.19L550.884 3236.37L543.581 3219.87ZM568.657 3228.15L555.015 3214.81L557.854 3213.55L568.52 3224.19L567.592 3209.24L570.398 3208L571.775 3235.02L569.002 3236.25L568.657 3228.15ZM573.563 3206.6L576.237 3205.42L577.478 3208.22C577.681 3206.9 578.173 3205.72 578.954 3204.69C579.757 3203.65 580.819 3202.84 582.139 3202.25C583.284 3201.75 584.449 3201.5 585.634 3201.5C586.819 3201.5 587.945 3201.72 589.012 3202.17C590.079 3202.62 591.049 3203.3 591.923 3204.2C592.808 3205.07 593.528 3206.14 594.083 3207.39C594.638 3208.64 594.945 3209.9 595.004 3211.17C595.076 3212.4 594.919 3213.56 594.533 3214.65C594.148 3215.74 593.557 3216.73 592.762 3217.61C591.966 3218.49 590.996 3219.18 589.852 3219.68C588.531 3220.27 587.216 3220.51 585.906 3220.4C584.619 3220.29 583.416 3219.86 582.298 3219.12L586.461 3228.53L583.787 3229.71L573.563 3206.6ZM588.378 3217.34C589.237 3216.96 589.95 3216.46 590.518 3215.84C591.086 3215.22 591.501 3214.52 591.764 3213.75C592.017 3212.95 592.11 3212.12 592.043 3211.25C591.988 3210.36 591.766 3209.47 591.376 3208.59C590.977 3207.69 590.469 3206.92 589.852 3206.3C589.257 3205.67 588.584 3205.19 587.835 3204.87C587.075 3204.52 586.275 3204.34 585.435 3204.35C584.594 3204.35 583.745 3204.54 582.886 3204.92C582.028 3205.3 581.315 3205.8 580.747 3206.42C580.179 3207.04 579.769 3207.75 579.516 3208.55C579.253 3209.32 579.144 3210.14 579.189 3211.02C579.256 3211.88 579.489 3212.77 579.888 3213.67C580.278 3214.55 580.775 3215.32 581.38 3215.97C581.997 3216.59 582.685 3217.08 583.445 3217.43C584.194 3217.75 584.989 3217.91 585.83 3217.91C586.671 3217.91 587.52 3217.72 588.378 3217.34ZM608.065 3204.48L608.516 3191.14L611.884 3189.65L619.187 3206.15L616.612 3207.29L610.974 3194.55L610.487 3207.28L608.44 3208.18L598.693 3199.98L604.331 3212.72L601.756 3213.86L594.453 3197.36L597.886 3195.84L608.065 3204.48ZM621.071 3199.91C620.37 3198.33 620.409 3196.81 621.188 3195.36C621.968 3193.91 623.433 3192.64 625.586 3191.56L630.105 3189.28L630.003 3189.05C629.409 3187.71 628.561 3186.83 627.46 3186.43C626.38 3186.01 625.18 3186.09 623.86 3186.68C622.804 3187.14 622.008 3187.78 621.474 3188.6C620.931 3189.39 620.643 3190.35 620.612 3191.47L617.823 3191.32C617.877 3189.72 618.336 3188.32 619.201 3187.12C620.056 3185.9 621.264 3184.94 622.827 3184.25C623.861 3183.79 624.865 3183.53 625.837 3183.47C626.832 3183.4 627.748 3183.51 628.586 3183.8C629.423 3184.08 630.183 3184.55 630.863 3185.2C631.534 3185.82 632.084 3186.62 632.512 3187.58L637.201 3198.18L634.56 3199.35L633.391 3196.71C633.245 3197.98 632.794 3199.11 632.037 3200.07C631.302 3201.03 630.286 3201.79 628.987 3202.37C627.249 3203.14 625.662 3203.3 624.229 3202.86C622.795 3202.41 621.743 3201.43 621.071 3199.91ZM628.317 3199.78C629.087 3199.44 629.744 3198.99 630.288 3198.44C630.831 3197.88 631.232 3197.27 631.489 3196.6C631.769 3195.93 631.905 3195.22 631.896 3194.49C631.909 3193.75 631.76 3193.02 631.449 3192.32L631.113 3191.56L626.777 3193.71C625.376 3194.41 624.413 3195.18 623.888 3196.02C623.376 3196.82 623.32 3197.68 623.719 3198.58C624.089 3199.42 624.678 3199.95 625.487 3200.17C626.317 3200.38 627.261 3200.25 628.317 3199.78ZM648.584 3173.41L655.887 3189.91L653.213 3191.1L649.883 3183.57L641.366 3187.34L644.696 3194.87L642.022 3196.05L634.719 3179.54L637.393 3178.36L640.27 3184.86L648.787 3181.09L645.91 3174.59L648.584 3173.41ZM656.272 3179.88C655.717 3178.62 655.403 3177.38 655.332 3176.15C655.273 3174.88 655.447 3173.7 655.855 3172.6C656.262 3171.5 656.886 3170.5 657.726 3169.6C658.587 3168.69 659.656 3167.96 660.933 3167.39C662.561 3166.67 664.141 3166.41 665.673 3166.6C667.217 3166.76 668.648 3167.37 669.966 3168.45L668.258 3170.74C666.381 3169.18 664.332 3168.89 662.109 3169.87C661.228 3170.26 660.493 3170.77 659.903 3171.4C659.313 3172.03 658.892 3172.74 658.639 3173.54C658.376 3174.31 658.267 3175.14 658.312 3176.01C658.357 3176.89 658.579 3177.78 658.979 3178.68C659.368 3179.56 659.876 3180.32 660.503 3180.96C661.12 3181.59 661.809 3182.07 662.568 3182.42C663.318 3182.74 664.113 3182.91 664.953 3182.9C665.816 3182.89 666.687 3182.69 667.568 3182.3C668.69 3181.8 669.542 3181.11 670.122 3180.22C670.725 3179.32 671.034 3178.24 671.051 3176.97L673.917 3177.2C673.856 3178.96 673.374 3180.49 672.473 3181.79C671.571 3183.08 670.295 3184.09 668.645 3184.82C667.368 3185.39 666.104 3185.68 664.853 3185.71C663.624 3185.73 662.465 3185.52 661.376 3185.08C660.287 3184.64 659.3 3183.98 658.414 3183.11C657.541 3182.21 656.827 3181.13 656.272 3179.88ZM677.783 3168.58L680.391 3167.43L682.91 3158.22L686.046 3156.83L683.071 3167.51L693.481 3173.28L690.213 3174.73L681.505 3169.86L678.864 3171.02L682.092 3178.32L679.418 3179.5L672.115 3163L674.789 3161.81L677.783 3168.58ZM692.037 3154.18L697.587 3166.73L700.719 3150.34L703.426 3149.14L710.729 3165.65L708.055 3166.83L702.505 3154.29L699.373 3170.67L696.666 3171.87L689.363 3155.37L692.037 3154.18ZM723.515 3160.54C722.239 3161.11 720.98 3161.42 719.738 3161.47C718.509 3161.48 717.35 3161.27 716.261 3160.83C715.172 3160.39 714.185 3159.74 713.299 3158.87C712.413 3158 711.693 3156.93 711.138 3155.68C710.573 3154.4 710.266 3153.14 710.217 3151.9C710.158 3150.64 710.332 3149.46 710.74 3148.35C711.16 3147.22 711.789 3146.21 712.629 3145.31C713.469 3144.41 714.494 3143.69 715.704 3143.16C716.87 3142.64 718.014 3142.37 719.136 3142.35C720.27 3142.3 721.334 3142.47 722.328 3142.87C723.322 3143.27 724.225 3143.89 725.037 3144.71C725.862 3145.51 726.537 3146.5 727.063 3147.69C727.267 3148.15 727.448 3148.65 727.606 3149.18L714.17 3155.13C715.033 3156.72 716.216 3157.79 717.72 3158.33C719.215 3158.86 720.787 3158.75 722.438 3158.02C724.529 3157.1 725.758 3155.47 726.126 3153.15L728.94 3153.8C728.338 3156.96 726.53 3159.21 723.515 3160.54ZM716.733 3145.66C715.281 3146.31 714.26 3147.27 713.672 3148.56C713.095 3149.81 712.96 3151.2 713.265 3152.72L723.928 3148.01C723.614 3147.36 723.187 3146.81 722.648 3146.36C722.131 3145.91 721.553 3145.58 720.916 3145.39C720.291 3145.17 719.621 3145.08 718.908 3145.14C718.185 3145.17 717.46 3145.34 716.733 3145.66Z" fill="white"/>
<rect x="-1" y="4750.69" width="384" height="629" fill="url(#paint5_radial_2997_221)"/>
<rect width="384" height="629" transform="matrix(-1 0 0 1 768 4750.69)" fill="url(#paint6_radial_2997_221)"/>
<rect y="6919" width="773" height="1139" fill="url(#paint7_linear_2997_221)"/>
</g>
<defs>
<radialGradient id="paint0_radial_2997_221" cx="0" cy="0" r="1" gradientUnits="userSpaceOnUse" gradientTransform="translate(22.1299 2823) scale(860.571 519.669)">
<stop offset="0.114254" stop-color="#BA4739"/>
<stop offset="0.889064" stop-color="white" stop-opacity="0"/>
</radialGradient>
<radialGradient id="paint1_radial_2997_221" cx="0" cy="0" r="1" gradientUnits="userSpaceOnUse" gradientTransform="translate(1402 384) rotate(90) scale(419.897 603.119)">
<stop offset="0.269231" stop-color="#F0AFA7"/>
<stop offset="1" stop-color="white" stop-opacity="0"/>
</radialGradient>
<radialGradient id="paint2_radial_2997_221" cx="0" cy="0" r="1" gradientUnits="userSpaceOnUse" gradientTransform="translate(768 1676.26) rotate(180) scale(253 291.283)">
<stop offset="0.0432692" stop-color="#5B7E94"/>
<stop offset="0.596154" stop-color="#90A8B6" stop-opacity="0.677885"/>
<stop offset="1" stop-color="white" stop-opacity="0"/>
</radialGradient>
<radialGradient id="paint3_radial_2997_221" cx="0" cy="0" r="1" gradientUnits="userSpaceOnUse" gradientTransform="translate(515 1676.26) rotate(180) scale(262 291.283)">
<stop offset="0.0432692" stop-color="#5B7E94"/>
<stop offset="0.596154" stop-color="#90A8B6" stop-opacity="0.677885"/>
<stop offset="1" stop-color="white" stop-opacity="0"/>
</radialGradient>
<radialGradient id="paint4_radial_2997_221" cx="0" cy="0" r="1" gradientUnits="userSpaceOnUse" gradientTransform="translate(253 1676.26) rotate(180) scale(253 291.283)">
<stop offset="0.0432692" stop-color="#5B7E94"/>
<stop offset="0.596154" stop-color="#90A8B6" stop-opacity="0.677885"/>
<stop offset="1" stop-color="white" stop-opacity="0"/>
</radialGradient>
<radialGradient id="paint5_radial_2997_221" cx="0" cy="0" r="1" gradientTransform="matrix(205.88 -88.4957 54.026 309.601 -1.00001 5081.07)" gradientUnits="userSpaceOnUse">
<stop stop-color="#84A7BB"/>
<stop offset="1" stop-color="white"/>
</radialGradient>
<radialGradient id="paint6_radial_2997_221" cx="0" cy="0" r="1" gradientTransform="matrix(205.88 -88.4957 54.026 309.601 -1.23673e-05 330.384)" gradientUnits="userSpaceOnUse">
<stop stop-color="#E7594B"/>
<stop offset="1" stop-color="white"/>
</radialGradient>
<linearGradient id="paint7_linear_2997_221" x1="386.767" y1="6919" x2="386.767" y2="8058" gradientUnits="userSpaceOnUse">
<stop stop-color="white" stop-opacity="0"/>
<stop offset="0.692308" stop-color="#78B8DD"/>
<stop offset="1" stop-color="#6C8B9F"/>
</linearGradient>
<clipPath id="clip0_2997_221">
<rect width="768" height="8058" fill="white"/>
</clipPath>
</defs>
</svg>
