<svg width="854" height="489" viewBox="0 0 854 489" fill="none" xmlns="http://www.w3.org/2000/svg">
<path d="M563.201 180H264.799L414 2.33203L563.201 180Z" stroke="black" stroke-width="3"/>
<path d="M688.935 326.5L823.831 486.75H3.22363L138.12 326.5H688.935Z" stroke="black" stroke-width="3"/>
<path d="M576.293 191.5L678.991 313.5H149.221L251.919 191.5H576.293Z" stroke="black" stroke-width="3"/>
<path d="M463.883 18.2926L467.308 22.3741C467.987 23.183 468.311 24.0177 468.282 24.8782C468.252 25.7387 467.875 26.4724 467.152 27.0792C466.686 27.47 466.19 27.6878 465.664 27.7326C465.16 27.7794 464.658 27.6787 464.157 27.4304C464.442 28.0686 464.501 28.6984 464.333 29.3197C464.187 29.943 463.82 30.5014 463.232 30.9951C462.46 31.643 461.62 31.8989 460.712 31.7626C459.804 31.6264 458.98 31.1171 458.239 30.2346L454.691 26.006L463.883 18.2926ZM459.495 29.1179C459.855 29.5469 460.276 29.7995 460.758 29.8757C461.25 29.9642 461.728 29.813 462.194 29.4222C462.648 29.0417 462.874 28.6015 462.872 28.1016C462.893 27.6037 462.723 27.1403 462.363 26.7113L460.018 23.9168L457.15 26.3234L459.495 29.1179ZM463.49 25.5152C463.829 25.9197 464.213 26.1407 464.642 26.1781C465.07 26.2156 465.468 26.0801 465.836 25.7715C466.191 25.4733 466.387 25.11 466.425 24.6817C466.475 24.2432 466.33 23.8216 465.99 23.4172L463.769 20.7697L461.269 22.8678L463.49 25.5152ZM465.71 39.6606C465.113 38.9497 464.685 38.2024 464.424 37.4187C464.186 36.6369 464.106 35.8577 464.186 35.081C464.265 34.3043 464.501 33.5527 464.894 32.8262C465.287 32.0996 465.833 31.4433 466.531 30.857C467.242 30.2605 467.989 29.8319 468.773 29.5711C469.569 29.3 470.356 29.1929 471.135 29.2496C471.936 29.3084 472.701 29.5229 473.43 29.8933C474.158 30.2637 474.805 30.7859 475.371 31.4601C475.916 32.1097 476.299 32.7905 476.521 33.5027C476.765 34.2168 476.85 34.9284 476.777 35.6375C476.704 36.3466 476.479 37.0367 476.102 37.7079C475.748 38.381 475.24 38.9953 474.578 39.5506C474.32 39.7666 474.035 39.9745 473.723 40.1743L467.444 32.6915C466.586 33.5364 466.123 34.4896 466.052 35.551C465.994 36.6021 466.351 37.5873 467.123 38.5066C468.1 39.6709 469.363 40.1563 470.913 39.9625L471.018 41.8797C468.888 42.0795 467.119 41.3398 465.71 39.6606ZM473.961 32.5803C473.282 31.7714 472.478 31.2978 471.547 31.1596C470.639 31.0234 469.727 31.1934 468.811 31.6698L473.794 37.6081C474.151 37.2873 474.422 36.9136 474.607 36.4868C474.803 36.0724 474.903 35.6439 474.907 35.2014C474.934 34.7608 474.865 34.3175 474.7 33.8715C474.547 33.4152 474.301 32.9848 473.961 32.5803ZM480.576 38.1858L481.825 39.675L480.263 40.9863C481.147 40.8706 481.991 40.9671 482.793 41.2757C483.605 41.5967 484.32 42.1248 484.937 42.8602C485.472 43.4976 485.848 44.1949 486.065 44.9521C486.283 45.7094 486.347 46.4702 486.258 47.2346C486.168 47.9991 485.915 48.7436 485.5 49.4681C485.107 50.1947 484.561 50.8511 483.863 51.4373C483.164 52.0235 482.417 52.4521 481.621 52.7232C480.847 52.9963 480.076 53.1105 479.308 53.066C478.54 53.0215 477.801 52.8263 477.094 52.4804C476.386 52.1346 475.764 51.643 475.229 51.0056C474.612 50.2702 474.216 49.4747 474.041 48.6189C473.877 47.7755 473.928 46.9282 474.196 46.0771L468.956 50.4738L467.706 48.9846L480.576 38.1858ZM476.457 49.631C476.858 50.109 477.309 50.4721 477.81 50.7203C478.31 50.9685 478.832 51.1051 479.375 51.1298C479.93 51.1444 480.478 51.0503 481.018 50.8477C481.581 50.6471 482.107 50.3411 482.598 49.9297C483.1 49.508 483.493 49.0427 483.776 48.5337C484.069 48.0369 484.251 47.519 484.321 46.98C484.403 46.4307 484.365 45.888 484.208 45.3518C484.05 44.8156 483.771 44.3085 483.37 43.8304C482.969 43.3524 482.518 42.9893 482.017 42.7411C481.516 42.4928 480.988 42.3615 480.433 42.347C479.89 42.3222 479.344 42.405 478.793 42.5953C478.253 42.7979 477.732 43.11 477.229 43.5317C476.739 43.9431 476.341 44.4023 476.035 44.9093C475.752 45.4183 475.57 45.9475 475.488 46.4968C475.418 47.0358 475.462 47.5734 475.619 48.1096C475.777 48.6458 476.056 49.1529 476.457 49.631ZM487.38 55.5166L489.283 48.5623L490.687 50.2353L489.089 55.6491L494.682 54.9971L496.071 56.6517L488.891 57.3183L487.063 64.5858L485.628 62.876L487.235 57.1734L481.324 57.7465L479.905 56.0551L487.38 55.5166ZM504.215 66.3573L495.022 74.0708L493.772 72.5816L497.964 69.0642L493.984 64.3209L489.792 67.8382L488.543 66.349L497.735 58.6356L498.985 60.1248L495.363 63.1639L499.343 67.9072L502.965 64.8681L504.215 66.3573ZM507.813 70.6459L500.827 76.5081L511.87 75.4812L513.135 76.9888L503.943 84.7022L502.693 83.213L509.68 77.3508L498.636 78.3777L497.371 76.8702L506.564 69.1567L507.813 70.6459ZM509.565 91.9252C508.969 91.2143 508.54 90.467 508.279 89.6833C508.041 88.9015 507.961 88.1223 508.041 87.3456C508.12 86.5689 508.356 85.8173 508.749 85.0907C509.142 84.3642 509.688 83.7078 510.386 83.1216C511.097 82.5251 511.845 82.0965 512.628 81.8357C513.424 81.5646 514.212 81.4575 514.99 81.5142C515.791 81.573 516.556 81.7875 517.285 82.1579C518.013 82.5283 518.66 83.0505 519.226 83.7246C519.771 84.3742 520.154 85.0551 520.376 85.7673C520.62 86.4814 520.706 87.193 520.632 87.9021C520.559 88.6111 520.334 89.3013 519.957 89.9724C519.603 90.6456 519.095 91.2598 518.433 91.8152C518.176 92.0312 517.891 92.2391 517.578 92.4388L511.299 84.9561C510.442 85.801 509.978 86.7541 509.908 87.8156C509.85 88.8667 510.206 89.8519 510.978 90.7711C511.955 91.9355 513.218 92.4208 514.768 92.2271L514.873 94.1442C512.743 94.344 510.974 93.6044 509.565 91.9252ZM517.816 84.8449C517.138 84.0359 516.333 83.5624 515.402 83.4242C514.494 83.2879 513.582 83.458 512.666 83.9343L517.649 89.8727C518.006 89.5519 518.278 89.1782 518.463 88.7514C518.658 88.3369 518.758 87.9084 518.762 87.4659C518.79 87.0254 518.721 86.5821 518.555 86.1361C518.402 85.6797 518.156 85.2493 517.816 84.8449ZM534.918 102.948L525.725 110.661L524.476 109.172L528.667 105.655L524.687 100.911L520.495 104.429L519.246 102.94L528.438 95.2262L529.688 96.7154L526.066 99.7545L530.046 104.498L533.668 101.459L534.918 102.948ZM531.334 117.869C530.748 117.17 530.336 116.43 530.097 115.648C529.859 114.866 529.775 114.081 529.844 113.292C529.935 112.505 530.177 111.748 530.57 111.022C530.975 110.285 531.521 109.628 532.208 109.052C532.894 108.477 533.629 108.058 534.413 107.797C535.209 107.526 535.996 107.419 536.775 107.476C537.576 107.535 538.341 107.749 539.069 108.12C539.798 108.49 540.455 109.024 541.041 109.723C541.628 110.422 542.04 111.162 542.278 111.944C542.516 112.725 542.59 113.51 542.498 114.297C542.429 115.086 542.192 115.849 541.787 116.585C541.394 117.312 540.854 117.963 540.168 118.539C539.481 119.115 538.74 119.539 537.944 119.81C537.161 120.07 536.368 120.171 535.567 120.113C534.788 120.056 534.035 119.842 533.306 119.472C532.578 119.102 531.92 118.567 531.334 117.869ZM532.731 116.696C533.132 117.174 533.583 117.537 534.084 117.785C534.595 118.046 535.122 118.189 535.665 118.213C536.22 118.228 536.773 118.14 537.323 117.95C537.886 117.749 538.413 117.443 538.903 117.032C539.405 116.61 539.798 116.145 540.081 115.636C540.364 115.127 540.541 114.603 540.611 114.064C540.693 113.514 540.65 112.965 540.482 112.417C540.325 111.881 540.045 111.374 539.644 110.896C539.243 110.418 538.787 110.048 538.276 109.788C537.775 109.54 537.247 109.408 536.692 109.394C536.149 109.369 535.602 109.452 535.052 109.642C534.502 109.832 533.975 110.138 533.473 110.56C532.982 110.971 532.59 111.437 532.294 111.956C532.011 112.465 531.829 112.994 531.747 113.544C531.677 114.083 531.72 114.62 531.878 115.156C532.046 115.705 532.33 116.218 532.731 116.696ZM552.119 123.447L550.758 124.589L548.105 121.426L540.273 127.998L539.038 126.528L546.87 119.956L544.217 116.793L545.578 115.652L552.119 123.447ZM560.771 133.759L562.021 135.248L552.828 142.961L551.578 141.472L560.771 133.759ZM546.997 133.286L548.755 135.382C549.249 135.97 549.788 136.301 550.372 136.375C550.968 136.439 551.53 136.249 552.057 135.807C552.572 135.375 552.844 134.865 552.872 134.277C552.901 133.689 552.669 133.101 552.175 132.513L550.416 130.417L546.997 133.286ZM544.405 132.923L553.597 125.21L554.847 126.699L551.758 129.291L553.671 131.57C554.072 132.048 554.364 132.545 554.546 133.061C554.728 133.576 554.802 134.088 554.769 134.596C554.736 135.105 554.591 135.592 554.335 136.058C554.101 136.525 553.757 136.95 553.304 137.33C552.862 137.7 552.385 137.965 551.871 138.125C551.38 138.286 550.882 138.339 550.375 138.283C549.879 138.24 549.387 138.089 548.899 137.831C548.433 137.574 547.999 137.207 547.598 136.729L544.405 132.923Z" fill="black"/>
<path d="M607.338 202.719C608.036 202.133 608.772 201.703 609.546 201.43C610.342 201.159 611.129 201.052 611.908 201.109C612.686 201.165 613.44 201.379 614.168 201.749C614.907 202.132 615.575 202.679 616.171 203.39C616.932 204.297 617.394 205.257 617.555 206.27C617.738 207.286 617.609 208.314 617.166 209.354L615.384 208.687C616.037 207.2 615.844 205.837 614.805 204.599C614.394 204.109 613.932 203.733 613.421 203.473C612.91 203.212 612.377 203.075 611.822 203.06C611.279 203.036 610.732 203.118 610.182 203.309C609.632 203.499 609.105 203.805 608.603 204.227C608.112 204.638 607.72 205.103 607.424 205.623C607.141 206.132 606.959 206.661 606.877 207.21C606.807 207.749 606.85 208.287 607.008 208.823C607.176 209.371 607.465 209.891 607.877 210.381C608.401 211.006 609.001 211.422 609.676 211.629C610.361 211.848 611.11 211.845 611.925 211.621L612.306 213.494C611.168 213.781 610.103 213.756 609.11 213.419C608.117 213.082 607.235 212.454 606.464 211.535C605.868 210.824 605.445 210.072 605.197 209.278C604.958 208.496 604.879 207.717 604.958 206.94C605.037 206.163 605.274 205.412 605.666 204.685C606.082 203.961 606.639 203.305 607.338 202.719ZM615.127 221.859C614.53 221.148 614.102 220.401 613.841 219.617C613.603 218.836 613.523 218.056 613.603 217.28C613.682 216.503 613.918 215.751 614.311 215.025C614.704 214.298 615.25 213.642 615.948 213.056C616.659 212.459 617.407 212.03 618.19 211.77C618.986 211.499 619.774 211.391 620.552 211.448C621.353 211.507 622.118 211.722 622.847 212.092C623.575 212.462 624.222 212.985 624.788 213.659C625.333 214.308 625.716 214.989 625.938 215.701C626.182 216.415 626.268 217.127 626.194 217.836C626.121 218.545 625.896 219.235 625.519 219.906C625.165 220.58 624.657 221.194 623.995 221.749C623.738 221.965 623.453 222.173 623.14 222.373L616.861 214.89C616.004 215.735 615.54 216.688 615.47 217.75C615.412 218.801 615.768 219.786 616.54 220.705C617.517 221.87 618.78 222.355 620.33 222.161L620.435 224.078C618.305 224.278 616.536 223.538 615.127 221.859ZM623.378 214.779C622.7 213.97 621.895 213.496 620.964 213.358C620.056 213.222 619.144 213.392 618.228 213.868L623.211 219.807C623.568 219.486 623.84 219.112 624.025 218.685C624.22 218.271 624.32 217.842 624.324 217.4C624.352 216.959 624.283 216.516 624.117 216.07C623.964 215.614 623.718 215.183 623.378 214.779ZM629.993 220.384L631.243 221.874L629.68 223.185C630.564 223.069 631.408 223.166 632.21 223.474C633.022 223.795 633.737 224.323 634.354 225.059C634.889 225.696 635.265 226.393 635.483 227.151C635.7 227.908 635.764 228.669 635.675 229.433C635.585 230.198 635.333 230.942 634.917 231.667C634.524 232.393 633.978 233.05 633.28 233.636C632.581 234.222 631.834 234.651 631.038 234.922C630.264 235.195 629.494 235.309 628.725 235.265C627.957 235.22 627.219 235.025 626.511 234.679C625.803 234.333 625.181 233.842 624.647 233.204C624.03 232.469 623.634 231.673 623.459 230.818C623.294 229.974 623.345 229.127 623.613 228.276L618.373 232.672L617.123 231.183L629.993 220.384ZM625.874 231.83C626.275 232.308 626.726 232.671 627.227 232.919C627.728 233.167 628.249 233.304 628.792 233.328C629.348 233.343 629.895 233.249 630.435 233.046C630.998 232.846 631.525 232.54 632.015 232.128C632.517 231.707 632.91 231.241 633.193 230.732C633.486 230.236 633.668 229.718 633.738 229.179C633.82 228.629 633.782 228.087 633.625 227.55C633.467 227.014 633.188 226.507 632.787 226.029C632.386 225.551 631.935 225.188 631.434 224.94C630.934 224.691 630.406 224.56 629.85 224.546C629.307 224.521 628.761 224.604 628.21 224.794C627.67 224.996 627.149 225.309 626.646 225.73C626.156 226.142 625.758 226.601 625.453 227.108C625.17 227.617 624.987 228.146 624.905 228.695C624.835 229.234 624.879 229.772 625.036 230.308C625.194 230.844 625.473 231.352 625.874 231.83ZM630.99 237.441L631.792 238.397C632.136 238.359 632.508 238.267 632.907 238.12C633.318 237.963 633.794 237.721 634.333 237.393C634.873 237.065 635.49 236.631 636.185 236.09C636.902 235.551 637.739 234.88 638.695 234.078L640.331 232.705L645.931 239.379L638.117 245.935L639.382 247.443L635.614 250.605L634.379 249.134L636.769 247.129L630.846 240.069L628.455 242.075L627.221 240.604L630.99 237.441ZM636.868 244.446L643.303 239.047L640.186 235.333L639.138 236.212C638.452 236.788 637.824 237.284 637.254 237.7C636.694 238.128 636.168 238.496 635.675 238.805C635.195 239.104 634.742 239.348 634.316 239.538C633.913 239.73 633.514 239.877 633.119 239.978L636.868 244.446ZM639.602 250.505L648.795 242.791L650.044 244.28L642.23 250.837L646.149 255.507L653.963 248.95L655.212 250.439L647.398 256.996L648.602 258.43L644.833 261.592L643.599 260.122L645.989 258.116L639.602 250.505ZM651.977 265.775C651.38 265.064 650.952 264.317 650.691 263.533C650.453 262.751 650.373 261.972 650.452 261.195C650.532 260.419 650.768 259.667 651.161 258.941C651.554 258.214 652.099 257.558 652.798 256.972C653.509 256.375 654.256 255.946 655.04 255.686C655.836 255.415 656.623 255.307 657.402 255.364C658.203 255.423 658.968 255.637 659.697 256.008C660.425 256.378 661.072 256.9 661.638 257.575C662.183 258.224 662.566 258.905 662.788 259.617C663.032 260.331 663.117 261.043 663.044 261.752C662.971 262.461 662.746 263.151 662.369 263.822C662.015 264.495 661.507 265.11 660.845 265.665C660.587 265.881 660.302 266.089 659.99 266.289L653.711 258.806C652.853 259.651 652.389 260.604 652.319 261.665C652.261 262.717 652.618 263.702 653.39 264.621C654.367 265.785 655.63 266.271 657.18 266.077L657.285 267.994C655.155 268.194 653.386 267.454 651.977 265.775ZM660.228 258.695C659.549 257.886 658.745 257.412 657.814 257.274C656.906 257.138 655.994 257.308 655.078 257.784L660.061 263.723C660.418 263.402 660.689 263.028 660.874 262.601C661.07 262.187 661.17 261.758 661.174 261.316C661.201 260.875 661.132 260.432 660.967 259.986C660.814 259.53 660.568 259.099 660.228 258.695Z" fill="black"/>
<path d="M732.84 360.763C732.254 360.065 731.841 359.325 731.603 358.543C731.365 357.761 731.28 356.976 731.349 356.187C731.441 355.4 731.683 354.643 732.076 353.916C732.481 353.18 733.027 352.523 733.713 351.947C734.4 351.371 735.135 350.953 735.919 350.692C736.715 350.421 737.502 350.314 738.281 350.371C739.082 350.43 739.847 350.644 740.575 351.014C741.304 351.385 741.961 351.919 742.547 352.618C743.133 353.317 743.546 354.057 743.784 354.839C744.022 355.62 744.095 356.405 744.004 357.192C743.935 357.981 743.698 358.744 743.293 359.48C742.9 360.207 742.36 360.858 741.674 361.434C740.987 362.01 740.246 362.433 739.45 362.705C738.666 362.965 737.874 363.066 737.073 363.008C736.294 362.951 735.54 362.737 734.812 362.367C734.083 361.997 733.426 361.462 732.84 360.763ZM734.237 359.591C734.638 360.069 735.089 360.432 735.59 360.68C736.101 360.941 736.628 361.083 737.171 361.108C737.726 361.123 738.279 361.035 738.829 360.844C739.392 360.644 739.918 360.338 740.409 359.926C740.911 359.505 741.304 359.039 741.587 358.53C741.87 358.021 742.046 357.497 742.116 356.958C742.198 356.409 742.156 355.86 741.988 355.312C741.83 354.776 741.551 354.268 741.15 353.79C740.749 353.312 740.293 352.943 739.782 352.683C739.281 352.434 738.753 352.303 738.198 352.289C737.655 352.264 737.108 352.347 736.558 352.537C736.007 352.727 735.481 353.033 734.978 353.455C734.488 353.866 734.095 354.332 733.8 354.851C733.517 355.36 733.334 355.889 733.252 356.438C733.182 356.977 733.226 357.515 733.384 358.051C733.552 358.6 733.836 359.113 734.237 359.591ZM743.099 363.133C743.798 362.547 744.534 362.117 745.307 361.844C746.103 361.573 746.891 361.466 747.669 361.522C748.448 361.579 749.201 361.793 749.93 362.163C750.669 362.546 751.336 363.093 751.933 363.803C752.694 364.71 753.155 365.671 753.316 366.684C753.5 367.7 753.37 368.727 752.927 369.768L751.146 369.101C751.798 367.613 751.605 366.251 750.566 365.013C750.155 364.522 749.694 364.147 749.183 363.887C748.672 363.626 748.139 363.489 747.584 363.474C747.041 363.449 746.494 363.532 745.944 363.722C745.393 363.913 744.867 364.219 744.364 364.64C743.874 365.052 743.481 365.517 743.186 366.036C742.903 366.545 742.72 367.075 742.638 367.624C742.568 368.163 742.612 368.7 742.769 369.237C742.937 369.785 743.227 370.305 743.638 370.795C744.163 371.42 744.762 371.836 745.437 372.042C746.122 372.261 746.872 372.259 747.686 372.035L748.068 373.908C746.93 374.195 745.864 374.169 744.872 373.833C743.879 373.496 742.997 372.868 742.226 371.949C741.629 371.238 741.207 370.486 740.958 369.691C740.72 368.91 740.64 368.131 740.72 367.354C740.799 366.577 741.035 365.826 741.428 365.099C741.843 364.374 742.4 363.719 743.099 363.133ZM763.285 377.855L754.092 385.568L752.843 384.079L757.035 380.562L753.055 375.819L748.863 379.336L747.613 377.847L756.806 370.133L758.055 371.623L754.433 374.662L758.414 379.405L762.035 376.366L763.285 377.855ZM759.701 392.776C759.115 392.077 758.703 391.337 758.465 390.555C758.226 389.773 758.142 388.988 758.211 388.199C758.302 387.412 758.545 386.655 758.938 385.929C759.343 385.192 759.889 384.536 760.575 383.96C761.261 383.384 761.996 382.965 762.78 382.705C763.576 382.433 764.363 382.326 765.142 382.383C765.943 382.442 766.708 382.656 767.437 383.027C768.165 383.397 768.822 383.932 769.409 384.63C769.995 385.329 770.407 386.069 770.645 386.851C770.884 387.633 770.957 388.417 770.865 389.204C770.796 389.993 770.559 390.756 770.154 391.493C769.761 392.219 769.222 392.87 768.535 393.446C767.849 394.022 767.108 394.446 766.312 394.717C765.528 394.978 764.735 395.079 763.934 395.02C763.156 394.963 762.402 394.75 761.673 394.379C760.945 394.009 760.288 393.474 759.701 392.776ZM761.099 391.603C761.5 392.081 761.951 392.444 762.451 392.693C762.962 392.953 763.489 393.096 764.032 393.121C764.587 393.135 765.14 393.047 765.691 392.857C766.253 392.656 766.78 392.35 767.27 391.939C767.773 391.517 768.165 391.052 768.448 390.543C768.732 390.034 768.908 389.51 768.978 388.971C769.06 388.421 769.017 387.872 768.849 387.324C768.692 386.788 768.413 386.281 768.011 385.803C767.61 385.325 767.154 384.955 766.643 384.695C766.143 384.447 765.615 384.315 765.059 384.301C764.516 384.276 763.97 384.359 763.419 384.549C762.869 384.74 762.342 385.046 761.84 385.467C761.35 385.879 760.957 386.344 760.662 386.863C760.379 387.372 760.196 387.901 760.114 388.451C760.044 388.99 760.088 389.527 760.245 390.064C760.413 390.612 760.698 391.125 761.099 391.603ZM775.02 391.84L778.444 395.921C779.123 396.73 779.448 397.565 779.418 398.426C779.388 399.286 779.011 400.02 778.288 400.627C777.823 401.017 777.327 401.235 776.8 401.28C776.296 401.327 775.794 401.226 775.293 400.978C775.578 401.616 775.637 402.246 775.469 402.867C775.323 403.49 774.957 404.049 774.368 404.542C773.596 405.19 772.756 405.446 771.848 405.31C770.94 405.174 770.116 404.664 769.375 403.782L765.827 399.553L775.02 391.84ZM770.631 402.665C770.991 403.094 771.412 403.347 771.894 403.423C772.386 403.512 772.865 403.36 773.33 402.97C773.784 402.589 774.01 402.149 774.008 401.649C774.029 401.151 773.859 400.688 773.499 400.259L771.155 397.464L768.287 399.871L770.631 402.665ZM774.626 399.063C774.966 399.467 775.349 399.688 775.778 399.725C776.206 399.763 776.604 399.627 776.972 399.319C777.327 399.021 777.524 398.657 777.561 398.229C777.611 397.79 777.466 397.369 777.127 396.964L774.905 394.317L772.405 396.415L774.626 399.063ZM775.565 406.043C776.447 405.303 777.424 405.047 778.494 405.277C779.564 405.507 780.644 406.209 781.734 407.384L784.022 409.849L784.151 409.742C784.899 409.114 785.301 408.411 785.358 407.632C785.425 406.866 785.15 406.115 784.532 405.38C784.039 404.791 783.482 404.402 782.863 404.212C782.256 404.011 781.592 404.004 780.872 404.191L780.451 402.382C781.484 402.121 782.464 402.155 783.389 402.486C784.326 402.806 785.16 403.402 785.89 404.272C786.373 404.848 786.725 405.441 786.944 406.051C787.173 406.673 787.274 407.278 787.245 407.866C787.216 408.454 787.058 409.025 786.772 409.579C786.497 410.123 786.09 410.621 785.551 411.073L779.649 416.026L778.415 414.555L779.886 413.321C779.044 413.463 778.245 413.381 777.488 413.077C776.741 412.784 776.064 412.276 775.458 411.553C774.645 410.585 774.248 409.602 774.268 408.604C774.287 407.607 774.719 406.753 775.565 406.043ZM776.985 410.648C777.345 411.077 777.753 411.413 778.208 411.658C778.664 411.902 779.128 412.045 779.602 412.086C780.085 412.14 780.561 412.096 781.027 411.955C781.504 411.827 781.939 411.598 782.331 411.269L782.754 410.914L780.576 408.543C779.871 407.777 779.202 407.304 778.571 407.124C777.962 406.946 777.406 407.067 776.903 407.489C776.438 407.88 776.209 408.354 776.217 408.911C776.235 409.481 776.491 410.059 776.985 410.648Z" fill="black"/>
</svg>
