<svg width="512" height="485" viewBox="0 0 512 485" fill="none" xmlns="http://www.w3.org/2000/svg">
<path d="M341.047 178.43H161.092L251.069 3.28223L341.047 178.43Z" stroke="black" stroke-width="3"/>
<path d="M417.311 323.688L499.104 482.526H2.45996L84.2539 323.688H417.311Z" stroke="black" stroke-width="3"/>
<path d="M349 189.856L411.267 310.775H90.999L153.266 189.856H349Z" stroke="black" stroke-width="3"/>
<path d="M282.341 12.6721L284.76 17.4194C285.239 18.3603 285.367 19.2466 285.145 20.0783C284.922 20.9101 284.39 21.5402 283.549 21.9688C283.007 22.2448 282.475 22.3455 281.952 22.2707C281.451 22.203 280.984 21.9919 280.552 21.6374C280.686 22.3233 280.601 22.95 280.298 23.5176C280.016 24.0922 279.533 24.5539 278.849 24.9025C277.95 25.3601 277.074 25.4205 276.22 25.0835C275.366 24.7465 274.678 24.0648 274.155 23.0383L271.649 18.12L282.341 12.6721ZM275.63 22.2329C275.884 22.7318 276.237 23.0726 276.689 23.2552C277.149 23.4521 277.649 23.4125 278.191 23.1365C278.719 22.8677 279.038 22.4896 279.149 22.0022C279.281 21.5218 279.22 21.0321 278.966 20.5331L277.31 17.2827L273.974 18.9825L275.63 22.2329ZM280.333 19.6211C280.572 20.0916 280.897 20.3932 281.306 20.5261C281.714 20.6589 282.133 20.6164 282.56 20.3985C282.974 20.1878 283.247 19.8781 283.38 19.4692C283.527 19.0531 283.481 18.6098 283.241 18.1393L281.672 15.06L278.764 16.5418L280.333 19.6211ZM279.314 33.9033C278.892 33.0765 278.643 32.2519 278.565 31.4296C278.509 30.6143 278.606 29.8372 278.858 29.0982C279.11 28.3593 279.51 27.68 280.056 27.0605C280.602 26.441 281.282 25.9242 282.094 25.5101C282.921 25.0888 283.746 24.8393 284.568 24.7615C285.404 24.6764 286.196 24.7491 286.942 24.9796C287.709 25.2171 288.406 25.5982 289.033 26.1229C289.659 26.6477 290.172 27.3021 290.572 28.0862C290.957 28.8418 291.177 29.5915 291.233 30.3352C291.31 31.086 291.233 31.7985 291.002 32.4729C290.771 33.1473 290.397 33.7691 289.879 34.3383C289.382 34.9146 288.749 35.3988 287.979 35.791C287.68 35.9436 287.355 36.082 287.005 36.2063L282.571 27.5029C281.545 28.1333 280.879 28.9576 280.572 29.9761C280.279 30.9872 280.405 32.0274 280.95 33.0966C281.64 34.451 282.762 35.2081 284.316 35.368L283.987 37.2596C281.866 36.9752 280.309 35.8564 279.314 33.9033ZM288.946 28.8606C288.467 27.9197 287.789 27.2773 286.914 26.9333C286.059 26.5963 285.133 26.5568 284.133 26.8149L287.652 33.722C288.072 33.4898 288.421 33.1866 288.697 32.8124C288.981 32.4525 289.174 32.0575 289.278 31.6273C289.404 31.2042 289.436 30.7567 289.376 30.2849C289.329 29.8058 289.186 29.3311 288.946 28.8606ZM294.13 35.8104L295.013 37.5425L293.195 38.4687C294.083 38.555 294.883 38.8387 295.595 39.3199C296.315 39.8153 296.892 40.4907 297.328 41.3461C297.706 42.0874 297.915 42.8514 297.957 43.6382C297.999 44.425 297.89 45.1808 297.631 45.9055C297.372 46.6302 296.958 47.2988 296.39 47.9113C295.844 48.5308 295.165 49.0476 294.352 49.4617C293.539 49.8757 292.715 50.1253 291.878 50.2103C291.063 50.3024 290.286 50.2403 289.548 50.0241C288.809 49.8079 288.134 49.4516 287.522 48.9554C286.91 48.4591 286.415 47.8403 286.037 47.099C285.601 46.2437 285.394 45.3794 285.416 44.5062C285.446 43.6474 285.686 42.8334 286.138 42.0643L280.044 45.1696L279.161 43.4375L294.13 35.8104ZM287.542 46.0357C287.826 46.5917 288.183 47.047 288.615 47.4015C289.047 47.756 289.525 48.0064 290.049 48.1527C290.586 48.2917 291.141 48.3232 291.713 48.2474C292.306 48.1784 292.888 47.9987 293.459 47.7082C294.043 47.4103 294.53 47.0453 294.921 46.613C295.318 46.1949 295.612 45.7312 295.801 45.2217C296.005 44.7049 296.09 44.1676 296.057 43.6097C296.024 43.0518 295.866 42.4949 295.583 41.9389C295.3 41.3829 294.942 40.9277 294.51 40.5732C294.078 40.2187 293.593 39.9719 293.055 39.8329C292.532 39.6866 291.98 39.6443 291.401 39.7059C290.829 39.7818 290.251 39.9687 289.667 40.2665C289.097 40.557 288.606 40.915 288.194 41.3403C287.803 41.7726 287.507 42.2471 287.303 42.7638C287.114 43.2733 287.035 43.807 287.068 44.3649C287.101 44.9228 287.259 45.4797 287.542 46.0357ZM296.861 54.2275L300.28 47.8796L301.271 49.8256L298.496 54.7411L304.093 55.3641L305.074 57.2886L297.929 56.3232L294.513 62.9931L293.499 61.0044L296.347 55.8093L290.459 55.0382L289.457 53.0709L296.861 54.2275ZM310.826 68.5775L300.134 74.0253L299.251 72.2932L304.127 69.809L301.316 64.2919L296.44 66.7761L295.558 65.044L306.25 59.5961L307.132 61.3282L302.92 63.4747L305.731 68.9918L309.943 66.8453L310.826 68.5775ZM313.368 73.5656L305.242 77.706L316.233 79.1897L317.127 80.9432L306.434 86.3911L305.552 84.6589L313.678 80.5186L302.686 79.0349L301.793 77.2814L312.485 71.8335L313.368 73.5656ZM310.288 94.6936C309.866 93.8668 309.617 93.0422 309.539 92.2199C309.483 91.4046 309.581 90.6275 309.833 89.8885C310.085 89.1496 310.484 88.4703 311.03 87.8508C311.576 87.2313 312.256 86.7145 313.068 86.3005C313.895 85.8792 314.72 85.6296 315.542 85.5518C316.379 85.4667 317.17 85.5394 317.916 85.7699C318.683 86.0074 319.38 86.3885 320.007 86.9133C320.633 87.438 321.146 88.0924 321.546 88.8765C321.931 89.6321 322.151 90.3818 322.207 91.1255C322.284 91.8763 322.207 92.5888 321.976 93.2632C321.745 93.9376 321.371 94.5594 320.853 95.1286C320.356 95.7049 319.723 96.1891 318.953 96.5813C318.654 96.7339 318.329 96.8723 317.98 96.9966L313.545 88.2933C312.519 88.9236 311.853 89.748 311.546 90.7664C311.253 91.7776 311.379 92.8177 311.924 93.8869C312.614 95.2413 313.736 95.9984 315.29 96.1583L314.961 98.0499C312.841 97.7655 311.283 96.6467 310.288 94.6936ZM319.92 89.6509C319.441 88.71 318.763 88.0676 317.888 87.7236C317.034 87.3866 316.107 87.3472 315.107 87.6052L318.626 94.5123C319.047 94.2801 319.395 93.9769 319.671 93.6027C319.955 93.2428 320.148 92.8478 320.253 92.4176C320.378 91.9945 320.411 91.547 320.35 91.0752C320.303 90.5962 320.16 90.1214 319.92 89.6509ZM332.511 111.137L321.819 116.585L320.936 114.853L325.812 112.368L323.001 106.851L318.125 109.336L317.243 107.603L327.935 102.156L328.817 103.888L324.605 106.034L327.416 111.551L331.628 109.405L332.511 111.137ZM325.663 124.869C325.249 124.056 325.014 123.242 324.957 122.427C324.901 121.612 324.995 120.828 325.24 120.074C325.506 119.328 325.913 118.645 326.459 118.026C327.019 117.399 327.699 116.882 328.497 116.475C329.296 116.069 330.106 115.826 330.928 115.749C331.765 115.664 332.556 115.736 333.302 115.967C334.069 116.204 334.766 116.585 335.393 117.11C336.019 117.635 336.54 118.303 336.954 119.116C337.368 119.929 337.603 120.743 337.659 121.558C337.715 122.373 337.61 123.154 337.344 123.9C337.1 124.653 336.697 125.343 336.136 125.97C335.59 126.59 334.918 127.103 334.119 127.51C333.321 127.916 332.504 128.162 331.667 128.247C330.845 128.325 330.05 128.245 329.282 128.008C328.536 127.777 327.85 127.4 327.224 126.875C326.597 126.35 326.077 125.682 325.663 124.869ZM327.288 124.041C327.571 124.597 327.929 125.052 328.361 125.407C328.8 125.775 329.282 126.033 329.805 126.179C330.343 126.318 330.901 126.357 331.48 126.295C332.074 126.226 332.656 126.047 333.226 125.756C333.81 125.458 334.298 125.093 334.688 124.661C335.078 124.229 335.368 123.758 335.558 123.248C335.761 122.732 335.843 122.187 335.803 121.615C335.77 121.057 335.612 120.5 335.329 119.944C335.045 119.388 334.684 118.926 334.245 118.557C333.813 118.203 333.328 117.956 332.79 117.817C332.267 117.67 331.715 117.628 331.136 117.69C330.557 117.751 329.975 117.931 329.391 118.229C328.82 118.519 328.333 118.885 327.928 119.324C327.538 119.756 327.241 120.231 327.038 120.748C326.848 121.257 326.77 121.791 326.803 122.349C326.843 122.921 327.005 123.485 327.288 124.041ZM344.66 134.98L343.077 135.786L341.203 132.108L332.094 136.75L331.222 135.039L340.332 130.398L338.458 126.72L340.04 125.913L344.66 134.98ZM350.771 146.974L351.653 148.706L340.961 154.154L340.079 152.422L350.771 146.974ZM337.456 143.415L338.698 145.853C339.047 146.537 339.497 146.981 340.05 147.184C340.617 147.38 341.206 147.322 341.819 147.01C342.418 146.704 342.798 146.269 342.958 145.702C343.118 145.136 343.024 144.51 342.675 143.826L341.433 141.388L337.456 143.415ZM335.012 142.478L345.704 137.03L346.587 138.762L342.994 140.593L344.345 143.244C344.629 143.8 344.801 144.35 344.862 144.893C344.924 145.437 344.881 145.952 344.735 146.44C344.588 146.928 344.337 147.37 343.983 147.766C343.649 148.169 343.219 148.505 342.691 148.774C342.178 149.035 341.653 149.186 341.117 149.226C340.602 149.273 340.104 149.212 339.624 149.044C339.15 148.89 338.705 148.632 338.287 148.271C337.891 147.916 337.551 147.461 337.268 146.905L335.012 142.478Z" fill="black"/>
<path d="M375.847 203.924C376.66 203.51 377.474 203.257 378.289 203.165C379.125 203.08 379.917 203.152 380.663 203.383C381.409 203.613 382.095 203.991 382.721 204.516C383.355 205.055 383.883 205.738 384.304 206.565C384.842 207.62 385.075 208.659 385.004 209.683C384.954 210.713 384.597 211.686 383.931 212.6L382.345 211.549C383.316 210.246 383.434 208.875 382.701 207.435C382.41 206.865 382.045 206.396 381.606 206.027C381.167 205.658 380.678 205.404 380.14 205.265C379.617 205.119 379.066 205.077 378.486 205.138C377.907 205.2 377.325 205.38 376.741 205.677C376.171 205.968 375.683 206.333 375.279 206.773C374.888 207.205 374.592 207.679 374.388 208.196C374.199 208.706 374.12 209.239 374.153 209.797C374.193 210.369 374.359 210.941 374.649 211.511C375.02 212.238 375.51 212.778 376.121 213.131C376.739 213.499 377.471 213.665 378.315 213.63L378.265 215.541C377.091 215.564 376.059 215.3 375.168 214.748C374.276 214.197 373.558 213.387 373.013 212.318C372.592 211.491 372.349 210.662 372.286 209.833C372.23 209.018 372.327 208.24 372.579 207.502C372.831 206.763 373.231 206.083 373.777 205.464C374.345 204.851 375.035 204.338 375.847 203.924ZM379.132 224.326C378.71 223.499 378.461 222.674 378.383 221.852C378.327 221.037 378.425 220.26 378.677 219.521C378.929 218.782 379.328 218.102 379.874 217.483C380.42 216.863 381.1 216.347 381.912 215.933C382.739 215.511 383.564 215.262 384.386 215.184C385.223 215.099 386.014 215.172 386.76 215.402C387.527 215.639 388.224 216.021 388.851 216.545C389.477 217.07 389.99 217.725 390.39 218.509C390.775 219.264 390.995 220.014 391.051 220.758C391.128 221.508 391.051 222.221 390.82 222.895C390.589 223.57 390.215 224.192 389.697 224.761C389.2 225.337 388.567 225.821 387.797 226.213C387.498 226.366 387.173 226.504 386.824 226.629L382.389 217.925C381.363 218.556 380.697 219.38 380.39 220.398C380.097 221.41 380.223 222.45 380.768 223.519C381.458 224.873 382.58 225.631 384.134 225.79L383.805 227.682C381.684 227.398 380.127 226.279 379.132 224.326ZM388.764 219.283C388.285 218.342 387.607 217.7 386.732 217.356C385.878 217.019 384.951 216.979 383.951 217.237L387.47 224.144C387.891 223.912 388.239 223.609 388.515 223.235C388.799 222.875 388.992 222.48 389.096 222.05C389.222 221.627 389.254 221.179 389.194 220.707C389.147 220.228 389.004 219.753 388.764 219.283ZM393.948 226.233L394.831 227.965L393.013 228.891C393.901 228.977 394.701 229.261 395.413 229.742C396.133 230.238 396.71 230.913 397.146 231.768C397.524 232.51 397.733 233.274 397.775 234.061C397.817 234.847 397.708 235.603 397.449 236.328C397.19 237.053 396.776 237.721 396.208 238.334C395.662 238.953 394.983 239.47 394.17 239.884C393.357 240.298 392.533 240.548 391.696 240.633C390.881 240.725 390.104 240.663 389.366 240.446C388.627 240.23 387.952 239.874 387.34 239.378C386.728 238.882 386.233 238.263 385.855 237.521C385.419 236.666 385.212 235.802 385.234 234.929C385.264 234.07 385.504 233.256 385.957 232.487L379.862 235.592L378.979 233.86L393.948 226.233ZM387.361 236.458C387.644 237.014 388.001 237.469 388.434 237.824C388.866 238.178 389.343 238.429 389.867 238.575C390.404 238.714 390.959 238.746 391.531 238.67C392.125 238.601 392.706 238.421 393.277 238.131C393.861 237.833 394.349 237.468 394.739 237.035C395.136 236.617 395.43 236.154 395.619 235.644C395.823 235.127 395.908 234.59 395.875 234.032C395.842 233.474 395.684 232.917 395.401 232.361C395.118 231.805 394.76 231.35 394.328 230.996C393.896 230.641 393.411 230.394 392.873 230.255C392.35 230.109 391.799 230.067 391.219 230.128C390.648 230.204 390.069 230.391 389.485 230.689C388.915 230.979 388.424 231.337 388.012 231.763C387.622 232.195 387.325 232.67 387.121 233.186C386.932 233.696 386.853 234.229 386.886 234.787C386.919 235.345 387.077 235.902 387.361 236.458ZM391.083 243.077L391.65 244.189C391.993 244.229 392.376 244.223 392.798 244.169C393.234 244.109 393.752 243.98 394.351 243.782C394.951 243.584 395.65 243.3 396.449 242.929C397.269 242.565 398.235 242.1 399.347 241.533L401.25 240.563L405.205 248.326L396.117 252.956L397.01 254.71L392.627 256.944L391.755 255.233L394.535 253.816L390.351 245.605L387.571 247.021L386.699 245.311L391.083 243.077ZM395.234 251.224L402.719 247.411L400.518 243.091L399.299 243.712C398.501 244.119 397.777 244.461 397.128 244.738C396.486 245.029 395.89 245.269 395.341 245.46C394.806 245.643 394.309 245.779 393.852 245.868C393.416 245.964 392.995 246.018 392.587 246.028L395.234 251.224ZM396.536 257.743L407.228 252.295L408.11 254.027L399.022 258.658L401.789 264.089L410.878 259.458L411.76 261.191L402.672 265.821L403.522 267.489L399.138 269.723L398.266 268.012L401.046 266.596L396.536 257.743ZM405.158 275.405C404.737 274.579 404.487 273.754 404.409 272.932C404.353 272.116 404.451 271.339 404.703 270.6C404.955 269.861 405.354 269.182 405.9 268.563C406.447 267.943 407.126 267.426 407.939 267.012C408.766 266.591 409.59 266.341 410.412 266.264C411.249 266.179 412.04 266.251 412.786 266.482C413.554 266.719 414.251 267.1 414.877 267.625C415.504 268.15 416.017 268.804 416.416 269.588C416.801 270.344 417.022 271.094 417.077 271.837C417.155 272.588 417.078 273.301 416.847 273.975C416.616 274.649 416.241 275.271 415.723 275.84C415.227 276.417 414.593 276.901 413.824 277.293C413.524 277.446 413.2 277.584 412.85 277.708L408.415 269.005C407.39 269.635 406.723 270.46 406.416 271.478C406.123 272.489 406.249 273.53 406.794 274.599C407.484 275.953 408.606 276.71 410.16 276.87L409.831 278.762C407.711 278.477 406.153 277.359 405.158 275.405ZM414.791 270.363C414.311 269.422 413.634 268.779 412.758 268.435C411.904 268.098 410.977 268.059 409.977 268.317L413.497 275.224C413.917 274.992 414.265 274.689 414.542 274.315C414.825 273.955 415.019 273.56 415.123 273.129C415.248 272.706 415.281 272.259 415.22 271.787C415.173 271.308 415.03 270.833 414.791 270.363Z" fill="black"/>
<path d="M451.359 363.318C450.945 362.505 450.71 361.691 450.653 360.876C450.597 360.06 450.691 359.276 450.936 358.523C451.202 357.777 451.609 357.094 452.155 356.474C452.715 355.848 453.395 355.331 454.193 354.924C454.992 354.517 455.802 354.275 456.624 354.197C457.461 354.112 458.252 354.185 458.998 354.415C459.765 354.653 460.462 355.034 461.089 355.559C461.715 356.083 462.236 356.752 462.65 357.565C463.064 358.377 463.299 359.191 463.355 360.006C463.411 360.822 463.306 361.603 463.04 362.349C462.795 363.102 462.393 363.792 461.832 364.419C461.286 365.038 460.614 365.551 459.815 365.958C459.017 366.365 458.2 366.611 457.363 366.696C456.541 366.774 455.746 366.694 454.978 366.456C454.232 366.226 453.546 365.848 452.92 365.324C452.293 364.799 451.773 364.13 451.359 363.318ZM452.984 362.489C453.267 363.045 453.625 363.501 454.057 363.855C454.496 364.224 454.978 364.481 455.501 364.628C456.039 364.767 456.597 364.805 457.176 364.744C457.77 364.675 458.352 364.495 458.922 364.205C459.506 363.907 459.994 363.542 460.384 363.109C460.774 362.677 461.064 362.206 461.254 361.697C461.457 361.18 461.539 360.636 461.499 360.063C461.466 359.506 461.308 358.949 461.025 358.393C460.741 357.837 460.38 357.374 459.941 357.006C459.509 356.651 459.024 356.404 458.486 356.265C457.963 356.119 457.411 356.077 456.832 356.138C456.253 356.2 455.671 356.38 455.087 356.677C454.516 356.968 454.029 357.333 453.624 357.773C453.234 358.205 452.937 358.679 452.734 359.196C452.544 359.706 452.466 360.239 452.499 360.797C452.539 361.369 452.701 361.933 452.984 362.489ZM460.822 367.934C461.635 367.52 462.449 367.267 463.264 367.175C464.1 367.09 464.891 367.163 465.637 367.393C466.383 367.623 467.07 368.001 467.696 368.526C468.33 369.065 468.857 369.748 469.279 370.575C469.816 371.63 470.049 372.669 469.979 373.693C469.929 374.724 469.572 375.696 468.906 376.61L467.32 375.559C468.291 374.257 468.409 372.885 467.675 371.446C467.385 370.875 467.02 370.406 466.58 370.037C466.141 369.668 465.653 369.414 465.115 369.275C464.591 369.129 464.04 369.087 463.461 369.148C462.882 369.21 462.3 369.39 461.716 369.688C461.145 369.978 460.658 370.343 460.253 370.783C459.863 371.215 459.566 371.69 459.363 372.206C459.173 372.716 459.095 373.249 459.128 373.807C459.168 374.379 459.333 374.951 459.624 375.521C459.994 376.248 460.485 376.788 461.096 377.141C461.714 377.509 462.445 377.675 463.289 377.64L463.239 379.551C462.066 379.574 461.034 379.31 460.142 378.758C459.251 378.207 458.533 377.397 457.988 376.328C457.567 375.501 457.324 374.673 457.261 373.843C457.204 373.028 457.302 372.251 457.554 371.512C457.806 370.773 458.205 370.093 458.752 369.474C459.319 368.861 460.01 368.348 460.822 367.934ZM477.179 386.82L466.487 392.268L465.604 390.536L470.48 388.051L467.669 382.534L462.793 385.018L461.911 383.286L472.603 377.838L473.485 379.571L469.273 381.717L472.084 387.234L476.296 385.088L477.179 386.82ZM470.331 400.552C469.917 399.739 469.682 398.925 469.625 398.11C469.569 397.295 469.663 396.51 469.908 395.757C470.174 395.011 470.58 394.328 471.127 393.709C471.687 393.082 472.367 392.565 473.165 392.158C473.963 391.751 474.774 391.509 475.596 391.431C476.433 391.346 477.224 391.419 477.97 391.65C478.737 391.887 479.434 392.268 480.061 392.793C480.687 393.318 481.207 393.986 481.622 394.799C482.036 395.611 482.271 396.425 482.327 397.241C482.383 398.056 482.278 398.837 482.012 399.583C481.767 400.336 481.365 401.026 480.804 401.653C480.258 402.273 479.586 402.786 478.787 403.192C477.989 403.599 477.171 403.845 476.335 403.93C475.513 404.008 474.718 403.928 473.95 403.691C473.204 403.46 472.518 403.083 471.892 402.558C471.265 402.033 470.745 401.364 470.331 400.552ZM471.956 399.724C472.239 400.28 472.597 400.735 473.029 401.09C473.468 401.458 473.95 401.716 474.473 401.862C475.011 402.001 475.569 402.04 476.148 401.978C476.742 401.909 477.324 401.73 477.894 401.439C478.478 401.141 478.966 400.776 479.356 400.344C479.746 399.912 480.036 399.441 480.225 398.931C480.429 398.414 480.511 397.87 480.471 397.298C480.438 396.74 480.28 396.183 479.996 395.627C479.713 395.071 479.352 394.609 478.912 394.24C478.48 393.885 477.996 393.639 477.458 393.5C476.934 393.353 476.383 393.311 475.804 393.373C475.225 393.434 474.643 393.614 474.058 393.912C473.488 394.202 473.001 394.567 472.596 395.007C472.206 395.439 471.909 395.914 471.705 396.431C471.516 396.94 471.438 397.474 471.471 398.032C471.511 398.604 471.673 399.168 471.956 399.724ZM485.467 403.086L487.886 407.833C488.365 408.774 488.494 409.66 488.271 410.492C488.048 411.324 487.516 411.954 486.675 412.383C486.133 412.659 485.601 412.759 485.078 412.685C484.577 412.617 484.11 412.406 483.678 412.051C483.812 412.737 483.727 413.364 483.424 413.931C483.142 414.506 482.659 414.968 481.975 415.316C481.077 415.774 480.201 415.834 479.346 415.497C478.492 415.16 477.804 414.479 477.281 413.452L474.775 408.534L485.467 403.086ZM478.756 412.647C479.01 413.146 479.363 413.486 479.816 413.669C480.275 413.866 480.776 413.826 481.317 413.55C481.845 413.282 482.164 412.903 482.275 412.416C482.407 411.936 482.346 411.446 482.092 410.947L480.436 407.697L477.1 409.396L478.756 412.647ZM483.459 410.035C483.699 410.505 484.023 410.807 484.432 410.94C484.841 411.073 485.259 411.03 485.687 410.812C486.1 410.602 486.373 410.292 486.506 409.883C486.653 409.467 486.607 409.024 486.367 408.553L484.798 405.474L481.89 406.956L483.459 410.035ZM482.803 417.048C483.83 416.525 484.838 416.496 485.829 416.961C486.82 417.425 487.715 418.352 488.512 419.742L490.187 422.659L490.337 422.583C491.207 422.14 491.757 421.545 491.987 420.799C492.225 420.068 492.126 419.274 491.69 418.419C491.341 417.734 490.887 417.23 490.326 416.905C489.78 416.573 489.135 416.417 488.391 416.437L488.387 414.58C489.453 414.557 490.4 414.811 491.227 415.342C492.068 415.865 492.746 416.633 493.262 417.645C493.603 418.315 493.812 418.971 493.889 419.615C493.973 420.273 493.934 420.885 493.774 421.451C493.614 422.018 493.331 422.539 492.927 423.014C492.537 423.482 492.029 423.876 491.401 424.195L484.537 427.693L483.665 425.982L485.376 425.111C484.524 425.06 483.764 424.801 483.095 424.334C482.433 423.881 481.888 423.234 481.459 422.393C480.885 421.266 480.72 420.219 480.963 419.251C481.206 418.284 481.819 417.549 482.803 417.048ZM483.151 421.854C483.405 422.353 483.727 422.773 484.116 423.113C484.505 423.454 484.925 423.697 485.377 423.844C485.836 424.005 486.309 424.07 486.795 424.037C487.289 424.019 487.764 423.894 488.22 423.661L488.712 423.411L487.124 420.611C486.609 419.706 486.064 419.095 485.489 418.777C484.936 418.466 484.367 418.46 483.782 418.758C483.24 419.034 482.911 419.444 482.793 419.989C482.683 420.548 482.802 421.17 483.151 421.854Z" fill="black"/>
</svg>
