<svg width="404" height="424" viewBox="0 0 404 424" fill="none" xmlns="http://www.w3.org/2000/svg">
<path d="M275.113 156.616H129.357L202.235 2.34082L275.113 156.616Z" stroke="black" stroke-width="2"/>
<path d="M336.245 283.233L402.429 423H1.5791L67.7627 283.233H336.245Z" stroke="black" stroke-width="2"/>
<path d="M281.221 165.997L331.675 272.548H72.8975L123.352 165.997H281.221Z" stroke="black" stroke-width="2"/>
<path d="M155.14 143.5H158.47C159.13 143.5 159.66 143.68 160.06 144.04C160.46 144.4 160.66 144.875 160.66 145.465C160.66 145.845 160.565 146.17 160.375 146.44C160.195 146.7 159.945 146.9 159.625 147.04C160.045 147.16 160.37 147.385 160.6 147.715C160.84 148.035 160.96 148.435 160.96 148.915C160.96 149.545 160.745 150.05 160.315 150.43C159.885 150.81 159.31 151 158.59 151H155.14V143.5ZM158.56 149.95C158.91 149.95 159.2 149.85 159.43 149.65C159.67 149.45 159.79 149.16 159.79 148.78C159.79 148.41 159.67 148.125 159.43 147.925C159.2 147.715 158.91 147.61 158.56 147.61H156.28V149.95H158.56ZM158.44 146.59C158.77 146.59 159.03 146.495 159.22 146.305C159.41 146.115 159.505 145.87 159.505 145.57C159.505 145.28 159.41 145.04 159.22 144.85C159.03 144.65 158.77 144.55 158.44 144.55H156.28V146.59H158.44ZM166.104 151.21C165.524 151.21 164.994 151.115 164.514 150.925C164.044 150.725 163.639 150.45 163.299 150.1C162.959 149.75 162.694 149.335 162.504 148.855C162.314 148.375 162.219 147.85 162.219 147.28C162.219 146.7 162.314 146.17 162.504 145.69C162.694 145.2 162.959 144.78 163.299 144.43C163.649 144.07 164.059 143.79 164.529 143.59C164.999 143.39 165.509 143.29 166.059 143.29C166.589 143.29 167.069 143.38 167.499 143.56C167.939 143.73 168.314 143.975 168.624 144.295C168.934 144.615 169.174 145 169.344 145.45C169.524 145.89 169.614 146.38 169.614 146.92C169.614 147.13 169.599 147.35 169.569 147.58H163.464C163.524 148.33 163.794 148.935 164.274 149.395C164.754 149.845 165.369 150.07 166.119 150.07C167.069 150.07 167.809 149.66 168.339 148.84L169.299 149.56C168.539 150.66 167.474 151.21 166.104 151.21ZM166.029 144.415C165.369 144.415 164.819 144.61 164.379 145C163.949 145.38 163.664 145.885 163.524 146.515H168.369C168.359 146.215 168.289 145.935 168.159 145.675C168.039 145.415 167.874 145.195 167.664 145.015C167.464 144.825 167.224 144.68 166.944 144.58C166.664 144.47 166.359 144.415 166.029 144.415ZM171.37 143.5H172.585V144.775C172.885 144.305 173.27 143.94 173.74 143.68C174.22 143.42 174.76 143.29 175.36 143.29C175.88 143.29 176.365 143.39 176.815 143.59C177.265 143.79 177.655 144.065 177.985 144.415C178.315 144.765 178.57 145.185 178.75 145.675C178.94 146.155 179.035 146.68 179.035 147.25C179.035 147.82 178.94 148.35 178.75 148.84C178.57 149.32 178.315 149.735 177.985 150.085C177.655 150.435 177.265 150.71 176.815 150.91C176.365 151.11 175.88 151.21 175.36 151.21C174.76 151.21 174.22 151.08 173.74 150.82C173.27 150.56 172.885 150.195 172.585 149.725V154H171.37V143.5ZM175.195 150.07C175.585 150.07 175.94 150 176.26 149.86C176.58 149.72 176.855 149.525 177.085 149.275C177.315 149.015 177.49 148.715 177.61 148.375C177.74 148.025 177.805 147.65 177.805 147.25C177.805 146.84 177.74 146.465 177.61 146.125C177.49 145.785 177.315 145.49 177.085 145.24C176.855 144.98 176.58 144.78 176.26 144.64C175.94 144.5 175.585 144.43 175.195 144.43C174.805 144.43 174.45 144.5 174.13 144.64C173.81 144.78 173.535 144.98 173.305 145.24C173.075 145.49 172.895 145.785 172.765 146.125C172.645 146.465 172.585 146.84 172.585 147.25C172.585 147.65 172.645 148.025 172.765 148.375C172.895 148.715 173.075 149.015 173.305 149.275C173.535 149.525 173.81 149.72 174.13 149.86C174.45 150 174.805 150.07 175.195 150.07ZM182.401 147.205L179.836 143.5H181.201L183.151 146.44L185.086 143.5H186.436L183.871 147.205L186.616 151H185.221L183.136 147.94L181.036 151H179.656L182.401 147.205ZM194.355 143.5V151H193.14V147.58H189.27V151H188.055V143.5H189.27V146.455H193.14V143.5H194.355ZM197.854 143.5V149.2L201.799 143.5H203.029V151H201.814V145.3L197.869 151H196.639V143.5H197.854ZM208.746 151.21C208.166 151.21 207.636 151.115 207.156 150.925C206.686 150.725 206.281 150.45 205.941 150.1C205.601 149.75 205.336 149.335 205.146 148.855C204.956 148.375 204.861 147.85 204.861 147.28C204.861 146.7 204.956 146.17 205.146 145.69C205.336 145.2 205.601 144.78 205.941 144.43C206.291 144.07 206.701 143.79 207.171 143.59C207.641 143.39 208.151 143.29 208.701 143.29C209.231 143.29 209.711 143.38 210.141 143.56C210.581 143.73 210.956 143.975 211.266 144.295C211.576 144.615 211.816 145 211.986 145.45C212.166 145.89 212.256 146.38 212.256 146.92C212.256 147.13 212.241 147.35 212.211 147.58H206.106C206.166 148.33 206.436 148.935 206.916 149.395C207.396 149.845 208.011 150.07 208.761 150.07C209.711 150.07 210.451 149.66 210.981 148.84L211.941 149.56C211.181 150.66 210.116 151.21 208.746 151.21ZM208.671 144.415C208.011 144.415 207.461 144.61 207.021 145C206.591 145.38 206.306 145.885 206.166 146.515H211.011C211.001 146.215 210.931 145.935 210.801 145.675C210.681 145.415 210.516 145.195 210.306 145.015C210.106 144.825 209.866 144.68 209.586 144.58C209.306 144.47 209.001 144.415 208.671 144.415ZM224.209 143.5V151H222.994V147.58H219.124V151H217.909V143.5H219.124V146.455H222.994V143.5H224.209ZM229.913 151.21C229.343 151.21 228.823 151.11 228.353 150.91C227.883 150.71 227.473 150.435 227.123 150.085C226.783 149.725 226.518 149.305 226.328 148.825C226.138 148.335 226.043 147.81 226.043 147.25C226.043 146.69 226.138 146.17 226.328 145.69C226.518 145.2 226.783 144.78 227.123 144.43C227.473 144.07 227.883 143.79 228.353 143.59C228.823 143.39 229.343 143.29 229.913 143.29C230.483 143.29 231.003 143.39 231.473 143.59C231.943 143.79 232.348 144.07 232.688 144.43C233.038 144.78 233.308 145.2 233.498 145.69C233.688 146.17 233.783 146.69 233.783 147.25C233.783 147.81 233.688 148.335 233.498 148.825C233.308 149.305 233.038 149.725 232.688 150.085C232.348 150.435 231.943 150.71 231.473 150.91C231.003 151.11 230.483 151.21 229.913 151.21ZM229.913 150.07C230.303 150.07 230.658 150 230.978 149.86C231.308 149.72 231.588 149.525 231.818 149.275C232.048 149.015 232.228 148.715 232.358 148.375C232.488 148.025 232.553 147.65 232.553 147.25C232.553 146.84 232.488 146.465 232.358 146.125C232.228 145.785 232.048 145.49 231.818 145.24C231.588 144.98 231.308 144.78 230.978 144.64C230.658 144.5 230.303 144.43 229.913 144.43C229.523 144.43 229.163 144.5 228.833 144.64C228.513 144.78 228.238 144.98 228.008 145.24C227.778 145.49 227.598 145.785 227.468 146.125C227.338 146.465 227.273 146.84 227.273 147.25C227.273 147.65 227.338 148.025 227.468 148.375C227.598 148.715 227.778 149.015 228.008 149.275C228.238 149.525 228.513 149.72 228.833 149.86C229.163 150 229.523 150.07 229.913 150.07ZM240.933 143.5V144.61H238.353V151H237.153V144.61H234.573V143.5H240.933ZM249.346 143.5H250.561V151H249.346V143.5ZM243.586 149.905H245.296C245.776 149.905 246.151 149.78 246.421 149.53C246.691 149.27 246.826 148.925 246.826 148.495C246.826 148.075 246.691 147.74 246.421 147.49C246.151 147.24 245.776 147.115 245.296 147.115H243.586V149.905ZM242.371 151V143.5H243.586V146.02H245.446C245.836 146.02 246.191 146.08 246.511 146.2C246.831 146.32 247.106 146.49 247.336 146.71C247.566 146.93 247.741 147.195 247.861 147.505C247.991 147.805 248.056 148.14 248.056 148.51C248.056 148.87 247.991 149.205 247.861 149.515C247.741 149.815 247.566 150.075 247.336 150.295C247.116 150.515 246.846 150.69 246.526 150.82C246.216 150.94 245.866 151 245.476 151H242.371Z" fill="black"/>
<path d="M174.69 410.25C174.69 409.68 174.78 409.155 174.96 408.675C175.15 408.185 175.415 407.765 175.755 407.415C176.095 407.065 176.5 406.79 176.97 406.59C177.45 406.39 177.98 406.29 178.56 406.29C179.3 406.29 179.945 406.455 180.495 406.785C181.055 407.105 181.495 407.58 181.815 408.21L180.78 408.795C180.33 407.885 179.6 407.43 178.59 407.43C178.19 407.43 177.825 407.5 177.495 407.64C177.165 407.78 176.885 407.98 176.655 408.24C176.425 408.49 176.245 408.785 176.115 409.125C175.985 409.465 175.92 409.84 175.92 410.25C175.92 410.65 175.985 411.025 176.115 411.375C176.245 411.715 176.425 412.015 176.655 412.275C176.885 412.525 177.16 412.72 177.48 412.86C177.81 413 178.175 413.07 178.575 413.07C179.085 413.07 179.525 412.95 179.895 412.71C180.275 412.47 180.575 412.11 180.795 411.63L181.845 412.2C181.525 412.86 181.085 413.36 180.525 413.7C179.965 414.04 179.31 414.21 178.56 414.21C177.98 414.21 177.45 414.11 176.97 413.91C176.5 413.71 176.095 413.435 175.755 413.085C175.415 412.735 175.15 412.32 174.96 411.84C174.78 411.35 174.69 410.82 174.69 410.25ZM186.983 414.21C186.403 414.21 185.873 414.115 185.393 413.925C184.923 413.725 184.518 413.45 184.178 413.1C183.838 412.75 183.573 412.335 183.383 411.855C183.193 411.375 183.098 410.85 183.098 410.28C183.098 409.7 183.193 409.17 183.383 408.69C183.573 408.2 183.838 407.78 184.178 407.43C184.528 407.07 184.938 406.79 185.408 406.59C185.878 406.39 186.388 406.29 186.938 406.29C187.468 406.29 187.948 406.38 188.378 406.56C188.818 406.73 189.193 406.975 189.503 407.295C189.813 407.615 190.053 408 190.223 408.45C190.403 408.89 190.493 409.38 190.493 409.92C190.493 410.13 190.478 410.35 190.448 410.58H184.343C184.403 411.33 184.673 411.935 185.153 412.395C185.633 412.845 186.248 413.07 186.998 413.07C187.948 413.07 188.688 412.66 189.218 411.84L190.178 412.56C189.418 413.66 188.353 414.21 186.983 414.21ZM186.908 407.415C186.248 407.415 185.698 407.61 185.258 408C184.828 408.38 184.543 408.885 184.403 409.515H189.248C189.238 409.215 189.168 408.935 189.038 408.675C188.918 408.415 188.753 408.195 188.543 408.015C188.343 407.825 188.103 407.68 187.823 407.58C187.543 407.47 187.238 407.415 186.908 407.415ZM192.249 406.5H193.464V407.775C193.764 407.305 194.149 406.94 194.619 406.68C195.099 406.42 195.639 406.29 196.239 406.29C196.759 406.29 197.244 406.39 197.694 406.59C198.144 406.79 198.534 407.065 198.864 407.415C199.194 407.765 199.449 408.185 199.629 408.675C199.819 409.155 199.914 409.68 199.914 410.25C199.914 410.82 199.819 411.35 199.629 411.84C199.449 412.32 199.194 412.735 198.864 413.085C198.534 413.435 198.144 413.71 197.694 413.91C197.244 414.11 196.759 414.21 196.239 414.21C195.639 414.21 195.099 414.08 194.619 413.82C194.149 413.56 193.764 413.195 193.464 412.725V417H192.249V406.5ZM196.074 413.07C196.464 413.07 196.819 413 197.139 412.86C197.459 412.72 197.734 412.525 197.964 412.275C198.194 412.015 198.369 411.715 198.489 411.375C198.619 411.025 198.684 410.65 198.684 410.25C198.684 409.84 198.619 409.465 198.489 409.125C198.369 408.785 198.194 408.49 197.964 408.24C197.734 407.98 197.459 407.78 197.139 407.64C196.819 407.5 196.464 407.43 196.074 407.43C195.684 407.43 195.329 407.5 195.009 407.64C194.689 407.78 194.414 407.98 194.184 408.24C193.954 408.49 193.774 408.785 193.644 409.125C193.524 409.465 193.464 409.84 193.464 410.25C193.464 410.65 193.524 411.025 193.644 411.375C193.774 411.715 193.954 412.015 194.184 412.275C194.414 412.525 194.689 412.72 195.009 412.86C195.329 413 195.684 413.07 196.074 413.07ZM200.816 412.875H201.596C201.716 412.695 201.821 412.48 201.911 412.23C202.001 411.97 202.076 411.645 202.136 411.255C202.196 410.865 202.236 410.395 202.256 409.845C202.286 409.285 202.301 408.615 202.301 407.835V406.5H207.746V412.875H208.976V415.95H207.776V414H202.016V415.95H200.816V412.875ZM206.531 412.875V407.625H203.501V408.48C203.501 409.04 203.486 409.54 203.456 409.98C203.436 410.42 203.401 410.82 203.351 411.18C203.301 411.53 203.236 411.845 203.156 412.125C203.086 412.395 202.996 412.645 202.886 412.875H206.531ZM210.531 414V406.5H211.746V412.875H215.556V406.5H216.771V412.875H217.941V415.95H216.741V414H210.531ZM222.813 414.21C222.233 414.21 221.703 414.115 221.223 413.925C220.753 413.725 220.348 413.45 220.008 413.1C219.668 412.75 219.403 412.335 219.213 411.855C219.023 411.375 218.928 410.85 218.928 410.28C218.928 409.7 219.023 409.17 219.213 408.69C219.403 408.2 219.668 407.78 220.008 407.43C220.358 407.07 220.768 406.79 221.238 406.59C221.708 406.39 222.218 406.29 222.768 406.29C223.298 406.29 223.778 406.38 224.208 406.56C224.648 406.73 225.023 406.975 225.333 407.295C225.643 407.615 225.883 408 226.053 408.45C226.233 408.89 226.323 409.38 226.323 409.92C226.323 410.13 226.308 410.35 226.278 410.58H220.173C220.233 411.33 220.503 411.935 220.983 412.395C221.463 412.845 222.078 413.07 222.828 413.07C223.778 413.07 224.518 412.66 225.048 411.84L226.008 412.56C225.248 413.66 224.183 414.21 222.813 414.21ZM222.738 407.415C222.078 407.415 221.528 407.61 221.088 408C220.658 408.38 220.373 408.885 220.233 409.515H225.078C225.068 409.215 224.998 408.935 224.868 408.675C224.748 408.415 224.583 408.195 224.373 408.015C224.173 407.825 223.933 407.68 223.653 407.58C223.373 407.47 223.068 407.415 222.738 407.415Z" fill="black"/>
<path d="M181.56 266.21C180.99 266.21 180.47 266.11 180 265.91C179.53 265.71 179.12 265.435 178.77 265.085C178.43 264.725 178.165 264.305 177.975 263.825C177.785 263.335 177.69 262.81 177.69 262.25C177.69 261.69 177.785 261.17 177.975 260.69C178.165 260.2 178.43 259.78 178.77 259.43C179.12 259.07 179.53 258.79 180 258.59C180.47 258.39 180.99 258.29 181.56 258.29C182.13 258.29 182.65 258.39 183.12 258.59C183.59 258.79 183.995 259.07 184.335 259.43C184.685 259.78 184.955 260.2 185.145 260.69C185.335 261.17 185.43 261.69 185.43 262.25C185.43 262.81 185.335 263.335 185.145 263.825C184.955 264.305 184.685 264.725 184.335 265.085C183.995 265.435 183.59 265.71 183.12 265.91C182.65 266.11 182.13 266.21 181.56 266.21ZM181.56 265.07C181.95 265.07 182.305 265 182.625 264.86C182.955 264.72 183.235 264.525 183.465 264.275C183.695 264.015 183.875 263.715 184.005 263.375C184.135 263.025 184.2 262.65 184.2 262.25C184.2 261.84 184.135 261.465 184.005 261.125C183.875 260.785 183.695 260.49 183.465 260.24C183.235 259.98 182.955 259.78 182.625 259.64C182.305 259.5 181.95 259.43 181.56 259.43C181.17 259.43 180.81 259.5 180.48 259.64C180.16 259.78 179.885 259.98 179.655 260.24C179.425 260.49 179.245 260.785 179.115 261.125C178.985 261.465 178.92 261.84 178.92 262.25C178.92 262.65 178.985 263.025 179.115 263.375C179.245 263.715 179.425 264.015 179.655 264.275C179.885 264.525 180.16 264.72 180.48 264.86C180.81 265 181.17 265.07 181.56 265.07ZM186.816 262.25C186.816 261.68 186.906 261.155 187.086 260.675C187.276 260.185 187.541 259.765 187.881 259.415C188.221 259.065 188.626 258.79 189.096 258.59C189.576 258.39 190.106 258.29 190.686 258.29C191.426 258.29 192.071 258.455 192.621 258.785C193.181 259.105 193.621 259.58 193.941 260.21L192.906 260.795C192.456 259.885 191.726 259.43 190.716 259.43C190.316 259.43 189.951 259.5 189.621 259.64C189.291 259.78 189.011 259.98 188.781 260.24C188.551 260.49 188.371 260.785 188.241 261.125C188.111 261.465 188.046 261.84 188.046 262.25C188.046 262.65 188.111 263.025 188.241 263.375C188.371 263.715 188.551 264.015 188.781 264.275C189.011 264.525 189.286 264.72 189.606 264.86C189.936 265 190.301 265.07 190.701 265.07C191.211 265.07 191.651 264.95 192.021 264.71C192.401 264.47 192.701 264.11 192.921 263.63L193.971 264.2C193.651 264.86 193.211 265.36 192.651 265.7C192.091 266.04 191.436 266.21 190.686 266.21C190.106 266.21 189.576 266.11 189.096 265.91C188.626 265.71 188.221 265.435 187.881 265.085C187.541 264.735 187.276 264.32 187.086 263.84C186.906 263.35 186.816 262.82 186.816 262.25ZM201.974 258.5V266H200.759V262.58H196.889V266H195.674V258.5H196.889V261.455H200.759V258.5H201.974ZM207.678 266.21C207.108 266.21 206.588 266.11 206.118 265.91C205.648 265.71 205.238 265.435 204.888 265.085C204.548 264.725 204.283 264.305 204.093 263.825C203.903 263.335 203.808 262.81 203.808 262.25C203.808 261.69 203.903 261.17 204.093 260.69C204.283 260.2 204.548 259.78 204.888 259.43C205.238 259.07 205.648 258.79 206.118 258.59C206.588 258.39 207.108 258.29 207.678 258.29C208.248 258.29 208.768 258.39 209.238 258.59C209.708 258.79 210.113 259.07 210.453 259.43C210.803 259.78 211.073 260.2 211.263 260.69C211.453 261.17 211.548 261.69 211.548 262.25C211.548 262.81 211.453 263.335 211.263 263.825C211.073 264.305 210.803 264.725 210.453 265.085C210.113 265.435 209.708 265.71 209.238 265.91C208.768 266.11 208.248 266.21 207.678 266.21ZM207.678 265.07C208.068 265.07 208.423 265 208.743 264.86C209.073 264.72 209.353 264.525 209.583 264.275C209.813 264.015 209.993 263.715 210.123 263.375C210.253 263.025 210.318 262.65 210.318 262.25C210.318 261.84 210.253 261.465 210.123 261.125C209.993 260.785 209.813 260.49 209.583 260.24C209.353 259.98 209.073 259.78 208.743 259.64C208.423 259.5 208.068 259.43 207.678 259.43C207.288 259.43 206.928 259.5 206.598 259.64C206.278 259.78 206.003 259.98 205.773 260.24C205.543 260.49 205.363 260.785 205.233 261.125C205.103 261.465 205.038 261.84 205.038 262.25C205.038 262.65 205.103 263.025 205.233 263.375C205.363 263.715 205.543 264.015 205.773 264.275C206.003 264.525 206.278 264.72 206.598 264.86C206.928 265 207.288 265.07 207.678 265.07ZM213.384 258.5H216.714C217.374 258.5 217.904 258.68 218.304 259.04C218.704 259.4 218.904 259.875 218.904 260.465C218.904 260.845 218.809 261.17 218.619 261.44C218.439 261.7 218.189 261.9 217.869 262.04C218.289 262.16 218.614 262.385 218.844 262.715C219.084 263.035 219.204 263.435 219.204 263.915C219.204 264.545 218.989 265.05 218.559 265.43C218.129 265.81 217.554 266 216.834 266H213.384V258.5ZM216.804 264.95C217.154 264.95 217.444 264.85 217.674 264.65C217.914 264.45 218.034 264.16 218.034 263.78C218.034 263.41 217.914 263.125 217.674 262.925C217.444 262.715 217.154 262.61 216.804 262.61H214.524V264.95H216.804ZM216.684 261.59C217.014 261.59 217.274 261.495 217.464 261.305C217.654 261.115 217.749 260.87 217.749 260.57C217.749 260.28 217.654 260.04 217.464 259.85C217.274 259.65 217.014 259.55 216.684 259.55H214.524V261.59H216.684ZM220.403 263.945C220.403 263.225 220.673 262.655 221.213 262.235C221.753 261.815 222.523 261.58 223.523 261.53L225.623 261.425V261.32C225.623 260.71 225.448 260.235 225.098 259.895C224.758 259.555 224.288 259.385 223.688 259.385C223.208 259.385 222.798 259.495 222.458 259.715C222.118 259.925 221.848 260.24 221.648 260.66L220.613 260.135C220.903 259.535 221.313 259.08 221.843 258.77C222.373 258.45 222.993 258.29 223.703 258.29C224.173 258.29 224.598 258.36 224.978 258.5C225.368 258.64 225.698 258.835 225.968 259.085C226.238 259.335 226.448 259.64 226.598 260C226.748 260.35 226.823 260.745 226.823 261.185V266H225.623V264.8C225.353 265.26 224.993 265.61 224.543 265.85C224.103 266.09 223.588 266.21 222.998 266.21C222.208 266.21 221.578 266.005 221.108 265.595C220.638 265.185 220.403 264.635 220.403 263.945ZM223.178 265.115C223.528 265.115 223.853 265.055 224.153 264.935C224.453 264.815 224.708 264.65 224.918 264.44C225.138 264.23 225.308 263.985 225.428 263.705C225.558 263.425 225.623 263.125 225.623 262.805V262.46L223.613 262.55C222.963 262.58 222.468 262.71 222.128 262.94C221.798 263.16 221.633 263.475 221.633 263.885C221.633 264.265 221.768 264.565 222.038 264.785C222.318 265.005 222.698 265.115 223.178 265.115Z" fill="black"/>
</svg>
