<svg width="84" height="144" viewBox="0 0 84 144" fill="none" xmlns="http://www.w3.org/2000/svg">
<path fill-rule="evenodd" clip-rule="evenodd" d="M42.6912 5.21008C42.3523 5.28987 42.0754 5.51473 42.0754 5.70905C42.0754 5.90376 40.8087 6.06295 39.2605 6.06295C36.9931 6.06295 36.4456 6.17443 36.4456 6.63561C36.4456 6.9918 36.1134 7.20826 35.5659 7.20826C35.0821 7.20826 34.6862 7.36021 34.6862 7.54575C34.6862 7.7309 33.6275 7.95615 32.3337 8.04548C30.9477 8.14131 29.9234 8.3948 29.8411 8.66242C29.7643 8.91248 29.259 9.11711 28.7181 9.11711C28.1773 9.11711 27.5379 9.3748 27.2969 9.68976C27.0559 10.0047 26.5542 10.2624 26.1816 10.2624C25.8089 10.2624 25.1552 10.6679 24.729 11.1638C24.3029 11.6597 23.5978 12.1865 23.1625 12.3347C22.7273 12.4832 22.3709 12.7645 22.3709 12.9604C22.3709 13.1562 22.0468 13.3166 21.6503 13.3166C20.8741 13.3166 19.204 15.0269 19.204 15.8221C19.204 16.089 19.0851 16.3642 18.9402 16.4345C18.5496 16.6227 17.4447 19.016 17.4447 19.6738C17.4447 19.9868 17.2072 20.5007 16.9169 20.8157C16.6266 21.1306 16.3892 21.7197 16.3892 22.1244C16.3892 22.5294 16.2491 22.8608 16.0781 22.8608C15.9075 22.8608 15.6573 23.9775 15.5225 25.3423C15.3878 26.7071 15.1319 27.8238 14.9535 27.8238C14.4247 27.8238 14.5391 39.9438 15.0697 40.1366C15.4032 40.2576 15.5095 42.265 15.5095 48.4401C15.5095 54.616 15.4032 56.6225 15.0697 56.7432C14.5514 56.9302 14.4702 58.3653 14.9775 58.3653C15.169 58.3653 15.4265 59.0525 15.5504 59.8924C15.6742 60.7323 15.9136 61.4195 16.0825 61.4195C16.2514 61.4195 16.3892 61.6825 16.3892 62.004C16.3892 62.3258 16.6266 62.6877 16.9169 62.8083C17.2072 62.9294 17.4447 63.4394 17.4447 63.9418C17.4447 64.4992 17.6506 64.8554 17.9725 64.8554C18.2628 64.8554 18.5003 65.1131 18.5003 65.428C18.5003 65.743 18.6551 66.0007 18.8444 66.0007C19.0334 66.0007 20.1024 66.9773 21.2196 68.1711L23.2505 70.3418L23.1872 72.6179C23.1524 73.8697 22.97 74.9975 22.7818 75.1242C22.5939 75.2506 22.3274 76.1699 22.1894 77.1674C22.0518 78.165 21.7988 78.9808 21.6271 78.9808C21.4557 78.9808 21.3152 79.7417 21.3152 80.6717C21.3152 81.6654 21.0978 82.5981 20.7874 82.9348C20.4971 83.2498 20.2597 83.935 20.2597 84.4573C20.2597 84.9799 20.0739 85.4743 19.8473 85.5564C19.6157 85.64 19.3656 86.7426 19.2772 88.0696C19.1903 89.3699 18.9804 90.4339 18.8101 90.4339C18.6398 90.4339 18.4955 91.7655 18.4892 93.3926C18.4818 95.387 18.3097 96.593 17.9614 97.0923C17.6774 97.5001 17.4447 98.23 17.4447 98.7149C17.4447 99.1997 17.3038 99.5964 17.131 99.5964C16.9586 99.5964 16.7084 100.067 16.5754 100.642C16.4424 101.218 16.1767 101.794 15.9849 101.922C15.7931 102.051 15.6235 103.484 15.6081 105.106C15.5894 107.037 15.4159 108.234 15.1049 108.571C14.8026 108.899 14.6298 109.998 14.6298 111.595C14.6298 112.993 14.4758 114.104 14.2823 114.104C14.0909 114.104 13.8333 114.791 13.7094 115.631C13.5856 116.471 13.3462 117.158 13.1773 117.158C13.0084 117.158 12.8705 117.593 12.8705 118.124C12.8705 118.656 12.633 119.19 12.3427 119.31C12.0524 119.431 11.8149 119.908 11.8149 120.371C11.8149 120.833 11.5824 121.545 11.2985 121.952C10.9381 122.469 10.7784 123.704 10.7706 126.034C10.764 127.998 10.6143 129.374 10.4074 129.374C10.2139 129.374 10.0556 129.706 10.0556 130.111C10.0556 130.515 9.81803 131.105 9.52774 131.419C9.153 131.826 9 132.818 9 134.841C9 137.562 9.03976 137.701 9.87966 137.93C10.3635 138.062 10.7593 138.338 10.7593 138.544C10.7593 138.75 11.3926 138.919 12.1667 138.919C12.9408 138.919 13.5742 138.747 13.5742 138.537C13.5742 138.327 14.0493 138.155 14.6298 138.155C15.2104 138.155 15.6854 138.327 15.6854 138.537C15.6854 138.747 16.4771 138.919 17.4447 138.919C18.4124 138.919 19.204 139.09 19.204 139.3C19.204 139.51 20.0749 139.682 21.1393 139.682C22.2037 139.682 23.0746 139.51 23.0746 139.3C23.0746 139.09 23.3121 138.919 23.6024 138.919C23.9243 138.919 24.1302 138.562 24.1302 138.005C24.1302 137.503 24.3676 136.993 24.6579 136.872C25.0756 136.698 25.1857 135.899 25.1857 133.045C25.1857 130.767 25.328 129.387 25.5718 129.298C25.7917 129.219 26.0402 127.727 26.1492 125.831C26.2545 124 26.4764 122.503 26.6428 122.503C26.8089 122.503 26.9451 119.958 26.9451 116.849C26.9451 112.469 27.0616 111.028 27.4617 110.454C27.746 110.047 27.9835 109.155 27.9895 108.473C27.9959 107.79 28.1465 107.232 28.3249 107.232C28.5029 107.232 28.7531 106.716 28.8805 106.086C29.0079 105.457 29.2579 104.941 29.436 104.941C29.6144 104.941 29.7602 104.459 29.7602 103.869C29.7602 103.279 29.9926 102.463 30.2766 102.055C30.6362 101.54 30.7967 100.308 30.8044 98.0055C30.8122 95.7069 30.9501 94.6486 31.2556 94.5383C31.5603 94.4284 31.7323 93.1288 31.8153 90.3072C31.8815 88.0669 32.0792 86.2345 32.2551 86.2345C32.4311 86.2345 32.5751 85.5595 32.5751 84.7345C32.5751 83.9099 32.8126 82.9772 33.1029 82.6622C33.3932 82.3473 33.6307 81.6479 33.6307 81.1077C33.6307 80.5679 33.7783 80.1261 33.9588 80.1261C34.1393 80.1261 34.3927 79.7642 34.5222 79.3218C34.8705 78.131 35.8124 77.072 36.5236 77.072C36.8677 77.072 37.1493 76.9002 37.1493 76.6902C37.1493 76.478 38.0877 76.3085 39.2605 76.3085C40.4333 76.3085 41.3717 76.478 41.3717 76.6902C41.3717 76.9235 43.0138 77.072 45.5941 77.072H49.8164V78.2173C49.8164 78.8472 49.9747 79.3626 50.1683 79.3626C50.3618 79.3626 50.5202 79.7921 50.5202 80.317C50.5202 80.842 50.3618 81.2714 50.1683 81.2714C49.9698 81.2714 49.8164 82.353 49.8164 83.7529C49.8164 85.1178 49.9516 86.2345 50.1166 86.2345C50.2816 86.2345 50.5258 88.0811 50.6595 90.3385C50.7932 92.5959 51.0539 94.4998 51.239 94.5696C51.4244 94.6399 51.5757 95.2961 51.5757 96.0287C51.5757 96.761 51.8133 97.618 52.1036 97.933C52.3938 98.248 52.6314 98.837 52.6314 99.2417C52.6314 99.6468 52.3938 99.9781 52.1036 99.9781C51.7753 99.9781 51.5757 100.339 51.5757 100.933C51.5757 101.457 51.4385 101.887 51.271 101.887C51.1031 101.887 50.8917 105.528 50.8009 109.979C50.6848 115.653 50.5131 118.115 50.226 118.219C49.9428 118.321 49.8164 119.89 49.8164 123.31C49.8164 126.841 49.6654 128.645 49.2886 129.624C48.9983 130.378 48.7609 131.818 48.7609 132.825C48.7609 133.832 48.5863 134.719 48.3727 134.796C47.803 135.002 47.7552 140.524 48.321 140.73C48.5631 140.819 48.7609 141.134 48.7609 141.432C48.7609 141.73 48.9983 141.973 49.2886 141.973C49.5789 141.973 49.8164 142.157 49.8164 142.382C49.8164 143.879 52.7212 144.602 53.8429 143.385C54.1719 143.028 54.6674 142.736 54.9436 142.736C55.2201 142.736 55.4463 142.393 55.4463 141.973C55.4463 141.916 55.4451 141.863 55.4441 141.814C55.4401 141.626 55.4371 141.487 55.5015 141.384C55.6804 141.099 56.3792 141.089 59.0204 141.051C59.2696 141.047 59.5361 141.043 59.8211 141.039C62.4594 140.999 63.7123 140.836 63.8091 140.522C63.8865 140.27 64.1739 140.064 64.448 140.064C64.7224 140.064 64.9466 139.806 64.9466 139.491C64.9466 139.176 65.2053 138.919 65.5217 138.919C66.0269 138.919 66.0755 138.452 65.9253 135.063C65.8313 132.942 65.5906 131.095 65.3907 130.959C65.1912 130.822 64.9115 129.852 64.7697 128.802C64.4139 126.169 64.404 111.587 64.7552 107.543C65.0061 104.653 64.9653 104.143 64.4389 103.572C63.9122 103.001 63.8584 102.323 64.0185 98.2976C64.1198 95.7573 64.1997 91.4028 64.1962 88.6205C64.1919 85.2613 64.3169 83.5621 64.5681 83.5621C65.0287 83.5621 65.0998 76.0542 64.6413 75.8629C64.4735 75.7931 64.2252 75.3491 64.0898 74.8768C63.9065 74.2377 63.985 74.0178 64.3953 74.0178C64.802 74.0178 64.9466 73.6258 64.9466 72.5224C64.9466 71.7001 64.7851 70.969 64.5874 70.8973C64.189 70.7533 64.9343 68.6811 65.3864 68.6761C65.5314 68.6746 65.6503 67.5564 65.6503 66.1916C65.6503 64.8268 65.5149 63.7101 65.3488 63.7101C65.1831 63.7101 64.9512 62.2071 64.8337 60.3696C64.7158 58.5325 64.4276 53.9368 64.1929 50.1573C63.9579 46.3778 63.6194 43.1785 63.4403 43.0476C63.2612 42.917 63.0283 38.4931 62.9224 33.217C62.8168 27.941 62.5955 23.6243 62.4312 23.6243C62.2665 23.6243 62.1317 19.5199 62.1317 14.5031V5.38226L61.3063 5.1574C60.4263 4.91765 43.7288 4.96499 42.6912 5.21008ZM33.6307 24.0947C33.6307 23.9332 34.066 23.5083 34.5983 23.1502C34.7366 23.0572 34.8505 22.9754 34.9491 22.9045C35.1579 22.7545 35.2985 22.6535 35.4577 22.5994C35.7855 22.488 36.1928 22.5749 37.4383 22.8406C37.7242 22.9016 38.0543 22.9721 38.4377 23.0517C41.8937 23.769 42.6958 23.769 43.3573 23.0517C43.6476 22.7367 44.3488 22.479 44.9153 22.479C45.5968 22.479 45.9459 22.673 45.9459 23.0517C45.9459 23.3995 46.2732 23.6243 46.7795 23.6243C47.7584 23.6243 48.0468 24.8563 48.0532 29.0645C48.0553 30.5252 48.2095 31.6415 48.409 31.6415C48.9495 31.6415 48.8643 37.6486 48.321 37.8452C48.0307 37.9502 47.8812 38.8271 47.8812 40.4222C47.8812 42.0172 48.0307 42.8941 48.321 42.9991C48.8643 43.1957 48.9495 49.2029 48.409 49.2029C48.1919 49.2029 48.0571 51.1755 48.0571 54.3567C48.0571 57.538 48.1919 59.5106 48.409 59.5106C48.6025 59.5106 48.7609 59.7683 48.7609 60.0833C48.7609 60.3982 48.6025 60.6559 48.409 60.6559C48.2155 60.6559 48.0571 60.8884 48.0571 61.1728C48.0571 61.4573 47.6686 62.1444 47.1943 62.6999C46.2756 63.7754 44.3664 64.1041 44.0987 63.2329C44.0001 62.911 42.9019 62.7121 40.7267 62.6224C38.9526 62.5487 37.5012 62.3342 37.5012 62.1452C37.5012 61.9558 36.6303 61.8012 35.5659 61.8012C34.0803 61.8012 33.6307 61.6684 33.6307 61.2286C33.6307 60.9136 33.3932 60.6559 33.1029 60.6559C32.8126 60.6559 32.5751 60.3982 32.5751 60.0833C32.5751 59.7683 32.3952 59.5106 32.1756 59.5106C31.9557 59.5106 31.4092 59.0811 30.9606 58.5562C30.5123 58.0313 29.9005 57.6018 29.6011 57.6018C29.3013 57.6018 29.0564 57.4246 29.0564 57.2082C29.0564 56.9913 28.7795 56.7004 28.4407 56.5615C27.674 56.2461 26.9451 55.4845 26.9451 54.9973C26.9451 54.795 26.7075 54.5304 26.4173 54.4094C26.127 54.2888 25.8894 53.841 25.8894 53.4142C25.8894 52.9877 25.7495 52.6388 25.5785 52.6388C25.4078 52.6388 25.2002 51.49 25.1179 50.0863C25.0295 48.5825 24.796 47.4712 24.5494 47.3818C24.0385 47.197 23.9702 43.0946 24.4779 43.0946C24.6693 43.0946 24.9269 42.4074 25.0507 41.5675C25.1746 40.7276 25.3965 40.0404 25.5443 40.0404C25.6917 40.0404 25.9264 38.1506 26.0654 35.8409C26.2044 33.5312 26.4592 31.6415 26.6317 31.6415C26.8041 31.6415 26.9451 31.212 26.9451 30.6871C26.9451 30.093 27.1446 29.7326 27.4729 29.7326C27.7632 29.7326 28.0008 29.5486 28.0008 29.3238C28.0008 28.795 28.8958 27.8238 29.3832 27.8238C29.5904 27.8238 29.7602 27.5661 29.7602 27.2511C29.7602 26.9362 29.9977 26.6785 30.288 26.6785C30.5783 26.6785 30.8157 26.5101 30.8157 26.304C30.8157 26.0982 31.2116 25.8218 31.6954 25.6901C32.1792 25.5584 32.5751 25.2113 32.5751 24.9193C32.5751 24.6269 32.8126 24.3879 33.1029 24.3879C33.3932 24.3879 33.6307 24.2558 33.6307 24.0947Z" fill="black"/>
</svg>
